<svg width="296" height="292" viewBox="0 0 296 292" fill="none" xmlns="http://www.w3.org/2000/svg">
<path d="M268.546 143.437H220.573V180.443H268.546V143.437Z" fill="#EBEBEB"/>
<path d="M229.782 170.676H224V177.209H229.782V170.676Z" fill="white"/>
<path d="M253.914 143.53H248.464V151.423H253.914V143.53Z" fill="#FAFAFA"/>
<path d="M253.914 172.436H248.464V180.329H253.914V172.436Z" fill="#FAFAFA"/>
<path d="M232.543 180.695C232.457 180.695 232.39 172.555 232.39 162.517C232.39 152.479 232.456 144.34 232.543 144.34C232.629 144.34 232.696 152.479 232.696 162.517C232.696 172.555 232.629 180.695 232.543 180.695Z" fill="#E0E0E0"/>
<path d="M283.782 180.316H201.008V244.163H283.782V180.316Z" fill="#EBEBEB"/>
<path d="M216.896 227.32H206.924V238.592H216.896V227.32Z" fill="white"/>
<path d="M258.528 180.482H249.127V194.105H258.528V180.482Z" fill="#FAFAFA"/>
<path d="M258.528 230.347H249.127V243.97H258.528V230.347Z" fill="#FAFAFA"/>
<path d="M221.669 244.601C221.523 244.601 221.403 230.56 221.403 213.239C221.403 195.918 221.522 181.877 221.669 181.877C221.815 181.877 221.928 195.918 221.928 213.239C221.928 230.56 221.815 244.601 221.669 244.601Z" fill="#E0E0E0"/>
<path d="M281.153 47.5244L285.588 56.5064L295.5 57.9474L288.33 64.9447L290.023 74.817L281.153 70.1562L272.283 74.817L273.977 64.9447L266.807 57.9474L276.718 56.5064L281.153 47.5244Z" fill="#EBEBEB"/>
<path d="M17.1172 163.546L19.9119 169.209L26.1597 170.112L21.6385 174.52L22.7073 180.748L17.1172 177.807L11.5272 180.748L12.596 174.52L8.07471 170.112L14.3219 169.209L17.1172 163.546Z" fill="#EBEBEB"/>
<path d="M20.5831 114.212L26.7901 126.786L40.6655 128.805L30.6275 138.59L32.9977 152.413L20.5831 145.887L8.17479 152.413L10.545 138.59L0.5 128.805L14.3754 126.786L20.5831 114.212Z" fill="#EBEBEB"/>
<path d="M277.203 88.0947L279.878 93.5191L285.86 94.3884L281.532 98.6044L282.554 104.559L277.203 101.751L271.852 104.559L272.875 98.6044L268.546 94.3884L274.527 93.5191L277.203 88.0947Z" fill="#EBEBEB"/>
<path d="M189.424 0.29541L192.099 5.71276L198.081 6.58209L193.752 10.8044L194.775 16.7597L189.424 13.9446L184.072 16.7597L185.095 10.8044L180.767 6.58209L186.748 5.71276L189.424 0.29541Z" fill="#EBEBEB"/>
<path d="M250.614 58.2798L252.367 61.8253L256.284 62.3957L253.449 65.1579L254.119 69.0546L250.614 67.2159L247.116 69.0546L247.786 65.1579L244.951 62.3957L248.868 61.8253L250.614 58.2798Z" fill="#EBEBEB"/>
<path d="M89.0894 237.331L92.5017 244.236L100.124 245.344L94.6061 250.722L95.9139 258.317L89.0894 254.732L82.2712 258.317L83.5726 250.722L78.0552 245.344L85.6834 244.236L89.0894 237.331Z" fill="#EBEBEB"/>
<path d="M98.092 230.459L99.4993 233.314L102.653 233.772L100.369 235.997L100.907 239.137L98.092 237.649L95.2769 239.137L95.8148 235.997L93.5312 233.772L96.6848 233.314L98.092 230.459Z" fill="#EBEBEB"/>
<path d="M223.999 204.01L227 210.085L233.705 211.06L228.852 215.788L230.001 222.466L223.999 219.313L218.004 222.466L219.153 215.788L214.299 211.06L221.005 210.085L223.999 204.01Z" fill="#2F999B"/>
<path d="M238.306 198.626L239.72 201.488L242.874 201.946L240.59 204.176L241.128 207.324L238.306 205.837L235.478 207.324L236.023 204.176L233.732 201.946L236.892 201.488L238.306 198.626Z" fill="#2F999B"/>
<path d="M219.557 40.5207L221.921 33.178C220.355 30.0187 219.533 26.5293 219.533 23.0004C219.533 10.3639 229.781 0.116211 242.417 0.116211C255.054 0.116211 265.302 10.3639 265.302 23.0004C265.302 35.6368 255.054 45.8845 242.417 45.8845C241.73 45.8845 241.043 45.8539 240.358 45.7928C235.437 45.4582 230.775 43.4372 227.165 40.0816L227.165 40.0822L219.557 40.5207Z" fill="#FAFAFA"/>
<path d="M219.558 40.5205L220.063 40.4804L221.53 40.3739L227.166 39.989C229.959 42.5714 233.403 44.356 237.125 45.1418C238.271 45.3955 239.443 45.5631 240.616 45.6389L242.475 45.7122C243.099 45.7122 243.743 45.6389 244.387 45.6058C250.209 45.0768 255.612 42.3242 259.459 37.9246C261.626 35.4817 263.241 32.5857 264.179 29.4589C264.774 27.3825 265.081 25.2257 265.081 23.0633C265.081 21.7561 264.97 20.4489 264.751 19.1621C264.605 18.2826 264.397 17.4063 264.139 16.5529C264.021 16.122 263.877 15.6944 263.708 15.2795C263.542 14.8544 263.396 14.4299 263.217 14.0112C262.48 12.3267 261.54 10.7251 260.428 9.25857C259.874 8.52563 259.269 7.82839 258.627 7.17321C258.317 6.83925 257.981 6.52249 257.632 6.22995C257.293 5.93104 256.967 5.606 256.609 5.33386L255.521 4.52381L254.976 4.12547L254.392 3.78004L253.243 3.11593C252.852 2.89669 252.44 2.73098 252.042 2.5315C249.028 1.1045 245.724 0.363281 242.387 0.363281C238.975 0.363281 235.605 1.13764 232.538 2.62582C227.276 5.14967 223.185 9.61229 221.125 15.073C221.012 15.3783 220.906 15.6835 220.8 15.9825C220.68 16.2763 220.584 16.5828 220.514 16.8926C220.361 17.5031 220.215 18.1073 220.07 18.6981C219.869 19.8543 219.729 21.0257 219.659 22.1965C219.646 22.489 219.64 22.7962 219.64 23.0926C219.64 26.5845 220.444 30.0408 221.982 33.1727L220.203 38.6034L219.731 40.0106C219.625 40.3293 219.565 40.495 219.565 40.495C219.565 40.495 219.606 40.3421 219.705 40.0304L220.13 38.6365L221.836 33.1332V33.1861C220.239 30.0128 219.405 26.5017 219.405 22.9485C219.405 22.6872 219.411 22.4151 219.419 22.1563C219.478 20.9741 219.614 19.7848 219.809 18.6185C219.955 18.0213 220.108 17.4101 220.254 16.7925C220.326 16.4796 220.419 16.1698 220.534 15.8709C220.647 15.5656 220.753 15.2604 220.866 14.9481C224.211 5.96482 232.793 0 242.381 0C245.767 0 249.116 0.751418 252.177 2.19435C252.582 2.38682 253.001 2.55954 253.399 2.78516L254.567 3.4824L255.152 3.83421L255.709 4.23892L256.811 5.05534C257.176 5.34087 257.509 5.66591 257.853 5.96482C258.206 6.26246 258.544 6.58495 258.862 6.92146C259.513 7.58811 260.125 8.30193 260.686 9.04506C261.818 10.5173 262.78 12.1323 263.535 13.8315C263.714 14.2566 263.86 14.6944 264.026 15.1195C264.202 15.551 264.351 15.9978 264.471 16.4471C264.732 17.3164 264.939 18.2055 265.081 19.1016C265.303 20.4056 265.42 21.735 265.42 23.0588C265.42 25.2538 265.107 27.4456 264.498 29.552C263.556 32.7431 261.926 35.6901 259.725 38.1834C255.82 42.6218 250.346 45.4012 244.455 45.9245C243.791 45.9245 243.128 46.0175 242.516 46.0175L240.638 45.9379C239.455 45.8563 238.267 45.6791 237.111 45.4184C233.377 44.602 229.927 42.7773 227.153 40.1483H227.206L221.516 40.4472L220.069 40.5135C219.718 40.5192 219.558 40.5192 219.558 40.5192L219.558 40.5205Z" fill="#263238"/>
<path d="M229.43 22.1572L233.194 18.8909L239.534 25.4032L253.755 13.5596L256.762 17.3103L238.545 32.1417L229.43 22.1572Z" fill="#2F999B"/>
<path d="M180.169 203.725L52.8616 232.1C52.4435 232.195 52.0146 232.244 51.585 232.244C48.8974 232.244 46.5704 230.374 45.9905 227.751L4.70324 42.3599C4.6121 41.9501 4.56494 41.5301 4.56494 41.1094C4.56494 38.425 6.43106 36.1006 9.05178 35.5213L136.36 7.14709C136.77 7.05531 137.191 7.00879 137.612 7.00879C140.297 7.00879 142.623 8.87491 143.205 11.4963L184.519 196.888C184.61 197.297 184.657 197.717 184.657 198.137C184.657 200.822 182.791 203.146 180.171 203.726L180.169 203.725Z" fill="#E0E0E0"/>
<path d="M180.169 203.725L180.594 203.606C181.005 203.471 181.406 203.295 181.783 203.081C182.401 202.718 182.95 202.24 183.396 201.68C184.004 200.91 184.405 199.993 184.557 199.024C184.605 198.731 184.63 198.434 184.63 198.137C184.63 197.841 184.605 197.543 184.558 197.251C184.451 196.633 184.285 195.982 184.139 195.306C183.834 193.978 183.475 192.464 183.143 190.858C182.422 187.64 181.592 183.938 180.654 179.751C176.916 163.041 171.512 138.863 164.833 108.98C161.514 94.0432 157.849 77.6777 153.925 60.1051C151.969 51.3238 149.944 42.2507 147.851 32.8857C146.811 28.2032 145.753 23.4564 144.678 18.6451C144.133 16.2417 143.595 13.8186 143.044 11.382C142.431 8.89133 140.195 7.13929 137.63 7.13929C137.622 7.13929 137.615 7.13929 137.608 7.13929C136.984 7.15268 136.364 7.24254 135.762 7.40506L133.903 7.81678L130.165 8.6536L122.623 10.333L107.274 13.7587L75.6465 20.8286L9.09787 35.6467C6.53387 36.2145 4.70727 38.4905 4.70727 41.1169C4.70727 41.4369 4.73531 41.7574 4.78948 42.0729C5.39368 44.8944 6.0444 47.7229 6.66134 50.5374C7.91816 56.1587 9.16415 61.7462 10.3993 67.3012L17.7019 100.104C22.4953 121.607 27.116 142.321 31.5174 162.105C35.9189 181.889 40.0947 200.611 44.0117 218.21C44.4987 220.423 44.983 222.601 45.4655 224.743C45.7109 225.818 45.9301 226.907 46.1889 227.963C46.4687 229.002 47.0404 229.94 47.8358 230.664C48.6261 231.377 49.6024 231.857 50.6502 232.045C50.9676 232.096 51.2901 232.123 51.612 232.123C51.8159 232.123 52.0211 232.112 52.2238 232.092C52.742 232.026 53.2659 231.899 53.784 231.78L59.9649 230.406L83.4201 225.188L154.204 209.46L173.456 205.198L178.462 204.096L180.168 203.725L178.468 204.123L173.463 205.252L154.21 209.56L83.4392 225.381L60.0101 230.619L53.8293 232C53.3111 232.113 52.7936 232.246 52.2493 232.319C52.0441 232.339 51.8363 232.35 51.6298 232.35C51.2907 232.35 50.9498 232.322 50.6158 232.266C48.3749 231.877 46.5604 230.221 45.969 228.023C45.7032 226.954 45.4846 225.879 45.2386 224.803C44.7555 222.649 44.2686 220.471 43.7772 218.271C39.8601 200.697 35.6709 181.923 31.2631 162.165C26.8547 142.408 22.234 121.668 17.4342 100.165L10.1316 67.3688C8.89711 61.8182 7.65112 56.2262 6.39366 50.5922C5.76971 47.7771 5.12536 44.9626 4.51479 42.1143C4.45934 41.7868 4.43066 41.4528 4.43066 41.1207C4.43066 38.3668 6.34713 35.9819 9.03605 35.3892L75.5911 20.5514L107.239 13.5273L122.581 10.108L130.123 8.42862L133.867 7.55229L135.726 7.14057C136.34 6.98187 136.973 6.89647 137.605 6.88818C140.27 6.89392 142.594 8.70586 143.248 11.2896C143.792 13.7325 144.337 16.1493 144.875 18.5591C145.959 23.3748 147.026 28.1146 148.074 32.7799C150.15 42.1405 152.17 51.2142 154.136 59.9993C158.046 77.5725 161.684 93.9374 165.011 108.882C171.65 138.757 177.027 162.956 180.744 179.672C181.667 183.848 182.491 187.566 183.208 190.779C183.56 192.392 183.872 193.873 184.19 195.234C184.336 195.898 184.503 196.562 184.602 197.179C184.652 197.475 184.677 197.775 184.677 198.075C184.677 198.376 184.652 198.676 184.602 198.972C184.452 199.959 184.043 200.892 183.421 201.674C182.968 202.233 182.416 202.711 181.794 203.075C181.412 203.289 181.006 203.462 180.586 203.586L180.168 203.725L180.169 203.725Z" fill="#263238"/>
<path d="M59.3145 225.534L175.31 199.018L171.645 176.286L165.066 163.546L54.103 207.131L59.3145 225.534Z" fill="black" fill-opacity="0.301961"/>
<path d="M107.745 13.9448L112.133 21.1881L112.983 25.0319L110.009 25.696L107.745 13.9448Z" fill="black" fill-opacity="0.301961"/>
<path d="M11.3076 43.4352L51.5528 224.014L177.699 195.904L170.503 163.613L137.454 15.3198L11.3076 43.4352Z" fill="white"/>
<path d="M11.308 43.4347L137.447 15.2129H137.554V15.3257C148.747 65.5095 162.709 128.134 177.819 195.904V196.043H177.686L51.5468 224.146H51.4276V224.02C27.7334 117.385 11.5476 44.5169 11.3022 43.4417C11.5476 44.5437 27.8398 117.392 51.6736 224.02L51.5207 223.927L177.66 195.798L177.554 195.964C162.464 128.207 148.515 65.5821 137.342 15.3856L137.474 15.4716L11.3086 43.4347H11.308Z" fill="#263238"/>
<path d="M46.83 21.9487L102.461 9.55441C104.727 9.05027 106.973 10.4773 107.477 12.7424L110.69 27.1665L46.8428 41.3912L43.6319 26.9798C43.6312 26.976 43.6299 26.9709 43.6293 26.967C43.1245 24.702 44.5522 22.456 46.8173 21.9512C46.8211 21.9499 46.8262 21.9493 46.83 21.948H46.8294L46.83 21.9487Z" fill="#263238"/>
<path d="M81.2226 6.98779L64.9775 10.6059L69.9768 24.1092L82.2117 21.3807L81.2226 6.98779Z" fill="#263238"/>
<path d="M102.46 9.54324C102.46 9.61654 90.0386 12.4514 74.6833 15.8764C59.3274 19.3021 46.8528 22.0306 46.833 21.9579C46.8133 21.8846 59.2547 19.0497 74.6234 15.6247C89.9927 12.199 102.42 9.49034 102.46 9.54324Z" fill="#053738"/>
<path d="M47.6229 38.0908C47.5496 38.0908 46.9059 35.5013 46.1889 32.2751C45.4718 29.0483 44.9409 26.4129 45.0206 26.3932C45.1003 26.3734 45.7376 28.9827 46.4546 32.2152C47.1716 35.4484 47.6961 38.0908 47.6229 38.0908Z" fill="#053738"/>
<path d="M107.646 23.246C107.118 21.5131 106.664 19.7133 106.319 17.9325C105.881 16.1907 105.523 14.4074 105.269 12.6235C105.795 14.3514 106.244 16.1257 106.595 17.9007C107.036 19.6604 107.394 21.4506 107.648 23.2473H107.646V23.246Z" fill="#053738"/>
<path d="M105.116 26.3998C105.116 26.4731 92.363 29.3806 76.6017 32.8924C60.8404 36.4041 48.0542 39.1994 48.0211 39.1198C47.9879 39.0401 60.7678 36.1389 76.5686 32.6272C92.3694 29.1155 105.076 26.3272 105.116 26.3998Z" fill="#053738"/>
<path d="M71.5163 78.9269C71.5163 79.0066 62.9187 80.9848 52.2637 83.3615C41.6081 85.7381 33.0111 87.5902 32.9645 87.5175C32.918 87.4442 41.5953 85.4596 52.2172 83.0893C62.8396 80.7191 71.4966 78.8536 71.5163 78.9269Z" fill="#263238"/>
<path d="M135.722 71.6971C135.722 71.7768 113.236 76.8557 85.4653 83.0429C57.6947 89.2302 35.156 94.1899 35.1426 94.1166C35.1292 94.0433 57.622 88.958 85.406 82.7708C113.19 76.5835 135.71 71.6238 135.722 71.6971H135.722Z" fill="#263238"/>
<path d="M137.109 77.9241C137.109 77.9974 114.616 83.0757 86.8457 89.27C59.0751 95.4642 36.5427 100.417 36.523 100.337C36.5032 100.258 59.0088 95.1857 86.7864 88.9978C114.563 82.8106 137.089 77.8317 137.109 77.9241Z" fill="#263238"/>
<path d="M138.491 84.1116C138.491 84.1849 116.005 89.2632 88.234 95.4511C60.4634 101.638 37.9247 106.604 37.9043 106.525C37.8846 106.445 60.3901 101.373 88.1741 95.179C115.958 88.9847 138.471 84.0384 138.491 84.1116Z" fill="#263238"/>
<path d="M139.871 90.3188C139.871 90.3921 117.385 95.4704 89.6147 101.658C61.8441 107.846 39.3054 112.805 39.292 112.732C39.2786 112.659 61.7715 107.58 89.5555 101.386C117.339 95.1919 139.858 90.2392 139.872 90.3188H139.871Z" fill="#263238"/>
<path d="M141.258 96.5124C141.258 96.592 118.765 101.671 90.9946 107.858C63.224 114.045 40.6782 119.012 40.6782 118.939C40.6782 118.866 63.1641 113.787 90.9417 107.593C118.719 101.399 141.238 96.4461 141.258 96.5124Z" fill="#263238"/>
<path d="M60.1765 140.204C60.1497 140.138 60.1293 140.068 60.1172 139.998L59.9713 139.407C59.8451 138.869 59.666 138.119 59.4468 137.183C59.0019 135.265 58.3779 132.569 57.6342 129.342L57.7801 129.436L46.8925 131.878C46.8925 131.878 47.092 131.566 46.999 131.713V131.759V131.852L47.0391 132.038L47.1252 132.41L47.2845 133.147C47.3973 133.638 47.5037 134.123 47.6095 134.608C47.8218 135.564 48.0346 136.506 48.2335 137.423C48.6382 139.249 49.0168 140.974 49.3686 142.561L49.2226 142.468L57.0899 140.776L59.3269 140.311L59.9241 140.198L60.1364 140.158C60.1364 140.158 60.0835 140.158 59.9503 140.218L59.3862 140.358L57.1957 140.876L49.3093 142.755H49.1901V142.635L48.0346 137.504C47.8288 136.588 47.6165 135.644 47.3705 134.688C47.2641 134.204 47.1513 133.719 47.0455 133.228C46.9856 132.989 46.9327 132.736 46.8798 132.491L46.7937 132.119L46.7536 131.933V131.84V131.794V131.761C46.6605 131.914 46.8798 131.561 46.86 131.595L57.7546 129.185H57.8738V129.304L59.5863 137.271C59.7788 138.2 59.9318 138.944 60.0446 139.475C60.0911 139.714 60.1242 139.9 60.1574 140.052C60.1708 140.101 60.1778 140.152 60.1778 140.204V140.205V140.205L60.1765 140.204Z" fill="#263238"/>
<path d="M141.107 113.363L65.1479 130.286L66.5598 136.623L142.519 119.7L141.107 113.363Z" fill="#E0E0E0"/>
<path d="M64.3869 159.098C64.362 159.028 64.3423 158.957 64.3276 158.885C64.2874 158.732 64.2416 158.533 64.1817 158.294C64.0555 157.756 63.8764 157.013 63.6571 156.077C63.2123 154.152 62.5883 151.43 61.8445 148.229L61.9905 148.323L51.1029 150.765C51.1029 150.806 51.3024 150.453 51.2093 150.606V150.607V150.64V150.686V150.779L51.2495 150.966L51.3355 151.337C51.3884 151.589 51.442 151.835 51.5012 152.081L51.8199 153.535C52.0321 154.497 52.245 155.433 52.4438 156.35C52.8486 158.176 53.2271 159.902 53.5789 161.489L53.433 161.396L61.3066 159.709L63.5373 159.245L64.1345 159.125C64.204 159.106 64.2753 159.095 64.3474 159.092L64.1683 159.145L63.5972 159.285L61.4067 159.809L53.4865 161.635H53.3673V161.516L52.2119 156.384C52.006 155.468 51.7938 154.525 51.5478 153.569C51.4413 153.091 51.3285 152.6 51.2227 152.115C51.1698 151.87 51.1099 151.624 51.057 151.372L50.971 151L50.9308 150.814V150.721V150.641H50.9302L51.0366 150.468L61.9242 148.092H62.0434V148.205C62.747 151.477 63.371 154.18 63.7559 156.171C63.9484 157.101 64.1013 157.844 64.2142 158.375C64.2607 158.614 64.2938 158.8 64.327 158.953C64.3531 158.999 64.3735 159.048 64.3869 159.099V159.098Z" fill="#263238"/>
<path d="M145.312 132.258L69.3535 149.181L70.7654 155.518L146.724 138.595L145.312 132.258Z" fill="#E0E0E0"/>
<path d="M68.5951 177.986C68.5951 177.986 68.5951 177.906 68.5352 177.773C68.4753 177.641 68.4492 177.422 68.3893 177.183C68.2631 176.645 68.084 175.902 67.8647 174.965C67.4199 173.047 66.7959 170.318 66.0521 167.118L66.1981 167.211L55.2837 169.654C55.2837 169.695 55.4832 169.342 55.3902 169.495V169.542V169.588V169.681L55.4303 169.867L55.5164 170.239C55.5692 170.491 55.6228 170.737 55.6821 170.983L56.0007 172.436C56.213 173.399 56.4258 174.335 56.6247 175.252L57.7598 180.39L57.6138 180.304L65.4875 178.612L67.7181 178.147L68.3153 178.028C68.351 178.024 68.3861 178.022 68.4218 178.022C68.4574 178.022 68.4925 178.024 68.5282 178.028L68.3491 178.081L67.778 178.22L65.5875 178.745L57.6674 180.571H57.5482V180.452C57.1964 178.872 56.8044 177.132 56.3927 175.32C56.1868 174.404 55.9746 173.468 55.7286 172.505C55.6221 172.027 55.5093 171.542 55.4035 171.051C55.3506 170.806 55.2907 170.559 55.2378 170.314L55.1582 169.943L55.1116 169.756V169.657L55.111 169.544C55.018 169.69 55.2372 169.338 55.2174 169.379L66.1121 166.969H66.2312V167.088L67.9438 175.055C68.1362 175.984 68.2892 176.728 68.402 177.266C68.4485 177.498 68.488 177.684 68.5148 177.837C68.5486 177.883 68.5754 177.935 68.5951 177.989V177.986Z" fill="#263238"/>
<path d="M149.526 151.152L73.5669 168.075L74.9788 174.412L150.938 157.489L149.526 151.152Z" fill="#E0E0E0"/>
<path d="M49.7144 136.307L50.8565 134.508L54.2484 136.394L58.6167 129.808L60.303 130.976L54.6735 139.275L49.7144 136.307Z" fill="#2F999B"/>
<path d="M53.7837 154.564L54.9258 152.765L58.3183 154.65L62.6803 148.064L64.373 149.233L58.7364 157.524L53.7837 154.564Z" fill="#2F999B"/>
<path d="M57.96 173.279L59.1021 171.486L62.4882 173.372L66.8565 166.786L68.5429 167.948L62.9127 176.247L57.96 173.279Z" fill="#2F999B"/>
<path d="M92.7279 196.761C92.7279 196.84 86.3278 198.334 78.4012 200.08C70.4747 201.826 64.0344 203.214 64.021 203.14C64.0076 203.067 70.4141 201.574 78.3413 199.821C86.2685 198.068 92.7081 196.694 92.7279 196.761Z" fill="#263238"/>
<path d="M107.028 193.348C105.304 193.877 103.533 194.33 101.76 194.674C100.011 195.107 98.2331 195.464 96.4492 195.721C98.17 195.189 99.9405 194.736 101.711 194.387C104.625 193.746 107.015 193.275 107.028 193.348V193.348Z" fill="#263238"/>
<path d="M154.39 178.444C154.39 178.517 148.634 179.872 141.504 181.458C134.373 183.044 128.571 184.273 128.558 184.2C128.544 184.127 134.307 182.779 141.444 181.186C148.581 179.593 154.377 178.371 154.39 178.444Z" fill="#263238"/>
<path d="M148.229 195.917C148.229 195.917 148.289 195.738 148.355 195.393C148.389 195.198 148.406 195 148.406 194.802C148.406 194.483 148.362 194.165 148.276 193.859C148.041 193.071 147.731 192.303 147.359 191.569C146.831 190.594 146.52 189.515 146.45 188.408C146.482 187.031 147.095 185.73 148.137 184.83C148.961 184.145 150 183.771 151.071 183.771C151.572 183.771 152.071 183.853 152.545 184.013C153.36 184.261 154.09 184.739 154.643 185.387C154.938 185.737 155.112 186.173 155.14 186.629C155.141 186.64 155.141 186.653 155.141 186.664C155.141 187.155 154.828 187.592 154.364 187.751C153.931 187.891 153.485 188 153.037 188.076L151.709 188.348C150.819 188.527 149.916 188.686 148.987 188.806C148.053 188.939 147.1 189.01 146.152 189.01C145.287 189.01 144.414 188.952 143.558 188.841C143.328 188.791 143.093 188.765 142.858 188.765C142.266 188.765 141.684 188.924 141.173 189.225C140.603 189.799 140.119 190.455 139.739 191.17C139.509 191.522 139.187 191.807 138.81 191.993C138.597 192.087 138.366 192.136 138.134 192.136C137.951 192.136 137.769 192.106 137.595 192.046C136.913 191.744 136.263 191.368 135.657 190.931C135.376 190.744 135.055 190.623 134.721 190.579C134.672 190.573 134.623 190.571 134.574 190.571C134.31 190.571 134.051 190.65 133.832 190.798C133.373 191.218 132.992 191.718 132.709 192.272C132.097 193.237 131.05 193.842 129.908 193.892C129.864 193.893 129.82 193.895 129.776 193.895C128.97 193.895 128.19 193.6 127.585 193.069C127.183 192.721 126.866 192.284 126.662 191.793C126.59 191.626 126.539 191.45 126.509 191.269C126.48 191.089 126.569 191.448 126.715 191.774C126.93 192.243 127.251 192.657 127.652 192.983C128.231 193.473 128.968 193.744 129.728 193.744C129.783 193.744 129.84 193.742 129.896 193.739C130.985 193.683 131.978 193.095 132.551 192.165C132.842 191.585 133.239 191.062 133.719 190.624C133.98 190.443 134.291 190.346 134.609 190.346C134.658 190.346 134.707 190.348 134.755 190.353C135.117 190.406 135.467 190.536 135.777 190.731C136.372 191.153 137.01 191.517 137.676 191.814C137.824 191.863 137.98 191.89 138.137 191.89C138.337 191.89 138.535 191.848 138.718 191.768C139.056 191.6 139.34 191.34 139.535 191.018C139.929 190.284 140.431 189.612 141.022 189.027C141.389 188.765 141.82 188.603 142.269 188.561C142.489 188.538 142.712 188.526 142.934 188.526C143.155 188.526 143.377 188.538 143.598 188.561C144.447 188.671 145.306 188.726 146.161 188.726C147.099 188.726 148.041 188.658 148.969 188.527C149.885 188.408 150.782 188.241 151.671 188.069L152.999 187.803C153.424 187.725 153.846 187.621 154.259 187.493C154.624 187.377 154.871 187.038 154.871 186.656C154.871 186.647 154.871 186.637 154.87 186.628C154.84 186.231 154.687 185.853 154.432 185.547C153.909 184.924 153.216 184.463 152.44 184.219C151.987 184.065 151.51 183.986 151.031 183.986C150.021 183.986 149.039 184.336 148.257 184.976C147.257 185.827 146.664 187.062 146.625 188.375C146.684 189.456 146.976 190.515 147.475 191.475C147.84 192.219 148.138 192.999 148.357 193.799C148.429 194.079 148.464 194.367 148.464 194.655C148.464 194.893 148.44 195.133 148.391 195.367C148.36 195.555 148.306 195.741 148.232 195.917H148.229Z" fill="#263238"/>
<path d="M161.951 187.42C161.84 187.465 161.724 187.501 161.606 187.526L160.597 187.765L156.892 188.622C153.772 189.352 149.456 190.375 144.709 191.576C139.963 192.777 135.68 193.939 132.594 194.789L128.929 195.798L127.927 196.064C127.812 196.1 127.694 196.127 127.575 196.144C127.682 196.086 127.795 196.041 127.913 196.011L128.896 195.699C129.752 195.427 130.994 195.035 132.534 194.603C135.621 193.7 139.89 192.512 144.643 191.284C149.396 190.056 153.712 189.087 156.852 188.416C158.419 188.078 159.693 187.812 160.577 187.639L161.592 187.447C161.7 187.429 161.809 187.42 161.918 187.42C161.929 187.42 161.94 187.42 161.951 187.42Z" fill="#263238"/>
<path d="M107.498 41.7473L55.9365 53.2349L58.0949 62.9226L109.656 51.435L107.498 41.7473Z" fill="#E0E0E0"/>
<path d="M156.276 198.958L172.933 286.964L188.155 258.835L217.008 275.771L186.383 190.076L156.276 198.958Z" fill="#2F999B"/>
<path d="M161.878 228.554C162.485 228.668 163.105 228.726 163.722 228.726C166.348 228.726 168.871 227.688 170.735 225.838C172.255 224.272 173.264 222.134 175.176 221.085C176.896 220.143 179.014 220.275 180.906 220.8C182.798 221.324 184.577 222.194 186.469 222.685C187.638 222.982 188.845 223.135 190.054 223.135C192.702 223.135 195.305 222.41 197.57 221.04L192.764 207.696L170.457 204.908L159.834 217.688L161.878 228.555V228.554Z" fill="black" fill-opacity="0.090196"/>
<path d="M187.074 255.342C186.981 255.342 184.498 246.22 181.53 234.928C178.563 223.635 176.219 214.447 176.325 214.427C176.432 214.407 178.894 223.536 181.862 234.841C184.829 246.147 187.166 255.316 187.073 255.342H187.074Z" fill="#263238"/>
<path d="M158.712 203.532L142.055 291.537L126.832 263.415L97.979 280.344L128.604 194.649L158.712 203.532Z" fill="#2F999B"/>
<path d="M119.443 220.282C119.443 220.282 124.183 224.179 129.833 222.387C135.483 220.594 138.994 220.209 142.055 222.387C145.115 224.564 153.394 231.648 153.394 231.648L155.313 221.497L144.193 206.228L132.588 208.571L124.329 209.375L121.255 215.197L119.443 220.282Z" fill="black" fill-opacity="0.090196"/>
<path d="M256.377 124.091C256.377 130.404 248.311 135.841 247.129 141.81C245.915 147.958 251.266 156.064 248.922 161.727C246.579 167.389 236.972 169.421 233.566 174.54C230.16 179.658 231.953 189.245 227.591 193.613C223.229 197.982 213.65 196.143 208.518 199.588C203.386 203.034 201.46 212.554 195.705 214.944C190.048 217.288 181.942 211.937 175.788 213.151C169.813 214.333 164.382 222.399 158.069 222.399C151.755 222.399 146.311 214.333 140.343 213.151C134.195 211.937 126.089 217.288 120.426 214.944C114.763 212.601 112.738 202.994 107.619 199.588C102.501 196.182 92.914 197.975 88.5393 193.613C84.164 189.251 86.0097 179.672 82.5643 174.54C79.1189 169.408 69.5983 167.482 67.2153 161.727C64.8317 155.971 70.2229 147.964 69.0082 141.81C67.8265 135.835 59.7534 130.404 59.7534 124.091C59.7534 117.777 67.8265 112.333 69.0082 106.365C70.2229 100.217 64.8655 92.1105 67.2153 86.4478C69.5652 80.7851 79.1654 78.7533 82.5643 73.6412C85.9632 68.5291 84.1774 58.936 88.5393 54.5613C92.9012 50.186 102.481 52.0317 107.619 48.5863C112.757 45.1408 114.67 35.6203 120.426 33.2373C126.182 30.8537 134.188 36.2449 140.343 35.0301C146.318 33.8485 151.755 25.7754 158.069 25.7754C164.382 25.7754 169.819 33.8485 175.788 35.0301C181.936 36.2449 190.042 30.8875 195.705 33.2373C201.46 35.6209 203.399 45.1874 208.518 48.5863C213.636 51.9852 223.223 50.1994 227.591 54.5613C231.96 58.9232 230.121 68.503 233.566 73.6412C237.012 78.7794 246.532 80.692 248.922 86.4478C251.312 92.2036 245.915 100.21 247.129 106.365C248.311 112.333 256.377 117.757 256.377 124.091Z" fill="#2F999B"/>
<path d="M135.064 68.9824C135.064 68.9824 134.991 68.8963 134.885 68.7102C134.778 68.5241 134.613 68.2259 134.434 67.9002C134.042 67.1966 133.504 66.1609 132.867 64.8728C131.586 62.2967 129.926 58.6722 128.326 54.5824C126.726 50.4926 125.498 46.6954 124.694 43.96C124.296 42.5725 123.991 41.4508 123.798 40.6407C123.712 40.2819 123.639 39.9766 123.586 39.7376C123.552 39.635 123.534 39.5273 123.533 39.4189C123.585 39.5158 123.625 39.6184 123.652 39.7242L123.925 40.6069C124.183 41.4234 124.522 42.5253 124.927 43.8599C125.79 46.6017 127.058 50.3658 128.645 54.4824C130.232 58.5983 131.864 62.1903 133.086 64.7925L134.553 67.8664L134.945 68.7032C134.994 68.7918 135.034 68.8855 135.065 68.9817H135.065L135.064 68.9824Z" fill="#263238"/>
<path d="M143.815 65.6556C143.699 65.4242 143.612 65.1782 143.556 64.9252C143.417 64.4472 143.231 63.75 143.012 62.887C142.574 61.1675 142.029 58.7641 141.538 56.0956C141.047 53.427 140.701 50.9905 140.502 49.2245C140.396 48.3417 140.33 47.6247 140.29 47.1263C140.275 46.9989 140.267 46.8701 140.267 46.7414C140.267 46.6127 140.275 46.4839 140.29 46.3564C140.366 46.6025 140.418 46.8568 140.443 47.113L140.762 49.1907C141.027 50.9497 141.426 53.3735 141.897 56.0357C142.368 58.6978 142.893 61.1012 143.264 62.8341C143.444 63.6442 143.59 64.3344 143.709 64.8921C143.769 65.1425 143.806 65.3988 143.815 65.6562V65.6556Z" fill="#263238"/>
<path d="M159.249 64.1218C159.15 64.1218 158.904 56.6733 158.698 47.4912C158.492 38.3097 158.399 30.8542 158.492 30.8472C158.585 30.8408 158.838 38.2893 159.043 47.4842C159.249 56.679 159.342 64.1212 159.249 64.1212V64.1218Z" fill="#263238"/>
<path d="M174.785 48.819C174.878 48.819 173.802 52.5697 172.388 57.1375C170.974 61.7053 169.732 65.3763 169.666 65.3496C169.6 65.3228 170.649 61.5988 172.062 57.0311C173.477 52.4633 174.685 48.7922 174.785 48.819Z" fill="#263238"/>
<path d="M181.119 68.0652C181.131 67.9556 181.161 67.8479 181.205 67.7466L181.504 66.8702C181.769 66.1137 182.168 65.0245 182.699 63.6836C183.741 61.0278 185.228 57.3166 186.927 53.267C188.627 49.2173 190.207 45.5724 191.369 42.9434C191.94 41.6687 192.411 40.6197 192.77 39.8364L193.162 38.9996C193.261 38.8135 193.315 38.714 193.327 38.7211C193.303 38.8256 193.269 38.9275 193.228 39.0263L192.89 39.8893L191.595 43.0428C190.46 45.7381 188.939 49.376 187.247 53.4059C185.554 57.4358 184.054 61.0737 182.925 63.776L181.63 66.9225L181.265 67.7721C181.229 67.8753 181.179 67.9735 181.119 68.0646V68.0652Z" fill="#263238"/>
<path d="M189.39 72.3944C189.491 72.1599 189.618 71.9362 189.769 71.7303C190.034 71.3052 190.433 70.701 190.924 69.9643C191.92 68.4971 193.354 66.4921 195.02 64.3544C196.687 62.2168 198.287 60.3711 199.468 59.0435C200.059 58.3794 200.551 57.8549 200.896 57.4967C201.062 57.2979 201.252 57.1194 201.46 56.9658C201.332 57.1927 201.175 57.4018 200.995 57.5898C200.636 58.0276 200.185 58.5655 199.667 59.2029C198.532 60.5706 196.972 62.4628 195.305 64.6005C193.639 66.7381 192.185 68.71 191.136 70.144L189.894 71.8368C189.746 72.0394 189.577 72.2268 189.39 72.3944Z" fill="#263238"/>
<path d="M201.486 82.2855C201.42 82.2192 206.678 77.2269 213.217 71.1385C219.757 65.0506 225.121 60.1712 225.167 60.2375C225.214 60.3038 219.983 65.303 213.436 71.3909C206.89 77.4787 201.553 82.3588 201.486 82.2855Z" fill="#263238"/>
<path d="M222.585 84.3506C221.946 84.754 221.277 85.1224 220.594 85.4404C219.346 86.1045 217.652 87.0274 215.78 88.0962C213.909 89.165 212.182 90.0547 210.901 90.6519C210.237 90.9508 209.746 91.1828 209.374 91.316C209.192 91.4097 208.997 91.4773 208.796 91.5142C209.435 91.1102 210.103 90.7424 210.787 90.4244C212.035 89.7603 213.728 88.8374 215.6 87.7686C217.472 86.6998 219.198 85.7769 220.48 85.2129C221.144 84.914 221.635 84.682 222.007 84.5488C222.188 84.4526 222.383 84.385 222.585 84.3506Z" fill="#263238"/>
<path d="M242.097 92.4439C242.13 92.537 235.876 94.8205 228.155 97.549C220.434 100.277 214.107 102.409 214.081 102.323C214.054 102.237 220.295 99.946 228.022 97.2176C235.75 94.4891 242.064 92.3579 242.097 92.4439Z" fill="#263238"/>
<path d="M248.311 127.942C248.311 128.035 241.506 127.47 233.134 126.673C224.762 125.877 217.977 125.153 217.991 125.053C218.004 124.954 224.789 125.531 233.168 126.328C241.546 127.124 248.318 127.848 248.311 127.941V127.942Z" fill="#263238"/>
<path d="M243.311 159.782C243.271 159.868 236.918 156.947 229.124 153.269C221.33 149.591 215.043 146.53 215.083 146.444C215.123 146.358 221.476 149.272 229.27 152.957C237.064 156.642 243.351 159.696 243.311 159.782Z" fill="#263238"/>
<path d="M222.412 190.075C222.338 190.135 217.764 184.817 212.181 178.205C206.598 171.593 202.137 166.169 202.223 166.109C202.309 166.049 206.87 171.361 212.453 177.979C218.036 184.598 222.485 190.009 222.412 190.075Z" fill="#263238"/>
<path d="M204.966 194.105C204.76 193.875 204.575 193.626 204.415 193.361C204.076 192.87 203.598 192.147 203.027 191.25C201.872 189.451 200.325 186.935 198.692 184.113C197.059 181.292 195.665 178.689 194.709 176.81C194.224 175.861 193.832 175.091 193.58 174.553C193.43 174.28 193.305 173.992 193.208 173.696C193.395 173.944 193.561 174.209 193.699 174.487C194.018 175.071 194.43 175.814 194.927 176.698C195.957 178.563 197.391 181.139 199.017 183.961C200.644 186.782 202.157 189.312 203.259 191.137C203.777 192.013 204.215 192.737 204.554 193.308C204.719 193.557 204.858 193.825 204.965 194.105H204.965L204.966 194.105Z" fill="#263238"/>
<path d="M194.131 209.308C194.131 209.308 194.065 209.222 193.958 209.036L193.527 208.226C193.148 207.515 192.637 206.48 192.027 205.192C190.805 202.61 189.232 198.984 187.738 194.882C186.244 190.779 185.115 186.995 184.419 184.259C184.053 182.878 183.755 181.75 183.609 180.973C183.535 180.615 183.476 180.309 183.423 180.07C183.396 179.966 183.38 179.859 183.376 179.751C183.43 179.846 183.468 179.949 183.489 180.057L183.741 180.94C183.974 181.763 184.279 182.858 184.651 184.193C185.434 186.934 186.596 190.705 188.09 194.815C189.584 198.925 191.111 202.529 192.279 205.139L193.673 208.212C193.819 208.545 193.946 208.824 194.051 209.049C194.089 209.131 194.116 209.219 194.132 209.308H194.131Z" fill="#263238"/>
<path d="M172.182 198.626C172.04 197.864 171.943 197.089 171.897 196.316C171.745 194.888 171.499 192.917 171.141 190.759C170.783 188.602 170.364 186.663 170.045 185.262C169.84 184.514 169.675 183.747 169.567 182.979C169.666 183.163 169.741 183.36 169.792 183.562C169.925 183.947 170.091 184.505 170.284 185.202C170.662 186.59 171.114 188.521 171.479 190.706C171.791 192.543 172.023 194.428 172.143 196.293C172.189 197.01 172.216 197.621 172.216 197.999C172.221 198.065 172.223 198.128 172.223 198.192C172.223 198.337 172.209 198.483 172.182 198.626V198.626Z" fill="#263238"/>
<path d="M157.823 217.74C157.815 217.684 157.811 217.626 157.811 217.57C157.811 217.514 157.815 217.457 157.823 217.401C157.823 217.135 157.823 216.81 157.823 216.425C157.823 215.575 157.823 214.347 157.823 212.834C157.875 209.8 158.015 205.617 158.254 201.003C158.493 196.388 158.792 192.206 159.037 189.185C159.156 187.672 159.27 186.45 159.356 185.607C159.402 185.222 159.436 184.896 159.462 184.637C159.471 184.522 159.493 184.408 159.529 184.299C159.536 184.356 159.541 184.414 159.541 184.472C159.541 184.53 159.537 184.587 159.529 184.644C159.529 184.903 159.529 185.229 159.482 185.62C159.429 186.516 159.363 187.725 159.276 189.199C159.097 192.273 158.858 196.429 158.612 201.016C158.367 205.604 158.194 209.813 158.081 212.84C158.028 214.314 157.982 215.496 157.949 216.425C157.949 216.817 157.909 217.136 157.896 217.401C157.889 217.516 157.864 217.631 157.823 217.739V217.74H157.823Z" fill="#263238"/>
<path d="M146.151 184.3C146.147 184.871 146.079 185.442 145.952 185.999C145.779 187.035 145.5 188.462 145.135 190.022C144.77 191.583 144.385 192.99 144.08 194.006C143.949 194.561 143.754 195.101 143.502 195.612C143.561 195.046 143.676 194.483 143.841 193.939L144.797 189.956C145.142 188.462 145.461 187.107 145.713 185.972C145.804 185.403 145.952 184.841 146.151 184.3Z" fill="#263238"/>
<path d="M125.047 174.188C124.183 175.62 123.207 177.004 122.148 178.305C121.175 179.67 120.104 180.984 118.965 182.212C119.83 180.777 120.805 179.397 121.866 178.098C122.835 176.729 123.903 175.412 125.049 174.186L125.047 174.187L125.047 174.188Z" fill="#263238"/>
<path d="M113.979 166.726C114.045 166.786 109.93 171.625 104.778 177.528C99.6264 183.43 95.3837 188.15 95.311 188.104C95.2377 188.057 99.3606 183.205 104.512 177.302C109.664 171.4 113.907 166.66 113.979 166.726Z" fill="#263238"/>
<path d="M108.435 158.487C106.814 160.054 105.09 161.546 103.318 162.934C100.43 165.311 98.0405 167.184 98.0073 167.11C99.6287 165.549 101.351 164.054 103.121 162.672C104.814 161.194 106.603 159.782 108.433 158.486L108.435 158.487Z" fill="#263238"/>
<path d="M101.956 146.066C101.996 146.152 96.2598 149.007 89.1357 152.433C82.0122 155.859 76.2162 158.574 76.1697 158.488C76.1232 158.402 81.8656 155.553 88.9897 152.121C96.1132 148.689 101.916 145.98 101.956 146.066Z" fill="#263238"/>
<path d="M99.3532 139.872C99.1633 139.955 98.9613 140.013 98.756 140.044C98.3641 140.137 97.8 140.256 97.1028 140.382C95.7019 140.648 93.7504 140.94 91.586 141.159C89.4216 141.379 87.4497 141.472 86.0227 141.491C85.3121 141.491 84.7347 141.491 84.3363 141.491C84.2949 141.494 84.2528 141.495 84.2114 141.495C84.0451 141.495 83.8794 141.474 83.7188 141.431C84.481 141.328 85.2496 141.268 86.0157 141.254C87.4363 141.168 89.3949 141.034 91.5522 140.816C93.7096 140.597 95.6548 140.344 97.0626 140.152C97.8172 140.006 98.5865 139.909 99.3539 139.871L99.3532 139.872Z" fill="#263238"/>
<path d="M97.2486 125.565C97.0555 125.58 96.8617 125.589 96.668 125.589C96.4742 125.589 96.2805 125.581 96.0874 125.565L92.9274 125.406C90.2717 125.273 86.5809 125.153 82.5108 125.173C78.4415 125.193 74.75 125.359 72.0879 125.518L68.9343 125.711C68.6596 125.742 68.3811 125.758 68.1039 125.758C67.9943 125.758 67.8808 125.756 67.7725 125.751C68.1491 125.661 68.5347 125.602 68.9209 125.578C69.6647 125.492 70.7399 125.385 72.0675 125.272C74.7232 125.053 78.4274 124.854 82.5038 124.828C86.5802 124.801 90.278 124.967 92.9466 125.16C94.2741 125.259 95.3563 125.352 96.1001 125.432C96.4838 125.449 96.8706 125.494 97.2486 125.564H97.2479L97.2486 125.565Z" fill="#263238"/>
<path d="M98.5503 113.004C98.5503 113.097 94.2285 111.974 88.9501 110.501C83.6724 109.027 79.4169 107.765 79.443 107.673C79.4698 107.58 83.7648 108.695 89.0432 110.169C94.3209 111.643 98.5764 112.911 98.5503 113.004V113.004Z" fill="#263238"/>
<path d="M101.332 102.488C101.225 102.482 101.12 102.46 101.02 102.422L100.137 102.156C99.381 101.917 98.2854 101.546 96.9508 101.061C93.4843 99.7911 90.0268 98.315 86.712 96.6834C83.3889 95.0531 80.1245 93.2169 77.0009 91.2406C75.7996 90.477 74.8365 89.8397 74.1858 89.3815L73.4421 88.8436C73.2763 88.7174 73.1897 88.6511 73.1967 88.6377C73.2967 88.6721 73.393 88.7237 73.4822 88.7843L74.2655 89.2623C74.9296 89.6874 75.9117 90.2916 77.1271 91.0283C79.5637 92.5025 82.976 94.4476 86.8663 96.3393C90.7565 98.2315 94.3817 99.7713 97.0368 100.807C98.3644 101.318 99.4332 101.723 100.183 102.002L101.04 102.327C101.141 102.372 101.239 102.425 101.332 102.486H101.332V102.488Z" fill="#263238"/>
<path d="M107.579 91.8661C107.526 91.9394 104.167 89.6686 100.077 86.7872C95.9871 83.9058 92.7143 81.5094 92.7742 81.4298C92.8342 81.3501 96.1865 83.6273 100.283 86.5087C104.379 89.3901 107.632 91.8069 107.579 91.8661Z" fill="#263238"/>
<path d="M94.3745 59.6143C94.3745 59.6143 94.4676 59.6672 94.6269 59.7933L95.291 60.3778L97.7409 62.5422L105.781 69.7186L113.854 76.8555L116.297 79.0262L116.961 79.6304C117.041 79.6967 117.113 79.7725 117.174 79.856C117.234 79.9395 117.081 79.8095 116.915 79.6833L116.251 79.132C115.647 78.6476 114.79 77.9306 113.735 77.0409C111.623 75.2615 108.743 72.772 105.589 69.9773C102.436 67.1826 99.614 64.6065 97.6224 62.7213C96.6135 61.7786 95.8034 61.0151 95.2457 60.4708L94.6148 59.8469C94.4555 59.7009 94.3624 59.6213 94.3758 59.6143H94.3745Z" fill="#263238"/>
<path d="M115.081 60.2186C115.081 60.2186 115.26 60.3645 115.532 60.6768C115.804 60.9891 116.196 61.4467 116.654 62.0044C117.577 63.1599 118.805 64.7927 120.079 66.6518C121.354 68.5109 122.423 70.2502 123.16 71.5313C123.531 72.1954 123.824 72.6931 124.009 73.0583C124.124 73.2393 124.214 73.4363 124.275 73.6421C123.79 73.0099 123.345 72.3426 122.947 71.6504C122.157 70.4025 121.055 68.6964 119.788 66.8373C118.52 64.9782 117.324 63.3383 116.468 62.1503C115.971 61.5359 115.501 60.8852 115.08 60.2173L115.08 60.2186H115.081Z" fill="#263238"/>
<path d="M88.5451 54.5684L117.431 79.856L124.607 74.1136L107.851 48.4341C107.851 48.4341 106.563 49.3767 103.203 50.3327C99.9967 51.2556 90.4698 51.5009 88.5444 54.5684H88.5451Z" fill="black" fill-opacity="0.2"/>
<path d="M120.697 33.178L134.798 68.4769L143.814 65.6554L140.806 35.0365C140.806 35.0365 139.26 35.4017 135.814 34.9632C132.475 34.5381 124.382 31.3718 120.697 33.1774V33.178Z" fill="black" fill-opacity="0.2"/>
<path d="M158.301 25.7892L159.25 64.1224L167.695 64.5271L176.246 35.1032C174.473 34.7508 172.778 34.0503 171.274 33.0459C168.353 31.1728 162.391 25.4769 158.301 25.7892H158.301Z" fill="black" fill-opacity="0.301961"/>
<path d="M195.133 33.0317L181.118 68.3707L188.727 72.0156L208.012 48.2086C206.563 46.9856 205.325 45.5261 204.355 43.8996C202.535 40.9595 199.402 34.2076 195.133 33.0324V33.0317Z" fill="black" fill-opacity="0.2"/>
<path d="M228.048 55.0801L201.944 82.2994L207.76 90.1399L233.266 73.1179C232.427 71.5737 231.857 69.8879 231.586 68.1518C230.976 64.8326 230.89 58.8047 228.048 55.0801Z" fill="black" fill-opacity="0.2"/>
<path d="M248.656 85.791L213.503 100.257L216.418 109.24L247.004 105.921C247.004 105.921 246.811 104.978 247.216 101.533C247.601 98.1929 251.133 90.731 248.656 85.7917V85.791Z" fill="black" fill-opacity="0.2"/>
<path d="M256.444 124.091L218.117 125.418L217.799 133.869L247.01 142.421C247.202 141.206 247.596 140.024 248.165 138.934C250.342 134.873 256.444 129.137 256.444 124.091Z" fill="black" fill-opacity="0.2"/>
<path d="M249.373 160.326L214.087 146.577L210.521 154.271L234.534 173.278C235.795 172.071 237.196 171.009 238.697 170.119C241.618 168.252 248.563 165.232 249.373 160.326Z" fill="black" fill-opacity="0.2"/>
<path d="M197.477 159.782L188.74 167.085C189.404 167.749 201.042 187.559 208.219 199.788C208.312 199.708 208.41 199.632 208.511 199.562C213.231 196.402 221.636 197.67 226.376 194.543L197.477 159.782H197.477Z" fill="black" fill-opacity="0.2"/>
<path d="M181.423 173.644L168.385 178.092L174.559 213.491C174.958 213.351 175.372 213.236 175.787 213.152C181.935 211.938 190.041 217.289 195.704 214.945C196.478 214.614 197.201 214.163 197.841 213.617L181.423 173.645L181.423 173.644Z" fill="black" fill-opacity="0.2"/>
<path d="M157.616 222.387L159.694 176.14L148.408 173.278L140.023 213.112L140.329 213.165C146.171 214.3 151.489 221.988 157.616 222.386V222.387Z" fill="black" fill-opacity="0.2"/>
<path d="M129.268 168.287C129.268 168.287 114.371 188.244 106.577 198.985C106.936 199.166 107.289 199.369 107.626 199.589C112.744 203.015 114.677 212.555 120.432 214.945C120.698 215.052 120.97 215.138 121.242 215.217L142.055 175.822L129.268 168.287Z" fill="black" fill-opacity="0.2"/>
<path d="M113.979 152.22L82.2051 174.056C82.3243 174.215 82.4575 174.368 82.5639 174.534C86.0163 179.686 84.177 189.239 88.5389 193.608C88.9404 194.003 89.3872 194.353 89.8671 194.65C101.094 181.996 121.25 159.277 121.979 158.487L113.979 152.22Z" fill="black" fill-opacity="0.2"/>
<path d="M106.696 136.625L69.1262 142.694C69.7304 148.721 64.9772 156.33 67.2142 161.721C67.348 162.049 67.5118 162.367 67.6992 162.67C80.8443 156.123 108.31 142.507 109.451 142.434L106.696 136.625Z" fill="black" fill-opacity="0.2"/>
<path d="M104.645 115.7L69.1329 105.456C69.0998 105.761 69.0596 106.067 69.0067 106.366C67.8251 112.341 59.752 117.778 59.752 124.092C59.7532 124.512 59.7908 124.932 59.859 125.347H103.204L104.644 115.701L104.645 115.7Z" fill="black" fill-opacity="0.2"/>
<path d="M67.3604 86.1766C80.638 93.2867 106.576 107.673 106.576 107.673L112.963 95.5442L82.9681 72.9717C82.8355 73.2043 82.7093 73.4433 82.5633 73.6358C79.1842 78.6746 69.9365 80.6395 67.3604 86.1766Z" fill="black" fill-opacity="0.2"/>
<path d="M256.377 124.091L256.337 123.666C256.322 123.25 256.263 122.835 256.165 122.431C255.779 120.841 255.101 119.329 254.172 117.983C253.03 116.151 251.304 114.099 249.525 111.504C248.523 110.124 247.749 108.585 247.241 106.956C247.026 106.01 246.918 105.037 246.918 104.065C246.918 103.092 247.026 102.119 247.241 101.172C247.613 99.1475 248.217 97.0628 248.742 94.8519C249.266 92.641 249.758 90.251 249.266 87.8081C248.99 86.5723 248.421 85.4181 247.613 84.4423C246.748 83.4506 245.754 82.5679 244.665 81.826C242.461 80.2595 239.925 79.0109 237.502 77.3781C236.249 76.5725 235.109 75.5961 234.116 74.4833C233.142 73.2768 232.432 71.8747 232.038 70.3738C231.188 67.3528 230.996 64.1266 230.351 60.8998C230.07 59.2599 229.515 57.6704 228.713 56.2128C227.839 54.7444 226.512 53.5946 224.934 52.9401C223.307 52.2875 221.596 51.8375 219.857 51.6112C218.098 51.3193 216.292 51.1135 214.486 50.7948C212.638 50.5297 210.839 49.9599 209.174 49.1161C207.523 48.1238 206.121 46.7586 205.084 45.1327C203.982 43.5528 203.033 41.853 202.024 40.1736C201.061 38.4598 199.897 36.8467 198.571 35.3936C197.205 33.9195 195.336 33.0042 193.334 32.8252C193.093 32.8181 192.839 32.8111 192.596 32.8111C190.796 32.8111 189 33.0578 187.267 33.5358C185.275 34.0202 183.231 34.611 181.139 35.0029C180.165 35.2311 179.166 35.3484 178.166 35.3484C177.004 35.3484 175.843 35.1903 174.725 34.8831C172.688 34.0852 170.772 32.9775 169.062 31.6117C167.29 30.2841 165.563 28.9559 163.671 27.7743C161.779 26.5927 159.635 25.7361 157.405 25.9885H156.986C156.847 25.9885 156.714 26.0484 156.582 26.0745C156.31 26.1408 156.03 26.1873 155.765 26.267C155.232 26.4346 154.707 26.6411 154.199 26.8763C153.173 27.3638 152.184 27.9362 151.252 28.5824C149.366 29.91 147.581 31.3574 145.642 32.6722C144.678 33.3459 143.653 33.9392 142.589 34.4376C141.496 34.9271 140.323 35.2234 139.13 35.3088C139.08 35.3088 139.023 35.3088 138.973 35.3088C136.631 35.3088 134.297 34.9698 132.053 34.3057C129.745 33.6492 127.377 33.1559 124.997 32.8506C124.644 32.8175 124.287 32.7997 123.933 32.7997C123.094 32.7997 122.252 32.8991 121.437 33.0909C120.277 33.4121 119.205 34.0004 118.31 34.8034C116.477 36.4032 115.203 38.5542 113.928 40.6657C112.726 42.8747 111.312 44.9708 109.725 46.9192C108.884 47.8841 107.868 48.6891 106.738 49.2894C105.585 49.835 104.367 50.2499 103.12 50.524C100.624 51.0752 98.0743 51.3072 95.5581 51.7585C93.0419 52.2097 90.4722 52.921 88.6532 54.687C87.7756 55.6214 87.0962 56.7278 86.6609 57.933C86.2218 59.1484 85.8968 60.409 85.6986 61.6843C85.2339 64.2471 85.0345 66.8761 84.371 69.4585C84.088 70.7664 83.6087 72.0347 82.9574 73.2035C82.2716 74.3616 81.3679 75.3858 80.3022 76.2098C78.2041 77.8962 75.8211 79.1441 73.5369 80.5386C72.3942 81.2257 71.291 81.9898 70.2508 82.8209C69.2132 83.6507 68.3369 84.6717 67.6741 85.8234C67.0648 86.9566 66.7436 88.2262 66.7436 89.5136C66.7436 89.5582 66.7448 89.6041 66.7448 89.6474C66.7659 90.9845 66.9278 92.3249 67.2165 93.6308C67.7741 96.2865 68.6173 98.8951 69.0686 101.597C69.2349 102.459 69.319 103.341 69.319 104.219C69.319 104.749 69.2884 105.281 69.2279 105.806C69.0405 107.204 68.5887 108.557 67.9003 109.789C66.5129 112.212 64.7073 114.344 63.1069 116.6C62.2867 117.711 61.5671 118.9 60.9693 120.145C60.3129 121.36 59.9668 122.721 59.9668 124.102C59.9668 125.484 60.3129 126.845 60.9693 128.059C61.5665 129.304 62.2854 130.494 63.1057 131.604C64.7054 133.862 66.5116 135.993 67.8991 138.416C68.5753 139.623 69.0278 140.949 69.2279 142.319C69.2948 142.864 69.328 143.417 69.328 143.967C69.328 144.808 69.2483 145.651 69.0953 146.475C68.6505 149.204 67.8073 151.819 67.2432 154.475C66.9577 155.781 66.7977 157.121 66.7729 158.457C66.771 158.508 66.7703 158.561 66.7703 158.611C66.7703 159.895 67.0884 161.158 67.6945 162.289C68.3516 163.446 69.2253 164.467 70.2636 165.297C71.3043 166.13 72.4082 166.894 73.549 167.58C75.8326 168.974 78.1965 170.236 80.3207 171.909C81.3863 172.736 82.2888 173.758 82.9778 174.917C83.6349 176.083 84.1129 177.345 84.392 178.654C85.016 181.243 85.2288 183.872 85.7196 186.434C85.9242 187.71 86.253 188.972 86.689 190.186C87.1134 191.391 87.7807 192.5 88.6469 193.44C90.4856 195.226 93.0751 195.936 95.5581 196.388C98.0412 196.84 100.624 197.052 103.12 197.622C104.367 197.896 105.59 198.312 106.745 198.855C107.875 199.46 108.889 200.263 109.733 201.226C111.305 203.171 112.705 205.28 113.895 207.48C115.17 209.591 116.444 211.742 118.277 213.342C119.171 214.143 120.242 214.732 121.398 215.056C122.27 215.275 123.167 215.387 124.067 215.387C124.377 215.387 124.687 215.373 124.995 215.347C127.373 215.03 129.737 214.534 132.04 213.87C134.28 213.2 136.617 212.857 138.958 212.857C139.011 212.857 139.07 212.857 139.124 212.857C140.318 212.948 141.49 213.245 142.583 213.734C143.645 214.232 144.674 214.828 145.637 215.499C147.576 216.827 149.354 218.294 151.247 219.582C152.175 220.231 153.166 220.81 154.189 221.296C154.695 221.531 155.222 221.735 155.754 221.905C156.026 221.979 156.298 222.032 156.57 222.098L156.982 222.184H157.394C159.631 222.436 161.782 221.52 163.668 220.398C165.553 219.276 167.286 217.862 169.052 216.561C170.765 215.195 172.683 214.088 174.723 213.289C175.843 212.983 177.003 212.826 178.164 212.826C179.164 212.826 180.162 212.941 181.135 213.168C183.226 213.566 185.245 214.157 187.263 214.642C189.016 215.121 190.829 215.365 192.646 215.365C192.875 215.365 193.112 215.36 193.339 215.352C195.339 215.167 197.203 214.249 198.569 212.777C199.893 211.315 201.054 209.705 202.022 207.991C203.025 206.318 203.975 204.618 205.077 203.032C206.118 201.409 207.521 200.044 209.172 199.048C210.837 198.202 212.634 197.635 214.483 197.374C216.296 197.049 218.095 196.843 219.854 196.558C221.594 196.322 223.306 195.861 224.931 195.197C226.509 194.541 227.835 193.393 228.71 191.925C229.508 190.465 230.063 188.876 230.343 187.237C231.007 184.011 231.18 180.778 232.036 177.757C232.425 176.257 233.135 174.856 234.114 173.655C235.103 172.541 236.244 171.563 237.498 170.76C239.922 169.126 242.458 167.878 244.655 166.312C245.749 165.572 246.745 164.687 247.609 163.69C248.417 162.717 248.983 161.565 249.257 160.33C249.391 159.636 249.459 158.929 249.459 158.221C249.459 157.717 249.424 157.21 249.357 156.712C249.223 155.56 249.01 154.413 248.732 153.285C248.201 151.074 247.603 148.99 247.231 146.965C247.016 146.02 246.908 145.048 246.908 144.075C246.908 143.103 247.016 142.13 247.232 141.183C247.74 139.558 248.515 138.015 249.515 136.636C251.315 134.04 253.048 131.988 254.163 130.156C255.094 128.81 255.77 127.299 256.155 125.708C256.254 125.304 256.313 124.89 256.327 124.473L256.367 124.055C256.367 124.055 256.367 124.195 256.367 124.473C256.355 124.89 256.302 125.308 256.209 125.715C255.832 127.316 255.154 128.842 254.216 130.196C253.081 132.042 251.362 134.1 249.569 136.696C248.574 138.065 247.812 139.597 247.32 141.217C247.104 142.154 246.995 143.115 246.995 144.078C246.995 145.04 247.104 146.001 247.318 146.939C247.689 148.93 248.294 151.035 248.832 153.246C249.118 154.382 249.343 155.538 249.496 156.698C249.564 157.203 249.6 157.715 249.6 158.226C249.6 158.942 249.531 159.661 249.397 160.363C249.12 161.624 248.545 162.806 247.724 163.802C246.851 164.811 245.847 165.706 244.743 166.457C242.526 168.036 239.996 169.291 237.586 170.918C236.358 171.718 235.238 172.682 234.268 173.78C233.31 174.964 232.615 176.344 232.237 177.816C231.393 180.804 231.207 184.03 230.557 187.277C230.277 188.942 229.715 190.557 228.903 192.038C228.007 193.547 226.646 194.731 225.026 195.41C223.383 196.085 221.654 196.551 219.895 196.79C218.129 197.082 216.324 197.288 214.524 197.613C212.698 197.874 210.923 198.437 209.279 199.268C207.674 200.24 206.309 201.572 205.295 203.152C204.206 204.725 203.256 206.418 202.247 208.104C201.272 209.838 200.103 211.463 198.77 212.939C197.358 214.459 195.431 215.407 193.365 215.594C193.104 215.604 192.835 215.609 192.571 215.609C190.759 215.609 188.951 215.365 187.204 214.884C185.18 214.399 183.161 213.815 181.09 213.423C180.136 213.199 179.156 213.085 178.176 213.085C177.041 213.085 175.911 213.236 174.817 213.535C172.808 214.327 170.918 215.42 169.232 216.768C167.473 218.062 165.74 219.457 163.828 220.625C163.33 220.891 162.858 221.202 162.341 221.422C162.082 221.541 161.83 221.667 161.571 221.773L160.768 222.059C159.928 222.348 159.044 222.496 158.155 222.496C157.896 222.496 157.633 222.482 157.376 222.458L156.945 222.425C156.805 222.425 156.666 222.365 156.52 222.339C156.241 222.272 155.956 222.22 155.683 222.139C155.132 221.97 154.591 221.759 154.069 221.516C153.03 221.022 152.027 220.439 151.082 219.782C149.176 218.455 147.39 217.007 145.472 215.7C144.52 215.043 143.511 214.455 142.465 213.961C141.405 213.491 140.27 213.204 139.113 213.118C139.079 213.118 139.04 213.118 139.005 213.118C136.675 213.118 134.354 213.456 132.121 214.119C129.794 214.801 127.406 215.317 124.999 215.64C124.636 215.675 124.266 215.695 123.901 215.695C123.033 215.695 122.165 215.594 121.321 215.396C120.115 215.06 119.001 214.45 118.067 213.616C116.182 211.963 114.894 209.792 113.619 207.674C112.441 205.483 111.054 203.402 109.492 201.472C108.674 200.541 107.69 199.761 106.594 199.184C105.463 198.648 104.271 198.24 103.048 197.976C100.578 197.432 98.0355 197.199 95.4995 196.741C94.2242 196.53 92.9661 196.196 91.7501 195.758C90.5162 195.306 89.3849 194.604 88.4315 193.7C87.5252 192.733 86.8298 191.586 86.3926 190.334C85.9452 189.102 85.6119 187.819 85.4041 186.522C84.9395 183.94 84.74 181.311 84.0765 178.762C83.8025 177.488 83.334 176.256 82.6954 175.118C82.0243 173.994 81.1429 173.002 80.1053 172.203C78.0473 170.55 75.6707 169.302 73.3801 167.901C72.2297 167.206 71.1157 166.43 70.0622 165.592C68.9895 164.731 68.0852 163.671 67.4051 162.477C66.7773 161.304 66.4478 159.993 66.4478 158.662C66.4478 158.606 66.4491 158.548 66.4498 158.494C66.4651 157.123 66.6257 155.749 66.9265 154.412C67.4905 151.756 68.3337 149.101 68.7722 146.445C68.9232 145.642 68.9991 144.827 68.9991 144.011C68.9991 143.468 68.9653 142.926 68.899 142.389C68.6989 141.049 68.2464 139.753 67.5715 138.578C66.2439 136.188 64.4116 134.07 62.7978 131.792C61.9616 130.662 61.2185 129.445 60.6003 128.18C59.9266 126.919 59.5723 125.51 59.5723 124.079C59.5723 122.647 59.9266 121.238 60.6009 119.976C61.2121 118.715 61.9451 117.503 62.7781 116.377C64.3912 114.1 66.1904 111.982 67.5447 109.599C68.2203 108.423 68.6721 107.124 68.8723 105.783C68.9322 105.261 68.9628 104.73 68.9628 104.203C68.9628 103.373 68.8863 102.542 68.7391 101.726C68.2942 99.0698 67.451 96.4146 66.887 93.7589C66.5932 92.4243 66.4319 91.0502 66.4172 89.6831C66.416 89.6321 66.4147 89.5799 66.4147 89.5282C66.4147 88.1924 66.7474 86.875 67.379 85.6991C68.0622 84.5092 68.9647 83.4538 70.0341 82.5928C71.0857 81.7483 72.1998 80.9726 73.354 80.2818C75.6446 78.8809 78.0015 77.626 80.0792 75.9798C81.1148 75.1805 81.9925 74.1889 82.661 73.0652C83.2971 71.925 83.7623 70.6905 84.0357 69.4139C84.6533 66.8646 84.8656 64.242 85.3633 61.6595C85.5685 60.3651 85.9019 59.0827 86.3454 57.8495C87.1561 55.281 89.1618 53.2619 91.7233 52.4315C92.9393 51.9936 94.1974 51.659 95.4734 51.4487C98.0093 50.9905 100.552 50.7846 103.022 50.2206C104.242 49.9472 105.436 49.5412 106.568 49.0135C107.661 48.4297 108.642 47.6489 109.456 46.7152C111.02 44.7879 112.406 42.7058 113.586 40.5165C114.861 38.3986 116.149 36.2279 118.041 34.581C118.977 33.7334 120.103 33.1151 121.319 32.7799C122.167 32.583 123.039 32.4823 123.911 32.4823C124.273 32.4823 124.638 32.5001 124.997 32.5339C127.391 32.8487 129.763 33.351 132.081 34.0202C134.309 34.6887 136.629 35.0303 138.954 35.0303C138.991 35.0303 139.035 35.0303 139.073 35.0303C140.219 34.9392 141.342 34.6518 142.391 34.1808C143.442 33.6926 144.451 33.1069 145.399 32.4421C147.324 31.1145 149.11 29.6601 151.016 28.3657C151.958 27.7035 152.964 27.1204 154.003 26.6315C154.524 26.3887 155.064 26.1765 155.61 25.9999C155.888 25.9203 156.174 25.8737 156.453 25.8075L156.871 25.7144H157.303C157.556 25.6908 157.814 25.6787 158.069 25.6787C158.962 25.6787 159.85 25.8272 160.695 26.1134L161.498 26.3989C161.757 26.5053 162.009 26.6315 162.268 26.7507C162.793 26.9763 163.264 27.2816 163.755 27.5474C165.673 28.7156 167.4 30.1101 169.166 31.4045C170.851 32.7506 172.737 33.8436 174.743 34.6365C175.837 34.9366 176.968 35.089 178.101 35.089C179.082 35.089 180.062 34.9723 181.017 34.7493C183.088 34.3643 185.106 33.7799 187.131 33.2955C188.891 32.8124 190.718 32.5658 192.545 32.5658C192.794 32.5658 193.046 32.5709 193.292 32.5785C195.358 32.7684 197.284 33.7155 198.696 35.2349C200.027 36.7103 201.207 38.3419 202.182 40.0761C203.191 41.7555 204.135 43.4553 205.223 45.0218C206.235 46.6043 207.598 47.9364 209.205 48.9109C210.848 49.7464 212.624 50.3073 214.451 50.5647C216.25 50.8898 218.055 51.0956 219.821 51.3882C221.58 51.6304 223.309 52.0988 224.953 52.7699C226.573 53.4468 227.937 54.6278 228.838 56.1351C229.646 57.6169 230.207 59.2274 230.49 60.894C231.154 64.1406 231.327 67.3668 232.163 70.3546C232.546 71.8275 233.241 73.2074 234.195 74.3922C235.163 75.4916 236.285 76.4622 237.515 77.2595C239.925 78.886 242.461 80.1409 244.672 81.7209C245.774 82.4729 246.779 83.3671 247.652 84.3767C248.474 85.3715 249.051 86.5487 249.332 87.8087C249.465 88.513 249.535 89.2312 249.535 89.9495C249.535 90.46 249.499 90.975 249.432 91.4804C249.28 92.6416 249.054 93.7939 248.768 94.9246C248.237 97.1418 247.626 99.2202 247.254 101.238C247.039 102.177 246.93 103.138 246.93 104.1C246.93 105.063 247.039 106.024 247.253 106.961C247.746 108.581 248.508 110.113 249.504 111.483C251.29 114.085 253.009 116.131 254.151 117.983C255.087 119.338 255.764 120.86 256.144 122.463C256.236 122.869 256.29 123.287 256.302 123.704C256.381 123.943 256.381 124.089 256.381 124.089L256.377 124.091Z" fill="#263238"/>
<path d="M139.599 215.35C139.692 215.35 137.242 225.308 134.128 237.537C131.015 249.766 128.412 259.665 128.319 259.645C128.226 259.625 130.676 249.686 133.789 237.451C136.903 225.215 139.532 215.296 139.599 215.35Z" fill="#263238"/>
<path d="M158.068 184.359C191.353 184.359 218.336 157.376 218.336 124.091C218.336 90.806 191.353 63.8232 158.068 63.8232C124.783 63.8232 97.8003 90.806 97.8003 124.091C97.8003 157.376 124.783 184.359 158.068 184.359Z" fill="white"/>
<path d="M120.956 103.205C120.127 104.035 115.559 112.347 115.141 119.205C114.723 126.063 115.712 164.555 115.712 164.555L115.891 167.11C126.739 179.797 166.174 198.678 201.692 167.044L203.684 143.363L197.822 93.2331L177.44 88.2472L172.667 80.5132L140.853 87.9617L138.011 94.6671L120.956 103.205H120.956Z" fill="#053738"/>
<path d="M170.482 60.3574C171.883 55.1459 173.257 49.9013 173.742 44.5305C174.226 39.1597 173.782 33.6097 171.644 28.657C171.319 27.9069 168.63 22.8942 167.82 23.0204C167.242 23.1064 168.982 27.8202 168.716 28.3313C166.16 33.2904 165.695 39.1131 166.432 44.6433C167.189 49.9995 168.557 55.2849 170.484 60.3485L170.482 60.3581V60.3574Z" fill="#263238"/>
<path d="M169.952 39.7768C169.699 26.2531 161.613 15.1329 148.103 15.7639L146.855 15.8964C134.55 17.1921 125.205 27.5737 125.205 39.9488C125.205 40.1439 125.208 40.3414 125.211 40.5333C125.503 52.2507 125.967 65.1969 126.705 71.4243C128.225 84.3106 141.311 84.9613 141.311 84.9613L141.915 93.4391L147.458 99.4607L173.158 83.5273L169.952 39.7768Z" fill="#FFBF9D"/>
<path d="M141.345 85.0613C141.345 85.0613 149.531 84.6827 157.624 78.3228C157.624 78.3228 154.915 90.014 141.916 90.2065L141.345 85.0613Z" fill="#FF9A6C"/>
<path d="M132.641 51.0433C132.73 51.9948 133.53 52.722 134.486 52.722C134.535 52.722 134.584 52.7201 134.633 52.7163C135.594 52.692 136.361 51.9056 136.361 50.9445C136.361 50.9158 136.361 50.8865 136.359 50.8578C136.266 49.9062 135.465 49.1797 134.509 49.1797C134.461 49.1797 134.414 49.1816 134.367 49.1854C133.407 49.2052 132.639 49.9897 132.639 50.9508C132.639 50.9821 132.639 51.0133 132.641 51.0439V51.0433Z" fill="#263238"/>
<path d="M128.538 45.5991C128.79 45.8113 130.078 44.6367 132.063 44.4308C134.048 44.225 135.601 45.0949 135.794 44.796C135.887 44.6832 135.608 44.2715 134.924 43.8732C134.175 43.4646 133.334 43.2505 132.48 43.2505C132.29 43.2505 132.099 43.2613 131.91 43.2824C130.879 43.3888 129.906 43.819 129.135 44.5105C128.57 45.0484 128.411 45.4996 128.537 45.5991H128.538Z" fill="#263238"/>
<path d="M150.161 49.5568C150.25 50.5083 151.049 51.2355 152.005 51.2355C152.054 51.2355 152.104 51.2336 152.152 51.2298C153.114 51.2055 153.88 50.4191 153.88 49.4573C153.88 49.4287 153.88 49.3993 153.878 49.3707C153.788 48.4159 152.986 47.6855 152.027 47.6855C151.98 47.6855 151.933 47.6875 151.886 47.6913C150.924 47.7187 150.158 48.5071 150.158 49.4694C150.158 49.4981 150.159 49.5281 150.161 49.5568Z" fill="#263238"/>
<path d="M148.05 44.3513C148.303 44.5705 149.597 43.3889 151.575 43.1831C153.554 42.9772 155.121 43.8472 155.306 43.5546C155.399 43.4354 155.127 43.0237 154.443 42.6318C153.695 42.2226 152.856 42.0078 152.002 42.0078C151.809 42.0078 151.614 42.0193 151.422 42.041C150.391 42.1417 149.417 42.5738 148.647 43.2691C148.089 43.8006 147.93 44.2589 148.05 44.3513H148.05Z" fill="#263238"/>
<path d="M142.539 60.3443C142.539 60.2315 141.285 60.1448 139.26 60.099C138.749 60.099 138.257 60.0524 138.138 59.714C138.107 59.5547 138.092 59.3915 138.092 59.2296C138.092 58.8683 138.168 58.5101 138.317 58.1806L139.406 54.1972C140.906 48.488 141.935 43.8138 141.71 43.7545C141.484 43.6946 140.07 48.2757 138.57 53.992L137.547 58.0085C137.414 58.3488 137.345 58.7121 137.345 59.0779C137.345 59.3915 137.396 59.7032 137.494 60.0008C137.678 60.3513 138.014 60.5967 138.404 60.6643C138.548 60.6821 138.693 60.691 138.839 60.691C138.984 60.691 139.129 60.6815 139.273 60.6643C141.297 60.5776 142.546 60.4584 142.539 60.3456L142.539 60.3443Z" fill="#263238"/>
<path d="M148.521 61.1013C148.196 61.1013 148.422 63.2657 146.742 64.9916C145.062 66.7181 142.758 66.7175 142.758 67.0227C142.758 67.1553 143.31 67.3879 144.285 67.3083C145.542 67.1904 146.719 66.6327 147.605 65.7347C148.451 64.866 148.928 63.701 148.933 62.4881C148.966 61.5786 148.667 61.0739 148.521 61.1006V61.1013Z" fill="#263238"/>
<path d="M147.313 36.2917C147.565 36.8099 149.517 36.3446 151.873 36.3848C154.23 36.4243 156.182 36.8564 156.434 36.3382C156.547 36.0928 156.168 35.6212 155.352 35.1764C154.269 34.6525 153.08 34.3784 151.877 34.3784C150.673 34.3784 149.484 34.6525 148.401 35.177C147.564 35.5747 147.199 36.0463 147.312 36.2923L147.313 36.2917Z" fill="#263238"/>
<path d="M128.664 38.921C129.056 39.3327 130.377 38.7215 132.017 38.5227C133.656 38.3232 135.084 38.5227 135.336 38.0045C135.455 37.7591 135.19 37.3404 134.539 36.9688C133.871 36.6432 133.136 36.4736 132.392 36.4736C131.195 36.4736 130.038 36.9128 129.142 37.7062C128.624 38.2308 128.485 38.7151 128.664 38.921Z" fill="#263238"/>
<path d="M169.905 49.4501C170.118 49.3309 178.496 45.8918 179.147 54.761C179.797 63.6308 170.801 62.4224 170.742 62.17C170.682 61.9176 169.905 49.4501 169.905 49.4501Z" fill="#FFBF9D"/>
<path d="M173.198 58.6186C173.238 58.6186 173.357 58.7116 173.63 58.811C173.792 58.8671 173.962 58.8958 174.134 58.8958C174.359 58.8958 174.581 58.8461 174.785 58.7511C175.695 58.3394 176.372 56.799 176.299 55.1993C176.268 54.4389 176.066 53.6932 175.708 53.0215C175.497 52.474 175.03 52.0642 174.459 51.9265C174.41 51.9163 174.359 51.9112 174.309 51.9112C173.987 51.9112 173.698 52.1101 173.583 52.4103C173.477 52.669 173.55 52.8417 173.503 52.8615C173.457 52.8813 173.304 52.7219 173.344 52.3567C173.379 52.1324 173.489 51.9265 173.656 51.7723C173.869 51.5868 174.141 51.4849 174.424 51.4849C174.447 51.4849 174.47 51.4855 174.493 51.4868C175.242 51.5754 175.89 52.0527 176.198 52.7417C176.633 53.4797 176.881 54.3159 176.915 55.1718C176.988 56.9577 176.198 58.6969 174.923 59.1552C174.738 59.2253 174.54 59.261 174.342 59.261C174.044 59.261 173.752 59.1807 173.496 59.029C173.231 58.8295 173.171 58.6307 173.198 58.6173L173.198 58.6186Z" fill="#FF9A6C"/>
<path d="M129.998 25.4767C128.518 24.7731 132.521 19.8535 135.973 18.0281C141.145 15.2729 149.178 13.2615 154.177 14.3367C160.199 15.6643 165.298 18.2537 168.611 23.4455C171.923 28.6372 173.443 34.8315 173.669 40.9856C173.735 42.8645 173.669 44.8294 172.766 46.4762C171.657 48.5144 169.36 49.9019 169.639 52.5972C169.662 52.7623 169.673 52.9286 169.673 53.095C169.673 53.9152 169.399 54.7119 168.895 55.3588C167.382 57.1911 165.297 55.6972 164.281 54.1306C162.11 50.8114 161.625 46.6617 161.201 42.6917C160.896 39.8766 160.597 36.9959 161.201 34.2337C161.533 32.7264 162.144 31.286 162.396 29.7659C162.648 28.2459 162.495 26.5525 161.486 25.3843C161.251 25.1395 160.992 24.9165 160.716 24.7208C159.102 23.4818 157.121 22.8088 155.085 22.8088C153.825 22.8088 152.577 23.0663 151.422 23.5653C146.542 25.65 138.197 28.8367 135.86 27.2829C132.507 25.0522 131.631 23.4856 131.631 23.4856L129.998 25.4773L129.998 25.4767Z" fill="#263238"/>
<path d="M120.956 103.205C120.445 103.916 113.189 106.325 110.434 110.913C107.679 115.501 104.957 136.094 104.957 136.094L103.204 149.625C106.657 155.082 111.29 162.312 116.203 167.41L120.956 103.205Z" fill="#053738"/>
<path d="M175.482 123.069C175.674 125.841 176.208 128.595 177.051 131.243C178.001 133.852 179.667 136.308 182.103 137.656C183.119 138.214 184.267 138.585 185.124 139.382C185.981 140.179 186.498 141.467 187.328 142.403C188.363 143.43 189.646 144.183 191.051 144.585C194.673 145.912 198.503 146.594 202.362 146.594C202.711 146.594 203.068 146.586 203.413 146.578C203.546 145.158 203.553 139.939 203.685 138.512L175.482 123.069V123.069Z" fill="black" fill-opacity="0.301961"/>
<path d="M197.821 93.2339C197.821 93.2339 206.97 95.9426 209.652 99.8399C212.334 103.737 217.081 118.847 218.057 121.649C219.033 124.451 218.176 130.943 216.351 135.591C214.525 140.238 211.351 144.281 205.875 144.885C200.397 145.489 191.741 142.329 189.788 140.237C187.836 138.146 187.033 133.519 187.033 133.519C189.458 133.099 191.871 132.484 194.21 131.719L197.821 93.2339Z" fill="#053738"/>
<path d="M194.21 131.765L194.097 131.812L193.752 131.938C193.446 132.044 192.988 132.197 192.384 132.376C190.646 132.893 188.863 133.33 187.074 133.651L187.148 133.552C187.369 134.688 187.685 135.817 188.083 136.905C188.299 137.519 188.566 138.125 188.872 138.702C189.186 139.322 189.603 139.885 190.1 140.369C190.662 140.849 191.284 141.263 191.947 141.591C192.645 141.955 193.37 142.291 194.104 142.58C195.681 143.205 197.31 143.731 198.962 144.121C200.75 144.555 202.584 144.792 204.421 144.816C204.459 144.817 204.498 144.817 204.536 144.817C204.975 144.817 205.419 144.794 205.855 144.75C206.333 144.697 206.814 144.61 207.282 144.498C208.246 144.281 209.173 143.921 210.03 143.43C211.814 142.398 213.317 140.933 214.393 139.174C215.529 137.348 216.402 135.364 216.981 133.291C217.45 131.705 217.808 130.066 218.037 128.424C218.217 127.249 218.311 126.062 218.311 124.873C218.311 124.451 218.299 124.024 218.277 123.604C218.224 122.832 218.065 122.065 217.805 121.335C217.552 120.592 217.307 119.855 217.068 119.124L215.64 114.856C214.698 112.081 213.768 109.458 212.838 107.021C212.023 104.754 211.03 102.548 209.895 100.431C209.369 99.5289 208.664 98.7405 207.826 98.1185C207.097 97.5379 206.315 97.0127 205.501 96.5577C204.199 95.8139 202.833 95.1421 201.445 94.5679C200.303 94.0963 199.4 93.7649 198.789 93.5456L198.092 93.3002C198.01 93.2773 197.929 93.2461 197.853 93.2065C197.937 93.2174 198.02 93.2378 198.099 93.2665L198.809 93.4787C199.433 93.6782 200.35 93.9898 201.505 94.4411C202.904 94.9924 204.284 95.638 205.603 96.3594C206.428 96.8139 207.227 97.339 207.971 97.919C208.834 98.5525 209.563 99.3562 210.109 100.276C211.276 102.4 212.285 104.632 213.112 106.916C214.062 109.346 214.997 111.975 215.947 114.75C216.418 116.138 216.896 117.566 217.387 119.019C217.633 119.743 217.879 120.48 218.124 121.223C218.394 121.978 218.563 122.771 218.62 123.572C218.645 124.017 218.659 124.47 218.659 124.918C218.659 126.103 218.568 127.294 218.388 128.466C218.155 130.128 217.793 131.777 217.318 133.385C216.726 135.491 215.831 137.508 214.664 139.359C213.557 141.165 212.011 142.667 210.174 143.722C209.292 144.223 208.332 144.595 207.34 144.817C206.857 144.931 206.364 145.019 205.873 145.075C205.382 145.075 204.89 145.161 204.412 145.142C202.55 145.11 200.689 144.863 198.881 144.413C197.217 144.015 195.565 143.481 193.981 142.839C193.244 142.541 192.513 142.197 191.812 141.824C191.128 141.482 190.488 141.053 189.912 140.555C189.399 140.048 188.971 139.455 188.651 138.809C188.344 138.224 188.077 137.608 187.861 136.983C187.474 135.874 187.168 134.731 186.953 133.577V133.491H187.039C189.376 133.086 191.168 132.628 192.383 132.296L193.764 131.904L194.116 131.804C194.168 131.765 194.208 131.759 194.208 131.765H194.21Z" fill="#263238"/>
<path d="M210.999 126.873C210.933 126.873 210.721 125.745 209.957 124.058C208.954 121.869 207.552 119.875 205.828 118.197C204.872 117.286 203.789 116.516 202.615 115.912L201.812 115.553C201.546 115.434 201.268 115.38 201.015 115.294C200.539 115.145 200.045 115.041 199.548 114.989L199.216 114.942H198.313C198.29 114.942 198.266 114.942 198.242 114.942C197.954 114.942 197.666 114.969 197.383 115.022C197.116 115.076 196.844 115.105 196.573 115.109C196.824 115.005 197.088 114.93 197.357 114.889C197.665 114.803 197.985 114.755 198.306 114.75H198.903H199.228L199.573 114.791C200.087 114.826 200.598 114.916 201.094 115.056C201.371 115.126 201.648 115.212 201.917 115.309L202.754 115.668C203.971 116.267 205.093 117.052 206.073 117.99C207.834 119.693 209.236 121.745 210.182 124.005C210.351 124.39 210.499 124.786 210.621 125.187C210.723 125.488 210.809 125.799 210.873 126.11C210.939 126.36 210.981 126.616 210.999 126.874V126.873Z" fill="#263238"/>
<path d="M215.993 118.66C215.617 117.697 215.151 116.76 214.611 115.878C213.237 113.78 211.175 112.218 208.782 111.464C205.974 110.607 203.246 110.873 201.34 111.052L199.063 111.324C198.795 111.372 198.52 111.397 198.247 111.397C198.24 111.397 198.234 111.397 198.228 111.397C198.489 111.295 198.765 111.225 199.044 111.191C199.575 111.085 200.372 110.946 201.315 110.813C202.32 110.637 203.347 110.548 204.37 110.548C205.893 110.548 207.411 110.745 208.883 111.131C210.235 111.538 211.493 112.218 212.575 113.124C213.459 113.876 214.22 114.771 214.818 115.766C215.228 116.418 215.557 117.124 215.794 117.857C215.891 118.116 215.958 118.386 215.993 118.66H215.993Z" fill="#263238"/>
<path d="M209.095 108.841C207.575 108.484 206.011 108.302 204.449 108.302C202.354 108.302 200.268 108.63 198.273 109.268C198.732 108.967 199.237 108.743 199.767 108.602C201.021 108.217 202.324 107.993 203.637 107.938C203.818 107.933 204.005 107.929 204.187 107.929C205.316 107.929 206.447 108.052 207.547 108.296C208.087 108.4 208.609 108.584 209.094 108.841H209.095Z" fill="#263238"/>
<path d="M194.29 95.5177C194.343 95.5177 194.211 96.454 194.104 97.9543C194.04 98.8274 194.009 99.7146 194.009 100.593C194.009 103.557 194.374 106.526 195.088 109.401L194.849 109.481C194.576 108.718 194.364 108.094 194.225 107.655C194.137 107.44 194.075 107.217 194.038 106.989C194.173 107.195 194.281 107.419 194.357 107.653C194.536 108.071 194.782 108.683 195.087 109.439L194.848 109.512C194.324 107.679 193.972 105.788 193.807 103.89C193.729 102.998 193.688 102.099 193.688 101.204C193.688 100.126 193.748 99.0454 193.859 97.9753C193.945 97.2252 194.046 96.6477 194.125 96.2029C194.147 95.9664 194.203 95.7357 194.291 95.5171L194.29 95.5177Z" fill="#263238"/>
<path d="M181.351 78.4888C181.351 78.4888 176.604 78.4888 176.007 84.1916C175.548 88.5733 176.007 92.8224 176.007 94.7478C176.007 96.6732 175.163 103.491 175.163 103.491C175.163 103.491 171.924 106.366 171.977 109.818C172.03 113.271 174.499 114.346 174.499 114.346C174.239 115.02 174.104 115.738 174.104 116.462C174.104 118.039 174.74 119.55 175.867 120.652C176.993 121.754 174.493 123.833 175.622 125.963C176.272 127.023 177.288 127.81 178.477 128.174C178.279 128.601 178.176 129.065 178.176 129.536C178.176 130.959 179.107 132.215 180.468 132.629C181.809 133.042 183.206 133.256 184.609 133.256C184.872 133.256 185.14 133.247 185.402 133.233L188.947 133.167L192.067 134.893C192.067 134.893 197.419 132.563 197.551 129.409L197.691 126.256C197.691 126.256 196.157 121.077 196.03 119.418C195.904 117.758 197.264 113.795 196.441 112.015C195.618 110.236 192.744 109.187 193.016 106.704C193.288 104.221 192.744 102.84 191.508 101.466C190.274 100.092 184.823 97.3564 184.823 97.3564C184.823 97.3564 183.422 93.3731 183.422 90.6447C183.422 87.9162 186.151 79.5315 181.351 78.4888H181.351Z" fill="#FFBF9D"/>
<path d="M184.55 98.3916C184.143 98.7256 183.696 99.0117 183.223 99.2418C182.386 99.7332 181.231 100.384 179.904 101.088C178.576 101.791 177.421 102.415 176.584 102.847C176.133 103.119 175.65 103.342 175.15 103.51C175.556 103.174 176.003 102.885 176.478 102.654C177.315 102.163 178.47 101.512 179.797 100.808C181.125 100.105 182.28 99.4808 183.116 99.0493C183.568 98.7759 184.05 98.5548 184.551 98.3922V98.3916H184.55Z" fill="#FF9A6C"/>
<path d="M187.67 109.127C187.67 109.127 187.538 109.28 187.252 109.499C186.856 109.808 186.443 110.1 186.018 110.368C184.619 111.263 183.124 112.023 181.569 112.613C180.016 113.216 178.4 113.66 176.756 113.939C176.092 114.038 175.608 114.098 175.256 114.118C175.164 114.137 175.07 114.145 174.977 114.145C174.884 114.145 174.791 114.137 174.699 114.119C174.699 114.066 175.469 113.96 176.69 113.701C178.298 113.363 179.885 112.896 181.424 112.319C182.959 111.726 184.454 111.007 185.874 110.181C186.451 109.803 187.057 109.446 187.672 109.126H187.671L187.67 109.127Z" fill="#FF9A6C"/>
<path d="M191.747 105.708C191.833 105.741 191.654 106.372 191.083 106.856C190.512 107.341 189.902 107.487 189.882 107.401C189.862 107.315 190.354 107.062 190.851 106.598C191.349 106.133 191.655 105.668 191.747 105.708Z" fill="#FF9A6C"/>
<path d="M189.788 118.521C189.152 118.831 188.482 119.077 187.797 119.252C186.166 119.737 184.497 120.116 182.817 120.385C181.136 120.657 179.429 120.823 177.732 120.864C177.482 120.885 177.23 120.895 176.979 120.895C176.523 120.895 176.066 120.862 175.615 120.799C176.31 120.702 177.016 120.642 177.719 120.627C179.046 120.534 180.806 120.361 182.764 120.049C184.723 119.737 186.469 119.332 187.73 119.014C188.405 118.811 189.096 118.643 189.788 118.521Z" fill="#FF9A6C"/>
<path d="M194.131 117.758C194.23 117.414 194.354 117.071 194.496 116.742C194.69 116.141 194.79 115.512 194.79 114.881C194.79 114.662 194.778 114.443 194.754 114.226C194.649 113.38 194.357 112.565 193.904 111.843C193.69 111.555 193.491 111.251 193.313 110.939C193.313 110.906 193.692 111.151 194.11 111.703C194.772 112.601 195.13 113.687 195.13 114.803C195.13 115.498 194.991 116.188 194.721 116.829C194.449 117.433 194.163 117.758 194.13 117.758H194.131Z" fill="#FF9A6C"/>
<path d="M190.055 128.135C189.51 128.335 188.943 128.469 188.368 128.534C186.998 128.748 185.607 128.859 184.219 128.859C184.212 128.859 184.206 128.859 184.199 128.859C182.8 128.859 181.4 128.737 180.024 128.507C179.446 128.442 178.88 128.305 178.336 128.102C178.911 128.111 179.489 128.168 180.055 128.268C181.429 128.419 182.817 128.509 184.2 128.514C185.579 128.514 186.967 128.432 188.336 128.287C188.902 128.191 189.478 128.138 190.054 128.135V128.135L190.055 128.135Z" fill="#FF9A6C"/>
<path d="M181.609 90.7108C181.609 90.751 181.39 90.9301 180.945 91.0894C180.52 91.2315 180.072 91.3042 179.622 91.3042C178.836 91.3042 178.065 91.0811 177.401 90.6637C177.002 90.4049 176.816 90.1793 176.843 90.1455C177.576 90.5145 178.36 90.7777 179.167 90.9288C179.318 90.9364 179.473 90.9415 179.625 90.9415C180.293 90.9415 180.959 90.8638 181.61 90.7108L181.609 90.7102V90.7108Z" fill="#FF9A6C"/>
<path d="M195.113 118.136C195.166 118.282 195.194 118.437 195.194 118.592C195.194 118.611 195.193 118.629 195.192 118.648C195.192 118.648 195.192 118.649 195.192 118.65C195.192 119.12 195.136 119.591 195.026 120.048C194.9 120.626 194.681 121.296 194.468 122.04C194.281 122.608 194.185 123.204 194.185 123.803C194.185 124.021 194.199 124.24 194.223 124.456C194.336 125.299 194.967 125.976 195.066 126.833C195.075 126.93 195.08 127.028 195.08 127.127C195.08 127.753 194.892 128.366 194.542 128.885C194.295 129.283 194.007 129.659 193.686 130C193.461 130.246 193.321 130.366 193.301 130.352C193.282 130.339 193.76 129.768 194.331 128.765C194.615 128.296 194.767 127.756 194.767 127.208C194.767 127.099 194.76 126.988 194.749 126.88C194.669 126.157 194.032 125.479 193.879 124.517C193.854 124.297 193.841 124.074 193.841 123.853C193.841 123.206 193.951 122.564 194.165 121.955C194.398 121.205 194.637 120.547 194.789 119.963C194.942 119.366 195.051 118.749 195.115 118.137L195.113 118.136Z" fill="#FF9A6C"/>
<path d="M196.899 122.305C197.007 122.5 197.084 122.711 197.124 122.929C197.244 123.334 197.403 123.932 197.55 124.675C197.731 125.547 197.838 126.441 197.869 127.331C197.874 127.452 197.878 127.575 197.878 127.697C197.878 128.691 197.67 129.675 197.271 130.584C196.749 131.562 196.056 132.443 195.226 133.179C194.569 133.78 193.86 134.337 193.122 134.833C192.491 135.265 191.96 135.583 191.589 135.789C191.406 135.912 191.206 136.011 190.997 136.081C190.964 136.034 191.761 135.529 192.989 134.633C193.699 134.117 194.381 133.548 195.021 132.947C195.808 132.228 196.469 131.374 196.972 130.432C197.364 129.531 197.567 128.558 197.567 127.576C197.567 127.494 197.565 127.412 197.563 127.332C197.548 126.454 197.467 125.575 197.324 124.71C197.065 123.229 196.846 122.319 196.899 122.306V122.305Z" fill="#263238"/>
<path d="M146.809 100.204C146.534 100.042 146.275 99.8496 146.04 99.6335L144.048 97.9669L142.667 96.805C142.431 96.5839 142.167 96.3933 141.883 96.2397C141.745 96.1696 141.592 96.1326 141.438 96.1326C141.283 96.1326 141.131 96.1696 140.993 96.2397C140.422 96.5386 140.037 97.269 139.553 97.8796C139.068 98.4901 138.59 99.2071 138.086 99.8712C137.289 100.946 136.512 101.976 135.802 102.932L135.371 103.503L135.51 102.799C135.887 100.826 136.445 98.8872 137.163 97.0115C137.429 96.3474 137.668 95.777 137.827 95.4118C137.901 95.2149 138.003 95.0294 138.126 94.8599C138.08 95.0619 138.016 95.2607 137.933 95.4507C137.794 95.8293 137.588 96.3799 137.349 97.0842C136.702 98.9662 136.19 100.906 135.831 102.865L135.532 102.732L137.809 99.6647L139.276 97.6731L139.98 96.7368C140.201 96.4067 140.502 96.1326 140.854 95.9421C141.022 95.8688 141.204 95.8305 141.388 95.8305C141.607 95.8305 141.823 95.8847 142.016 95.9886C142.317 96.1588 142.597 96.3665 142.846 96.6062L144.173 97.8012L146.112 99.5475C146.36 99.7463 146.595 99.9687 146.809 100.205V100.204H146.809Z" fill="#263238"/>
<path d="M174.838 94.5948C174.762 94.6821 174.674 94.7598 174.579 94.8274L173.796 95.438L170.868 97.6355L161.102 104.825L160.956 104.932L160.857 104.779C160.777 104.66 160.698 104.526 160.612 104.4L155.712 96.6591L155.891 96.719C154.004 97.4685 152.18 98.3786 150.447 99.4341C149.823 99.8126 149.338 100.098 149.007 100.344C148.846 100.465 148.672 100.57 148.489 100.656C148.63 100.51 148.786 100.378 148.953 100.265C149.272 100.032 149.744 99.6934 150.361 99.2887C152.07 98.1772 153.893 97.218 155.78 96.4456L155.893 96.3991L155.959 96.4985C157.399 98.7355 159.093 101.385 160.905 104.213C160.991 104.339 161.07 104.472 161.15 104.591L160.898 104.545L170.73 97.4411L173.717 95.3232L174.54 94.7656C174.732 94.6407 174.831 94.5807 174.837 94.5941L174.838 94.5948Z" fill="#263238"/>
<path d="M115.253 120.998C115.281 121.133 115.294 121.272 115.294 121.41C115.294 121.427 115.294 121.446 115.293 121.462C115.293 121.808 115.293 122.252 115.327 122.79C115.327 123.991 115.387 125.671 115.42 127.729C115.499 131.899 115.665 137.687 115.884 144.028C116.104 150.368 116.23 156.157 116.243 160.333C116.243 162.424 116.243 164.11 116.243 165.278C116.243 165.83 116.243 166.281 116.21 166.606C116.211 166.636 116.212 166.668 116.212 166.698C116.212 166.825 116.2 166.952 116.177 167.077C116.172 166.999 116.17 166.919 116.17 166.841C116.17 166.763 116.172 166.684 116.177 166.605C116.177 166.267 116.177 165.815 116.137 165.278C116.137 164.069 116.084 162.39 116.044 160.338C115.97 156.163 115.798 150.38 115.585 144.033C115.373 137.687 115.24 131.904 115.227 127.728C115.227 125.644 115.227 123.951 115.227 122.789C115.227 122.231 115.227 121.787 115.227 121.462C115.227 121.454 115.227 121.445 115.227 121.437C115.227 121.29 115.235 121.143 115.253 120.998Z" fill="#263238"/>
<path d="M147.027 180.96C147.005 180.9 146.991 180.837 146.987 180.774C146.987 180.628 146.987 180.442 146.928 180.21C146.875 179.685 146.801 178.962 146.715 178.039C146.529 176.154 146.317 173.392 146.105 170.039C145.892 166.687 145.713 162.624 145.6 158.149C145.487 153.674 145.474 148.742 145.6 143.543C145.726 138.345 145.959 133.452 146.264 128.984C146.569 124.516 146.928 120.493 147.286 117.127C147.645 113.761 147.95 111.032 148.242 109.16C148.375 108.237 148.475 107.52 148.548 107.003C148.588 106.77 148.614 106.585 148.641 106.439C148.644 106.376 148.657 106.313 148.681 106.253C148.685 106.285 148.688 106.317 148.688 106.35C148.688 106.382 148.686 106.414 148.681 106.446C148.681 106.592 148.648 106.778 148.628 107.01C148.568 107.528 148.488 108.251 148.383 109.174C148.157 111.06 147.864 113.782 147.539 117.141C147.214 120.5 146.875 124.53 146.59 128.998C146.304 133.466 146.085 138.385 145.966 143.55C145.847 148.715 145.88 153.635 145.966 158.11C146.052 162.584 146.218 166.607 146.404 169.986C146.59 173.365 146.755 176.107 146.901 177.993C146.961 178.916 147.014 179.646 147.047 180.171C147.047 180.404 147.047 180.589 147.08 180.735C147.07 180.811 147.052 180.887 147.028 180.961H147.028L147.027 180.96Z" fill="#263238"/>
<path d="M127.244 72.2942L126.54 72.7588L124.469 74.0863C123.553 74.6772 122.477 75.5204 121.216 76.4496C120.552 76.9276 119.941 77.505 119.224 78.0894L118.142 78.9989C117.771 79.3176 117.419 79.663 117.04 80.0282C113.374 83.4533 110.143 87.334 107.444 91.5576L106.262 93.4562C105.844 94.0872 105.525 94.7838 105.141 95.4479C104.756 96.112 104.377 96.829 104.032 97.5594C103.686 98.2898 103.367 99.0399 103.009 99.7965C102.844 100.175 102.657 100.547 102.498 100.939C102.339 101.331 102.199 101.729 102.047 102.134C101.748 102.93 101.429 103.733 101.137 104.564C100.646 106.243 100.022 107.943 99.6505 109.755C98.5282 114.425 97.9482 119.236 97.9482 124.047C97.9482 127.274 98.2159 130.524 98.7213 133.706C103.439 162.8 128.573 184.184 158.051 184.184C171.245 184.184 184.095 179.832 194.574 171.819C196.642 170.227 198.642 168.475 200.503 166.637L201.831 165.23C202.282 164.765 202.72 164.294 203.158 163.796L204.42 162.342C204.818 161.837 205.21 161.333 205.608 160.835C211.613 153.103 215.621 144.002 217.273 134.357C217.661 132.117 217.931 129.846 218.066 127.582C218.132 126.461 218.132 125.352 218.173 124.263C218.212 123.175 218.093 122.066 218.053 120.983C218.053 120.445 218.007 119.901 217.987 119.363C217.967 118.825 217.868 118.301 217.814 117.77C217.682 116.715 217.556 115.665 217.429 114.63C217.303 113.594 217.031 112.585 216.832 111.576C216.668 110.581 216.439 109.579 216.167 108.608L215.343 105.733C215.217 105.264 215.058 104.796 214.874 104.345C214.701 103.887 214.528 103.429 214.363 102.977C214.011 102.081 213.699 101.165 213.321 100.322C212.942 99.4784 212.53 98.6218 212.139 97.792C209.256 91.7966 205.372 86.3053 200.68 81.5916C197.124 78.0659 193.135 74.9557 188.848 72.3726L186.312 70.9188C185.933 70.6951 185.535 70.4886 185.132 70.3069L184.017 69.7761L182.025 68.8334C181.428 68.5281 180.837 68.3554 180.339 68.1693L178.029 67.2796L177.245 66.9609L178.042 67.2465L180.359 68.1094C180.864 68.3089 181.454 68.481 182.059 68.7735L184.05 69.7028L185.172 70.2337C185.577 70.4115 185.975 70.6116 186.359 70.8308L188.902 72.2782C193.218 74.8416 197.234 77.9499 200.803 81.4813C205.527 86.1919 209.437 91.6819 212.342 97.6888C212.734 98.532 213.132 99.3752 213.537 100.238C213.941 101.101 214.201 102.011 214.586 102.894L215.104 104.262C215.291 104.711 215.451 105.181 215.579 105.653C215.857 106.609 216.136 107.565 216.415 108.541C216.698 109.516 216.939 110.518 217.114 111.522C217.313 112.531 217.552 113.514 217.725 114.583C217.897 115.651 217.977 116.681 218.11 117.743C218.169 118.273 218.255 118.805 218.289 119.342C218.322 119.88 218.335 120.424 218.355 120.969C218.395 122.057 218.454 123.153 218.481 124.288C218.508 125.423 218.448 126.512 218.375 127.607C217.697 139.751 213.326 151.421 205.873 161.034L204.664 162.549L203.389 164.016C202.977 164.513 202.532 164.991 202.061 165.456L200.734 166.877C198.861 168.729 196.854 170.474 194.762 172.08C184.231 180.125 171.323 184.499 158.069 184.499C128.456 184.499 103.202 163.021 98.4447 133.799C97.9457 130.714 97.6895 127.586 97.6895 124.458C97.6895 123.389 97.7181 122.299 97.7749 121.237C97.9425 117.364 98.5123 113.503 99.4479 109.747C99.8194 107.928 100.45 106.228 100.942 104.536C101.241 103.712 101.566 102.902 101.871 102.099C102.024 101.701 102.176 101.302 102.322 100.904C102.468 100.506 102.674 100.141 102.84 99.7557C103.192 98.9991 103.504 98.2554 103.87 97.5186C104.235 96.7819 104.626 96.098 104.991 95.4008C105.357 94.7035 105.702 94.0133 106.12 93.3759L107.315 91.4773C110.02 87.2473 113.287 83.364 116.984 79.9613C117.362 79.6095 117.714 79.2507 118.085 78.932L119.174 78.0225C119.891 77.4451 120.502 76.8741 121.166 76.3961C122.46 75.4668 123.523 74.637 124.445 74.0526L126.537 72.725C126.989 72.4331 127.248 72.2935 127.248 72.2935L127.244 72.2942Z" fill="#263238"/>
<path fill-rule="evenodd" clip-rule="evenodd" d="M124.658 37.5546C124.658 37.5546 126.044 26.3649 172.569 31.1583V8.7165C172.569 8.7165 151.992 -0.237429 125.096 10.6661L124.658 37.554V37.5546Z" fill="#1D262B" stroke="#373435" stroke-width="0.288" stroke-miterlimit="22.9256"/>
<path fill-rule="evenodd" clip-rule="evenodd" d="M171.825 8.42368C167.916 6.97056 149.004 0.973869 125.096 10.6665L125.089 11.0769C130.313 11.5728 137.775 11.7264 146.05 11.4153C157.488 10.9858 167.326 9.78758 171.825 8.42432L171.825 8.42368Z" fill="#2D3B42" stroke="#373435" stroke-width="0.288" stroke-miterlimit="22.9256"/>
</svg>
