<svg width="296" height="198" viewBox="0 0 296 198" fill="none" xmlns="http://www.w3.org/2000/svg">
<path d="M281.657 76.7763C281.657 76.7763 288.282 77.1491 285.771 91.8176C283.259 106.486 280.742 114.085 280.742 114.085C280.742 114.085 280.506 117.355 283.122 117.061C285.738 116.767 290.898 114.184 292.932 116.865C294.966 119.546 293.697 123.306 289.891 127.328C286.085 131.35 278.061 140.493 277.341 141.323C276.622 142.154 276.177 143.776 277.995 143.848C279.813 143.92 292.435 141.382 293.279 147.451C294.122 153.52 281.67 163.003 280.33 164.062C278.989 165.121 278.826 165.887 279.212 166.678C279.597 167.469 283.789 166.226 287.38 165.651C290.97 165.076 295.299 165.049 295.496 168.587C295.692 172.125 289.518 181.608 269.932 189.88L260.606 193.15L253 186.794C237.553 172.184 235.095 161.138 236.514 157.895C237.933 154.651 241.955 156.181 245.146 157.986C248.338 159.791 251.797 162.42 252.438 161.806C253.079 161.191 253.19 160.425 252.307 158.961C251.424 157.496 243.08 144.247 245.997 138.864C248.913 133.482 259.848 140.277 261.574 140.826C263.301 141.376 263.445 139.702 263.065 138.695C262.686 137.688 258.37 126.269 256.212 121.188C254.054 116.107 254.073 112.17 257.029 110.312C259.881 108.514 263.824 112.726 266.185 113.929C268.546 115.132 269.455 111.967 269.455 111.967C269.455 111.967 269.775 103.923 272.554 89.3261C275.334 74.7295 281.815 76.7764 281.815 76.7764H281.657L281.657 76.7763Z" fill="#EBEBEB"/>
<path d="M260.815 195.511C262.816 184.779 266.047 165.657 268.898 149.249C271.749 132.841 274.352 118.002 276.294 107.271C277.269 101.908 278.06 97.5722 278.609 94.5576C278.878 93.0664 279.093 91.9025 279.263 91.0981C279.329 90.7123 279.381 90.4115 279.42 90.202C279.46 89.9927 279.46 89.8882 279.46 89.8882C279.46 89.8882 279.427 89.9927 279.388 90.1957C279.348 90.3987 279.283 90.7058 279.205 91.0915C279.041 91.8893 278.812 93.0536 278.518 94.5381C277.929 97.5266 277.105 101.869 276.111 107.232C274.11 117.957 271.481 132.795 268.623 149.197C265.765 165.598 262.574 184.734 260.632 195.472L260.815 195.511L260.815 195.511Z" fill="#E0E0E0"/>
<path d="M285.862 120.736C285.65 120.844 285.447 120.973 285.261 121.121C284.888 121.39 284.358 121.775 283.704 122.286C282.396 123.28 280.637 124.705 278.721 126.308L273.823 130.441L272.338 131.683C272.144 131.823 271.964 131.983 271.802 132.161C272.016 132.052 272.22 131.922 272.41 131.775C272.783 131.513 273.312 131.121 273.96 130.611C275.268 129.597 277.001 128.152 278.917 126.543L283.835 122.456L285.332 121.22C285.528 121.08 285.706 120.917 285.862 120.736V120.736H285.862Z" fill="#E0E0E0"/>
<path d="M270.971 131.755C271.043 131.703 268.264 127.942 264.778 123.352C261.293 118.761 258.402 115.072 258.337 115.125C258.271 115.177 261.044 118.944 264.536 123.535C268.029 128.125 270.932 131.807 270.971 131.755Z" fill="#E0E0E0"/>
<path d="M267.721 157.142C267.549 156.973 267.36 156.818 267.158 156.684L265.569 155.501C264.222 154.506 262.378 153.12 260.396 151.518C258.415 149.916 256.662 148.405 255.4 147.306L253.915 145.998C253.746 145.822 253.552 145.67 253.34 145.547C253.486 145.74 253.652 145.92 253.831 146.083C254.164 146.417 254.648 146.894 255.256 147.463C256.479 148.607 258.212 150.151 260.201 151.753C262.189 153.356 264.065 154.722 265.432 155.677C266.126 156.154 266.688 156.527 267.087 156.782C267.282 156.926 267.496 157.048 267.721 157.142H267.721L267.721 157.142Z" fill="#E0E0E0"/>
<path d="M283.357 150.139C283.132 150.184 282.912 150.257 282.703 150.354L281.003 151.008C279.571 151.597 277.609 152.427 275.438 153.362C273.267 154.298 271.318 155.161 269.912 155.802L268.316 156.593C268.109 156.68 267.908 156.788 267.721 156.913C267.947 156.873 268.167 156.802 268.375 156.704L270.075 156.05C271.507 155.462 273.476 154.631 275.64 153.696C277.805 152.761 279.761 151.898 281.166 151.257L282.827 150.485C283.018 150.391 283.196 150.275 283.357 150.138V150.139L283.357 150.139Z" fill="#E0E0E0"/>
<path d="M283.357 172.916C283.076 172.981 282.801 173.075 282.54 173.197L280.356 174.06C278.518 174.806 275.987 175.852 273.201 177.023C270.415 178.194 267.898 179.273 266.08 180.064L263.935 181.019C263.667 181.126 263.408 181.259 263.163 181.411C263.443 181.343 263.717 181.248 263.98 181.13L266.164 180.267C268.002 179.521 270.533 178.475 273.319 177.304C276.105 176.134 278.622 175.054 280.44 174.263L282.585 173.309C282.853 173.201 283.112 173.068 283.357 172.916V172.916Z" fill="#E0E0E0"/>
<path d="M263.601 181.071C263.385 180.852 263.151 180.65 262.901 180.47L260.939 178.9C259.285 177.592 257.016 175.735 254.544 173.629C252.072 171.523 249.894 169.574 248.331 168.149L246.467 166.455C246.25 166.237 246.013 166.036 245.761 165.859C245.96 166.094 246.18 166.314 246.415 166.514C246.827 166.939 247.442 167.547 248.207 168.28C249.737 169.751 251.902 171.739 254.367 173.839C256.833 175.938 259.141 177.762 260.835 179.071C261.685 179.724 262.372 180.222 262.862 180.562C263.093 180.751 263.341 180.922 263.601 181.071L263.601 181.071Z" fill="#E0E0E0"/>
<path d="M22.0707 0.327148H250.358C256.83 0.327148 262.077 5.57509 262.077 12.0461V197.25H10.3516V12.0396C10.3548 5.57079 15.6027 0.327148 22.071 0.327148H22.0707Z" fill="#FAFAFA"/>
<path d="M226.037 150.282C226.037 150.381 185.426 150.459 135.338 150.459C85.2504 150.459 44.6587 150.38 44.6587 150.282C44.6587 150.185 85.257 150.112 135.364 150.112C185.471 150.112 226.037 150.191 226.037 150.282Z" fill="#263238"/>
<path d="M209.374 161.596C209.374 161.688 178.336 161.766 140.053 161.766C101.77 161.766 70.7324 161.688 70.7324 161.596C70.7324 161.505 101.763 161.42 140.053 161.42C178.343 161.42 209.374 161.478 209.374 161.596Z" fill="#263238"/>
<path d="M262.071 0.327148H10.3511V76.6912H262.071V0.327148Z" fill="#BF4157"/>
<path d="M262.431 197.564H9.99805V0H262.431V197.564ZM10.6522 196.91H261.777V0.654037H10.6522V196.91Z" fill="#263238"/>
<path d="M116.278 64.5956C115.984 64.5316 115.698 64.43 115.429 64.2952C114.676 63.9726 113.948 63.5739 113.27 63.1177C109.301 60.4608 106.917 55.9973 106.917 51.221C106.917 50.4641 106.978 49.7057 107.097 48.9594C107.218 48.1491 107.418 47.35 107.692 46.5786C107.779 46.2894 107.901 46.0103 108.052 45.7485C107.747 46.8183 107.503 47.9188 107.334 49.0193C107.246 49.663 107.201 50.3206 107.201 50.9732C107.201 55.7337 109.518 60.1991 113.408 62.9411C114.329 63.5477 115.293 64.1085 116.28 64.5969L116.278 64.5957V64.5956Z" fill="white"/>
<path d="M108.202 63.798C108.202 63.798 108.032 63.6999 107.764 63.4646C107.388 63.139 107.036 62.7808 106.717 62.3982C105.641 61.1436 104.791 59.7036 104.214 58.1549C103.63 56.6064 103.319 54.9615 103.298 53.3079C103.298 53.2638 103.296 53.213 103.296 53.1663C103.296 52.7161 103.325 52.2634 103.382 51.817C103.391 51.6319 103.428 51.4483 103.494 51.2744C103.553 51.2744 103.494 52.0592 103.539 53.3017C103.707 56.5579 104.884 59.6866 106.901 62.249C107.705 63.2227 108.241 63.7524 108.202 63.7981L108.202 63.798Z" fill="white"/>
<path d="M167.512 44.4254C167.625 44.6533 167.709 44.8954 167.76 45.1447C167.851 45.4244 167.924 45.7119 167.976 46.0018C168.061 46.3837 168.127 46.7748 168.171 47.1658C168.27 47.8917 168.319 48.6307 168.319 49.3659C168.319 49.6513 168.31 49.943 168.296 50.2262C168.222 51.4762 168.022 52.7244 167.708 53.9347C167.367 55.1416 166.91 56.3196 166.348 57.4396C165.88 58.3556 165.324 59.2366 164.699 60.0551C164.444 60.4083 164.169 60.7091 163.94 60.9576C163.75 61.189 163.541 61.4091 163.319 61.6118C163.147 61.7945 162.955 61.9623 162.751 62.1089C162.698 62.0565 163.49 61.3241 164.503 59.931C165.095 59.1055 165.619 58.2271 166.065 57.315C167.164 55.1021 167.82 52.689 167.983 50.2254C168.008 49.8198 168.022 49.4099 168.022 49.0024C168.022 48.4047 167.993 47.8049 167.938 47.2116C167.76 45.4456 167.446 44.4253 167.512 44.4253L167.512 44.4254Z" fill="white"/>
<path d="M171.795 51.6191C171.872 52.0072 171.911 52.4035 171.911 52.7996C171.911 52.9795 171.903 53.1602 171.887 53.3392C171.79 56.1269 171.028 58.8596 169.671 61.2975C169.417 61.8134 169.09 62.2932 168.702 62.7176C168.92 62.1946 169.174 61.6793 169.455 61.1865C170.674 58.7357 171.421 56.068 171.645 53.3396C171.659 52.7643 171.712 52.1885 171.795 51.6195L171.795 51.6193V51.6191Z" fill="white"/>
<path d="M10.5016 100.241C10.5016 100.241 24.7061 96.4674 25.5429 97.1474C29.8983 100.62 52.9313 97.8996 52.9313 97.8996L74.9111 104.106C74.9111 104.106 78.4817 130.435 80.8947 140.728C82.5036 147.575 76.4607 157.869 76.4607 157.869L68.7046 185.989L75.4079 197.068L10.4751 197.035V100.248L10.5015 100.241L10.5016 100.241Z" fill="#BF4157"/>
<path d="M67.0371 130.519C67.0371 130.519 66.8409 130.519 66.468 130.578C66.0954 130.637 65.5395 130.65 64.8331 130.735C62.8407 130.949 60.8499 131.28 58.8889 131.691C56.3907 132.201 53.4544 132.94 50.1846 133.738C48.5497 134.13 46.823 134.536 45.0247 134.895C44.1222 135.065 43.2131 135.262 42.2651 135.353L41.5523 135.432H40.8329C40.3491 135.432 39.865 135.471 39.3746 135.432C35.7325 135.241 32.0822 134.718 28.5286 133.922C25.2588 133.268 22.2766 132.542 19.7916 131.999C17.3066 131.456 15.2857 131.038 13.9059 130.829C13.2061 130.698 12.6501 130.645 12.2839 130.593C11.9176 130.541 11.7148 130.501 11.7148 130.501C11.7148 130.501 12.5061 130.547 13.9187 130.75C15.3312 130.952 17.3521 131.332 19.8436 131.855C22.3349 132.378 25.2912 133.065 28.5871 133.732C32.1333 134.516 35.7749 135.029 39.4082 135.224C39.8922 135.256 40.3762 135.224 40.8534 135.224H41.5663C41.8018 135.224 42.0306 135.171 42.2659 135.145C43.2012 135.06 44.1166 134.864 45.0127 134.694C46.8111 134.341 48.5312 133.935 50.166 133.549C53.4358 132.764 56.3852 132.032 58.8834 131.548C61.5603 130.968 64.298 130.623 67.0353 130.521L67.0371 130.519V130.519Z" fill="#FAFAFA"/>
<path d="M69.8297 180.868L69.3196 180.522C68.9993 180.28 68.5022 179.959 67.8613 179.547C66.0313 178.421 64.0736 177.493 62.0412 176.795C59.0219 175.768 55.8552 175.199 52.6689 175.113C48.779 175.159 44.8445 175.487 40.9926 176.073C37.1414 176.635 33.1933 177.028 29.2998 177.191C28.8818 177.198 28.4512 177.207 28.03 177.207C25.2505 177.207 22.471 176.903 19.7568 176.304C17.6483 175.826 15.6069 175.065 13.6997 174.054C13.0458 173.681 12.5225 173.4 12.189 173.145C11.8556 172.889 11.6855 172.798 11.6855 172.798C11.6855 172.798 11.8752 172.902 12.2153 173.112C12.5554 173.321 13.0655 173.622 13.739 173.981C15.6537 174.967 17.7034 175.701 19.8081 176.161C22.4709 176.73 25.1908 177.022 27.9155 177.022C28.3767 177.022 28.8521 177.012 29.3083 176.998C33.2018 176.834 37.1306 176.434 40.9767 175.869C44.8577 175.275 48.7672 174.947 52.6865 174.928C55.8928 175.017 59.0774 175.607 62.105 176.657C64.1437 177.37 66.1022 178.322 67.9263 179.481C68.5803 179.899 69.0512 180.239 69.3651 180.488C69.679 180.736 69.8298 180.868 69.8298 180.868L69.8297 180.868Z" fill="#FAFAFA"/>
<path d="M70.7454 190.149C70.7454 190.149 70.5428 190.214 70.1502 190.319C69.7578 190.423 69.189 190.574 68.4564 190.809C66.3999 191.476 64.3669 192.265 62.3992 193.147C59.4935 194.526 56.4465 195.626 53.3323 196.418C51.5122 196.83 49.645 197.041 47.778 197.041C47.7411 197.041 47.6981 197.041 47.6616 197.041C45.6208 197.012 43.5762 196.788 41.5721 196.388C37.4521 195.55 33.6656 194.256 30.18 193.255C27.1168 192.313 23.9445 191.664 20.7542 191.334C19.9672 191.253 19.1625 191.212 18.3666 191.212C17.003 191.212 15.6394 191.33 14.2962 191.561C13.544 191.711 12.9881 191.835 12.5761 191.953C12.1641 192.071 11.981 192.104 11.981 192.104C11.981 192.104 12.1772 192.032 12.563 191.914C12.9488 191.796 13.531 191.646 14.283 191.482C15.7004 191.22 17.1439 191.087 18.5874 191.087C19.3147 191.087 20.0481 191.122 20.7698 191.188C23.9722 191.496 27.1564 192.138 30.2337 193.076C33.7259 194.071 37.5124 195.352 41.6129 196.183C43.6003 196.579 45.6399 196.806 47.6673 196.839C47.7051 196.838 47.7483 196.838 47.7851 196.838C49.6355 196.838 51.4856 196.632 53.2897 196.229C56.396 195.427 59.4392 194.322 62.3435 192.959C64.3161 192.08 66.3633 191.305 68.43 190.676C69.169 190.447 69.7381 190.309 70.1435 190.218L70.7456 190.148L70.7454 190.149Z" fill="#FAFAFA"/>
<path d="M70.6274 179.122C70.9477 169.221 72.5894 157.613 71.1572 148.386C73.1649 152.663 75.3035 162.204 75.3035 162.204C74.9639 163.808 74.5256 165.411 73.9979 166.964C72.8929 170.699 71.7418 175.401 70.6364 179.141" fill="black" fill-opacity="0.301961"/>
<path d="M74.7408 158.49C74.7408 158.49 74.5383 158.352 74.1718 158.078C73.6445 157.674 73.0896 157.296 72.5183 156.958C70.3768 155.739 68.023 154.915 65.5858 154.545C63.9278 154.298 62.2494 154.171 60.5712 154.171C58.6092 154.171 56.6472 154.348 54.718 154.685C50.6567 155.339 46.3014 156.647 41.6778 157.746C37.0544 158.844 32.5222 159.708 28.3892 159.217C24.7423 158.824 21.1929 157.77 17.9244 156.11C16.6732 155.473 15.4739 154.724 14.3529 153.879C13.8757 153.48 13.4243 153.113 13.045 152.754C12.6655 152.394 12.319 152.041 12.0314 151.714L11.3059 150.805C11.1393 150.578 10.9831 150.337 10.8425 150.092C10.6005 149.707 10.4829 149.491 10.4829 149.491C10.4829 149.491 10.6267 149.687 10.8753 150.073C11.0061 150.256 11.1435 150.511 11.3526 150.772L12.0917 151.662C12.386 151.982 12.7456 152.316 13.112 152.682C13.4782 153.048 13.9492 153.401 14.42 153.787C15.5412 154.62 16.7394 155.358 17.9897 155.977C21.2518 157.612 24.7841 158.649 28.4094 159.032C32.5098 159.496 37.0287 158.639 41.6326 157.547C46.2367 156.455 50.6052 155.147 54.712 154.5C56.5987 154.17 58.5247 154.003 60.4467 154.003C62.1814 154.003 63.9199 154.141 65.6301 154.41C68.0716 154.795 70.4258 155.64 72.557 156.888C73.1268 157.238 73.6777 157.628 74.1994 158.045C74.5645 158.326 74.7408 158.49 74.7408 158.49Z" fill="#FAFAFA"/>
<path d="M60.9488 180.803C60.8334 180.852 60.7125 180.889 60.5894 180.914L59.5365 181.169C58.6274 181.385 57.3066 181.679 55.6651 182.032C52.3953 182.732 47.8175 183.648 42.8211 184.57C37.8248 185.492 33.2207 186.244 29.9117 186.748C28.2573 186.996 26.91 187.192 25.9879 187.31L24.9219 187.447C24.8591 187.456 24.7953 187.46 24.732 187.46C24.6687 187.46 24.6051 187.455 24.5425 187.447C24.6618 187.408 24.7849 187.377 24.9087 187.355L25.9681 187.159L29.8918 186.505C33.1616 185.943 37.7394 185.158 42.7814 184.236C47.8234 183.314 52.3492 182.438 55.6385 181.79L59.5296 181.038L60.5957 180.848C60.7111 180.82 60.83 180.805 60.949 180.803L60.9487 180.803L60.9488 180.803Z" fill="#263238"/>
<path d="M62.1784 157.6C62.1796 157.622 62.1802 157.644 62.1802 157.666C62.1802 157.778 62.1688 157.89 62.1461 157.999C62.1003 158.254 62.0805 158.653 61.9629 159.124C61.6801 160.496 61.2397 161.835 60.6541 163.107C59.7842 164.986 58.6597 166.751 57.3258 168.337C55.6881 170.286 53.8023 172.026 51.7269 173.499C47.9155 176.091 43.7684 178.198 39.4286 179.746C37.7805 180.4 36.4269 180.845 35.5048 181.159L34.4257 181.518C34.3009 181.56 34.1733 181.596 34.0449 181.62C34.1559 181.547 34.2772 181.489 34.4045 181.45L35.4638 181.032L39.3877 179.521C43.682 177.922 47.7852 175.803 51.5887 173.241C53.6173 171.775 55.4727 170.051 57.085 168.136C58.4175 166.574 59.5447 164.843 60.4322 162.99C61.0325 161.735 61.5024 160.417 61.8254 159.066C62.0607 158.137 62.1457 157.6 62.1784 157.6Z" fill="#263238"/>
<path d="M25.2553 98.9194C25.2553 98.9194 30.5985 109.756 41.9055 109.278C53.2125 108.801 54.3898 98.8149 54.3898 98.8149L60.7204 105.78L54.3898 121.364L45.0839 125.386L29.9251 121.364L25.8705 114.942L15.8384 103.072L25.2555 98.9193L25.2553 98.9194Z" fill="#BF4157"/>
<path d="M63.3882 109.965L80.9212 102.562C80.9212 102.562 106.426 159.725 107.891 163.42C111.409 172.125 107.93 185.041 98.3561 184.805C93.8437 184.701 80.9212 182.948 77.3963 169.221C76.2912 164.918 73.1586 154.605 73.1586 154.605L63.3883 109.965H63.3882Z" fill="#BF4157"/>
<path d="M80.921 102.562C80.8254 102.629 80.7223 102.687 80.614 102.732L79.6918 103.177L76.18 104.838L63.5844 110.724L63.663 110.567C64.7029 116.413 65.9978 123.365 67.5868 130.755C69.8627 141.486 72.3477 151.106 74.2574 158.032C75.2317 161.479 76.0232 164.271 76.5724 166.226C76.8469 167.174 77.0563 167.92 77.2263 168.45L77.3834 169.032C77.4087 169.096 77.4242 169.165 77.4289 169.234C77.3963 169.174 77.3697 169.11 77.3505 169.044C77.3048 168.894 77.2393 168.711 77.161 168.469L76.4677 166.265C75.8725 164.342 75.0355 161.557 74.0479 158.097C72.0859 151.185 69.5551 141.565 67.2727 130.827C65.6968 123.43 64.4214 116.472 63.4077 110.613V110.501L63.5122 110.455L76.1598 104.701L79.711 103.111L80.6463 102.699L80.9208 102.562L80.921 102.562Z" fill="#263238"/>
<path d="M105.053 159.765C105.009 159.856 104.956 159.944 104.896 160.026L104.412 160.765C104.165 161.156 103.889 161.534 103.594 161.89C103.254 162.315 102.894 162.825 102.423 163.315L101.697 164.113C101.442 164.388 101.155 164.649 100.867 164.931C100.298 165.506 99.6309 166.042 98.9378 166.631C97.3912 167.837 95.7213 168.914 93.9811 169.817C92.2221 170.694 90.3807 171.409 88.4898 171.94C87.6135 172.156 86.7829 172.384 85.9849 172.502C85.586 172.568 85.2066 172.653 84.8339 172.698L83.7614 172.81C83.1074 172.901 82.4533 172.895 81.9173 172.921C81.6847 172.937 81.4506 172.945 81.2189 172.945C80.9873 172.945 80.7533 172.937 80.523 172.923L79.64 172.883C79.5899 172.886 79.5395 172.888 79.4893 172.888C79.4392 172.888 79.3888 172.886 79.3389 172.883C79.3897 172.878 79.4414 172.875 79.4926 172.875C79.5437 172.875 79.5954 172.878 79.646 172.883L80.5223 172.883C80.7533 172.894 80.9869 172.902 81.2189 172.902C81.4511 172.902 81.6847 172.894 81.9153 172.883C82.4515 172.843 83.0727 172.843 83.7464 172.739L84.8057 172.614C85.1784 172.562 85.5579 172.477 85.9501 172.412C86.7413 172.288 87.5654 172.052 88.4418 171.836C92.2118 170.774 95.7423 168.972 98.8201 166.552C99.5068 165.977 100.18 165.447 100.782 164.878C101.07 164.603 101.364 164.348 101.619 164.074C101.874 163.799 102.116 163.544 102.345 163.289C102.822 162.805 103.196 162.308 103.542 161.896C103.838 161.545 104.121 161.173 104.38 160.792L104.896 160.079L105.053 159.765Z" fill="#FAFAFA"/>
<path d="M100.246 144.272C100.21 144.366 100.163 144.456 100.109 144.54C100.011 144.71 99.8798 144.979 99.664 145.293C99.0829 146.192 98.3943 147.028 97.6229 147.77C96.4841 148.887 95.1753 149.82 93.7459 150.53C91.997 151.414 90.0854 151.947 88.1336 152.095C87.7716 152.104 87.3927 152.109 87.0237 152.109C85.4493 152.109 83.8696 152.016 82.3099 151.834C81.7113 151.768 81.1063 151.736 80.5052 151.736C79.5296 151.736 78.5518 151.822 77.5928 151.989C76.5448 152.176 75.5387 152.563 74.636 153.127C73.9821 153.532 73.7138 153.84 73.6943 153.82C73.963 153.531 74.2678 153.273 74.5971 153.055C75.495 152.458 76.5074 152.045 77.5663 151.845C78.5799 151.657 79.6171 151.559 80.6499 151.559C81.2063 151.559 81.7688 151.588 82.321 151.643C83.8747 151.813 85.4564 151.905 87.0228 151.905C87.3885 151.905 87.7595 151.895 88.1203 151.89C90.0477 151.748 91.9331 151.225 93.6606 150.36C95.0801 149.67 96.3875 148.759 97.5263 147.667C98.2967 146.936 98.9907 146.123 99.5913 145.247C99.8138 144.946 99.951 144.685 100.069 144.521C100.122 144.435 100.182 144.352 100.246 144.273H100.246V144.272Z" fill="#FAFAFA"/>
<path d="M69.2871 137.471C69.2871 137.471 69.6403 137.471 70.2681 137.471C71.1555 137.45 72.0366 137.304 72.8841 137.039C74.1339 136.642 75.3259 136.063 76.416 135.332C77.7451 134.422 79.0214 133.411 80.2148 132.331C81.4118 131.244 82.6768 130.216 83.9931 129.275C85.0862 128.514 86.2792 127.898 87.5338 127.452C88.3752 127.155 89.2573 126.979 90.1494 126.935C90.239 126.931 90.3307 126.929 90.4211 126.929C90.6575 126.929 90.8954 126.945 91.1297 126.975C91.3639 127.005 90.7765 126.975 90.1487 127.014C89.2564 127.087 88.3744 127.282 87.5326 127.59C86.3034 128.049 85.1317 128.671 84.0613 129.433C82.7587 130.378 81.491 131.405 80.3001 132.486C79.1042 133.575 77.8173 134.583 76.4764 135.489C75.3669 136.223 74.1496 136.798 72.8772 137.184C72.0512 137.426 71.1906 137.55 70.3289 137.55C70.2935 137.55 70.2571 137.549 70.2229 137.549C70.2055 137.55 70.1867 137.55 70.1697 137.55C69.874 137.55 69.5785 137.523 69.2876 137.471L69.2871 137.471V137.471Z" fill="#FAFAFA"/>
<path d="M238.234 168.502C239.745 170.307 242.301 169.437 243.407 168.156C244.512 166.874 244.872 165.134 245.192 163.473C245.931 159.68 246.657 155.704 245.526 152.009C245.235 150.884 244.639 149.861 243.805 149.052C243.192 148.477 242.38 148.155 241.537 148.155C241.216 148.155 240.896 148.202 240.588 148.294C239.28 148.758 238.626 150.119 238.116 151.4C236.975 154.452 236.385 157.698 236.385 160.96C236.385 161.722 236.419 162.484 236.482 163.243C236.645 165.113 237.038 167.056 238.235 168.475L238.234 168.502H238.234Z" fill="#BF4157"/>
<path d="M238.234 168.502C239.745 170.307 242.301 169.437 243.407 168.156C244.512 166.874 244.872 165.134 245.192 163.473C245.931 159.68 246.657 155.704 245.526 152.009C245.235 150.884 244.639 149.861 243.805 149.052C243.192 148.477 242.38 148.155 241.537 148.155C241.216 148.155 240.896 148.202 240.588 148.294C239.28 148.758 238.626 150.119 238.116 151.4C236.975 154.452 236.385 157.698 236.385 160.96C236.385 161.722 236.419 162.484 236.482 163.243C236.645 165.113 237.038 167.056 238.235 168.475" fill="black" fill-opacity="0.2"/>
<path d="M244.152 177.775C245.933 176.732 247.966 176.181 250.032 176.181C250.46 176.181 250.888 176.205 251.313 176.252C251.316 176.251 251.322 176.251 251.326 176.251C252.665 176.251 253.967 176.701 255.02 177.526C256.002 178.429 256.329 180.142 255.38 181.084C254.761 181.583 253.989 181.856 253.193 181.856C253.188 181.856 253.182 181.856 253.177 181.856C251.267 182 249.115 181.856 247.697 183.164C246.885 183.896 246.388 185.034 245.388 185.453C245.14 185.533 244.881 185.575 244.621 185.575C243.802 185.575 243.036 185.169 242.576 184.491C242.144 183.815 241.915 183.027 241.915 182.224C241.915 181.952 241.942 181.678 241.994 181.411C242.1 179.927 242.901 178.58 244.152 177.775H244.152Z" fill="#BF4157"/>
<path d="M234.807 171.589C235.52 170.467 235.899 169.161 235.899 167.831C235.899 166.874 235.703 165.926 235.324 165.049C234.392 162.961 232.901 161.162 231.02 159.862C228.871 158.269 226.421 157.108 223.827 156.455C223.141 156.247 222.425 156.14 221.708 156.14C221.378 156.14 221.047 156.163 220.72 156.207C219.663 156.361 218.751 157.031 218.287 157.992C217.692 159.425 218.523 161.02 219.392 162.309C220.91 164.572 222.619 166.723 224.474 168.723C225.971 170.331 227.658 171.901 229.771 172.503C231.883 173.104 234.002 172.816 234.963 171.306L234.807 171.589L234.807 171.589Z" fill="#BF4157"/>
<path d="M240.745 197.46C240.779 197.244 240.797 197.026 240.797 196.807C240.797 196.731 240.795 196.652 240.791 196.577C240.791 195.923 240.791 195.131 240.791 194.177C240.797 192.998 240.879 191.809 241.014 190.637C241.197 189.21 241.504 187.788 241.917 186.408C242.315 185.025 242.911 183.7 243.681 182.484C244.312 181.496 245.155 180.658 246.147 180.032C246.82 179.622 247.558 179.319 248.325 179.136C248.616 179.099 248.904 179.031 249.181 178.933C249.134 178.931 249.086 178.93 249.038 178.93C248.79 178.93 248.542 178.953 248.298 178.998C247.496 179.132 246.721 179.411 246.015 179.816C244.966 180.428 244.069 181.279 243.4 182.294C242.596 183.528 241.974 184.883 241.562 186.297C241.143 187.697 240.844 189.141 240.672 190.592C240.577 191.579 240.523 192.575 240.523 193.568C240.523 193.766 240.527 193.976 240.53 194.171C240.53 195.184 240.589 196.008 240.621 196.571C240.633 196.87 240.676 197.168 240.745 197.46V197.46V197.46Z" fill="#263238"/>
<path d="M240.745 195.603C240.755 195.534 240.76 195.465 240.76 195.396C240.76 195.327 240.755 195.258 240.745 195.19C240.745 194.889 240.686 194.503 240.64 194.039C240.549 193.032 240.418 191.58 240.313 189.782C240.077 186.185 239.947 181.202 240.058 175.702C240.169 170.202 240.529 165.238 240.941 161.654C241.039 160.758 241.137 159.947 241.242 159.241C241.346 158.535 241.412 157.933 241.497 157.423C241.582 156.913 241.621 156.573 241.667 156.272C241.675 156.206 241.679 156.138 241.679 156.07C241.679 156.002 241.675 155.934 241.667 155.867C241.619 155.994 241.583 156.126 241.562 156.26C241.497 156.561 241.419 156.94 241.327 157.398C241.216 157.895 241.117 158.503 241.006 159.209C240.895 159.916 240.764 160.726 240.66 161.622C240.076 166.261 239.728 171.018 239.665 175.695C239.554 181.208 239.724 186.198 240.025 189.801C240.162 191.6 240.332 193.071 240.469 194.052C240.541 194.517 240.594 194.902 240.639 195.203C240.66 195.339 240.696 195.474 240.745 195.602V195.603L240.745 195.603Z" fill="#263238"/>
<path d="M239.914 186.028C239.907 185.624 239.866 185.217 239.797 184.818C239.685 184.047 239.476 182.935 239.143 181.581C238.738 180.002 238.234 178.431 237.65 176.907C236.948 175.03 236.113 173.195 235.154 171.437C233.471 168.19 231.205 165.274 228.477 162.839C228.005 162.421 227.507 162.032 226.986 161.681C226.757 161.524 226.554 161.361 226.332 161.236L225.808 160.942C225.467 160.727 225.107 160.538 224.736 160.379C225.989 161.191 227.199 162.091 228.34 163.054C230.985 165.519 233.203 168.43 234.878 171.634C235.824 173.375 236.676 175.201 237.386 177.049C237.978 178.559 238.506 180.109 238.941 181.67C239.314 182.978 239.556 184.109 239.713 184.868C239.75 185.261 239.819 185.648 239.914 186.028V186.028Z" fill="#263238"/>
<path d="M27.1055 58.007L18.9787 57.2026C21.1397 57.7997 22.9671 59.3386 24.194 61.2165C25.4209 63.093 26.0859 65.2904 26.4299 67.5051C27.885 76.8537 22.9159 86.9133 14.9175 91.9691L21.457 92.8413C21.458 92.8418 40.2206 76.0772 27.1054 58.007H27.1055Z" fill="#263238"/>
<path d="M55.244 111.771C55.3439 111.947 58.1004 110.499 61.6775 109.152C65.249 107.787 68.2704 107.041 68.2289 106.844C68.2001 106.671 65.067 107.128 61.435 108.514C57.7975 109.884 55.1499 111.621 55.2441 111.771H55.244Z" fill="#FAFAFA"/>
<path d="M7.40821 115.165C7.41466 115.354 15.1492 115.257 24.6829 114.949C34.2193 114.64 41.9435 114.237 41.937 114.05C41.9306 113.861 34.1969 113.958 24.6606 114.267C15.1273 114.575 7.40164 114.977 7.40821 115.165Z" fill="#FAFAFA"/>
<path d="M16.5836 85.7569L30.7859 83.6968L59.196 87.9006L67.1697 90.719L65.7554 108.154L38.4417 113.185L20.0089 107.724L13.041 97.4711L16.5836 85.7569Z" fill="#FFBE9D"/>
<path d="M11.525 115.182C11.5225 115.186 11.5729 115.221 11.674 115.283C11.791 115.353 11.94 115.443 12.1273 115.555C12.5238 115.798 13.1249 116.126 13.9061 116.538C15.4711 117.353 17.8021 118.419 20.7939 119.435C23.785 120.449 27.4427 121.379 31.5684 122.026C35.6936 122.678 40.2784 123.032 45.0905 123.148C49.9059 123.264 54.4904 123.173 58.6594 123.079C62.8289 122.979 66.5859 122.716 69.71 122.245C72.8353 121.778 75.3151 121.12 76.9876 120.555C77.824 120.272 78.4669 120.034 78.8937 119.85C79.0952 119.766 79.2554 119.698 79.3814 119.646C79.4905 119.599 79.5457 119.572 79.5433 119.567C79.5414 119.562 79.4823 119.579 79.3696 119.616C79.2413 119.661 79.0769 119.719 78.8715 119.791C78.4383 119.957 77.7905 120.176 76.9513 120.441C75.2728 120.969 72.7965 121.591 69.679 122.03C66.5629 122.472 62.8168 122.712 58.6528 122.796C54.4874 122.875 49.9042 122.956 45.0986 122.842C40.2961 122.726 35.7246 122.38 31.6118 121.746C27.4986 121.117 23.8509 120.214 20.8629 119.23C17.8742 118.244 15.5379 117.212 13.9605 116.432C13.1733 116.038 12.5639 115.727 12.1586 115.502C11.9654 115.401 11.811 115.321 11.6904 115.257C11.5836 115.202 11.528 115.177 11.5251 115.182H11.525Z" fill="white"/>
<path fill-rule="evenodd" clip-rule="evenodd" d="M69 97.4119C59.8416 101.144 50.5181 104.919 40.6712 105.84C30.8249 106.76 19.9655 102.925 12.9907 95.9131H10.9986C10.0806 102.86 15.2187 110.045 19.7284 115.409C24.5933 121.196 29.9085 126.858 36.6622 130.255C43.4162 133.653 51.9246 134.424 58.3769 130.483C63.5733 127.309 66.7508 121.535 68.1139 115.6C69.4769 109.666 69.242 103.496 69 97.4119Z" fill="#283E45"/>
<path fill-rule="evenodd" clip-rule="evenodd" d="M80.7295 77.5535C79.3891 70.5793 70.9804 45.4249 70.9804 45.4249C64.5727 17.2905 43.7831 19.9747 43.7831 19.9747C13.0488 19.796 13.2298 69.3802 13.2298 69.3802L10.0547 74.4379C-3.11246 96.3994 -4.1712 94.1087 16.4284 109.611L68.2378 106.718C68.2378 106.718 89.6438 103.92 80.7293 77.5534L80.7295 77.5535Z" fill="#455B65"/>
<path fill-rule="evenodd" clip-rule="evenodd" d="M26.636 34.0937L44.7726 26.7847L49.5223 27.3136C60.2035 27.3005 67.6548 39.9693 67.7659 48.6201C67.8897 58.2305 67.632 69.0452 66.1388 76.1371C63.1359 90.3962 52.0274 91.6735 52.0274 91.6735C52.0268 91.651 52.1576 95.567 52.2714 100.35C52.4764 108.945 45.4682 115.976 36.8724 115.8C28.6785 115.633 22.1145 108.959 22.0843 100.764L21.8555 38.9958C21.9349 36.3686 24.012 34.2395 26.6359 34.094L26.636 34.0937Z" fill="#FFBE9D"/>
<path fill-rule="evenodd" clip-rule="evenodd" d="M52.0266 91.6733C52.0266 91.6733 42.3258 91.8116 33.0347 85.5732C33.0347 85.5732 37.6625 95.7938 52.1165 95.1698L52.0266 91.6733Z" fill="#F2976E"/>
<path fill-rule="evenodd" clip-rule="evenodd" d="M67.7936 67.2822C67.7936 67.2822 64.8239 90.7466 47.8536 90.3851C30.883 90.0239 27.8398 72.1818 27.8398 72.1818L15.8212 67.5073L12.5541 93.0784C11.898 98.2146 13.5525 103.374 17.0724 107.172C21.7041 112.168 28.237 118.758 32.5829 121.209C42.9393 127.05 57.4908 125.276 64.1867 115.451C67.8006 110.148 69.4273 104.265 69.5361 103.795C69.7541 102.851 74.2722 85.0099 74.2722 85.0099L67.7937 67.2822H67.7936Z" fill="#455B65"/>
<path fill-rule="evenodd" clip-rule="evenodd" d="M18.1468 42.0485C16.1434 52.8259 18.1997 74.6082 30.2507 82.8445C28.2879 78.5273 27.2529 68.3143 27.1306 63.6433C27.0052 58.837 27.7729 54.8005 29.6236 48.6645C30.3524 46.2469 32.7932 40.1 35.0845 38.7044C37.9388 36.966 42.8515 35.7497 46.2952 35.5627C50.915 35.3128 57.3668 36.2471 61.3422 38.374C65.8551 40.7877 66.6138 47.6571 67.7239 52.265C68.8341 56.8723 68.5219 61.6479 68.2042 66.3532L70.6443 50.4791C70.6443 50.4791 68.7089 22.6856 45.3077 21.6144C26.4684 20.752 18.7836 41.9972 18.7836 41.9972L18.147 42.0485H18.1468Z" fill="#455B65"/>
<path fill-rule="evenodd" clip-rule="evenodd" d="M67.7936 107.783C67.8083 107.788 67.8765 107.64 67.9934 107.352C68.1375 106.978 68.2988 106.561 68.483 106.084C68.9111 104.984 69.4594 103.365 70.0887 101.35C71.3306 97.3174 72.707 91.6132 73.3454 85.1893C73.9761 78.7638 73.8581 72.9148 73.6911 68.7023C73.597 66.595 73.4986 64.8907 73.4057 63.7151C73.3629 63.2059 73.3257 62.7611 73.2919 62.3615C73.2614 62.052 73.2376 61.8902 73.2216 61.8911C73.2062 61.8921 73.199 62.0558 73.2002 62.3663C73.2091 62.7669 73.2178 63.2134 73.2283 63.7241C73.2661 65.0567 73.313 66.7273 73.3686 68.7126C73.4531 72.9221 73.5188 78.7515 72.8916 85.1438C72.2563 91.534 70.9377 97.2147 69.7795 101.258C69.1911 103.279 68.6913 104.909 68.3154 106.025C68.1615 106.512 68.0274 106.938 67.9066 107.32C67.8179 107.618 67.7787 107.777 67.7936 107.782V107.783Z" fill="#263238"/>
<path fill-rule="evenodd" clip-rule="evenodd" d="M27.1306 109.58C27.1237 109.594 27.2753 109.683 27.5727 109.841C27.8654 110.01 28.3193 110.212 28.9123 110.456C30.1006 110.926 31.918 111.425 34.2168 111.531C36.5089 111.645 39.2799 111.307 42.1397 110.258C44.9901 109.195 47.8876 107.419 50.4772 105.063C53.0924 102.727 55.1319 100.05 56.8533 97.5848C58.599 95.1228 60.0657 92.8299 61.1949 90.8437C62.3217 88.8561 63.1092 87.1779 63.5725 85.9867C63.7993 85.3886 63.9686 84.9224 64.0596 84.5982C64.1574 84.2763 64.2015 84.1054 64.1867 84.1008C64.1474 84.0873 63.9193 84.7545 63.409 85.9179C62.8981 87.0809 62.0716 88.7259 60.9156 90.6815C59.7572 92.6362 58.2694 94.9003 56.5112 97.3406C54.7697 99.793 52.7536 102.417 50.1716 104.724C47.6187 107.047 44.7789 108.8 41.9921 109.864C39.1972 110.914 36.4819 111.279 34.2279 111.209C31.9676 111.145 30.1671 110.704 28.9732 110.29C27.7763 109.871 27.153 109.535 27.1307 109.58L27.1306 109.58Z" fill="#263238"/>
<path fill-rule="evenodd" clip-rule="evenodd" d="M23.0557 87.058C23.03 87.0769 23.2574 87.4164 23.6923 88.0184C24.1149 88.6286 24.8159 89.4504 25.7494 90.3947C26.6765 91.3492 27.8986 92.3687 29.343 93.3753C30.8072 94.3526 32.5062 95.2984 34.3906 96.0671C36.2845 96.8123 38.1668 97.3014 39.9009 97.6054C41.6412 97.8755 43.2287 97.981 44.5588 97.931C45.8866 97.8927 46.9605 97.782 47.6873 97.6324C48.418 97.4977 48.8168 97.409 48.8112 97.378C48.7965 97.2813 47.1839 97.6135 44.556 97.6081C41.9352 97.613 38.2878 97.1274 34.5603 95.6432C30.8407 94.1433 27.8674 91.9765 25.9748 90.1637C24.0696 88.3525 23.1331 86.9986 23.0557 87.058Z" fill="#263238"/>
<path fill-rule="evenodd" clip-rule="evenodd" d="M22.1091 80.509C22.0858 80.5301 22.306 80.8136 22.7249 81.3097C23.1411 81.8079 23.7723 82.5032 24.5771 83.3397C26.1849 85.0134 28.5338 87.2109 31.3383 89.3809C34.1477 91.5478 36.8676 93.2659 38.893 94.3986C39.905 94.9666 40.7374 95.402 41.3248 95.6781C41.9099 95.9587 42.2398 96.1001 42.2542 96.0719C42.2689 96.0437 41.9665 95.8493 41.4083 95.5215C40.6951 95.0969 39.9168 94.6334 39.0558 94.1204C37.0807 92.9215 34.408 91.1725 31.6175 89.0204C28.831 86.8639 26.4642 84.7197 24.8051 83.1116C24.0919 82.4082 23.4467 81.772 22.8553 81.1888C22.3974 80.7316 22.1327 80.4878 22.1091 80.5091V80.509Z" fill="#263238"/>
<path d="M63.0437 55.3872C62.991 56.4488 62.1144 57.2829 61.0512 57.2829C61.0339 57.2829 61.0156 57.2823 60.9985 57.2821C60.9897 57.2821 60.9795 57.2823 60.9701 57.2823C59.9117 57.2823 59.0537 56.4243 59.0537 55.3659V55.3656C59.1066 54.3042 59.9834 53.4702 61.0464 53.4702C61.0616 53.4702 61.077 53.4705 61.0919 53.4707C61.1059 53.4707 61.1206 53.4705 61.1349 53.4705C62.1892 53.4705 63.0441 54.3253 63.0441 55.3797C63.0441 55.3822 63.0441 55.3852 63.0441 55.3873H63.0439L63.0437 55.3872Z" fill="#263238"/>
<path d="M65.3318 52.6483C65.0672 52.8916 63.6226 51.6828 61.4845 51.5613C59.3463 51.4397 57.7018 52.4124 57.487 52.1334C57.3798 52.0118 57.6588 51.5613 58.3738 51.1037C59.2287 50.5815 60.2133 50.3042 61.2158 50.3042C61.3408 50.3042 61.4679 50.3097 61.5922 50.3176C62.7069 50.3803 63.7745 50.797 64.6385 51.5041C65.2674 52.0549 65.4747 52.534 65.3317 52.6484L65.3318 52.6483Z" fill="#263238"/>
<path d="M42.2057 54.7152C42.149 55.7778 41.2709 56.6105 40.2066 56.6105C40.1914 56.6105 40.1758 56.6103 40.1609 56.61C40.1493 56.61 40.1369 56.6103 40.125 56.6103C39.0706 56.6103 38.2158 55.7555 38.2158 54.7011C38.2158 54.6964 38.2158 54.6912 38.2158 54.6865C38.2728 53.6241 39.1512 52.791 40.2152 52.791C40.2278 52.791 40.2415 52.7914 40.2538 52.7916C40.2652 52.7914 40.2779 52.791 40.2895 52.791C41.3478 52.791 42.206 53.6491 42.206 54.7075C42.206 54.71 42.206 54.7127 42.206 54.7152H42.2056H42.2057Z" fill="#263238"/>
<path d="M44.2292 51.7759C43.9717 52.0262 42.5273 50.8179 40.3819 50.6889C38.2365 50.56 36.5992 51.547 36.3845 51.2681C36.2773 51.1465 36.5562 50.6959 37.2713 50.2383C38.129 49.7161 39.1161 49.4395 40.1205 49.4395C40.2435 49.4395 40.3674 49.444 40.4896 49.452C41.6056 49.5121 42.674 49.9281 43.5362 50.6386C44.1649 51.1824 44.3581 51.6686 44.2291 51.7758L44.2292 51.7759Z" fill="#263238"/>
<path d="M51.0587 68.1441C51.0587 68.0225 52.403 67.8726 54.577 67.7294C55.1276 67.7294 55.6498 67.6293 55.7713 67.2574C55.7889 67.1299 55.7981 67.0005 55.7981 66.8715C55.7981 66.4344 55.6956 66.0031 55.4997 65.6129L54.1337 61.3222C52.2388 55.2511 50.9086 50.2741 51.1517 50.2024C51.3951 50.1308 53.1256 54.9865 55.0204 61.0577C55.471 62.5523 55.9072 63.9822 56.3148 65.3482C56.4964 65.7539 56.5901 66.1936 56.5901 66.6383C56.5901 66.9272 56.5499 67.2153 56.472 67.4934C56.2818 67.8621 55.9346 68.1254 55.5281 68.2086C55.2808 68.2595 55.0268 68.2851 54.7737 68.2851C54.7108 68.2851 54.6468 68.2831 54.5843 68.2805C52.4103 68.3376 51.0586 68.2659 51.0586 68.1442L51.0587 68.1441Z" fill="#263238"/>
<path d="M49.2564 71.8344C48.6931 71.5285 48.0601 71.3677 47.4183 71.3677C46.7463 71.3677 46.0856 71.5436 45.5026 71.8773C44.6623 72.3298 44.0402 73.1044 43.7796 74.0225C43.7252 74.2174 43.6978 74.4196 43.6978 74.6217C43.6978 75.3423 44.0454 76.0193 44.6301 76.4396C44.9724 76.5982 45.3462 76.6807 45.7236 76.6807C46.3783 76.6807 47.0101 76.4334 47.4904 75.989C48.2798 75.261 48.9188 74.378 49.3641 73.4001C49.5222 73.1477 49.6298 72.8653 49.6787 72.571C49.6849 72.5327 49.6881 72.4936 49.6881 72.4548C49.6881 72.2133 49.5663 71.988 49.364 71.856L49.2563 71.8346L49.2564 71.8344Z" fill="#EB996E"/>
<path d="M43.4714 45.7193C43.3928 46.3342 41.2333 46.52 38.8376 47.3498C36.4419 48.1795 34.597 49.2877 34.1539 48.8446C33.9609 48.6299 34.1539 48.022 34.869 47.293C35.7856 46.3748 36.9102 45.6844 38.1435 45.2835C39.0036 44.9826 39.9085 44.8291 40.8193 44.8291C41.2033 44.8291 41.5895 44.8569 41.9695 44.9113C42.9493 45.0686 43.5 45.4193 43.4714 45.7195V45.7193Z" fill="#263238"/>
<path d="M66.1902 49.3876C65.6036 49.7096 64.0448 48.6724 61.9852 47.9932C59.9258 47.3141 58.0809 47.0851 57.8306 46.47C57.7307 46.1767 58.1596 45.7978 59.0607 45.6048C59.458 45.5378 59.8615 45.5029 60.2648 45.5029C61.1056 45.5029 61.9411 45.6522 62.7295 45.9413C63.9127 46.3292 64.973 47.0256 65.7979 47.9573C66.3834 48.6654 66.4692 49.2232 66.1903 49.3875L66.1902 49.3876Z" fill="#263238"/>
<path fill-rule="evenodd" clip-rule="evenodd" d="M13.5812 70.4058C13.5661 70.4058 13.554 70.5394 13.5455 70.794C13.5317 71.0494 13.5461 71.4244 13.5652 71.9079C13.6149 72.8738 13.755 74.2663 13.9947 75.9755C14.4789 79.3943 15.3489 84.0861 16.5885 89.2043C17.8269 94.323 19.2155 98.8996 20.5422 102.098C21.2054 103.695 21.8693 104.944 22.4565 105.724C22.7424 106.119 23.0241 106.385 23.2265 106.541C23.4449 106.683 23.5603 106.749 23.5675 106.735C23.5916 106.697 23.1173 106.432 22.6014 105.621C22.0729 104.829 21.4618 103.578 20.842 101.977C19.6017 98.7738 18.2666 94.2024 17.0322 89.0968C15.7954 83.9916 14.8776 79.3215 14.3137 75.9268C14.0339 74.2292 13.846 72.8494 13.742 71.8934C13.6398 70.9381 13.618 70.4062 13.5814 70.4058H13.5812Z" fill="#263238"/>
<path fill-rule="evenodd" clip-rule="evenodd" d="M68.2442 37.5172C68.2129 37.5203 68.2191 37.8756 68.2565 38.5122C68.3027 39.3326 68.3526 40.2243 68.4082 41.208C68.5195 43.4839 68.6244 46.6305 68.5713 50.1065C68.53 53.5835 68.3476 56.7272 68.1425 58.995C68.0417 59.9742 67.9509 60.862 67.867 61.679C67.7903 62.3114 67.7627 62.665 67.7938 62.6704C67.8248 62.6761 67.9115 62.3332 68.0426 61.7063C68.1682 61.0789 68.3205 60.1646 68.4632 59.0294C68.7516 56.7599 68.9859 53.6032 69.0278 50.1129C69.0809 46.6232 68.9243 43.4638 68.7302 41.1859C68.6294 40.047 68.5291 39.1274 68.4331 38.4944C68.3413 37.8616 68.2756 37.5137 68.2443 37.5171L68.2442 37.5172Z" fill="#263238"/>
<path fill-rule="evenodd" clip-rule="evenodd" d="M23.7812 65.5407C23.7972 65.5385 23.794 65.39 23.7748 65.1094C23.7431 64.7415 23.7083 64.3388 23.669 63.8849C23.5626 62.6599 23.4324 61.1573 23.2785 59.3856C22.9992 55.5894 22.71 50.3116 23.2664 44.5309C23.568 41.6486 23.9826 38.8985 24.6328 36.483C25.2616 34.0539 26.3423 32.052 27.4227 30.497C28.5156 28.9462 29.5207 27.7719 30.2018 26.9528C30.4932 26.603 30.7517 26.2932 30.9885 26.0089C31.1652 25.79 31.2528 25.6702 31.241 25.66C31.2299 25.6492 31.1195 25.7489 30.9207 25.9475C30.6643 26.2142 30.3845 26.5061 30.0684 26.8352C29.3451 27.6204 28.2998 28.7646 27.1597 30.3108C26.0321 31.8587 24.8892 33.9033 24.2282 36.3702C23.5447 38.8242 23.1172 41.5792 22.8128 44.4869C22.2522 50.3131 22.5951 55.6156 22.9574 59.4134C23.1439 61.3153 23.3427 62.8486 23.4926 63.9057C23.5637 64.3562 23.6261 64.756 23.6833 65.1212C23.7326 65.3983 23.7658 65.5429 23.7814 65.541L23.7812 65.5407Z" fill="#263238"/>
<path fill-rule="evenodd" clip-rule="evenodd" d="M18.4255 57.2392C18.3675 57.2561 18.5307 58.0411 18.893 59.2835C19.2547 60.5258 19.8279 62.2223 20.5786 64.0498C21.331 65.8776 22.1165 67.4864 22.7333 68.6239C23.3495 69.7618 23.7858 70.4344 23.8387 70.4055C23.8968 70.3744 23.5617 69.649 23.0221 68.4796C22.4819 67.3107 21.7473 65.6913 21.0002 63.8764C20.2547 62.0613 19.6381 60.3942 19.1997 59.1827C18.761 57.9722 18.4889 57.2204 18.4255 57.2391V57.2392Z" fill="#263238"/>
<path fill-rule="evenodd" clip-rule="evenodd" d="M40.8495 95.3596L40.4705 95.4142C42.8342 96.1948 45.1984 96.976 47.5623 97.7571C40.4687 98.4617 33.1317 96.2936 27.5605 91.8466C21.9892 87.3995 18.2486 80.7249 17.3638 73.6519C22.854 82.9678 31.131 90.6178 40.8496 95.3596H40.8495Z" fill="#283E45"/>
<path fill-rule="evenodd" clip-rule="evenodd" d="M46.4677 107.951C50.8485 104.956 54.1795 100.691 57.3436 96.4317C63.5411 88.0891 68.0182 75.336 70.0199 65.1387C70.5415 69.3321 72.462 72.8528 69.7442 81.2194C67.731 87.1358 65.697 93.0984 62.5441 98.4945C59.3911 103.891 55.0009 108.748 49.3449 111.408C43.6899 114.068 36.6631 114.241 31.3828 110.898C36.4335 112.526 42.087 110.946 46.4677 107.951Z" fill="#283E45"/>
<path d="M64.2385 73.1139L68.5416 81.8118L68.9341 86.5203C68.9341 86.5203 69.3265 85.1014 69.8104 83.7672C70.294 82.433 70.6015 78.2606 70.6015 78.2606L67.4626 71.7536C67.4626 71.7536 65.6116 68.1633 67.8483 66.4892L71.1705 70.8775C71.1705 70.8775 68.5547 65.8355 71.0201 64.4619L73.8256 67.6141C73.6948 67.4057 73.6249 67.1637 73.6249 66.9173C73.6249 66.3902 73.9414 65.9146 74.4275 65.711L81.5097 74.7947L80.6269 88.1683L78.2006 102.085L79.3581 104.165L66.7824 112.875C66.7824 112.875 62.8585 104.276 62.5839 101.431C62.3093 98.5864 65.1146 83.5122 65.1146 83.5122C65.1146 83.5122 62.4401 78.1563 62.7866 76.0112C63.1333 73.866 64.2383 73.1141 64.2383 73.1141L64.2385 73.1139Z" fill="#FFBE9D"/>
<path d="M67.7963 114.961L67.7177 114.837L67.5215 114.438L66.7824 112.875C66.1284 111.495 65.226 109.461 64.1666 106.813C63.5617 105.353 63.0366 103.85 62.612 102.328C62.4852 101.763 62.4214 101.186 62.4214 100.609C62.4214 100.272 62.4436 99.9327 62.4859 99.5991C62.5644 98.6705 62.6691 97.7027 62.7997 96.7084C63.3164 92.7324 64.0553 88.2592 64.9315 83.3543V83.4982C64.1149 81.8701 63.4277 80.1619 62.8979 78.4187C62.7624 77.9557 62.6571 77.4802 62.5842 77.0048C62.5535 76.7842 62.5377 76.5591 62.5377 76.3359C62.5377 76.3066 62.5382 76.2752 62.5382 76.2465V75.8607L62.6102 75.4879C62.7105 74.991 62.879 74.5078 63.1072 74.0552C63.3371 73.5714 63.6699 73.1425 64.0819 72.7999L64.3042 72.6236L64.4417 72.8916C65.8085 75.6512 67.2605 78.555 68.7514 81.5568V81.6025V81.6482C68.882 83.1262 69.0129 84.7349 69.1503 86.3631L68.6402 86.3108C68.8428 85.6568 69.0522 85.0027 69.2941 84.3488L69.608 83.3614C69.7049 83.0333 69.7814 82.6981 69.837 82.3608C70.0724 80.9808 70.2098 79.5421 70.3208 78.1036V78.2411L68.4439 74.3172C68.1235 73.6633 67.7898 73.0091 67.4759 72.3095C67.3188 71.9761 67.1358 71.6556 66.9919 71.2696C66.8446 70.9114 66.7211 70.5394 66.6261 70.1646C66.508 69.7293 66.4479 69.2772 66.4479 68.8253C66.4479 68.5492 66.4711 68.2727 66.5148 68.0003C66.6372 67.2494 67.0453 66.5741 67.6526 66.1165L67.8684 65.9596L68.0254 66.1689L71.3476 70.5636L70.8963 70.8449C70.3492 69.7731 69.9573 68.6204 69.7393 67.4371C69.6808 67.1349 69.6506 66.8269 69.6506 66.5187C69.6506 66.2105 69.6806 65.9025 69.739 65.6003C69.8737 64.9566 70.2787 64.4015 70.8503 64.0762L71.0398 63.9717L71.1774 64.1352L74.022 67.5555L73.5969 67.8367C73.4557 67.5436 73.3823 67.2219 73.3823 66.8968C73.3823 66.7736 73.3929 66.6498 73.4137 66.5287C73.5124 66.063 73.8222 65.6688 74.251 65.4626L74.4407 65.3644L74.5713 65.5279L81.6537 74.5069L81.7124 74.5854V74.6705C81.3854 79.4967 81.0585 83.9699 80.8033 88.0639C79.8486 93.4134 79.0181 98.0762 78.3183 101.967V101.869L82.9614 110.462L84.1778 112.751L84.4853 113.346C84.5203 113.414 84.5512 113.484 84.5772 113.555C84.5255 113.498 84.4816 113.434 84.4461 113.366L84.106 112.79L82.7979 110.541C81.6862 108.579 80.071 105.662 78.0238 102.039V101.993V101.941C78.6779 98.0171 79.4821 93.3804 80.3977 88.0179C80.6528 83.9239 80.9404 79.4442 81.2412 74.6244L81.2935 74.7878L74.1783 65.822L74.4986 65.8939C74.2072 66.033 73.9946 66.2986 73.9237 66.6136C73.9102 66.7 73.9034 66.788 73.9034 66.8751C73.9034 67.1263 73.9594 67.3748 74.0675 67.6013L74.8458 69.3277L73.6427 67.8825L70.8171 64.4948L71.1505 64.5536C70.7067 64.8072 70.3935 65.2419 70.2941 65.7438C70.2456 66.0124 70.2206 66.2855 70.2206 66.5582C70.2206 66.8308 70.2456 67.1039 70.2943 67.3722C70.5034 68.5081 70.8809 69.613 71.4064 70.6417L70.9617 70.9294L67.6395 66.5411L68.0123 66.5934C67.5117 66.97 67.1758 67.5261 67.0766 68.1439C67.0394 68.3825 67.0201 68.6262 67.0201 68.8682C67.0201 69.2859 67.0768 69.7031 67.1878 70.1056C67.2744 70.4572 67.3883 70.8045 67.5275 71.1389C67.6582 71.4724 67.835 71.7929 67.9919 72.1461L68.9598 74.1539L70.8433 78.0776L70.8759 78.1432V78.2151C70.7582 79.6734 70.6208 81.1122 70.3724 82.5248C70.3164 82.8806 70.237 83.2373 70.137 83.5841C70.0258 83.9241 69.9213 84.238 69.8168 84.5845L69.1955 86.5467L68.79 87.8153L68.6856 86.5072C68.5481 84.8789 68.4173 83.2768 68.293 81.7987V81.8902C66.8086 78.8884 65.3699 76.0043 64.0029 73.2185L64.3562 73.31C64.0136 73.6051 63.7345 73.9686 63.539 74.3762C63.3274 74.7897 63.1705 75.2303 63.0742 75.6843C63.0292 75.9712 63.0056 76.2636 63.0056 76.5548C63.0056 77.1778 63.1111 77.797 63.3163 78.3846C63.8263 80.1044 64.4873 81.784 65.2778 83.3925V83.4581V83.53C64.3817 88.415 63.6101 92.8883 63.0673 96.8448C62.9299 97.8321 62.8189 98.8068 62.7339 99.7222C62.6857 100.07 62.6617 100.42 62.6617 100.77C62.6617 101.297 62.7173 101.824 62.8256 102.339C63.2286 103.853 63.7299 105.356 64.3153 106.808C65.3484 109.463 66.2313 111.51 66.8265 112.91C67.1273 113.596 67.3498 114.133 67.4804 114.499L67.6505 114.904C67.7891 114.916 67.8022 114.961 67.7959 114.961L67.7963 114.961Z" fill="#EB996E"/>
<path d="M74.5119 85.1993C74.4657 84.8171 74.4416 84.4303 74.4416 84.0448C74.4416 83.6593 74.4657 83.2724 74.5119 82.8904C74.5839 81.4647 74.7277 79.5028 74.9239 77.3382L74.9763 76.743L75.022 76.9195C73.884 75.2256 72.8902 73.7017 72.1969 72.5903C71.7804 72.0186 71.4354 71.3965 71.1709 70.7397C71.6714 71.2344 72.1121 71.788 72.4783 72.3882C73.2498 73.4475 74.2898 74.9319 75.4341 76.6194L75.4929 76.698V76.7894C75.4929 76.9791 75.4603 77.182 75.4406 77.3846C75.251 79.5494 75.0481 81.5112 74.8781 82.9238C74.8436 83.6928 74.7191 84.4572 74.5124 85.1989L74.5119 85.1994V85.1993Z" fill="#EB996E"/>
<path d="M78.2204 81.4845C78.1805 81.1347 78.1603 80.7807 78.1603 80.4281C78.1603 80.0754 78.1805 79.7214 78.2202 79.3722C78.292 78.0642 78.4227 76.2526 78.5995 74.219L78.6583 74.4085L78.2593 73.8984C76.9513 72.1588 75.7481 70.5698 74.9176 69.4056C74.422 68.8038 73.9972 68.1446 73.6553 67.4438C74.2421 67.9542 74.77 68.5359 75.2194 69.1701C76.1285 70.2752 77.358 71.8252 78.6919 73.5647C78.8225 73.7348 78.9534 73.9114 79.0843 74.0749L79.1431 74.1599V74.2645C78.9535 76.2918 78.7573 78.0968 78.5936 79.3982C78.5586 80.1063 78.432 80.8073 78.2209 81.4837L78.2202 81.4845H78.2204Z" fill="#EB996E"/>
<path d="M82.3336 111.024C82.3249 111.087 82.3071 111.149 82.2816 111.207C82.2183 111.38 82.1414 111.549 82.0527 111.711C81.7156 112.308 81.2714 112.841 80.7446 113.281C79.9708 113.931 79.0826 114.441 78.1286 114.778C76.9638 115.17 75.7501 115.42 74.5253 115.517C73.2173 115.654 71.9945 115.707 70.8829 115.831C69.8979 115.925 68.9149 116.106 67.9596 116.367C67.3202 116.552 66.6988 116.804 66.1091 117.113C65.6906 117.335 65.4551 117.485 65.4551 117.466C65.4999 117.42 65.5505 117.381 65.6053 117.348C65.7519 117.238 65.9054 117.134 66.0631 117.041C66.646 116.701 67.2688 116.427 67.9144 116.23C68.8727 115.945 69.8604 115.746 70.8558 115.642C71.9741 115.511 73.2101 115.445 74.4983 115.315C75.7059 115.217 76.9047 114.976 78.056 114.601C78.9895 114.278 79.8624 113.793 80.6271 113.169C81.3464 112.589 81.9309 111.855 82.3338 111.024L82.3336 111.024Z" fill="#FAFAFA"/>
<path d="M117.367 113.955H121.829V122.518C120.683 123.382 119.357 124.046 117.849 124.508C116.342 124.97 114.824 125.201 113.297 125.201C111.106 125.201 109.136 124.734 107.387 123.799C105.638 122.865 104.267 121.568 103.272 119.91C102.277 118.252 101.779 116.377 101.779 114.287C101.779 112.197 102.277 110.323 103.272 108.664C104.267 107.006 105.649 105.71 107.417 104.775C109.186 103.84 111.176 103.373 113.387 103.373C115.236 103.373 116.914 103.685 118.422 104.308C119.929 104.931 121.195 105.835 122.221 107.021L119.085 109.916C117.578 108.328 115.759 107.534 113.628 107.534C112.282 107.534 111.086 107.815 110.04 108.378C108.995 108.941 108.181 109.735 107.598 110.76C107.015 111.785 106.724 112.96 106.724 114.287C106.724 115.594 107.015 116.759 107.598 117.784C108.181 118.809 108.99 119.609 110.025 120.181C111.06 120.754 112.241 121.041 113.568 121.041C114.975 121.041 116.241 120.739 117.367 120.136V113.955ZM140.25 120.317H130.452L128.582 124.839H123.578L132.984 103.735H137.808L147.245 124.839H142.12L140.25 120.317ZM138.713 116.609L135.366 108.529L132.019 116.609H138.713H138.713ZM163.405 113.956H167.867V122.518C166.722 123.382 165.395 124.046 163.888 124.508C162.38 124.97 160.863 125.201 159.335 125.201C157.144 125.201 155.174 124.734 153.425 123.8C151.677 122.865 150.305 121.568 149.31 119.91C148.315 118.252 147.818 116.378 147.818 114.287C147.818 112.197 148.315 110.323 149.31 108.664C150.305 107.006 151.687 105.71 153.456 104.775C155.224 103.84 157.214 103.373 159.425 103.373C161.274 103.373 162.953 103.685 164.46 104.308C165.968 104.931 167.234 105.836 168.259 107.021L165.124 109.916C163.616 108.328 161.797 107.534 159.666 107.534C158.32 107.534 157.124 107.815 156.079 108.378C155.034 108.941 154.22 109.735 153.637 110.76C153.054 111.785 152.762 112.961 152.762 114.287C152.762 115.594 153.054 116.759 153.637 117.785C154.22 118.81 155.029 119.609 156.064 120.181C157.099 120.754 158.28 121.041 159.606 121.041C161.013 121.041 162.28 120.739 163.405 120.136V113.956ZM186.289 120.317H176.49L174.621 124.84H169.616L179.023 103.735H183.847L193.283 124.84H188.158L186.289 120.317H186.289ZM184.751 116.609L181.404 108.529L178.058 116.609H184.751H184.751ZM195.484 103.735H200.369V120.86H210.951V124.84H195.484V103.735H195.484Z" fill="black"/>
<path d="M136.801 16.1758C143.833 16.1758 150.2 19.0262 154.808 23.6345C159.416 28.2427 162.266 34.6092 162.266 41.6408C162.266 48.6726 159.416 55.039 154.808 59.6472C150.2 64.2555 143.833 67.1058 136.801 67.1058C129.77 67.1058 123.403 64.2555 118.795 59.6472C114.187 55.039 111.336 48.6725 111.336 41.6408C111.336 34.6091 114.187 28.2427 118.795 23.6345C123.403 19.0262 129.77 16.1758 136.801 16.1758ZM153.144 25.2987C148.961 21.1166 143.183 18.5298 136.801 18.5298C130.419 18.5298 124.641 21.1166 120.459 25.2987C116.277 29.481 113.69 35.2589 113.69 41.641C113.69 48.0229 116.277 53.8009 120.459 57.9831C124.641 62.1653 130.419 64.7521 136.801 64.7521C143.183 64.7521 148.961 62.1653 153.144 57.9831C157.326 53.8009 159.913 48.0229 159.913 41.641C159.913 35.2589 157.326 29.481 153.144 25.2987Z" fill="white"/>
<path d="M144.059 53.0706L136.801 43.5094L129.5 53.0706H126.023L135.063 41.3365L126.458 30.2109H129.935L136.801 39.1634L143.668 30.2109H147.058L138.453 41.3365L147.579 53.0706H144.059Z" fill="white"/>
<path d="M119.498 15.5982C119.198 15.6267 118.902 15.6933 118.618 15.795C117.832 16.0253 117.062 16.3342 116.334 16.7062C112.076 18.8699 109.176 23.0164 108.606 27.7589C108.515 28.5103 108.485 29.2705 108.514 30.0258C108.538 30.8447 108.641 31.6619 108.821 32.4606C108.873 32.7581 108.96 33.0497 109.078 33.3276C108.904 32.2291 108.793 31.1074 108.756 29.9943C108.746 29.3448 108.78 28.6865 108.858 28.0387C109.427 23.3123 112.261 19.1557 116.45 16.898C117.437 16.4058 118.461 15.9641 119.5 15.5972L119.498 15.5982Z" fill="white"/>
<path d="M111.383 15.4253C111.383 15.4253 111.203 15.5024 110.908 15.704C110.496 15.9822 110.104 16.2958 109.742 16.6377C108.524 17.7547 107.508 19.0829 106.749 20.5516C105.984 22.0192 105.479 23.6153 105.261 25.2545C105.256 25.2983 105.248 25.3486 105.243 25.3949C105.189 25.8418 105.163 26.2948 105.166 26.7448C105.153 26.9295 105.169 27.1164 105.212 27.2967C105.271 27.3038 105.306 26.5175 105.5 25.2895C106.056 22.0766 107.598 19.1109 109.907 16.8079C110.821 15.9372 111.417 15.4754 111.383 15.4253H111.383Z" fill="white"/>
<path d="M165.445 33.4065C165.498 33.1575 165.519 32.9022 165.507 32.6481C165.526 32.3544 165.525 32.0579 165.504 31.764C165.492 31.3731 165.458 30.9779 165.404 30.588C165.32 29.8603 165.184 29.1323 165.002 28.4202C164.931 28.1436 164.851 27.863 164.767 27.5921C164.385 26.3995 163.882 25.2399 163.277 24.1454C162.647 23.0607 161.913 22.0325 161.091 21.0871C160.41 20.3158 159.653 19.6003 158.845 18.9621C158.51 18.6832 158.169 18.4598 157.886 18.2759C157.644 18.0987 157.387 17.9375 157.122 17.7961C156.91 17.6618 156.682 17.5468 156.448 17.4556C156.41 17.5193 157.358 18.0327 158.686 19.1307C159.464 19.7838 160.19 20.5048 160.848 21.2777C162.461 23.1493 163.695 25.3242 164.463 27.6706C164.589 28.057 164.704 28.4506 164.805 28.8454C164.953 29.4244 165.073 30.0129 165.167 30.6014C165.433 32.3563 165.381 33.4226 165.445 33.4063L165.445 33.4065Z" fill="white"/>
<path d="M167.811 25.3757C167.789 24.9806 167.728 24.5873 167.63 24.2034C167.586 24.029 167.533 23.856 167.473 23.6864C166.688 21.0097 165.273 18.5513 163.353 16.5263C162.979 16.0894 162.543 15.7058 162.062 15.3906C162.403 15.8432 162.778 16.2794 163.171 16.6875C164.96 18.7593 166.345 21.1586 167.238 23.7463C167.395 24.3 167.589 24.8448 167.81 25.3754L167.811 25.3755L167.811 25.3757Z" fill="white"/>
</svg>
