<svg width="360" height="110" viewBox="0 0 360 110" fill="none" xmlns="http://www.w3.org/2000/svg">
<path d="M72.2321 129.404L85.9976 115.638L72.2321 101.873V82.3848H52.7443L39.0188 68.6192L25.2533 82.3848H5.76551V101.873L-8 115.638L5.76551 129.404V148.891H25.2533L39.0188 162.657L52.7843 148.891H72.2721V129.404H72.2321ZM51.7839 146.45L39.0188 159.216L26.2537 146.45H8.20648V128.403L-4.59864 115.638L8.16647 102.873V84.8257H26.2137L38.9788 72.0606L51.7839 84.8257H69.8311V102.873L82.5962 115.638L69.8311 128.403V146.45H51.7839Z" fill="url(#paint0_linear_381_8184)" fill-opacity="0.25"/>
<path d="M68.5506 115.638L59.9072 106.995V94.7497H47.6623L39.0188 86.1062L30.3753 94.7497H18.1305V106.995L9.44698 115.638L18.0904 124.282V136.526H30.3353L38.9788 145.17L47.6223 136.526H59.8671V124.282L68.5506 115.638ZM57.5062 134.125H46.6619L39.0188 141.769L31.3757 134.125H20.5314V123.281L12.8884 115.638L20.5314 107.995V97.1507H31.3757L39.0188 89.5076L46.6619 97.1507H57.5062V107.995L65.1493 115.638L57.5062 123.281V134.125Z" fill="url(#paint1_linear_381_8184)" fill-opacity="0.25"/>
<path d="M139.939 61.6965L153.705 47.9309L139.939 34.1654V14.6776H120.451L106.686 0.912109L92.9204 14.6776H73.4326V34.1654L59.7071 47.9309L73.4726 61.6965V81.1843H92.9604L106.726 94.9498L120.491 81.1843H139.979V61.6965H139.939ZM119.491 78.7433L106.686 91.5484L93.9208 78.7833H75.8736V60.6961L63.1084 47.9309L75.8736 35.1658V17.1186H93.9208L106.686 4.35349L119.491 17.1186H137.538V35.1658L150.303 47.9309L137.538 60.6961V78.7433H119.491Z" fill="url(#paint2_linear_381_8184)" fill-opacity="0.25"/>
<path d="M136.258 47.9309L127.614 39.2875V27.0426H115.369L106.686 18.3991L98.0424 27.0426H85.7975V39.2875L77.1541 47.9309L85.7975 56.5744V68.8193H98.0424L106.686 77.5028L115.369 68.8193H127.614V56.5744L136.258 47.9309ZM125.173 66.4184H114.329L106.686 74.0614L99.0428 66.4184H88.1985V55.574L80.5554 47.9309L88.1985 40.2879V29.4435H99.0428L106.686 21.8005L114.329 29.4435H125.173V40.2879L132.816 47.9309L125.173 55.574V66.4184Z" fill="url(#paint3_linear_381_8184)" fill-opacity="0.25"/>
<path d="M101.564 127.883H93.9208V120.24L88.5186 114.838L93.9208 109.436V101.793H101.564L106.966 96.3904L112.368 101.793H120.011V109.436L125.413 114.838L120.011 120.24V127.883H112.368L106.966 133.285L101.564 127.883ZM102.204 126.242L106.966 131.004L111.728 126.242H118.451V119.52L123.212 114.798L118.451 110.036V103.313H111.728L106.966 98.5512L102.204 103.313H95.4814V110.036L90.7195 114.758L95.4814 119.52V126.242H102.204Z" fill="url(#paint4_linear_381_8184)" fill-opacity="0.25"/>
<path d="M103.485 123.161H98.6026V118.279L95.1613 114.838L98.6026 111.396V106.514H103.485L106.926 103.073L110.367 106.514H115.249V111.396L118.691 114.838L115.249 118.279V123.161H110.367L106.926 126.602L103.485 123.161ZM104.165 121.52L106.966 124.322L109.767 121.52H113.729V117.559L116.53 114.758L113.729 111.957V107.995H109.767L106.966 105.194L104.165 107.995H100.203V111.957L97.4022 114.758L100.203 117.559V121.52H104.165Z" fill="url(#paint5_linear_381_8184)" fill-opacity="0.25"/>
<path d="M33.5766 61.0162H25.9336V53.3731L20.4914 47.9309L25.8936 42.5288V34.8857H33.5366L38.9388 29.4836L44.3409 34.8857H51.984V42.5288L57.4662 47.9309L52.024 53.3731V61.0162H44.381L38.9788 66.4184L33.5766 61.0162ZM34.2169 59.3755L38.9788 64.1374L43.7407 59.4155H50.4634V52.6929L55.2253 47.971L50.4234 43.2091V36.4864H43.7007L38.9788 31.7245L34.2169 36.4864H27.4942V43.2091L22.7723 47.9309L27.5342 52.6929V59.4155L34.2169 59.3755Z" fill="url(#paint6_linear_381_8184)" fill-opacity="0.25"/>
<path d="M35.5374 56.2943H30.6555V51.3723L27.2141 47.9309L30.6555 44.4896V39.6076H35.5374L38.9788 36.1662L42.4602 39.6076H47.3421V44.4896L50.7835 47.9309L47.3421 51.3723V56.2543H42.4602L39.0188 59.6957L35.5374 56.2943ZM36.2177 54.6536L39.0188 57.4548L41.8199 54.6536H45.7815V50.6921L48.5826 47.8909L45.7815 45.0898V41.1282H41.8199L39.0188 38.3271L36.2177 41.1282L32.2561 41.2083V45.1298L29.455 47.9309L32.2561 50.7321V54.6937L36.2177 54.6536Z" fill="url(#paint7_linear_381_8184)" fill-opacity="0.25"/>
<path d="M85.6375 98.9914L82.8764 100.152L81.7159 97.3908L78.9548 96.2303L80.1152 93.4692L78.9548 90.7081L81.7159 89.5476L82.8764 86.7865L85.6375 87.947L88.3986 86.7865L89.559 89.5476L92.3201 90.7081L91.1597 93.4692L92.3201 96.2303L89.559 97.3908L88.3986 100.152L85.6375 98.9914ZM87.8383 98.7913L88.7587 96.5904L90.9596 95.6701L90.0392 93.4692L90.9596 91.2683L88.7587 90.3479L87.8383 88.1471L85.6375 89.0674L83.4366 88.1471L82.5162 90.3479L80.3153 91.2683L81.2357 93.4692L80.3153 95.6701L82.5162 96.5904L83.4366 98.7913L85.6375 97.871L87.8383 98.7913Z" fill="url(#paint8_linear_381_8184)" fill-opacity="0.25"/>
<path d="M85.6375 97.0706L83.8367 97.8309L83.0764 96.0302L81.2757 95.2699L82.036 93.4692L81.2757 91.6685L83.0764 90.9082L83.8367 89.1074L85.6375 89.8677L87.4382 89.1074L88.1985 90.9082L89.9992 91.6685L89.2389 93.4692L89.9992 95.2699L88.1985 96.0302L87.4382 97.8309L85.6375 97.0706ZM86.878 96.5104L87.3982 95.2699L88.6387 94.7497L88.1185 93.5092L88.6387 92.2687L87.3982 91.7485L86.878 90.508L85.6375 91.0282L84.397 90.508L83.8768 91.7485L82.6363 92.2687L83.1565 93.5092L82.6363 94.7497L83.8768 95.2699L84.397 96.5104L85.6375 95.9902L86.878 96.5104Z" fill="url(#paint9_linear_381_8184)" fill-opacity="0.25"/>
<path d="M59.7071 74.7817L56.6258 76.0622L55.3453 72.981L52.2641 71.7005L53.5446 68.6192L52.2641 65.538L55.3453 64.2575L56.6258 61.1763L59.7071 62.4568L62.7883 61.1763L64.0688 64.2575L67.1501 65.538L65.8695 68.6192L67.1501 71.7005L64.0688 72.981L62.7883 76.0622L59.7071 74.7817ZM62.1881 74.6617L63.2285 72.1807L65.7095 71.1402L64.6691 68.6593L65.7095 66.1783L63.2285 65.1378L62.1881 62.6568L59.7071 63.6172L57.2261 62.5768L56.1857 65.0578L53.7047 66.0982L54.7451 68.5792L53.7047 71.0602L56.1857 72.1006L57.2261 74.5816L59.7071 73.5412L62.1881 74.6617Z" fill="url(#paint10_linear_381_8184)" fill-opacity="0.25"/>
<path d="M59.7071 72.6208L57.7063 73.4612L56.8659 71.4604L54.8652 70.62L55.7055 68.6192L54.8652 66.6184L56.8659 65.7781L57.7063 63.7773L59.7071 64.6176L61.7079 63.7773L62.5482 65.7781L64.549 66.6184L63.7087 68.6192L64.549 70.62L62.5482 71.4604L61.7079 73.4612L59.7071 72.6208ZM61.1077 72.0606L61.7079 70.62L63.1485 70.0198L62.5482 68.5792L63.1485 67.1386L61.7079 66.5384L61.1077 65.0978L59.6671 65.6981L58.2665 65.1779L57.6663 66.6184L56.2657 67.1787L56.8659 68.6192L56.2657 70.0598L57.7063 70.6601L58.3065 72.1006L59.7471 71.5004L61.1077 72.0606Z" fill="url(#paint11_linear_381_8184)" fill-opacity="0.25"/>
<path d="M15.3693 74.7817L12.2881 76.0622L11.0076 72.981L7.92637 71.7005L9.20688 68.6192L7.92637 65.538L11.0076 64.2575L12.2881 61.1763L15.3693 62.4568L18.4506 61.1763L19.7311 64.2575L22.8123 65.538L21.5318 68.6192L22.8123 71.7005L19.7311 72.981L18.4506 76.0622L15.3693 74.7817ZM17.8503 74.6617L18.8908 72.1807L21.3717 71.1402L20.3313 68.6593L21.3717 66.1783L18.8908 65.1378L17.8503 62.6568L15.3693 63.6973L12.8884 62.6568L11.8479 65.1378L9.36695 66.1783L10.4074 68.6593L9.36695 71.1402L11.8479 72.1807L12.8884 74.6617L15.3693 73.6212L17.8503 74.6617Z" fill="url(#paint12_linear_381_8184)" fill-opacity="0.25"/>
<path d="M311.728 148.891H331.216L344.981 162.657L358.747 148.891H378.234V129.404L392 115.638L378.234 101.873V82.3848H358.747L344.981 68.6192L331.216 82.3848H311.728V101.873L297.962 115.638L311.728 129.404V148.891ZM314.169 146.45V128.403L301.404 115.638L314.169 102.873V84.8257H332.216L344.981 72.0606L357.746 84.8257H375.794V102.873L388.559 115.638L375.794 128.403V146.45H357.746L344.981 159.216L332.216 146.45H314.169Z" fill="url(#paint13_linear_381_8184)" fill-opacity="0.25"/>
<path d="M324.093 124.282V136.526H336.338L344.981 145.17L353.625 136.526H365.87V124.282L374.513 115.638L365.87 106.995V94.7497H353.625L344.981 86.1062L336.338 94.7497H324.093V106.995L315.449 115.638L324.093 124.282ZM326.494 123.281L318.851 115.638L326.494 107.995V97.1507H337.338L344.981 89.5076L352.624 97.1507H363.469V107.995L371.112 115.638L363.469 123.281V134.125H352.624L344.981 141.769L337.338 134.125H326.494V123.281Z" fill="url(#paint14_linear_381_8184)" fill-opacity="0.25"/>
<path d="M244.061 81.1843H263.549L277.314 94.9498L291.08 81.1843H310.567V61.6965L324.333 47.9309L310.567 34.1654V14.6776H291.08L277.314 0.912109L263.549 14.6776H244.061V34.1654L230.295 47.9309L244.061 61.6965V81.1843ZM246.462 78.7433V60.6961L233.697 47.9309L246.462 35.1658V17.1186H264.509L277.274 4.35349L290.039 17.1186H308.086V35.1658L320.852 47.9309L308.086 60.6961V78.7433H290.039L277.274 91.5084L264.509 78.7433H246.462Z" fill="url(#paint15_linear_381_8184)" fill-opacity="0.25"/>
<path d="M256.386 56.5744V68.8193H268.631L277.274 77.4628L285.958 68.8193H298.202V56.5744L306.846 47.9309L298.202 39.2875V27.0426H285.958L277.274 18.3991L268.631 27.0426H256.386V39.2875L247.742 47.9309L256.386 56.5744ZM258.827 55.574L251.144 47.9309L258.787 40.2879V29.4435H269.631L277.274 21.8005L284.917 29.4435H295.762V40.2879L303.405 47.9309L295.762 55.574V66.4184H284.917L277.274 74.0614L269.631 66.4184H258.787L258.827 55.574Z" fill="url(#paint16_linear_381_8184)" fill-opacity="0.25"/>
<path d="M277.034 133.285L271.632 127.883H263.989V120.24L258.587 114.838L263.989 109.436V101.793H271.632L277.034 96.3904L282.436 101.793H290.079V109.436L295.481 114.838L290.079 120.24V127.883H282.436L277.034 133.285ZM288.479 126.242V119.52L293.24 114.758L288.479 110.036V103.313H281.756L276.994 98.5512L272.232 103.313H265.509V110.036L260.747 114.798L265.509 119.52V126.242H272.232L276.994 131.004L281.756 126.242H288.479Z" fill="url(#paint17_linear_381_8184)" fill-opacity="0.25"/>
<path d="M277.034 126.602L273.593 123.161H268.711V118.279L265.269 114.838L268.711 111.396V106.514H273.593L277.034 103.073L280.475 106.514H285.357V111.396L288.799 114.838L285.357 118.279V123.161H280.475L277.034 126.602ZM283.757 121.52V117.559L286.558 114.758L283.757 111.957V107.995H279.795L276.994 105.194L274.193 107.995H270.231V111.957L267.43 114.758L270.231 117.559V121.52H274.193L276.994 124.322L279.795 121.52H283.757Z" fill="url(#paint18_linear_381_8184)" fill-opacity="0.25"/>
<path d="M345.021 66.4184L339.619 61.0162H331.976V53.3731L326.574 47.971L331.976 42.5288V34.8857H339.619L345.021 29.4836L350.423 34.8857H358.066V42.5288L363.469 47.9309L358.066 53.3331V60.9762H350.423L345.021 66.4184ZM356.466 59.3755V52.6929L361.228 47.9309L356.466 43.169V36.4463H349.743L344.981 31.6844L340.219 36.4463H333.497V43.2091L328.735 47.971L333.577 52.6929V59.4155H340.299L345.061 64.1374L349.823 59.3755H356.466Z" fill="url(#paint19_linear_381_8184)" fill-opacity="0.25"/>
<path d="M344.981 59.7357L341.54 56.2943H336.658V51.4123L333.216 47.971L336.658 44.5296V39.6076H341.54L344.981 36.1662L348.423 39.6076H353.305V44.4896L356.746 47.9309L353.305 51.3723V56.2543H348.423L344.981 59.7357ZM351.704 54.6536V50.6921L354.505 47.8909L351.704 45.0898V41.2083H347.742L344.941 38.4071L342.14 41.2083H338.178V45.1698L335.377 47.971L338.178 50.7721V54.7337H342.14L344.941 57.5348L347.742 54.7337L351.704 54.6536Z" fill="url(#paint20_linear_381_8184)" fill-opacity="0.25"/>
<path d="M295.601 100.152L294.441 97.3908L291.68 96.2303L292.84 93.4692L291.68 90.7081L294.441 89.5476L295.601 86.7865L298.363 87.947L301.124 86.7865L302.284 89.5476L305.045 90.7081L303.885 93.4692L305.045 96.2303L302.284 97.3908L301.124 100.152L298.363 98.9914L295.601 100.152ZM298.363 97.871L300.563 98.7913L301.484 96.5904L303.685 95.6701L302.764 93.4692L303.685 91.2683L301.484 90.3479L300.563 88.1471L298.363 89.0674L296.162 88.1471L295.241 90.3479L293.04 91.2683L293.961 93.4692L293.04 95.6701L295.241 96.5904L296.162 98.7913L298.363 97.871Z" fill="url(#paint21_linear_381_8184)" fill-opacity="0.25"/>
<path d="M296.562 97.8309L295.801 96.0302L294.001 95.2699L294.761 93.4692L294.001 91.6685L295.801 90.9082L296.562 89.1074L298.363 89.8677L300.163 89.1074L300.924 90.9082L302.724 91.6685L301.964 93.4692L302.724 95.2699L300.924 96.0302L300.163 97.8309L298.363 97.0706L296.562 97.8309ZM298.363 95.9902L299.603 96.5104L300.123 95.2699L301.364 94.7497L300.844 93.5092L301.364 92.2687L300.123 91.7485L299.603 90.508L298.363 91.0282L297.122 90.508L296.602 91.7485L295.361 92.2687L295.882 93.5092L295.361 94.7497L296.602 95.2699L297.122 96.5104L298.363 95.9902Z" fill="url(#paint22_linear_381_8184)" fill-opacity="0.25"/>
<path d="M321.212 76.0622L319.931 72.981L316.85 71.7005L318.13 68.6192L316.85 65.538L319.931 64.2575L321.212 61.1763L324.293 62.4568L327.374 61.1763L328.655 64.2575L331.736 65.538L330.455 68.6192L331.736 71.7005L328.655 72.981L327.374 76.0622L324.293 74.7817L321.212 76.0622ZM324.293 73.6212L326.774 74.6617L327.814 72.1807L330.295 71.1402L329.255 68.6593L330.295 66.1783L327.814 65.1378L326.774 62.6568L324.293 63.6973L321.812 62.6568L320.772 65.1378L318.29 66.1783L319.331 68.6593L318.29 71.1402L320.772 72.1807L321.812 74.6617L324.293 73.6212Z" fill="url(#paint23_linear_381_8184)" fill-opacity="0.25"/>
<path d="M322.292 73.4612L321.452 71.4604L319.451 70.62L320.291 68.6192L319.451 66.6184L321.452 65.7781L322.292 63.7773L324.293 64.6176L326.294 63.7773L327.134 65.7781L329.135 66.6184L328.294 68.6192L329.135 70.62L327.134 71.4604L326.294 73.4612L324.293 72.6208L322.292 73.4612ZM324.293 71.4604L325.734 72.0606L326.334 70.62L327.774 70.0198L327.174 68.5792L327.774 67.1386L326.334 66.5384L325.734 65.0978L324.293 65.6981L322.852 65.0978L322.252 66.5384L320.811 67.1386L321.412 68.5792L320.811 70.0198L322.252 70.62L322.852 72.0606L324.293 71.4604Z" fill="url(#paint24_linear_381_8184)" fill-opacity="0.25"/>
<path d="M365.549 76.0622L364.269 72.981L361.188 71.7005L362.468 68.6192L361.188 65.538L364.269 64.2575L365.549 61.1763L368.631 62.4568L371.712 61.1763L372.992 64.2575L376.074 65.538L374.793 68.6192L376.074 71.7005L372.992 72.981L371.712 76.0622L368.631 74.7817L365.549 76.0622ZM368.631 73.6212L371.112 74.6617L372.152 72.1807L374.633 71.1402L373.593 68.6593L374.633 66.1783L372.152 65.1378L371.112 62.6568L368.631 63.6973L366.15 62.6568L365.109 65.1378L362.628 66.1783L363.669 68.6593L362.628 71.1402L365.109 72.1807L366.15 74.6617L368.631 73.6212Z" fill="url(#paint25_linear_381_8184)" fill-opacity="0.25"/>
<defs>
<linearGradient id="paint0_linear_381_8184" x1="191.92" y1="41.8085" x2="191.92" y2="194.47" gradientUnits="userSpaceOnUse">
<stop stop-color="#A8D7B5"/>
<stop offset="1" stop-color="#A8D7B5" stop-opacity="0"/>
</linearGradient>
<linearGradient id="paint1_linear_381_8184" x1="191.92" y1="41.8085" x2="191.92" y2="194.47" gradientUnits="userSpaceOnUse">
<stop stop-color="#A8D7B5"/>
<stop offset="1" stop-color="#A8D7B5" stop-opacity="0"/>
</linearGradient>
<linearGradient id="paint2_linear_381_8184" x1="191.92" y1="41.8085" x2="191.92" y2="194.47" gradientUnits="userSpaceOnUse">
<stop stop-color="#A8D7B5"/>
<stop offset="1" stop-color="#A8D7B5" stop-opacity="0"/>
</linearGradient>
<linearGradient id="paint3_linear_381_8184" x1="191.92" y1="41.8085" x2="191.92" y2="194.47" gradientUnits="userSpaceOnUse">
<stop stop-color="#A8D7B5"/>
<stop offset="1" stop-color="#A8D7B5" stop-opacity="0"/>
</linearGradient>
<linearGradient id="paint4_linear_381_8184" x1="191.92" y1="41.8085" x2="191.92" y2="194.47" gradientUnits="userSpaceOnUse">
<stop stop-color="#A8D7B5"/>
<stop offset="1" stop-color="#A8D7B5" stop-opacity="0"/>
</linearGradient>
<linearGradient id="paint5_linear_381_8184" x1="191.92" y1="41.8085" x2="191.92" y2="194.47" gradientUnits="userSpaceOnUse">
<stop stop-color="#A8D7B5"/>
<stop offset="1" stop-color="#A8D7B5" stop-opacity="0"/>
</linearGradient>
<linearGradient id="paint6_linear_381_8184" x1="191.92" y1="41.8085" x2="191.92" y2="194.47" gradientUnits="userSpaceOnUse">
<stop stop-color="#A8D7B5"/>
<stop offset="1" stop-color="#A8D7B5" stop-opacity="0"/>
</linearGradient>
<linearGradient id="paint7_linear_381_8184" x1="191.92" y1="41.8085" x2="191.92" y2="194.47" gradientUnits="userSpaceOnUse">
<stop stop-color="#A8D7B5"/>
<stop offset="1" stop-color="#A8D7B5" stop-opacity="0"/>
</linearGradient>
<linearGradient id="paint8_linear_381_8184" x1="191.92" y1="41.8085" x2="191.92" y2="194.47" gradientUnits="userSpaceOnUse">
<stop stop-color="#A8D7B5"/>
<stop offset="1" stop-color="#A8D7B5" stop-opacity="0"/>
</linearGradient>
<linearGradient id="paint9_linear_381_8184" x1="191.92" y1="41.8085" x2="191.92" y2="194.47" gradientUnits="userSpaceOnUse">
<stop stop-color="#A8D7B5"/>
<stop offset="1" stop-color="#A8D7B5" stop-opacity="0"/>
</linearGradient>
<linearGradient id="paint10_linear_381_8184" x1="191.92" y1="41.8085" x2="191.92" y2="194.47" gradientUnits="userSpaceOnUse">
<stop stop-color="#A8D7B5"/>
<stop offset="1" stop-color="#A8D7B5" stop-opacity="0"/>
</linearGradient>
<linearGradient id="paint11_linear_381_8184" x1="191.92" y1="41.8085" x2="191.92" y2="194.47" gradientUnits="userSpaceOnUse">
<stop stop-color="#A8D7B5"/>
<stop offset="1" stop-color="#A8D7B5" stop-opacity="0"/>
</linearGradient>
<linearGradient id="paint12_linear_381_8184" x1="191.92" y1="41.8085" x2="191.92" y2="194.47" gradientUnits="userSpaceOnUse">
<stop stop-color="#A8D7B5"/>
<stop offset="1" stop-color="#A8D7B5" stop-opacity="0"/>
</linearGradient>
<linearGradient id="paint13_linear_381_8184" x1="191.92" y1="41.8085" x2="191.92" y2="194.47" gradientUnits="userSpaceOnUse">
<stop stop-color="#A8D7B5"/>
<stop offset="1" stop-color="#A8D7B5" stop-opacity="0"/>
</linearGradient>
<linearGradient id="paint14_linear_381_8184" x1="191.92" y1="41.8085" x2="191.92" y2="194.47" gradientUnits="userSpaceOnUse">
<stop stop-color="#A8D7B5"/>
<stop offset="1" stop-color="#A8D7B5" stop-opacity="0"/>
</linearGradient>
<linearGradient id="paint15_linear_381_8184" x1="191.92" y1="41.8085" x2="191.92" y2="194.47" gradientUnits="userSpaceOnUse">
<stop stop-color="#A8D7B5"/>
<stop offset="1" stop-color="#A8D7B5" stop-opacity="0"/>
</linearGradient>
<linearGradient id="paint16_linear_381_8184" x1="191.92" y1="41.8085" x2="191.92" y2="194.47" gradientUnits="userSpaceOnUse">
<stop stop-color="#A8D7B5"/>
<stop offset="1" stop-color="#A8D7B5" stop-opacity="0"/>
</linearGradient>
<linearGradient id="paint17_linear_381_8184" x1="191.92" y1="41.8085" x2="191.92" y2="194.47" gradientUnits="userSpaceOnUse">
<stop stop-color="#A8D7B5"/>
<stop offset="1" stop-color="#A8D7B5" stop-opacity="0"/>
</linearGradient>
<linearGradient id="paint18_linear_381_8184" x1="191.92" y1="41.8085" x2="191.92" y2="194.47" gradientUnits="userSpaceOnUse">
<stop stop-color="#A8D7B5"/>
<stop offset="1" stop-color="#A8D7B5" stop-opacity="0"/>
</linearGradient>
<linearGradient id="paint19_linear_381_8184" x1="191.92" y1="41.8085" x2="191.92" y2="194.47" gradientUnits="userSpaceOnUse">
<stop stop-color="#A8D7B5"/>
<stop offset="1" stop-color="#A8D7B5" stop-opacity="0"/>
</linearGradient>
<linearGradient id="paint20_linear_381_8184" x1="191.92" y1="41.8085" x2="191.92" y2="194.47" gradientUnits="userSpaceOnUse">
<stop stop-color="#A8D7B5"/>
<stop offset="1" stop-color="#A8D7B5" stop-opacity="0"/>
</linearGradient>
<linearGradient id="paint21_linear_381_8184" x1="191.92" y1="41.8085" x2="191.92" y2="194.47" gradientUnits="userSpaceOnUse">
<stop stop-color="#A8D7B5"/>
<stop offset="1" stop-color="#A8D7B5" stop-opacity="0"/>
</linearGradient>
<linearGradient id="paint22_linear_381_8184" x1="191.92" y1="41.8085" x2="191.92" y2="194.47" gradientUnits="userSpaceOnUse">
<stop stop-color="#A8D7B5"/>
<stop offset="1" stop-color="#A8D7B5" stop-opacity="0"/>
</linearGradient>
<linearGradient id="paint23_linear_381_8184" x1="191.92" y1="41.8085" x2="191.92" y2="194.47" gradientUnits="userSpaceOnUse">
<stop stop-color="#A8D7B5"/>
<stop offset="1" stop-color="#A8D7B5" stop-opacity="0"/>
</linearGradient>
<linearGradient id="paint24_linear_381_8184" x1="191.92" y1="41.8085" x2="191.92" y2="194.47" gradientUnits="userSpaceOnUse">
<stop stop-color="#A8D7B5"/>
<stop offset="1" stop-color="#A8D7B5" stop-opacity="0"/>
</linearGradient>
<linearGradient id="paint25_linear_381_8184" x1="191.92" y1="41.8085" x2="191.92" y2="194.47" gradientUnits="userSpaceOnUse">
<stop stop-color="#A8D7B5"/>
<stop offset="1" stop-color="#A8D7B5" stop-opacity="0"/>
</linearGradient>
</defs>
</svg>
