<svg width="136" height="24" viewBox="0 0 136 24" fill="none" xmlns="http://www.w3.org/2000/svg">
<g clip-path="url(#clip0_1296_4804)">
<path d="M108.121 10.6091V16.8539H107.901C105.658 14.2354 104.289 12.5961 103.423 11.6239C102.848 10.9142 102.401 10.4104 101.776 9.60143C101.776 10.0698 101.776 10.5594 101.776 13.1496C101.776 16.2507 101.776 16.4707 102.827 16.4707V16.7475C102.238 16.7475 101.698 16.7475 101.195 16.7475C100.691 16.7475 100.244 16.7475 99.7256 16.7475V16.4707C100.783 16.4707 100.783 16.2436 100.783 13.1425V7.12477H101.003C103.26 9.80721 104.643 11.4465 105.516 12.4684C106.098 13.1354 106.474 13.5967 107.127 14.4483C107.127 13.9657 107.127 13.4548 107.127 10.5949C107.127 7.73507 107.127 7.45122 106.049 7.45122V7.17445C106.545 7.17445 107.07 7.17445 107.56 7.17445C108.05 7.17445 108.568 7.17445 109.05 7.17445V7.45122C108.121 7.45122 108.121 7.6783 108.121 10.5949M34.9143 14.0863C34.9267 14.4795 34.8441 14.8699 34.6737 15.2244C34.5032 15.5789 34.2498 15.8872 33.935 16.123C33.207 16.5956 32.3456 16.8197 31.4796 16.7617C31.0183 16.7617 30.5216 16.7262 30.0603 16.7262H28.7191V16.4423C29.7552 16.4423 29.7552 16.2507 29.7552 13.1425V10.5878C29.7552 7.6712 29.7552 7.47959 28.8327 7.47959V7.22413H30.1881C30.5074 7.22413 30.9687 7.22413 31.4867 7.22413C31.9461 7.21854 32.4042 7.27343 32.8492 7.38736C33.3304 7.53357 33.7501 7.83395 34.0437 8.24222C34.3373 8.6505 34.4885 9.144 34.474 9.64667C34.4595 10.1493 34.28 10.6333 33.9633 11.0239C33.6466 11.4146 33.2103 11.6902 32.7215 11.8084C33.3084 11.8593 33.8555 12.1264 34.2567 12.5577C34.6579 12.9891 34.8846 13.5541 34.893 14.1431M33.3105 9.75045C33.3212 9.51989 33.2808 9.28983 33.1923 9.07667C33.1038 8.86351 32.9694 8.67248 32.7986 8.51726C32.6278 8.36204 32.4248 8.24645 32.2042 8.17871C31.9835 8.11096 31.7507 8.09274 31.5222 8.12537C31.297 8.12483 31.0719 8.13669 30.848 8.16086V11.4465H31.217C31.5068 11.4513 31.7959 11.4155 32.0757 11.34C32.4333 11.2556 32.751 11.0509 32.9758 10.7603C33.2005 10.4697 33.3187 10.1107 33.3105 9.74334M33.7221 14.0934C33.7246 13.719 33.6004 13.3548 33.3699 13.0598C33.1393 12.7648 32.8157 12.5564 32.4518 12.4684C32.0887 12.3704 31.7138 12.3226 31.3377 12.3264C31.2029 12.3264 30.9758 12.3264 30.8551 12.3264V15.314C30.8551 15.683 30.8551 15.7256 31.0184 15.7824C31.2219 15.8368 31.4323 15.8607 31.6428 15.8533C32.0162 15.8498 32.3851 15.7726 32.7286 15.6263C33.0353 15.5049 33.2962 15.2903 33.4744 15.0127C33.6526 14.7352 33.7393 14.4087 33.7221 14.0793M37.7528 13.107H40.4282V13.0645C39.2856 9.91367 39.1934 9.67239 39.1437 9.44531C39.0728 9.66529 38.9734 9.91367 37.7741 13.0645L37.7528 13.107ZM51.676 10.6233V16.8681H51.456C49.2135 14.2496 47.851 12.6103 46.9781 11.6381C46.4033 10.9285 45.9563 10.4246 45.3318 9.61561C45.3318 10.084 45.3318 10.5736 45.3318 13.1638C45.3318 16.2649 45.3318 16.4849 46.382 16.4849V16.7617C45.793 16.7617 45.2537 16.7617 44.7428 16.7617C44.2318 16.7617 44.0331 16.7617 43.4938 16.7617C43.2454 16.7617 43.0113 16.7617 42.3726 16.7617C41.7339 16.7617 41.0739 16.7617 40.6978 16.7617V16.4778C41.7481 16.4778 41.6629 16.2933 40.7901 13.9799H37.4548C36.5393 16.2862 36.4755 16.4778 37.5399 16.4778V16.7617C37.1071 16.7617 36.5535 16.7617 35.9503 16.7617C35.3471 16.7617 34.8646 16.7617 34.5807 16.7617V16.4778C35.2904 16.4778 35.411 16.2933 36.66 13.178L39.1082 7.04672H39.3424L41.6984 13.178C42.8267 16.1017 42.9829 16.4494 43.579 16.4778C44.3312 16.5204 44.3312 15.9243 44.3312 13.1638V7.14606H44.5867C46.8433 9.8285 48.2271 11.4678 49.1 12.4896C49.6748 13.1567 50.058 13.618 50.7108 14.4695C50.7108 13.987 50.7108 13.4761 50.7108 10.6162C50.7108 7.75636 50.7108 7.47251 49.6322 7.47251V7.19574C50.1289 7.19574 50.6541 7.19574 51.1437 7.19574C51.6334 7.19574 52.1514 7.19574 52.634 7.19574V7.47251C51.7043 7.47251 51.7043 7.69959 51.7043 10.6162M54.6848 13.1922V10.5878C54.6848 7.6712 54.6848 7.47959 53.6558 7.47959V7.19574C54.1029 7.19574 54.6493 7.19574 55.2454 7.19574C55.8415 7.19574 56.3383 7.19574 56.8137 7.19574V7.47959C55.8486 7.47959 55.8273 7.6783 55.8273 10.4601V11.5671L57.8001 9.28208C59.1484 7.71378 59.2194 7.47959 58.3536 7.47959V7.19574C58.9639 7.19574 59.3826 7.19574 59.8936 7.19574C60.4045 7.19574 60.9296 7.19574 61.2774 7.19574V7.47959C60.5677 7.47959 60.4471 7.69958 59.0065 9.31756L56.8776 11.7516L59.4252 14.6612C60.8445 16.2933 61.1 16.4849 61.7528 16.4849V16.7688C61.3909 16.7688 60.88 16.7688 60.2555 16.7688C59.631 16.7688 59.1555 16.7688 58.5311 16.7688V16.4849C59.5671 16.4849 59.3046 16.2223 58.0556 14.7321L55.8486 12.1277V13.3341C55.8486 16.2933 55.8486 16.4849 56.9344 16.4849V16.7688C56.3809 16.7688 55.9409 16.7688 55.3306 16.7688C54.7203 16.7688 54.11 16.7688 53.6346 16.7688V16.4849C54.7061 16.4849 54.7061 16.2933 54.7061 13.1851M68.246 10.5807V13.178C68.246 16.2862 68.246 16.4778 69.3389 16.4778V16.7617C68.8918 16.7617 68.2886 16.7617 67.6783 16.7617C67.068 16.7617 66.5429 16.7617 66.032 16.7617V16.4778C67.1035 16.4778 67.1035 16.2862 67.1035 13.1922V10.5878C67.1035 7.6712 67.1035 7.47959 66.0745 7.47959V7.19574C66.55 7.19574 67.0822 7.19574 67.6499 7.19574C68.2176 7.19574 68.8847 7.19574 69.2466 7.19574V7.47959C68.2531 7.47959 68.2531 7.67121 68.2531 10.5807M99.7469 11.8368C99.7705 12.5046 99.6569 13.1701 99.4132 13.7923C99.1695 14.4144 98.8008 14.9801 98.33 15.4542C97.8592 15.9283 97.2962 16.3009 96.6758 16.549C96.0553 16.7971 95.3906 16.9154 94.7227 16.8965C94.0808 16.908 93.4432 16.7902 92.8478 16.5501C92.2525 16.31 91.7115 15.9525 91.2573 15.4989C90.803 15.0452 90.4447 14.5048 90.2037 13.9098C89.9627 13.3148 89.844 12.6774 89.8545 12.0355C89.8363 11.3703 89.9554 10.7085 90.2044 10.0914C90.4534 9.47438 90.827 8.91529 91.3019 8.44911C91.7767 7.98293 92.3426 7.61968 92.9641 7.38205C93.5857 7.14442 94.2496 7.03751 94.9143 7.06801C95.5479 7.04271 96.1799 7.14731 96.7716 7.37538C97.3633 7.60345 97.902 7.95015 98.3547 8.39419C98.8073 8.83822 99.1644 9.3702 99.4038 9.95735C99.6432 10.5445 99.76 11.1744 99.7469 11.8084M98.4838 11.8794C98.4245 11.1658 98.159 10.4849 97.7196 9.91967C97.2801 9.35441 96.6857 8.92919 96.0088 8.69586C95.3319 8.46254 94.6017 8.43119 93.9073 8.60562C93.2129 8.78005 92.5842 9.15272 92.0979 9.67822C91.6116 10.2037 91.2887 10.8594 91.1685 11.5652C91.0483 12.271 91.1361 12.9966 91.4211 13.6534C91.7061 14.3102 92.176 14.87 92.7736 15.2644C93.3712 15.6588 94.0705 15.8708 94.7865 15.8746C96.8445 15.8746 98.4838 14.3205 98.4838 11.8794ZM111.051 13.1567V10.5878C111.051 7.6712 111.051 7.47959 110.15 7.47959V7.19574C110.711 7.19574 111.499 7.19574 112.556 7.19574C113.613 7.19574 114.905 7.19574 115.735 7.19574C115.685 7.8628 115.65 8.61502 115.643 9.32466H115.373C115.331 8.32407 115.125 8.13957 114.124 8.13957H112.201V11.4252H113.62C114.706 11.4252 115.04 11.4252 115.089 10.8007H115.345C115.345 11.1201 115.295 11.5103 115.295 11.851C115.295 12.1916 115.295 12.6742 115.345 13.0645H115.089C115.018 12.3548 114.727 12.3548 113.67 12.3548H112.251V15.3353C112.251 15.8108 112.251 15.8391 112.74 15.8462C113.337 15.8462 113.911 15.8462 114.578 15.8462C115.245 15.8462 115.6 15.7469 115.707 14.7605H115.976C115.976 15.3424 115.898 16.1088 115.898 16.8114C115.04 16.8114 113.826 16.8114 112.698 16.8114C111.57 16.8114 110.725 16.8114 110.15 16.8114V16.5275C111.115 16.5275 111.115 16.3359 111.115 13.2277M122.214 14.3205C122.214 15.7753 121.157 16.9178 119.255 16.9178C118.56 16.9145 117.872 16.7721 117.232 16.4991C117.282 15.9456 117.318 15.1437 117.332 14.3205H117.609C117.593 14.5588 117.627 14.7977 117.711 15.0216C117.794 15.2454 117.923 15.4491 118.091 15.6192C118.427 15.8723 118.843 15.9958 119.262 15.9669C120.312 15.9669 121.029 15.385 121.029 14.4838C121.028 14.2046 120.96 13.9298 120.831 13.6827C120.701 13.4356 120.513 13.2235 120.284 13.0645C119.929 12.7877 119.539 12.518 119.021 12.1774C118.556 11.9394 118.163 11.5819 117.882 11.1416C117.602 10.7013 117.444 10.1941 117.424 9.67237C117.433 9.32323 117.514 8.9797 117.661 8.66286C117.808 8.34602 118.018 8.06259 118.279 7.82997C118.539 7.59735 118.845 7.42046 119.176 7.31017C119.507 7.19989 119.858 7.15852 120.206 7.18864C120.769 7.19099 121.329 7.27955 121.866 7.45122C121.817 8.16086 121.802 8.8705 121.795 9.58014H121.519C121.553 9.37841 121.538 9.1713 121.473 8.97703C121.409 8.78275 121.298 8.60726 121.15 8.466C120.863 8.2604 120.515 8.15784 120.163 8.17505C119.965 8.15408 119.764 8.17524 119.574 8.23711C119.384 8.29899 119.21 8.40021 119.062 8.53415C118.914 8.6681 118.796 8.83175 118.715 9.01443C118.635 9.19711 118.594 9.39471 118.595 9.59432C118.602 9.84265 118.663 10.0864 118.775 10.3084C118.887 10.5303 119.046 10.725 119.241 10.8788C119.654 11.2171 120.088 11.5299 120.539 11.8155C121.49 12.44 122.228 13.1638 122.228 14.3844M132.412 14.0934H129.076C128.154 16.3998 128.097 16.5914 129.161 16.5914V16.8752C128.729 16.8752 128.175 16.8752 127.572 16.8752C126.969 16.8752 126.621 16.8752 126.337 16.8752C125.89 16.8752 125.422 16.8752 124.804 16.8752C124.187 16.8752 123.669 16.8752 123.158 16.8752V16.5914C124.229 16.5914 124.229 16.3998 124.229 13.3057V10.5878C124.229 7.6712 124.229 7.47959 123.2 7.47959V7.19574C123.676 7.19574 124.208 7.19574 124.776 7.19574C125.344 7.19574 126.004 7.19574 126.365 7.19574V7.47959C125.379 7.47959 125.372 7.67121 125.372 10.5807V13.178C125.372 16.1301 125.372 16.4778 126.309 16.4778C126.94 16.4778 127.096 16.1372 128.282 13.178L130.73 7.04672H130.971L133.327 13.178C134.533 16.2862 134.626 16.4778 135.328 16.4778V16.7617C135.08 16.7617 134.619 16.7617 133.987 16.7617C133.355 16.7617 132.688 16.7617 132.312 16.7617V16.4778C133.363 16.4778 133.277 16.2933 132.405 13.9799M129.396 13.0928H132.071V13.0503C130.928 9.89947 130.836 9.65818 130.787 9.4311C130.708 9.65109 130.616 9.89947 129.417 13.0503L129.396 13.0928ZM78.6493 10.6091V16.8539H78.4294C76.1869 14.2354 74.8173 12.5961 73.9515 11.6239C73.3767 10.9142 72.9296 10.4104 72.3052 9.60143C72.3052 10.0698 72.3052 10.5594 72.3052 13.1496C72.3052 16.2507 72.3052 16.4707 73.3554 16.4707V16.7475C72.7664 16.7475 72.2271 16.7475 71.7233 16.7475C71.2194 16.7475 70.7723 16.7475 70.2614 16.7475V16.4707C71.3188 16.4707 71.3188 16.2436 71.3188 13.1425V7.12477H71.5459C73.8025 9.80721 75.1863 11.4465 76.0592 12.4684C76.634 13.1354 77.0172 13.5967 77.67 14.4483C77.67 13.9657 77.67 13.4548 77.67 10.5949C77.67 7.73507 77.67 7.45122 76.5914 7.45122V7.17445C77.0881 7.17445 77.6133 7.17445 78.1029 7.17445C78.5926 7.17445 79.1106 7.17445 79.5932 7.17445V7.45122C78.6635 7.45122 78.6635 7.6783 78.6635 10.5949M89.0456 11.702C89.0809 12.4662 88.937 13.2281 88.6252 13.9268C88.3135 14.6255 87.8426 15.2415 87.2502 15.7256C86.1755 16.4899 84.8683 16.8562 83.5529 16.7617C83.2123 16.7617 82.5878 16.7617 82.0272 16.7617C81.4666 16.7617 81.0124 16.7617 80.4802 16.7617V16.4778C81.5589 16.4778 81.5589 16.2578 81.5589 13.178V10.5878C81.5589 7.6712 81.5589 7.50088 80.5299 7.50088V7.23832H82.0982C82.6304 7.23832 83.0349 7.23832 83.8155 7.23832C84.9464 7.16341 86.0755 7.40939 87.0728 7.94796C87.7104 8.35369 88.2285 8.92182 88.574 9.59402C88.9195 10.2662 89.0798 11.0183 89.0385 11.7729M87.8108 11.8581C87.837 11.2799 87.7213 10.7041 87.4739 10.1809C87.2266 9.65772 86.8549 9.20295 86.3915 8.85629C85.6161 8.39548 84.7239 8.16876 83.8226 8.20344C83.34 8.20344 83.113 8.20342 82.6872 8.2531V15.4134C82.6872 15.6617 82.744 15.7327 82.9427 15.7682C83.2153 15.807 83.4906 15.8236 83.7658 15.8179C84.7491 15.8693 85.7176 15.5616 86.4908 14.9521C86.9279 14.5561 87.2717 14.0682 87.4975 13.5233C87.7233 12.9785 87.8255 12.3904 87.7966 11.8013" fill="white"/>
<path d="M-3.83332e-05 11.9716C-2.79322e-05 9.60095 0.703412 7.28358 2.02123 5.31293C3.33904 3.34228 5.21196 1.80696 7.40285 0.901372C9.59374 -0.00421612 12.0041 -0.239351 14.3287 0.225734C16.6533 0.690818 18.7876 1.8352 20.4615 3.51401C22.1353 5.19281 23.2733 7.33055 23.7315 9.65652C24.1897 11.9825 23.9474 14.3921 23.0353 16.5803C22.1233 18.7685 20.5824 20.6369 18.6079 21.9488C16.6333 23.2608 14.3139 23.9574 11.9432 23.9503C8.76747 23.9503 5.72171 22.6893 3.47547 20.4443C1.22923 18.1994 -0.0336411 15.1544 -0.0355225 11.9787" fill="white"/>
<path d="M13.5115 20.2176C13.5612 21.495 14.2709 21.5305 15.1792 21.5305V22.1762H9.50208V21.5801C10.4388 21.5801 11.1342 21.4879 11.1839 20.2176H13.5115ZM13.5115 10.6091C15.4418 10.0414 16.2436 8.89179 16.2436 7.56476C16.2436 5.86163 14.9521 5.05263 13.5044 5.05263H9.68659V17.1733C9.65413 17.3829 9.67081 17.5972 9.73533 17.7994C9.79985 18.0015 9.91043 18.1858 10.0584 18.3379C10.2063 18.4899 10.3875 18.6056 10.5878 18.6756C10.7881 18.7457 11.0018 18.7683 11.2123 18.7416V12.44C11.9852 12.4133 12.7544 12.3207 13.5115 12.1632V18.7416C15.3495 18.7416 17.1946 17.6203 17.1946 15.7966C17.1946 13.6676 15.7256 12.2484 13.9444 11.3826C12.6933 11.6451 11.4191 11.783 10.1408 11.7942L10.4601 10.9994L11.1697 10.9568V5.62034H13.469L13.5115 10.6091ZM5.31521 19.657V18.9474C6.9048 18.9474 7.37316 18.7416 7.37316 17.1165V6.86221C7.37316 5.05263 6.66352 4.93909 5.30811 4.93909V4.27203H11.2336C11.1839 3.00177 10.4885 2.90951 9.55176 2.90951V2.32052H15.2289V2.96629C14.3205 2.96629 13.6109 3.00888 13.5612 4.27913H14.0722C15.3424 4.27913 18.4648 4.712 18.4719 7.28799C18.4719 9.09048 17.2584 10.2401 15.4985 10.9213C16.7262 11.3116 19.6215 12.6316 19.6215 15.3566C19.6215 18.0816 17.0881 19.6499 14.0722 19.6499L5.31521 19.657Z" fill="#333333"/>
<path fill-rule="evenodd" clip-rule="evenodd" d="M30.5784 21.992H30.9333C31.3094 21.992 31.6997 22.07 31.6997 22.5526C31.6997 23.0351 31.281 23.0706 30.9333 23.0706H30.5784V21.992ZM30.5784 20.523H30.8694C31.21 20.523 31.579 20.523 31.579 20.9843C31.579 21.4455 31.1887 21.4384 30.8694 21.4384H30.5642L30.5784 20.523ZM29.8333 23.6596H31.132C31.6003 23.6596 32.4448 23.5248 32.4448 22.581C32.4411 22.3563 32.3502 22.1418 32.1913 21.9829C32.0324 21.8239 31.8179 21.733 31.5932 21.7294C31.7919 21.7002 31.9733 21.6 32.1038 21.4474C32.2343 21.2947 32.305 21.0999 32.3029 20.8991C32.3029 20.083 31.5932 19.9411 31.1036 19.9411H29.8049L29.8333 23.6596Z" fill="white"/>
<path fill-rule="evenodd" clip-rule="evenodd" d="M35.2904 22.219H34.2047L34.744 20.6791L35.2904 22.219ZM32.8918 23.6383H33.6653L33.9918 22.7868H35.5033L35.8227 23.6383H36.6529L35.1911 19.9127H34.3466L32.8918 23.6383Z" fill="white"/>
<path fill-rule="evenodd" clip-rule="evenodd" d="M37.3909 23.6596H38.1005V20.8778H38.1147L39.5411 23.6596H40.4494V19.934H39.7398V22.7229H39.7256L38.3063 19.934H37.3909V23.6596Z" fill="white"/>
<path fill-rule="evenodd" clip-rule="evenodd" d="M41.7836 23.6596H42.5287V21.9352H42.5429L43.8841 23.6596H44.8563L43.2596 21.6939L44.7924 19.934H43.877L42.5287 21.5378V19.934H41.7836V23.6596Z" fill="white"/>
<path fill-rule="evenodd" clip-rule="evenodd" d="M49.7599 20.005C49.4712 19.9117 49.1692 19.8661 48.8658 19.8701C48.2129 19.8701 47.5671 20.1753 47.5671 21.0056C47.5671 22.2403 49.1993 21.9423 49.1993 22.659C49.1993 22.9925 48.8232 23.1416 48.5393 23.1416C48.2434 23.1372 47.9531 23.0592 47.6949 22.9145L47.6239 23.5886C47.9345 23.6828 48.2573 23.7306 48.5819 23.7306C49.3341 23.7306 50.0012 23.4183 50.0012 22.6023C50.0012 21.3533 48.369 21.63 48.369 20.9772C48.3683 20.9027 48.3837 20.829 48.414 20.7611C48.4444 20.6931 48.489 20.6325 48.5449 20.5833C48.6008 20.5341 48.6666 20.4976 48.7379 20.4762C48.8092 20.4548 48.8843 20.449 48.958 20.4592C49.2195 20.4619 49.4778 20.5174 49.7173 20.6224L49.7599 20.005Z" fill="white"/>
<path fill-rule="evenodd" clip-rule="evenodd" d="M50.9875 23.9361H53.1945V23.3542H51.7327V22.304H53.0597V21.7221H51.7327V20.7995H53.1874V20.2105H50.9875V23.9361Z" fill="white"/>
<path fill-rule="evenodd" clip-rule="evenodd" d="M54.259 23.9361H54.9758V21.1543H54.99L56.4092 23.9361H57.3247V20.2105H56.6079V22.9994H56.6008L55.1816 20.2105H54.259V23.9361Z" fill="white"/>
<path fill-rule="evenodd" clip-rule="evenodd" d="M59.2123 23.9361H59.9645V20.7995H61.029V20.2105H58.1478V20.7995H59.2123V23.9361Z" fill="white"/>
<path fill-rule="evenodd" clip-rule="evenodd" d="M62.5973 20.7995H62.8386C63.2147 20.7995 63.6263 20.835 63.6263 21.2821C63.6263 21.7291 63.2005 21.8001 62.8386 21.8001H62.5973V20.7995ZM61.8522 23.9361H62.5973V22.3891H62.8386C63.1508 22.3891 63.2502 22.4956 63.3566 22.7723L63.8037 23.9361H64.634L64.0379 22.4814C63.9669 22.3181 63.8463 22.1123 63.6405 22.0982C63.8537 22.0768 64.0511 21.9758 64.1931 21.8153C64.3352 21.6548 64.4115 21.4467 64.4069 21.2324C64.4069 20.1963 63.456 20.2247 62.6541 20.2247H61.8451L61.8522 23.9361Z" fill="white"/>
<path fill-rule="evenodd" clip-rule="evenodd" d="M67.5932 22.4956H66.5074L67.0467 20.9557L67.5932 22.4956ZM65.1946 23.9148H65.9681L66.2945 23.0633H67.8061L68.1254 23.9148H68.9557L67.4938 20.1892H66.6493L65.1946 23.9148Z" fill="white"/>
<path fill-rule="evenodd" clip-rule="evenodd" d="M69.722 23.9361H71.9148V23.3542H70.4672V20.2105H69.722V23.9361Z" fill="white"/>
<path fill-rule="evenodd" clip-rule="evenodd" d="M75.4204 20.7995H75.6688C76.0449 20.7995 76.4636 20.835 76.4636 21.2821C76.4636 21.7291 76.0378 21.8001 75.6688 21.8001H75.4204V20.7995ZM74.6753 23.9361H75.4204V22.3891H75.6617C75.9739 22.3891 76.0733 22.4956 76.1797 22.7723L76.6268 23.9361H77.4571L76.861 22.4814C76.79 22.3181 76.6694 22.1123 76.4636 22.0982C76.6769 22.0768 76.8742 21.9758 77.0163 21.8153C77.1583 21.6548 77.2347 21.4467 77.23 21.2324C77.23 20.1963 76.2791 20.2247 75.4772 20.2247H74.6682L74.6753 23.9361Z" fill="white"/>
<path fill-rule="evenodd" clip-rule="evenodd" d="M78.2378 23.9361H80.4448V23.3542H78.9829V22.304H80.3099V21.7221H78.9829V20.7995H80.4377V20.2105H78.2378V23.9361Z" fill="white"/>
<path fill-rule="evenodd" clip-rule="evenodd" d="M82.1976 20.7995H82.4601C82.8433 20.7995 83.1698 20.9485 83.1698 21.3814C83.1698 21.8143 82.8291 21.935 82.4601 21.935H82.1976V20.7995ZM81.4879 23.9361H82.1976V22.5168H82.5098C83.3117 22.5168 83.9291 22.2046 83.9291 21.3318C83.9291 20.4589 83.2194 20.2034 82.375 20.2034H81.4879V23.9361Z" fill="white"/>
<path fill-rule="evenodd" clip-rule="evenodd" d="M84.7806 22.5949C84.7806 23.5955 85.3413 24.0142 86.2993 24.0142C87.2573 24.0142 87.8179 23.6026 87.8179 22.5949V20.2176H87.0728V22.3465C87.0728 22.9781 86.867 23.3968 86.2993 23.3968C85.7316 23.3968 85.5258 22.9781 85.5258 22.3465V20.2176H84.7806V22.5949Z" fill="white"/>
<path fill-rule="evenodd" clip-rule="evenodd" d="M89.7552 22.2685H90.11C90.479 22.2685 90.8764 22.3465 90.8764 22.8291C90.8764 23.3116 90.4577 23.3471 90.11 23.3471H89.7552V22.2685ZM89.7552 20.7995H90.039C90.3797 20.7995 90.7487 20.7995 90.7487 21.2608C90.7487 21.7221 90.3584 21.715 90.039 21.715H89.7339L89.7552 20.7995ZM89.0101 23.9361H90.3087C90.7771 23.9361 91.6215 23.8013 91.6215 22.8575C91.6179 22.6328 91.527 22.4183 91.3681 22.2594C91.2092 22.1005 90.9947 22.0096 90.77 22.0059C90.9687 21.9767 91.1501 21.8766 91.2805 21.7239C91.411 21.5712 91.4817 21.3765 91.4796 21.1756C91.4796 20.3596 90.77 20.2176 90.2803 20.2176H88.9817L89.0101 23.9361Z" fill="white"/>
<path fill-rule="evenodd" clip-rule="evenodd" d="M92.4519 23.9361H94.6447V23.3542H93.2041V20.2105H92.4519V23.9361Z" fill="white"/>
<path d="M96.2058 20.2105H95.4607V23.9361H96.2058V20.2105Z" fill="white"/>
<path fill-rule="evenodd" clip-rule="evenodd" d="M97.5116 23.9361H98.2567V22.2117H98.2709L99.605 23.9361H100.584L98.9876 21.9704L100.52 20.2105H99.605L98.2567 21.8143V20.2105H97.5116V23.9361Z" fill="white"/>
<path d="M104.104 20.2105H103.352V23.9361H104.104V20.2105Z" fill="white"/>
<path fill-rule="evenodd" clip-rule="evenodd" d="M105.374 23.9361H106.084V21.1543H106.098L107.517 23.9361H108.433V20.2105H107.716V22.9994H107.709L106.29 20.2105H105.374V23.9361Z" fill="white"/>
<path fill-rule="evenodd" clip-rule="evenodd" d="M109.767 23.9361H110.782C111.924 23.9361 112.911 23.5529 112.911 22.0769C112.911 20.6008 111.903 20.2105 110.782 20.2105H109.767V23.9361ZM110.512 20.7995H110.931C111.252 20.8235 111.553 20.9682 111.772 21.2044C111.991 21.4406 112.113 21.751 112.113 22.0733C112.113 22.3956 111.991 22.706 111.772 22.9423C111.553 23.1785 111.252 23.3231 110.931 23.3471H110.512V20.7995Z" fill="white"/>
<path fill-rule="evenodd" clip-rule="evenodd" d="M113.727 22.0627C113.744 22.421 113.865 22.7665 114.076 23.0563C114.288 23.3461 114.58 23.5675 114.916 23.6929C115.252 23.8183 115.617 23.8422 115.967 23.7616C116.316 23.6811 116.635 23.4996 116.882 23.2398C117.129 22.98 117.295 22.6533 117.358 22.3002C117.421 21.9471 117.379 21.5832 117.237 21.2537C117.096 20.9242 116.86 20.6437 116.56 20.4469C116.26 20.25 115.909 20.1456 115.551 20.1467C115.3 20.133 115.048 20.1739 114.815 20.2667C114.581 20.3595 114.37 20.5019 114.197 20.684C114.023 20.8662 113.892 21.0837 113.811 21.3218C113.729 21.5598 113.701 21.8126 113.727 22.0627ZM114.507 22.0627C114.507 21.4027 114.813 20.7357 115.551 20.7357C116.289 20.7357 116.594 21.4098 116.594 22.0627C116.594 22.7156 116.31 23.411 115.551 23.411C114.791 23.411 114.507 22.7014 114.507 22.0627Z" fill="white"/>
<path fill-rule="evenodd" clip-rule="evenodd" d="M118.269 23.9361H118.978V21.1543H118.992L120.419 23.9361H121.327V20.2105H120.617V22.9994H120.603L119.184 20.2105H118.269V23.9361Z" fill="white"/>
<path fill-rule="evenodd" clip-rule="evenodd" d="M122.661 23.9361H124.868V23.3542H123.413V22.304H124.74V21.7221H123.413V20.7995H124.861V20.2105H122.661V23.9361Z" fill="white"/>
<path fill-rule="evenodd" clip-rule="evenodd" d="M128.147 20.2815C127.858 20.1882 127.556 20.1427 127.252 20.1467C126.593 20.1467 125.954 20.4518 125.954 21.2821C125.954 22.5169 127.586 22.2188 127.586 22.9355C127.586 23.2691 127.21 23.4181 126.926 23.4181C126.63 23.4132 126.34 23.3352 126.082 23.191L126.011 23.8652C126.319 23.9586 126.639 24.0065 126.962 24.0071C127.714 24.0071 128.381 23.6949 128.381 22.8788C128.381 21.6298 126.749 21.9066 126.749 21.2537C126.748 21.1793 126.763 21.1056 126.794 21.0376C126.824 20.9696 126.869 20.909 126.925 20.8598C126.98 20.8107 127.046 20.7741 127.118 20.7527C127.189 20.7313 127.264 20.7255 127.338 20.7357C127.599 20.7385 127.857 20.794 128.097 20.8989L128.147 20.2815Z" fill="white"/>
<path d="M130.233 20.2105H129.488V23.9361H130.233V20.2105Z" fill="white"/>
<path fill-rule="evenodd" clip-rule="evenodd" d="M133.505 22.4956H132.419L132.958 20.9557L133.505 22.4956ZM131.106 23.9148H131.872L132.199 23.0633H133.71L134.03 23.9148H134.86L133.398 20.1892H132.582L131.106 23.9148Z" fill="white"/>
</g>
<defs>
<clipPath id="clip0_1296_4804">
<rect width="135.229" height="24" fill="white"/>
</clipPath>
</defs>
</svg>
