<svg width="360" height="189" viewBox="0 0 360 189" fill="none" xmlns="http://www.w3.org/2000/svg">
<g clip-path="url(#clip0_229_1189)">
<rect width="360" height="189" fill="white"/>
<rect width="360" height="189" fill="#31813C" fill-opacity="0.2"/>
<path d="M360 -7H0V195H360V-7Z" fill="url(#paint0_radial_229_1189)"/>
<path style="mix-blend-mode:multiply" opacity="0.25" d="M-0.408159 185.5H360V44.4472C358.584 42.6185 356.656 40.7954 354.022 39.2012C346.635 34.7242 344.159 29.6094 343.332 27.0324C344.489 26.8748 345.389 26.0458 345.389 25.003C345.389 23.9039 344.406 23.013 343.159 22.9267L342.908 14.5185L342.66 22.9361C341.467 23.0674 340.543 23.9377 340.543 25.003C340.543 26.0683 341.39 26.8205 342.497 27.0155C341.676 29.5869 339.204 34.7148 331.801 39.203C323.963 43.952 322.351 50.691 322.023 53.7069C321.989 46.6679 322.186 39.5294 322.462 33.2068H322.908C323.242 33.2068 323.514 32.9349 323.514 32.601V32.5972C323.514 32.2653 323.242 31.9933 322.91 31.9933H322.515C322.959 22.259 323.563 14.6836 323.717 12.8155H324.246C324.698 12.8155 325.067 12.446 325.067 11.994C325.067 11.542 324.698 11.1725 324.246 11.1725H323.719C323.668 10.4635 323.362 8.64231 321.558 7.37629C319.932 6.23594 319.388 4.93241 319.206 4.27596C319.461 4.23657 319.658 4.02463 319.658 3.75829C319.658 3.46383 319.42 3.22563 319.125 3.22563C318.831 3.22563 318.593 3.46383 318.593 3.75829C318.593 4.01525 318.778 4.22156 319.022 4.27033C318.842 4.92491 318.298 6.23219 316.668 7.37442C314.864 8.64044 314.558 10.4635 314.508 11.1706H313.986C313.534 11.1706 313.165 11.5401 313.165 11.9921C313.165 12.4441 313.534 12.8136 313.986 12.8136H314.519C314.688 14.8636 315.28 22.3828 315.717 31.9914H315.316C314.984 31.9914 314.712 32.2634 314.712 32.5954V32.5972C314.712 32.9311 314.984 33.2031 315.318 33.2031H315.77C315.993 38.3815 316.162 44.1002 316.196 49.8601H308.943V30.2715H309.393C311.079 30.2715 312.458 28.893 312.458 27.2068C312.458 25.5207 311.079 24.1421 309.393 24.1421H309.061C306.67 14.768 290.802 2.28971 282.814 -3.64463C277.653 -7.47832 275.753 -11.3908 275.057 -13.9697C275.891 -14.011 276.553 -14.583 276.553 -15.2882C276.553 -15.9935 275.927 -16.5318 275.124 -16.6012L275.027 -20.5868C275.175 -20.5736 275.323 -20.5643 275.473 -20.5643C278.324 -20.5643 280.637 -22.8468 280.695 -25.6827C280.051 -24.261 278.622 -23.2688 276.96 -23.2688C274.695 -23.2688 272.859 -25.105 272.859 -27.3707C272.859 -28.9462 273.749 -30.3135 275.053 -31C272.363 -30.7862 270.244 -28.5392 270.244 -25.7934C270.244 -23.0475 272.322 -20.8381 274.98 -20.5905L274.882 -16.6087C274.04 -16.573 273.371 -15.9991 273.371 -15.2901C273.371 -14.5812 274.033 -14.0147 274.867 -13.9716C274.171 -11.3945 272.271 -7.48207 267.11 -3.64651C259.122 2.28784 243.254 14.7661 240.863 24.1402H240.531C238.847 24.1402 237.466 25.5188 237.466 27.2049C237.466 28.8911 238.847 30.2697 240.531 30.2697H240.981V49.8582H232.931C232.974 44.2709 233.141 38.7417 233.361 33.7245H233.801C233.888 33.7245 233.968 33.7057 234.042 33.6738C234.259 33.5819 234.413 33.3662 234.413 33.1149C234.413 32.7773 234.137 32.5016 233.801 32.5016H233.415C233.856 22.8442 234.452 15.3175 234.614 13.38H235.129C235.593 13.38 235.971 13.0012 235.971 12.5379C235.971 12.416 235.943 12.3016 235.896 12.1965C235.775 11.9002 235.486 11.692 235.146 11.692H234.621C234.57 10.9849 234.267 9.15997 232.46 7.89208C230.834 6.75172 230.29 5.44819 230.108 4.79174C230.364 4.75235 230.562 4.54041 230.562 4.27408C230.562 3.97961 230.324 3.74141 230.03 3.74141C229.735 3.74141 229.497 3.97961 229.497 4.27408C229.497 4.53291 229.685 4.73735 229.926 4.78611C229.746 5.44069 229.203 6.74798 227.573 7.89021C225.766 9.1581 225.463 10.983 225.412 11.6901H224.887C224.439 11.6901 224.075 12.054 224.075 12.5023C224.075 12.5079 224.078 12.5135 224.078 12.5191C224.078 12.5248 224.075 12.5304 224.075 12.536C224.075 12.9993 224.454 13.3782 224.917 13.3782H225.429C225.603 15.4882 226.188 22.9605 226.624 32.4997H226.237C226.068 32.4997 225.915 32.571 225.802 32.6835C225.69 32.7942 225.62 32.9461 225.62 33.1149C225.62 33.3681 225.778 33.5857 225.999 33.6757C226.072 33.7076 226.153 33.7245 226.237 33.7245H226.678C226.95 40.0002 227.145 47.0692 227.111 54.0464L224.243 52.9567V50.6535H225.164V48.5285V48.4647H221.905C222.147 47.9301 223.818 43.8808 221.612 38.8561C219.243 33.46 211.216 31.8489 211.216 31.8489C211.478 30.566 210.46 30.1702 210.46 30.1702L210.165 25.5038V25.4363L209.869 30.1271C209.869 30.1271 208.849 30.5229 209.113 31.8058C209.113 31.8058 201.086 33.4169 198.717 38.8129C196.41 44.0664 198.342 48.249 198.445 48.4647H195.157V50.6535H195.166L196.087 50.6554V52.9717L191.479 54.7235C191.914 48.1965 192.285 43.5488 192.441 41.6694H193.294C193.953 41.6694 194.521 41.2606 194.757 40.6848C194.849 40.4916 194.906 40.2778 194.906 40.0489C194.906 39.5088 194.615 39.0417 194.185 38.781C193.93 38.6066 193.625 38.5035 193.294 38.5035H192.45C192.347 37.1737 191.762 33.8933 188.499 31.6032C185.522 29.5157 184.524 27.1299 184.19 25.9277C184.657 25.8545 185.019 25.4682 185.019 24.9805C185.019 24.4403 184.582 24.0033 184.042 24.0033C183.502 24.0033 183.065 24.4403 183.065 24.9805C183.065 25.4532 183.406 25.8283 183.853 25.9183C183.521 27.1168 182.525 29.51 179.543 31.6032C176.279 33.8933 175.694 37.1737 175.591 38.5035H175.036L175.056 23.48H175.91L175.912 21.5519H175.385L175.401 8.40411H175.928L175.93 6.47601H175.452C175.822 5.66764 175.998 4.72047 175.902 3.72641C175.784 2.52041 175.278 1.3613 174.03 0.573555C170.197 -1.85532 167.293 -2.70684 167.301 -7.7334C167.293 -2.70496 164.39 -1.86095 160.549 0.556675C159.3 1.34254 158.789 2.49978 158.669 3.70578C158.57 4.70171 158.744 5.64888 159.112 6.45726H158.634L158.632 8.38536H159.159L159.142 21.5332H158.615L158.613 23.4613H159.472L159.461 31.5394C158.93 30.716 158.2 29.9714 157.221 29.3506C150.205 24.9074 144.893 23.3488 144.906 14.149C144.895 23.3488 139.58 24.8942 132.55 29.3187C132.075 29.617 131.665 29.9471 131.301 30.2978L131.31 23.2343H131.685V21.8614H131.344C131.607 21.2856 131.734 20.6123 131.665 19.9014C131.58 19.0424 131.218 18.2172 130.331 17.6545C127.6 15.9252 125.532 15.3175 125.537 11.737C125.532 15.3194 123.463 15.9196 120.728 17.6414C119.839 18.2003 119.475 19.0255 119.389 19.8846C119.318 20.5935 119.443 21.2687 119.704 21.8445H119.363V23.2175H119.738L119.725 32.5841H119.35V33.957H119.963L119.95 44.2915H119.616C119.545 43.3537 119.136 40.9999 116.799 39.3606C114.678 37.8733 113.967 36.174 113.73 35.3168C114.062 35.2643 114.321 34.9886 114.321 34.6416C114.321 34.2571 114.01 33.9458 113.625 33.9458C113.241 33.9458 112.93 34.2571 112.93 34.6416C112.93 34.9774 113.173 35.2456 113.49 35.3093C113.254 36.1627 112.545 37.8676 110.42 39.3587C108.083 40.998 107.674 43.3518 107.603 44.2896H106.98C106.811 44.2896 106.652 44.3309 106.508 44.3984C106.125 44.5578 105.855 44.9367 105.855 45.3775V45.385C105.855 45.3962 105.851 45.4075 105.851 45.4187C105.851 46.0395 106.359 46.546 106.978 46.546H107.622C107.74 47.9939 108 51.2668 108.301 55.7945H108.28C108.117 53.8195 107.134 48.7123 101.284 45.1674C96.0212 41.977 94.2562 38.3347 93.6673 36.4985C94.4926 36.3859 95.134 35.797 95.134 35.0524C95.134 34.2703 94.4344 33.6344 93.5454 33.5726L93.3672 27.5838L93.1909 33.5801C92.3413 33.6738 91.6829 34.2928 91.6829 35.0524C91.6829 35.812 92.2869 36.3465 93.0746 36.4853C92.4894 38.3159 90.7283 41.9695 85.4541 45.1674C79.8705 48.551 78.7227 53.3506 78.4882 55.5C78.4638 50.4847 78.6045 45.4 78.7996 40.8967H79.1184C79.3566 40.8967 79.5498 40.7035 79.5498 40.4653V40.4634C79.5498 40.2271 79.3566 40.0339 79.1203 40.0339H78.8389C79.1559 33.0999 79.5854 27.7039 79.6961 26.3722H80.0731C80.3957 26.3722 80.6583 26.1096 80.6583 25.787C80.6583 25.4644 80.3957 25.2018 80.0731 25.2018H79.698C79.6623 24.6973 79.4448 23.3994 78.1581 22.4972C76.999 21.6851 76.6126 20.7567 76.4813 20.2897C76.6633 20.2615 76.8039 20.1115 76.8039 19.9221C76.8039 19.712 76.6333 19.5413 76.4232 19.5413C76.2131 19.5413 76.0443 19.712 76.0443 19.9221C76.0443 20.1059 76.1775 20.2522 76.3501 20.2878C76.2206 20.7548 75.8343 21.6851 74.6733 22.4991C73.3885 23.4013 73.1709 24.6992 73.1334 25.2037H72.7621C72.4395 25.2037 72.1769 25.4663 72.1769 25.7889C72.1769 26.1115 72.4395 26.3741 72.7621 26.3741H73.1409C73.261 27.8351 73.683 33.1899 73.9943 40.0358H73.7092C73.4729 40.0358 73.2797 40.229 73.2797 40.4653V40.4672C73.2797 40.7054 73.4729 40.8986 73.7111 40.8986H74.0337C74.1931 44.5878 74.3132 48.6616 74.3357 52.7654H69.1684V38.8111H69.4892C70.6895 38.8111 71.6723 37.8282 71.6723 36.6279C71.6723 35.4275 70.6895 34.4447 69.4892 34.4447H69.2528C67.5498 27.7676 56.2457 18.8774 50.5552 14.6498C46.879 11.919 45.5249 9.13184 45.0297 7.29564C45.6243 7.26563 46.095 6.85863 46.095 6.35785C46.095 5.85707 45.6486 5.47258 45.0766 5.42381L45.0072 2.58418C45.1122 2.59356 45.2191 2.60106 45.326 2.60106C47.3573 2.60106 49.0041 0.974928 49.0453 -1.04507C48.5877 -0.0322599 47.5692 0.674837 46.3839 0.674837C44.7709 0.674837 43.4617 -0.632444 43.4617 -2.24732C43.4617 -3.37079 44.0957 -4.34422 45.0241 -4.83187C43.1072 -4.67995 41.5993 -3.0782 41.5993 -1.12385C41.5993 0.830509 43.081 2.406 44.9716 2.58231L44.9022 5.41819C44.302 5.44257 43.8256 5.85144 43.8256 6.35785C43.8256 6.86426 44.2982 7.26751 44.8909 7.29564C44.3958 9.13184 43.0416 11.919 39.3654 14.6498C33.6749 18.8774 22.3708 27.7657 20.6678 34.4447H20.4314C19.2311 34.4447 18.2483 35.4275 18.2483 36.6279C18.2483 37.8282 19.2311 38.8111 20.4314 38.8111H20.7522V52.7654H15.0185C15.0485 48.7854 15.1686 44.8467 15.3242 41.2718H15.6393C15.6993 41.2718 15.7575 41.2587 15.81 41.2362C15.9657 41.1705 16.0745 41.0167 16.0745 40.8386C16.0745 40.5985 15.8775 40.4016 15.6393 40.4016H15.3636C15.6787 33.5219 16.1026 28.1596 16.217 26.7792H16.5846C16.9147 26.7792 17.1848 26.5091 17.1848 26.179C17.1848 26.0927 17.1642 26.0102 17.1304 25.9352C17.0441 25.7251 16.8378 25.5751 16.5959 25.5751H16.2226C16.187 25.0724 15.9713 23.7708 14.6828 22.8686C13.5237 22.0565 13.1373 21.1281 13.006 20.661C13.1879 20.6329 13.3286 20.4829 13.3286 20.2934C13.3286 20.0834 13.1579 19.9127 12.9479 19.9127C12.7378 19.9127 12.5671 20.0834 12.5671 20.2934C12.5671 20.4772 12.7003 20.6235 12.8728 20.6592C12.7434 21.1262 12.3571 22.0565 11.1961 22.8705C9.90942 23.7726 9.69185 25.0743 9.65622 25.5769H9.28297C8.96225 25.5769 8.70342 25.8358 8.70342 26.1565C8.70342 26.1602 8.7053 26.164 8.7053 26.1678C8.7053 26.1715 8.70342 26.1753 8.70342 26.179C8.70342 26.5091 8.9735 26.7792 9.30361 26.7792H9.66747C9.79126 28.2834 10.2095 33.6044 10.5171 40.4016H10.2414C10.1214 40.4016 10.0107 40.4522 9.93193 40.5328C9.85128 40.6116 9.80251 40.7204 9.80251 40.8404C9.80251 41.0205 9.91505 41.1762 10.0726 41.2399C10.1251 41.2624 10.1814 41.2756 10.2414 41.2756H10.5565C10.7497 45.747 10.8885 50.7829 10.866 55.7532L8.82346 54.9767V53.3356H9.47991V51.822V51.777H7.15794C7.33049 51.3962 8.51961 48.5116 6.94975 44.933C5.34613 41.2812 0.109502 40.0639 -0.410034 39.9514V135.539L-0.408159 185.5ZM321.457 12.8699H322.29V16.7955H321.457V12.8699ZM319.617 12.8699H320.45V16.7955H319.617V12.8699ZM317.779 12.8699H318.612V16.7955H317.779V12.8699ZM317.426 21.1093C317.426 20.1903 318.171 19.4438 319.092 19.4438C320.013 19.4438 320.757 20.1884 320.757 21.1093V24.3616H317.428V21.1093H317.426ZM317.426 28.2928C317.426 27.3738 318.171 26.6273 319.092 26.6273C320.013 26.6273 320.757 27.3719 320.757 28.2928V31.5432H317.428V28.2928H317.426ZM315.939 16.7955V12.8699H316.772V16.7955H315.939ZM296.393 39.1768C296.393 36.9205 298.222 35.0899 300.48 35.0899C302.738 35.0899 304.565 36.9186 304.565 39.1768V49.862H296.393V39.1768ZM283.414 39.1768C283.414 36.9205 285.243 35.0899 287.499 35.0899C289.756 35.0899 291.586 36.9186 291.586 39.1768V49.862H283.414V39.1768ZM270.435 39.1768C270.435 36.9205 272.264 35.0899 274.522 35.0899C276.78 35.0899 278.609 36.9186 278.609 39.1768V49.862H270.437V39.1768H270.435ZM257.456 39.1768C257.456 36.9205 259.287 35.0899 261.543 35.0899C263.8 35.0899 265.63 36.9186 265.63 39.1768V49.862H257.458V39.1768H257.456ZM244.477 39.1768C244.477 36.9205 246.306 35.0899 248.564 35.0899C250.822 35.0899 252.651 36.9186 252.651 39.1768V49.862H244.479V39.1768H244.477ZM232.359 13.3913H233.192V17.3169H232.359V13.3913ZM230.521 13.3913H231.354V17.3169H230.521V13.3913ZM228.681 13.3913H229.514V17.3169H228.681V13.3913ZM228.405 21.0755C228.405 20.1753 229.137 19.4438 230.037 19.4438H230.105C231.005 19.4438 231.736 20.1734 231.736 21.0755V24.3597H228.407V21.0755H228.405ZM228.405 28.259C228.405 27.3587 229.137 26.6273 230.037 26.6273H230.105C231.005 26.6273 231.736 27.3569 231.736 28.259V31.5432H228.407V28.259H228.405ZM226.843 17.3169V13.3913H227.676V17.3169H226.843ZM188.305 41.6732H189.83V48.8604H188.305V41.6732ZM184.937 41.6732H186.462V48.8604H184.937V41.6732ZM181.57 41.6732H183.097V48.8604H181.57V41.6732ZM178.202 41.6732H179.728V48.8604H178.202V41.6732ZM171.596 13.6014C171.596 13.2637 171.733 12.9899 171.903 12.9899V12.3466H172.037C172.024 12.2209 172.02 12.0878 172.029 11.9527C172.048 11.6357 172.125 11.3319 172.312 11.1256C172.86 10.5235 173.28 10.2928 173.325 9.15059H173.333C173.374 10.2928 173.794 10.5254 174.34 11.1293C174.527 11.3356 174.604 11.6414 174.621 11.9583C174.629 12.0934 174.625 12.2266 174.612 12.3522H174.745V12.9974C174.914 12.9974 175.051 13.2712 175.051 13.6089L175.047 16.4053C175.047 16.743 174.91 17.0168 174.739 17.0168V17.6601H174.606C174.619 17.7858 174.621 17.9189 174.614 18.054C174.595 18.371 174.518 18.6748 174.33 18.8811C173.79 19.4757 173.374 19.7082 173.32 20.813H173.308C173.258 19.7082 172.841 19.4738 172.303 18.8792C172.115 18.6729 172.039 18.3672 172.022 18.0502C172.014 17.9152 172.018 17.782 172.031 17.6564H171.898V17.0112C171.729 17.0112 171.592 16.7373 171.592 16.3997L171.596 13.6032V13.6014ZM163.814 13.5901C163.814 13.2525 164.088 12.9787 164.427 12.9787V12.3353H164.694C164.669 12.2097 164.662 12.0765 164.677 11.9415C164.712 11.6245 164.866 11.3206 165.243 11.1143C166.337 10.5141 167.179 10.2816 167.267 9.13934H167.284C167.37 10.2816 168.21 10.516 169.302 11.1181C169.677 11.3263 169.829 11.6301 169.865 11.9471C169.88 12.0821 169.872 12.2153 169.848 12.341H170.114V12.9862C170.452 12.9862 170.726 13.26 170.726 13.5995L170.722 16.396C170.722 16.7336 170.448 17.0074 170.109 17.0074V17.6507H169.842C169.867 17.7764 169.874 17.9096 169.859 18.0446C169.823 18.3616 169.67 18.6654 169.293 18.8717C168.212 19.4644 167.38 19.697 167.273 20.8017H167.25C167.147 19.697 166.314 19.4625 165.236 18.8661C164.861 18.6579 164.709 18.3541 164.673 18.0371C164.658 17.9021 164.666 17.7689 164.69 17.6432H164.424V16.998C164.086 16.998 163.812 16.7242 163.812 16.3847L163.816 13.5882L163.814 13.5901ZM159.485 13.5845C159.485 13.2469 159.622 12.973 159.793 12.973V12.3297H159.926C159.913 12.204 159.909 12.0709 159.919 11.9358C159.937 11.6189 160.014 11.315 160.202 11.1087C160.749 10.5066 161.17 10.2759 161.215 9.13371H161.222C161.263 10.2759 161.683 10.5085 162.229 11.1125C162.417 11.3188 162.494 11.6245 162.511 11.9415C162.518 12.0765 162.514 12.2097 162.501 12.3353H162.634V12.9805C162.803 12.9805 162.94 13.2544 162.94 13.592L162.936 16.3885C162.936 16.7261 162.799 16.9999 162.629 16.9999V17.6432H162.496C162.509 17.7689 162.512 17.9021 162.503 18.0371C162.484 18.3541 162.407 18.6579 162.22 18.8642C161.68 19.4588 161.263 19.6914 161.209 20.7961H161.198C161.147 19.6914 160.731 19.4569 160.192 18.8624C160.005 18.656 159.928 18.3503 159.911 18.0334C159.903 17.8983 159.907 17.7651 159.92 17.6395H159.787V16.9943C159.618 16.9943 159.481 16.7204 159.481 16.3828L159.485 13.5863V13.5845ZM131.055 39.7507C131.055 39.7507 131.051 39.7564 131.05 39.7601L131.055 35.1837V39.7526V39.7507ZM128.596 26.9349C128.596 26.6948 128.694 26.4997 128.814 26.4997V26.0402H128.909C128.9 25.9502 128.898 25.8564 128.904 25.7589C128.917 25.5338 128.971 25.3162 129.106 25.1699C129.497 24.7423 129.797 24.5754 129.829 23.7633H129.834C129.864 24.5773 130.162 24.7423 130.553 25.1718C130.686 25.32 130.74 25.5357 130.753 25.7626C130.759 25.8602 130.755 25.9539 130.748 26.044H130.841V26.5035C130.961 26.5035 131.059 26.6985 131.059 26.9386V28.9305C131.055 29.1706 130.958 29.3656 130.838 29.3656V29.8251H130.742C130.751 29.9152 130.753 30.0089 130.748 30.1065C130.734 30.3315 130.68 30.5491 130.545 30.6954C130.161 31.1174 129.862 31.2843 129.825 32.0702H129.817C129.782 31.2843 129.483 31.1174 129.101 30.6917C128.968 30.5435 128.913 30.3278 128.9 30.1008C128.894 30.0033 128.898 29.9095 128.906 29.8195H128.812V29.36C128.692 29.36 128.594 29.1649 128.594 28.9249V26.933L128.596 26.9349ZM123.052 26.9274C123.052 26.6873 123.247 26.4922 123.489 26.4922V26.0327H123.678C123.66 25.9427 123.656 25.8489 123.667 25.7514C123.694 25.5263 123.802 25.3087 124.07 25.1624C124.849 24.7348 125.449 24.5698 125.511 23.7558H125.522C125.584 24.5698 126.182 24.7367 126.961 25.1662C127.227 25.3144 127.336 25.5301 127.362 25.757C127.373 25.8545 127.368 25.9483 127.349 26.0383H127.538V26.4979C127.779 26.4979 127.974 26.6929 127.974 26.9349V28.9267C127.97 29.1668 127.775 29.3619 127.535 29.3619V29.8214H127.345C127.364 29.9114 127.368 30.0052 127.357 30.1027C127.33 30.3278 127.221 30.5454 126.953 30.6917C126.184 31.1137 125.59 31.2806 125.515 32.0665H125.498C125.425 31.2806 124.83 31.1118 124.063 30.6879C123.797 30.5397 123.686 30.324 123.662 30.0971C123.65 29.9996 123.656 29.9058 123.675 29.8158H123.485V29.3562C123.245 29.3562 123.05 29.1612 123.05 28.9192V26.9274H123.052ZM119.969 26.9236C119.969 26.6835 120.066 26.4885 120.186 26.4885V26.029H120.282C120.272 25.9389 120.271 25.8452 120.276 25.7476C120.289 25.5226 120.344 25.305 120.479 25.1587C120.869 24.7292 121.169 24.5641 121.201 23.752H121.206C121.236 24.566 121.537 24.7311 121.925 25.1606C122.058 25.3087 122.112 25.5244 122.126 25.7514C122.131 25.8489 122.127 25.9427 122.12 26.0327H122.214V26.4922C122.334 26.4922 122.431 26.6873 122.431 26.9274V28.9192C122.427 29.1593 122.33 29.3544 122.21 29.3544V29.8139H122.114C122.124 29.9039 122.126 29.9977 122.12 30.0952C122.107 30.3203 122.052 30.5379 121.917 30.6842C121.533 31.1062 121.236 31.2731 121.197 32.0608H121.19C121.154 31.275 120.856 31.108 120.473 30.6823C120.34 30.5341 120.286 30.3184 120.272 30.0915C120.267 29.9939 120.271 29.9002 120.278 29.8101H120.184V29.3506C120.064 29.3506 119.967 29.1556 119.967 28.9155V26.9236H119.969ZM116.654 46.5497H117.742V51.655H116.654V46.5497ZM114.256 46.5497H115.343V51.655H114.256V46.5497ZM111.857 46.5497H112.945V51.655H111.857V46.5497ZM109.458 46.5497H110.544V51.655H109.458V46.5497ZM78.0793 26.4135H78.6739V29.2099H78.0793V26.4135ZM76.7683 26.4135H77.361V29.2099H76.7683V26.4135ZM75.4592 26.4135H76.0518V29.2099H75.4592V26.4135ZM75.2078 32.284C75.2078 31.6295 75.7386 31.0987 76.3932 31.0987C77.0478 31.0987 77.5786 31.6295 77.5786 32.284V34.6004H75.2059V32.284H75.2078ZM75.2078 37.4006C75.2078 36.746 75.7386 36.2152 76.3932 36.2152C77.0478 36.2152 77.5786 36.746 77.5786 37.4006V39.717H75.2059V37.4006H75.2078ZM74.1481 29.2118V26.4153H74.7408V29.2118H74.1481ZM60.2257 45.1543C60.2257 43.5469 61.5292 42.2434 63.1366 42.2434C64.7439 42.2434 66.0475 43.5469 66.0475 45.1543V52.7673H60.2257V45.1543ZM50.979 45.1543C50.979 43.5469 52.2826 42.2434 53.89 42.2434C55.4973 42.2434 56.8009 43.5469 56.8009 45.1543V52.7673H50.979V45.1543ZM41.7324 45.1543C41.7324 43.5469 43.036 42.2434 44.6433 42.2434C46.2507 42.2434 47.5542 43.5469 47.5542 45.1543V52.7673H41.7324V45.1543ZM32.4877 45.1543C32.4877 43.5469 33.7912 42.2434 35.3986 42.2434C37.006 42.2434 38.3095 43.5469 38.3095 45.1543V52.7673H32.4877V45.1543ZM23.2411 45.1543C23.2411 43.5469 24.5446 42.2434 26.152 42.2434C27.7593 42.2434 29.0629 43.5469 29.0629 45.1543V52.7673H23.2411V45.1543ZM14.6096 26.7848H15.2023V29.5813H14.6096V26.7848ZM13.2986 26.7848H13.8913V29.5813H13.2986V26.7848ZM11.9894 26.7848H12.5821V29.5813H11.9894V26.7848ZM11.7925 32.2596C11.7925 31.6182 12.312 31.0968 12.9554 31.0968H13.0023C13.6437 31.0968 14.1651 31.6163 14.1651 32.2596V34.6004H11.7925V32.2596ZM11.7925 37.3762C11.7925 36.7348 12.312 36.2134 12.9554 36.2134H13.0023C13.6437 36.2134 14.1651 36.7329 14.1651 37.3762V39.717H11.7925V37.3762ZM10.6784 29.5832V26.7867H11.2711V29.5832H10.6784Z" fill="url(#paint1_radial_229_1189)"/>
</g>
<defs>
<radialGradient id="paint0_radial_229_1189" cx="0" cy="0" r="1" gradientUnits="userSpaceOnUse" gradientTransform="translate(183.396 -21.8419) rotate(90) scale(196.033 372.834)">
<stop offset="0.17" stop-color="#018060"/>
<stop offset="0.26" stop-color="#007055"/>
<stop offset="0.49" stop-color="#004F3F"/>
<stop offset="0.68" stop-color="#003B31"/>
<stop offset="0.81" stop-color="#00342D"/>
</radialGradient>
<radialGradient id="paint1_radial_229_1189" cx="0" cy="0" r="1" gradientUnits="userSpaceOnUse" gradientTransform="translate(179.796 -30.4111) scale(209.317 209.317)">
<stop stop-color="#038D75"/>
<stop offset="0.64" stop-color="#004736"/>
<stop offset="1" stop-color="#012B20"/>
</radialGradient>
<clipPath id="clip0_229_1189">
<rect width="360" height="189" fill="white"/>
</clipPath>
</defs>
</svg>
