<svg width="140" height="141" viewBox="0 0 140 141" fill="none" xmlns="http://www.w3.org/2000/svg">
<mask id="mask0_1090_60387" style="mask-type:luminance" maskUnits="userSpaceOnUse" x="0" y="0" width="140" height="141">
<path d="M140 0.917969H0V140.918H140V0.917969Z" fill="white"/>
</mask>
<g mask="url(#mask0_1090_60387)">
<path fill-rule="evenodd" clip-rule="evenodd" d="M79.6196 0.915844C51.4459 1.10226 -0.134245 41.7576 0.000262552 84.7436C0.134878 127.73 45.2451 140.915 75.2522 140.916C105.259 140.916 140.169 116.499 140 83.078C139.832 49.6568 114.364 0.686137 79.6196 0.915844Z" fill="#E6E6E6"/>
<path fill-rule="evenodd" clip-rule="evenodd" d="M79.6196 0.915844C51.4459 1.10226 -0.134245 41.7576 0.000262552 84.7436C0.134878 127.73 45.2451 140.915 75.2522 140.916C105.259 140.916 140.169 116.499 140 83.078C139.832 49.6568 114.364 0.686137 79.6196 0.915844Z" fill="#E4E5E3"/>
<path fill-rule="evenodd" clip-rule="evenodd" d="M37.5474 16.3686C37.5389 17.5001 40.9376 17.3009 46.1992 16.9025C51.4606 16.5042 68.9319 16.3572 74.3576 16.4106C79.7832 16.4641 83.5269 16.6212 83.4474 15.5069C83.3679 14.3928 78.751 14.6918 74.0089 14.5824C69.2666 14.4722 67.5796 14.7662 66.2127 14.2808C64.8452 13.7952 62.5457 10.3175 57.6406 12.9329C57.6406 12.9329 59.9328 10.1304 56.9912 9.35394C54.0499 8.57694 52.0377 10.2996 52.0377 10.2996C52.0377 10.2996 53.5093 4.51317 47.0169 5.92782C41.5727 7.11459 45.6569 11.7251 45.6569 11.7251C45.6569 11.7251 42.2368 9.30753 40.8642 11.8765C39.5132 14.4061 41.7716 14.9591 41.7716 14.9591C41.7716 14.9591 37.5612 14.5741 37.5474 16.3686ZM120.113 25.5215C113.312 25.7556 94.5552 26.3945 90.1566 26.4849C84.757 26.5956 89.4362 24.5376 96.8275 24.2379C104.218 23.9375 104.7 24.4695 105.188 23.6912C105.675 22.9136 105.87 21.1852 107.775 21.9126C109.681 22.6406 108.797 19.6708 110.729 19.9379C112.496 20.1824 114.966 21.1559 115.97 20.2702C117.404 21.9458 118.786 23.7002 120.113 25.5215Z" fill="#D2D2D2"/>
<path fill-rule="evenodd" clip-rule="evenodd" d="M18.2278 38.7159C21.6982 37.9803 27.1343 37.3096 32.2065 38.7063C41.3752 41.2314 52.5081 49.1306 58.9206 48.9123C64.1792 48.7342 71.7157 45.5937 73.3034 40.2616C75.0674 34.3383 67.2147 34.7787 68.5803 44.5876C68.5803 44.5876 66.7482 41.4096 69.2249 37.1632C71.7017 32.9173 79.5996 38.7859 68.6439 46.3631C57.5658 54.0243 48.3411 46.3759 41.5804 43.7953C35.3618 41.4217 27.8254 36.6038 14.1279 44.2256C15.4291 42.3502 16.7982 40.5123 18.2278 38.7159Z" fill="#F4F4F4"/>
<path fill-rule="evenodd" clip-rule="evenodd" d="M69.834 46.5605C69.834 46.5605 73.544 50.8662 82.3404 47.0683C82.3404 47.0683 75.0948 52.0453 69.834 46.5605Z" fill="#F4F4F4"/>
<path fill-rule="evenodd" clip-rule="evenodd" d="M84.1934 46.5599C84.1934 46.5599 84.8398 45.9025 85.4698 44.6425C86.1005 43.3832 88.4824 41.5358 92.3417 41.3556C96.2014 41.1762 99.0337 37.2461 99.0337 37.2461C99.0337 37.2461 97.3483 46.2556 91.9551 47.3273C86.5613 48.3983 85.9185 46.2576 84.1934 46.5599Z" fill="#F4F4F4"/>
<path fill-rule="evenodd" clip-rule="evenodd" d="M2.77258 66.9514C6.5752 66.1699 11.8389 64.8565 17.2916 62.7724C27.7961 58.7569 40.4288 55.4294 55.8145 59.3838C71.1998 63.3375 99.358 64.2506 106.151 63.7466C112.627 63.2669 122.333 70.711 137.707 64.5988C139.178 70.9986 139.971 77.2726 140 83.0782C140.169 116.499 105.258 140.916 75.2522 140.916C45.2451 140.915 0.134876 127.731 0.000260779 84.7438C-0.0184777 78.7343 0.97326 72.7703 2.77258 66.9514Z" fill="#D2D2D2"/>
<path fill-rule="evenodd" clip-rule="evenodd" d="M12.3423 79.4251C10.6117 78.1531 10.0536 65.807 15.436 65.0917C19.6439 64.5324 18.4215 73.7934 18.4215 73.7934C18.4215 73.7934 18.9506 70.4791 20.9466 70.3704C23.1503 70.2507 23.0552 76.6245 21.8369 78.4197L12.3423 79.4251Z" fill="#9B9B9B"/>
<path fill-rule="evenodd" clip-rule="evenodd" d="M0.278663 79.0663C2.65166 79.6963 6.77563 80.0577 13.507 78.6673C26.01 76.0849 43.7487 70.6961 66.59 70.9157C89.431 71.1359 105.841 70.8934 113.964 71.8861C120.896 72.7338 131.833 76.872 139.468 74.6664C139.806 77.5486 139.986 80.3647 140 83.0786C140.169 116.501 105.258 140.917 75.2521 140.917C45.2451 140.917 0.134787 127.731 0.000279076 84.7442C-0.00585939 82.8443 0.0893397 80.949 0.278663 79.0663Z" fill="#DEDEDE"/>
<path fill-rule="evenodd" clip-rule="evenodd" d="M3.2832 103.185C8.9252 100.867 18.1938 97.7441 29.3592 96.5606C48.0081 94.5844 71.6138 97.6461 84.5879 94.4584C97.5616 91.2713 109.717 88.4353 123.159 93.3104C129.675 95.6743 135.026 95.0971 138.81 93.8758C132.466 121.629 101.922 140.918 75.2525 140.917C50.0553 140.917 14.2092 131.62 3.2832 103.185Z" fill="#BEBFBE"/>
<path fill-rule="evenodd" clip-rule="evenodd" d="M95.3183 92.0297C104.455 90.2886 113.472 89.7974 123.159 93.3104C129.675 95.6743 135.026 95.097 138.81 93.8758C138.724 94.2527 138.633 94.6286 138.537 95.0066C132.459 97.5169 121.437 93.8995 116.393 92.5932C110.391 91.0402 105.702 91.5254 105.702 91.5254C105.702 91.5254 101.624 91.7093 95.3183 92.0297ZM37.3026 96.0016C18.0806 98.0941 6.32088 103.262 3.79614 104.461C3.61888 104.039 3.4484 103.613 3.2832 103.185C8.9252 100.867 18.1938 97.7441 29.3592 96.5606C31.9272 96.2881 34.5891 96.1115 37.3026 96.0016Z" fill="#CCCCCC"/>
<path fill-rule="evenodd" clip-rule="evenodd" d="M34.3708 96.1485C38.6214 95.89 43.0444 95.8254 47.476 95.8373L82.1311 101.888L52.8902 115.801L8.61237 113.158C7.20699 111.164 5.94505 109.042 4.84863 106.787L34.3708 96.1485Z" fill="#ACACAC"/>
<path fill-rule="evenodd" clip-rule="evenodd" d="M7.25684 111.125C13.5113 112.36 22.8112 113.675 31.0536 112.768C45.0546 111.227 69.2641 104.929 84.7786 106.06C97.8193 107.011 117.874 110.994 132.412 109.281C120.521 128.509 96.6411 140.916 75.2523 140.916C52.5669 140.916 21.2495 133.379 7.25684 111.125Z" fill="#BEBFBE"/>
<path fill-rule="evenodd" clip-rule="evenodd" d="M8.29499 112.703C7.93831 112.184 7.59251 111.659 7.25684 111.125C13.5113 112.36 22.8112 113.675 31.0536 112.768C45.0546 111.227 69.2641 104.929 84.7786 106.06C97.8193 107.011 117.874 110.994 132.412 109.281C132.133 109.731 131.849 110.177 131.559 110.617C119.339 112.687 95.0731 107.913 83.021 107.558C70.1035 107.178 40.0349 113.045 31.2483 114.808C23.8395 116.294 11.8673 113.589 8.29499 112.703Z" fill="#E4E5E3"/>
<path fill-rule="evenodd" clip-rule="evenodd" d="M33.8878 63.6577L52.89 54.6895L44.9813 65.2513L25.5684 74.544L33.8878 63.6577Z" fill="#9B9B9B"/>
<path fill-rule="evenodd" clip-rule="evenodd" d="M108.156 55.6256L52.89 54.6895L50.4009 91.512L106.218 94.3982L108.156 55.6256Z" fill="#ACACAC"/>
<path fill-rule="evenodd" clip-rule="evenodd" d="M33.8877 63.6577L52.8898 54.6895L50.4007 91.512L36.2467 99.001L33.8877 63.6577Z" fill="#9B9B9B"/>
<path fill-rule="evenodd" clip-rule="evenodd" d="M33.8877 63.6582L84.6205 65.0677L82.1317 101.89L35.4847 99.2636L33.8877 63.6582Z" fill="#BDBDBD"/>
<path fill-rule="evenodd" clip-rule="evenodd" d="M33.8857 63.6582L84.6186 65.0677L77.2024 78.7581L28.7637 76.871L33.8857 63.6582Z" fill="#CCCCCC"/>
<path fill-rule="evenodd" clip-rule="evenodd" d="M108.155 55.625L84.6186 65.0667L82.1299 101.889L106.217 94.3977L108.155 55.625Z" fill="#ACACAC"/>
<path fill-rule="evenodd" clip-rule="evenodd" d="M107.492 68.8861L108.154 55.625L84.6181 65.0667L83.8105 77.0113L86.0614 81.3258L107.492 68.8861Z" fill="#9B9B9B"/>
<path fill-rule="evenodd" clip-rule="evenodd" d="M108.155 55.625L84.6182 65.0667L92.2803 74.8756L115.783 62.4449L108.155 55.625Z" fill="#CCCCCC"/>
<path fill-rule="evenodd" clip-rule="evenodd" d="M66.5755 102.06C66.5755 102.06 65.2251 89.8869 72.7584 88.6114C77.7061 87.7736 75.0264 99.7288 75.0264 99.7288C75.0264 99.7288 75.9766 96.8588 77.7947 96.9363C80.055 97.0322 79.6217 100.154 78.69 102.748L66.5755 102.06Z" fill="#9B9B9B"/>
<path fill-rule="evenodd" clip-rule="evenodd" d="M71.2548 95.9828L75.913 94.0615L75.8614 95.4755L70.9951 98.1991L71.2548 95.9828Z" fill="#ACACAC"/>
<path fill-rule="evenodd" clip-rule="evenodd" d="M67.7642 92.4256L71.1598 95.3533L71.2356 95.013L67.9513 92.1377L67.7642 92.4256Z" fill="#ACACAC"/>
<path fill-rule="evenodd" clip-rule="evenodd" d="M72.1541 90.7012C72.1541 90.7012 69.9619 97.9434 69.834 102.247L70.8426 102.354L72.1541 90.7012Z" fill="#757676"/>
<path fill-rule="evenodd" clip-rule="evenodd" d="M48.7868 126.65C48.7868 126.65 40.8465 130.909 45.1292 131.262C48.9367 131.575 51.9434 129.528 52.9868 128.213C52.9868 128.213 51.0647 130.217 53.3342 130.573C55.6041 130.927 59.3828 126.913 59.3828 126.913L48.7868 126.65Z" fill="#ACACAC"/>
<path fill-rule="evenodd" clip-rule="evenodd" d="M48.7856 126.649C48.7856 126.649 46.6669 118.647 50.8996 117.906C55.1324 117.165 55.3303 120.718 55.1223 123.971C55.1223 123.971 55.8013 121.222 58.0712 121.577C60.341 121.932 59.3817 126.912 59.3817 126.912L48.7856 126.649Z" fill="#9B9B9B"/>
<path fill-rule="evenodd" clip-rule="evenodd" d="M115.604 125.495L115.573 125.555C115.564 125.57 115.556 125.585 115.549 125.6L115.542 125.613H115.548C115.567 125.57 115.587 125.53 115.604 125.495ZM115.542 125.613L97.9078 124.334C97.9078 124.334 78.8412 134.096 89.1942 135.144C100.056 136.244 102.45 129.995 106.501 128.106C106.501 128.106 103.848 131.659 106.999 132.524C109.373 131.252 111.684 129.849 113.908 128.323C114.688 127.199 115.262 126.155 115.542 125.613Z" fill="#ACACAC"/>
<path fill-rule="evenodd" clip-rule="evenodd" d="M97.9072 124.333C97.9072 124.333 96.9757 99.2144 107.382 99.2618C117.199 99.307 112.116 116.831 110.537 122.36C110.537 122.36 112.349 115.893 116.61 116.775C119.039 117.278 116.676 123.163 115.547 125.613L97.9072 124.333Z" fill="#9B9B9B"/>
<path fill-rule="evenodd" clip-rule="evenodd" d="M105.675 110.382L105.156 114.14L112.693 113.457C113.047 111.917 113.157 110.306 113.236 108.681L105.675 110.382Z" fill="#ACACAC"/>
<path fill-rule="evenodd" clip-rule="evenodd" d="M98.3913 114.138L104.184 116.943L104.128 117.726L98.248 115.418L98.3913 114.138Z" fill="#ACACAC"/>
<path fill-rule="evenodd" clip-rule="evenodd" d="M104.86 115.569L112.476 115.028L112.305 116.138L104.775 116.685L104.86 115.569Z" fill="#ACACAC"/>
<path fill-rule="evenodd" clip-rule="evenodd" d="M107.142 101.281C107.142 101.281 103.121 118.007 103.173 124.716L104.271 124.711C104.271 124.711 106.321 106.754 107.142 101.281Z" fill="#757676"/>
<path fill-rule="evenodd" clip-rule="evenodd" d="M115.341 118.07L111.912 125.361L112.878 125.424L115.341 118.07Z" fill="#757676"/>
</g>
</svg>
