<svg width="48" height="49" viewBox="0 0 48 49" fill="none" xmlns="http://www.w3.org/2000/svg">
<rect y="0.918945" width="48" height="48" rx="16" fill="#F0F9ED"/>
<path fill-rule="evenodd" clip-rule="evenodd" d="M12.333 15.5859C12.333 12.8245 14.5716 10.5859 17.333 10.5859H30.6663C33.4278 10.5859 35.6663 12.8245 35.6663 15.5859V34.2526C35.6663 37.014 33.4278 39.2526 30.6663 39.2526H17.333C14.5716 39.2526 12.333 37.014 12.333 34.2526V15.5859ZM17.333 12.5859C15.6762 12.5859 14.333 13.9291 14.333 15.5859V34.2526C14.333 35.9095 15.6762 37.2526 17.333 37.2526H30.6663C32.3232 37.2526 33.6663 35.9095 33.6663 34.2526V15.5859C33.6663 13.9291 32.3232 12.5859 30.6663 12.5859H17.333Z" fill="#FEBE4C"/>
<path d="M16 14.6964C16 14.4509 16.199 14.252 16.4444 14.252H31.5556C31.801 14.252 32 14.4509 32 14.6964V19.1408C32 19.3863 31.801 19.5853 31.5556 19.5853H16.4444C16.199 19.5853 16 19.3863 16 19.1408V14.6964Z" fill="#44A846"/>
<rect x="16" y="20.9189" width="4" height="4" rx="0.444444" fill="#6A6A6A"/>
<rect x="16" y="26.252" width="4" height="4" rx="0.444444" fill="#6A6A6A"/>
<rect x="16" y="31.5859" width="4" height="4" rx="0.444444" fill="#6A6A6A"/>
<rect x="22" y="20.9189" width="4" height="4" rx="0.444444" fill="#6A6A6A"/>
<rect x="22" y="26.252" width="4" height="4" rx="0.444444" fill="#6A6A6A"/>
<rect x="22" y="31.5859" width="4" height="4" rx="0.444444" fill="#6A6A6A"/>
<rect x="28" y="20.9189" width="4" height="4" rx="0.444444" fill="#6A6A6A"/>
<rect x="28" y="26.252" width="4" height="4" rx="0.444444" fill="#6A6A6A"/>
<rect x="28" y="31.5859" width="4" height="4" rx="0.444444" fill="#6A6A6A"/>
</svg>
