<svg width="48" height="49" viewBox="0 0 48 49" fill="none" xmlns="http://www.w3.org/2000/svg">
<rect y="0.918945" width="48" height="48" rx="16" fill="#F0F9ED"/>
<path fill-rule="evenodd" clip-rule="evenodd" d="M13.3338 22.5762C13.9965 22.5762 14.5338 23.1134 14.5338 23.7762V33.7762C14.5338 35.3226 15.7874 36.5762 17.3338 36.5762H30.6671C32.2135 36.5762 33.4671 35.3226 33.4671 33.7762V23.7762C33.4671 23.1134 34.0044 22.5762 34.6671 22.5762C35.3299 22.5762 35.8671 23.1134 35.8671 23.7762V33.7762C35.8671 36.6481 33.539 38.9762 30.6671 38.9762H17.3338C14.4619 38.9762 12.1338 36.6481 12.1338 33.7762V23.7762C12.1338 23.1134 12.671 22.5762 13.3338 22.5762Z" fill="#6A6A6A"/>
<path fill-rule="evenodd" clip-rule="evenodd" d="M26.2937 31.0771L24.9974 31.7961C24.9522 31.8232 24.8942 31.8029 24.8684 31.7554C24.8555 31.7351 24.8555 31.7147 24.8555 31.6944L25.1006 30.1817C25.107 30.1477 25.0941 30.1138 25.0748 30.0935L24.03 29.0217C23.9913 28.981 23.9913 28.9199 24.03 28.8792C24.0429 28.8657 24.0622 28.8521 24.088 28.8521L25.5327 28.6282C25.5649 28.6215 25.5907 28.6011 25.6036 28.574L26.2485 27.1969C26.2743 27.1495 26.3323 27.1291 26.3775 27.1495C26.3968 27.1562 26.4097 27.1766 26.4226 27.1969L27.0675 28.574C27.0804 28.6011 27.1062 28.6215 27.1385 28.6282L28.5831 28.8521C28.6347 28.8589 28.6734 28.9132 28.6669 28.9674C28.6669 28.9878 28.654 29.0081 28.6411 29.0285L27.6028 30.0799C27.577 30.1003 27.5706 30.1342 27.577 30.1681L27.8221 31.6808C27.8285 31.7351 27.7963 31.7893 27.7447 31.7961C27.7254 31.8029 27.6996 31.7961 27.6867 31.7825L26.3904 31.0635C26.3581 31.0635 26.3259 31.0635 26.2937 31.0771Z" fill="#44A846"/>
<path d="M25.5562 25.9252C23.8978 26.6174 22.7279 28.2941 22.7279 30.2526C22.7279 32.2111 23.8978 33.8878 25.5562 34.5801C25.0322 34.7988 24.4593 34.9193 23.8592 34.9193C21.36 34.9193 19.334 32.8299 19.334 30.2526C19.334 27.6753 21.36 25.5859 23.8592 25.5859C24.4593 25.5859 25.0322 25.7064 25.5562 25.9252Z" fill="#44A846"/>
<path d="M12.0003 24.2529C10.667 24.2529 10.667 21.656 10.667 20.9196C10.667 20.1832 11.2639 19.5863 12.0003 19.5863L36.1035 19.5863C36.8399 19.5863 37.4369 20.1832 37.4369 20.9196C37.4369 21.656 37.4369 24.2529 36.1035 24.2529L12.0003 24.2529Z" fill="#6A6A6A"/>
<path d="M24.4914 11.3883L20 17.4882H29.6566L30.5421 16.0913C30.5564 16.0688 30.5729 16.0476 30.5904 16.0275C31.1609 15.3723 31.0299 14.3065 30.3118 13.8391L26.1354 11.121C25.5991 10.772 24.9099 10.884 24.4914 11.3883Z" fill="#FEBE4C"/>
</svg>
