<svg width="32" height="33" viewBox="0 0 32 33" fill="none" xmlns="http://www.w3.org/2000/svg">
<path fill-rule="evenodd" clip-rule="evenodd" d="M3.80528 13.319C4.56251 13.319 5.17636 13.9329 5.17636 14.6901V26.1157C5.17636 27.8826 6.60869 29.3149 8.37555 29.3149H23.6098C25.3766 29.3149 26.809 27.8826 26.809 26.1157V14.6901C26.809 13.9329 27.4228 13.319 28.18 13.319C28.9373 13.319 29.5511 13.9329 29.5511 14.6901V26.1157C29.5511 29.3971 26.8911 32.0571 23.6098 32.0571H8.37555C5.09424 32.0571 2.4342 29.3971 2.4342 26.1157V14.6901C2.4342 13.9329 3.04806 13.319 3.80528 13.319Z" fill="#6A6A6A"/>
<path fill-rule="evenodd" clip-rule="evenodd" d="M18.6122 23.0315L17.1311 23.8531C17.0795 23.8841 17.0132 23.8608 16.9838 23.8066C16.969 23.7833 16.969 23.76 16.969 23.7368L17.249 22.0084C17.2564 21.9697 17.2417 21.9309 17.2195 21.9077L16.0258 20.6831C15.9816 20.6366 15.9816 20.5668 16.0258 20.5203C16.0406 20.5048 16.0627 20.4893 16.0922 20.4893L17.7427 20.2336C17.7796 20.2258 17.809 20.2026 17.8238 20.1716L18.5606 18.5982C18.5901 18.5439 18.6564 18.5207 18.708 18.5439C18.7301 18.5517 18.7448 18.5749 18.7596 18.5982L19.4964 20.1716C19.5112 20.2026 19.5407 20.2258 19.5775 20.2336L21.2281 20.4893C21.287 20.4971 21.3312 20.5591 21.3239 20.6211C21.3239 20.6443 21.3091 20.6676 21.2944 20.6908L20.108 21.8922C20.0786 21.9154 20.0712 21.9542 20.0786 21.9929L20.3586 23.7213C20.3659 23.7833 20.3291 23.8453 20.2701 23.8531C20.248 23.8608 20.2186 23.8531 20.2038 23.8376L18.7227 23.016C18.6859 23.016 18.6491 23.016 18.6122 23.0315Z" fill="#44A846"/>
<path d="M17.7699 17.1452C15.8751 17.9362 14.5384 19.8519 14.5384 22.0896C14.5384 24.3273 15.8751 26.243 17.7699 27.034C17.1712 27.284 16.5167 27.4216 15.831 27.4216C12.9755 27.4216 10.6606 25.0344 10.6606 22.0896C10.6606 19.1448 12.9755 16.7576 15.831 16.7576C16.5167 16.7576 17.1712 16.8953 17.7699 17.1452Z" fill="#44A846"/>
<path d="M2.28185 15.2342C0.758423 15.2342 0.758423 12.267 0.758423 11.4257C0.758423 10.5843 1.44048 9.90224 2.28184 9.90224L29.8214 9.90224C30.6627 9.90224 31.3448 10.5843 31.3448 11.4257C31.3448 12.267 31.3448 15.2342 29.8214 15.2342L2.28185 15.2342Z" fill="#6A6A6A"/>
<path d="M16.334 0.57163L11 8H22.4681L23.5243 6.29148C23.5382 6.26896 23.5543 6.24774 23.5716 6.22764C24.2555 5.43029 24.1014 4.1269 23.2462 3.55619L18.2864 0.246116C17.6494 -0.179004 16.8309 -0.042543 16.334 0.57163Z" fill="#FEBE4C"/>
</svg>
