<svg width="48" height="49" viewBox="0 0 48 49" fill="none" xmlns="http://www.w3.org/2000/svg">
<rect y="0.918945" width="48" height="48" rx="16" fill="#F0F9ED"/>
<path d="M13.6636 28.7813L14.4319 29.8162L14.4381 29.8115L13.6636 28.7813ZM11.2201 30.5953L10.4519 29.5604L10.196 29.7504L10.0581 30.0377L11.2201 30.5953ZM15.048 28.0482L14.6266 26.8301L14.6181 26.8331L15.048 28.0482ZM21.058 28.3258L20.5104 29.4926L20.5114 29.4931L21.058 28.3258ZM27.0623 30.2976L27.3196 29.0347L27.3196 29.0347L27.0623 30.2976ZM27.9864 30.5072L28.3467 29.2697V29.2697L27.9864 30.5072ZM29.9165 32.1459L31.2025 32.0603V32.0603L29.9165 32.1459ZM27.8574 33.3168L27.8621 32.0279L27.8603 32.0279L27.8574 33.3168ZM29.7688 32.6211L28.8591 31.7081L28.8485 31.7186L28.8382 31.7293L29.7688 32.6211ZM24.4826 32.9628L24.6907 31.6908H24.6907L24.4826 32.9628ZM23.9119 32.8732L24.0884 31.5965L24.085 31.596L23.9119 32.8732ZM21.3779 31.034C20.6852 30.8702 19.9909 31.299 19.8271 31.9917C19.6633 32.6845 20.0921 33.3788 20.7848 33.5426L21.3779 31.034ZM32.3481 31.1613L31.6779 30.0604L31.6779 30.0604L32.3481 31.1613ZM35.8386 29.4517L36.0628 28.1825V28.1825L35.8386 29.4517ZM37.1514 31.5372L38.1508 32.3511L38.1582 32.3419L37.1514 31.5372ZM32.6538 34.8997L31.9683 33.8082L31.9667 33.8092L32.6538 34.8997ZM27.1688 37.7259L27.5987 38.941L27.1688 37.7259ZM19.7705 37.521L19.4071 38.7576L19.4088 38.7581L19.7705 37.521ZM18.9439 37.2762L18.5765 38.5116L18.5765 38.5116L18.9439 37.2762ZM15.8041 36.6182L15.9633 37.8972H15.9633L15.8041 36.6182ZM12.9249 36.6348L12.1577 37.6705H12.1577L12.9249 36.6348ZM11.4722 35.0577L12.5686 34.3801L12.5673 34.3779L11.4722 35.0577ZM11.1726 30.6944L12.3337 31.2538L12.3347 31.2519L11.1726 30.6944ZM12.8954 27.7464L10.4519 29.5604L11.9884 31.6301L14.4319 29.8162L12.8954 27.7464ZM14.6181 26.8331C14.0034 27.0506 13.4192 27.3525 12.8891 27.751L14.4381 29.8115C14.7396 29.5849 15.0868 29.4016 15.4779 29.2633L14.6181 26.8331ZM21.6056 27.159C18.6916 25.7914 16.0318 26.3441 14.6267 26.8301L15.4693 29.2663C16.5297 28.8995 18.4347 28.5184 20.5104 29.4926L21.6056 27.159ZM27.3196 29.0347C26.1371 28.7938 24.3011 28.4212 21.6045 27.1585L20.5114 29.4931C23.4747 30.8806 25.5372 31.3023 26.805 31.5606L27.3196 29.0347ZM28.3467 29.2697C28.0407 29.1806 27.6744 29.107 27.3196 29.0347L26.805 31.5606C27.1982 31.6407 27.445 31.692 27.626 31.7447L28.3467 29.2697ZM31.2025 32.0603C31.1423 31.1566 30.5755 30.5142 30.077 30.1255C29.5592 29.7218 28.9315 29.44 28.3467 29.2697L27.626 31.7447C27.9803 31.8478 28.292 32.0025 28.4918 32.1583C28.7109 32.3291 28.6396 32.3694 28.6304 32.2316L31.2025 32.0603ZM27.8527 34.6057C29.1319 34.6103 29.9841 34.1562 30.5005 33.7032L28.8003 31.7655C28.725 31.8316 28.4716 32.0301 27.8621 32.0279L27.8527 34.6057ZM30.5005 33.7032C30.5759 33.6369 30.642 33.5727 30.6995 33.5128L28.8382 31.7293C28.8281 31.7399 28.8156 31.7521 28.8003 31.7655L30.5005 33.7032ZM24.2744 34.2348C25.1058 34.3708 26.5067 34.6026 27.8545 34.6057L27.8603 32.0279C26.7507 32.0254 25.5485 31.8312 24.6907 31.6908L24.2744 34.2348ZM23.7354 34.15C23.8664 34.1681 24.0418 34.1967 24.2744 34.2348L24.6907 31.6908C24.4704 31.6548 24.2585 31.62 24.0884 31.5965L23.7354 34.15ZM21.0814 32.2883C20.7848 33.5426 20.7848 33.5426 20.7849 33.5426C20.7849 33.5426 20.7849 33.5426 20.785 33.5426C20.7851 33.5427 20.7852 33.5427 20.7854 33.5427C20.7857 33.5428 20.7861 33.5429 20.7866 33.543C20.7877 33.5433 20.7893 33.5437 20.7914 33.5441C20.7954 33.5451 20.8014 33.5465 20.8091 33.5483C20.8245 33.5519 20.8469 33.5572 20.8756 33.5639C20.9331 33.5773 21.0158 33.5965 21.1174 33.6199C21.3206 33.6666 21.6006 33.7301 21.9077 33.7974C22.5033 33.9278 23.2612 34.0857 23.7388 34.1505L24.085 31.596C23.7273 31.5476 23.0699 31.413 22.4591 31.2793C22.163 31.2144 21.892 31.1529 21.6949 31.1076C21.5965 31.085 21.5167 31.0665 21.4618 31.0537C21.4344 31.0472 21.4131 31.0423 21.3989 31.0389C21.3918 31.0373 21.3864 31.036 21.3829 31.0352C21.3811 31.0347 21.3798 31.0344 21.379 31.0342C21.3786 31.0341 21.3783 31.0341 21.3781 31.034C21.378 31.034 21.378 31.034 21.3779 31.034C21.3779 31.034 21.3779 31.034 21.3779 31.034C21.3779 31.034 21.3779 31.034 21.0814 32.2883ZM31.6779 30.0604C31.4267 30.2133 29.7568 31.1812 29.0022 31.6203L30.2986 33.8484C31.0231 33.4268 32.738 32.4329 33.0184 32.2622L31.6779 30.0604ZM29.0022 31.6203C28.8495 31.7092 28.7322 31.7776 28.6777 31.8098L29.9897 34.0287C30.0347 34.0021 30.143 33.9389 30.2986 33.8484L29.0022 31.6203ZM36.0628 28.1825C35.5593 28.0936 35.0715 28.2582 34.8209 28.3505C34.5005 28.4685 34.1542 28.6352 33.8179 28.8124C33.1432 29.1677 32.3658 29.6416 31.6779 30.0604L33.0184 32.2622C33.7264 31.8311 34.4298 31.4035 35.0191 31.0932C35.3147 30.9375 35.5463 30.8303 35.7118 30.7694C35.9472 30.6827 35.8535 30.7632 35.6145 30.721L36.0628 28.1825ZM38.1582 32.3419C38.9302 31.376 38.6033 30.2455 38.1777 29.5941C37.7362 28.9184 36.9729 28.3432 36.0628 28.1825L35.6145 30.721C35.6725 30.7312 35.7499 30.7603 35.8327 30.8174C35.9162 30.875 35.9807 30.9444 36.0197 31.0041C36.0615 31.0681 36.0491 31.0806 36.0455 31.0292C36.0434 30.9998 36.045 30.9519 36.062 30.893C36.0797 30.8324 36.1091 30.7768 36.1445 30.7325L38.1582 32.3419ZM33.3392 35.9912C36.1712 34.2128 37.19 33.5309 38.1508 32.3511L36.152 30.7233C35.5095 31.5122 34.8863 31.9757 31.9683 33.8082L33.3392 35.9912ZM27.5987 38.941C29.0939 38.412 30.3535 37.8724 33.3409 35.9902L31.9667 33.8092C29.1063 35.6115 28.0189 36.058 26.7389 36.5108L27.5987 38.941ZM19.4088 38.7581C21.5192 39.3751 23.1586 39.5759 24.4951 39.5368C25.8456 39.4972 26.8275 39.2139 27.5987 38.941L26.7389 36.5108C26.1225 36.7289 25.416 36.9309 24.4196 36.9601C23.4093 36.9897 22.0433 36.8426 20.1322 36.2839L19.4088 38.7581ZM18.5765 38.5116C18.8316 38.5875 19.109 38.67 19.4071 38.7576L20.1339 36.2844C19.8404 36.1981 19.5669 36.1168 19.3113 36.0408L18.5765 38.5116ZM15.9633 37.8972C16.067 37.8843 16.2693 37.8881 16.7192 37.9909C17.1679 38.0933 17.7427 38.2636 18.5765 38.5116L19.3114 36.0408C18.5101 35.8025 17.842 35.6031 17.293 35.4777C16.7452 35.3527 16.1951 35.2707 15.6449 35.3392L15.9633 37.8972ZM13.6921 35.5991C13.2755 35.2905 12.8865 34.8944 12.5686 34.3801L10.3759 35.7353C10.8823 36.5547 11.5047 37.1868 12.1577 37.6705L13.6921 35.5991ZM12.5673 34.3779C12.0162 33.4903 11.9329 32.8584 11.9605 32.4356C11.9899 31.9858 12.1491 31.6369 12.3337 31.2538L10.0115 30.1349C9.82035 30.5315 9.45315 31.2751 9.38824 32.2674C9.32155 33.2867 9.57585 34.4466 10.3772 35.7375L12.5673 34.3779ZM12.3347 31.2519L12.3822 31.1528L10.0581 30.0377L10.0105 30.1368L12.3347 31.2519ZM15.6449 35.3392C15.3258 35.3789 15.0154 35.4463 14.7697 35.4995C14.5031 35.5572 14.3069 35.5994 14.1248 35.6232C13.7705 35.6696 13.7088 35.6115 13.6921 35.5991L12.1577 37.6705C12.96 38.2648 13.8319 38.2613 14.4593 38.1792C14.7682 38.1388 15.075 38.0709 15.3152 38.0189C15.5762 37.9624 15.7764 37.9205 15.9633 37.8972L15.6449 35.3392ZM28.6304 32.2316C28.6281 32.197 28.6284 32.1355 28.6516 32.053C28.6755 31.9682 28.7319 31.8348 28.8591 31.7081L30.6786 33.534C31.1675 33.0469 31.2268 32.4251 31.2025 32.0603L28.6304 32.2316Z" fill="#6A6A6A"/>
<path fill-rule="evenodd" clip-rule="evenodd" d="M25.3331 13.013L23.5766 14.8152C23.2253 15.1757 22.7421 15.384 22.2315 15.384H19.7322V17.9794C19.7322 18.4748 19.5407 18.9559 19.1904 19.3154L17.3909 21.1616L19.1904 23.0077C19.6529 23.4823 19.6432 24.2421 19.1686 24.7046C18.694 25.1672 17.9343 25.1575 17.4717 24.6829L15.3417 22.4975C14.6192 21.7563 14.6192 20.5669 15.3417 19.8256L17.3322 17.7833V14.8889C17.3322 13.8661 18.1482 12.984 19.2192 12.984L22.01 12.984L23.988 10.9546C24.7273 10.1961 25.939 10.1961 26.6783 10.9546L28.6563 12.984H31.447C32.518 12.984 33.334 13.8661 33.334 14.8889L33.334 17.7833L35.3246 19.8256C36.0471 20.5669 36.0471 21.7563 35.3246 22.4975L33.334 24.5399V26.2524C33.334 26.9152 32.7967 27.4524 32.134 27.4524C31.4713 27.4524 30.934 26.9152 30.934 26.2524V24.3437C30.934 23.8483 31.1255 23.3672 31.4759 23.0078L33.2753 21.1616L31.4759 19.3154C31.1255 18.9559 30.934 18.4748 30.934 17.9794L30.934 15.384H28.4348C27.9242 15.384 27.441 15.1757 27.0896 14.8152L25.3331 13.013Z" fill="#FEBE4C"/>
<path fill-rule="evenodd" clip-rule="evenodd" d="M27.2982 22.2922L26.1871 22.9085C26.1484 22.9318 26.0986 22.9143 26.0765 22.8736C26.0654 22.8562 26.0654 22.8388 26.0654 22.8213L26.2755 21.5247C26.281 21.4956 26.27 21.4666 26.2534 21.4491L25.3579 20.5304C25.3247 20.4956 25.3247 20.4432 25.3579 20.4083C25.3689 20.3967 25.3855 20.3851 25.4076 20.3851L26.6459 20.1932C26.6735 20.1874 26.6956 20.17 26.7067 20.1467L27.2595 18.9664C27.2816 18.9257 27.3313 18.9082 27.37 18.9257C27.3866 18.9315 27.3977 18.9489 27.4087 18.9664L27.9615 20.1467C27.9726 20.17 27.9947 20.1874 28.0223 20.1932L29.2605 20.3851C29.3048 20.3909 29.3379 20.4374 29.3324 20.4839C29.3324 20.5014 29.3213 20.5188 29.3103 20.5363L28.4203 21.4375C28.3982 21.4549 28.3927 21.484 28.3982 21.5131L28.6083 22.8097C28.6138 22.8562 28.5861 22.9027 28.5419 22.9085C28.5253 22.9143 28.5032 22.9085 28.4922 22.8969L27.3811 22.2806C27.3534 22.2806 27.3258 22.2806 27.2982 22.2922Z" fill="#44A846"/>
<path d="M26.6663 17.2097C25.2448 17.8031 24.2421 19.2403 24.2421 20.9189C24.2421 22.5976 25.2448 24.0348 26.6663 24.6282C26.2172 24.8157 25.7262 24.9189 25.2118 24.9189C23.0696 24.9189 21.333 23.1281 21.333 20.9189C21.333 18.7098 23.0696 16.9189 25.2118 16.9189C25.7262 16.9189 26.2172 17.0222 26.6663 17.2097Z" fill="#44A846"/>
</svg>
