<svg width="34" height="33" viewBox="0 0 34 33" fill="none" xmlns="http://www.w3.org/2000/svg">
<path d="M5.57514 20.3317L6.4243 21.4755L6.43115 21.4704L5.57514 20.3317ZM2.87444 22.3366L2.02529 21.1928L1.74244 21.4028L1.59006 21.7204L2.87444 22.3366ZM7.10522 19.5214L6.63953 18.1751L6.63008 18.1784L7.10522 19.5214ZM13.7478 19.8283L13.1426 21.1179L13.1437 21.1184L13.7478 19.8283ZM20.3842 22.0077L20.6686 20.6118L20.6686 20.6118L20.3842 22.0077ZM21.4055 22.2393L21.8038 20.8715L21.8038 20.8715L21.4055 22.2393ZM23.5388 24.0505L24.9602 23.9558L24.9602 23.9558L23.5388 24.0505ZM21.263 25.3446L21.2681 23.9201L21.2662 23.9201L21.263 25.3446ZM23.3756 24.5757L22.3701 23.5666L22.3584 23.5782L22.3471 23.5901L23.3756 24.5757ZM17.5329 24.9534L17.763 23.5475L17.763 23.5475L17.5329 24.9534ZM16.9022 24.8544L17.0973 23.4432L17.0935 23.4427L16.9022 24.8544ZM14.1015 22.8215C13.3358 22.6405 12.5684 23.1144 12.3874 23.8801C12.2063 24.6457 12.6802 25.4132 13.4459 25.5942L14.1015 22.8215ZM26.2264 22.9623L25.4856 21.7455L25.4856 21.7455L26.2264 22.9623ZM30.0844 21.0727L30.3321 19.6699L30.3321 19.6699L30.0844 21.0727ZM31.5353 23.3777L32.6399 24.2773L32.6481 24.2671L31.5353 23.3777ZM26.5642 27.0942L25.8066 25.8878L25.8048 25.8889L26.5642 27.0942ZM20.5019 30.2179L20.9771 31.5609L20.9771 31.5609L20.5019 30.2179ZM12.3249 29.9914L11.9232 31.3581L11.9251 31.3587L12.3249 29.9914ZM11.4112 29.7208L11.0051 31.0862L11.0051 31.0862L11.4112 29.7208ZM7.94093 28.9935L8.11686 30.4072L8.11686 30.4072L7.94093 28.9935ZM4.75864 29.0119L3.91068 30.1566L3.91068 30.1566L4.75864 29.0119ZM3.15307 27.2688L4.36487 26.5198L4.36338 26.5174L3.15307 27.2688ZM2.82188 22.4462L4.10524 23.0645L4.10626 23.0624L2.82188 22.4462ZM4.72599 19.1879L2.02529 21.1928L3.72358 23.4804L6.42428 21.4755L4.72599 19.1879ZM6.63008 18.1784C5.95065 18.4188 5.305 18.7526 4.71913 19.193L6.43115 21.4704C6.76431 21.2199 7.14815 21.0173 7.58036 20.8644L6.63008 18.1784ZM14.3531 18.5387C11.1324 17.0271 8.19256 17.6379 6.63954 18.1751L7.5709 20.8677C8.74293 20.4623 10.8484 20.0411 13.1426 21.1179L14.3531 18.5387ZM20.6686 20.6118C19.3616 20.3455 17.3324 19.9337 14.3519 18.5381L13.1437 21.1184C16.419 22.652 18.6985 23.1181 20.0998 23.4035L20.6686 20.6118ZM21.8038 20.8715C21.4656 20.773 21.0607 20.6917 20.6686 20.6118L20.0998 23.4035C20.5344 23.4921 20.8072 23.5488 21.0072 23.607L21.8038 20.8715ZM24.9602 23.9558C24.8937 22.957 24.2672 22.247 23.7162 21.8174C23.144 21.3712 22.4501 21.0597 21.8038 20.8715L21.0072 23.607C21.3988 23.7211 21.7434 23.892 21.9642 24.0642C22.2063 24.253 22.1275 24.2975 22.1174 24.1452L24.9602 23.9558ZM21.2578 26.7692C22.6717 26.7743 23.6136 26.2724 24.1843 25.7717L22.3052 23.6301C22.2219 23.7031 21.9418 23.9225 21.2681 23.9201L21.2578 26.7692ZM24.1843 25.7717C24.2677 25.6985 24.3407 25.6275 24.4042 25.5613L22.3471 23.5901C22.3359 23.6017 22.322 23.6153 22.3052 23.6301L24.1843 25.7717ZM17.3028 26.3592C18.2218 26.5096 19.7701 26.7658 21.2598 26.7692L21.2662 23.9201C20.0398 23.9173 18.711 23.7027 17.763 23.5475L17.3028 26.3592ZM16.7071 26.2655C16.8519 26.2856 17.0457 26.3172 17.3028 26.3592L17.763 23.5475C17.5194 23.5077 17.2852 23.4692 17.0973 23.4433L16.7071 26.2655ZM13.7737 24.2079C13.4459 25.5942 13.4459 25.5942 13.446 25.5942C13.446 25.5942 13.4461 25.5942 13.4461 25.5943C13.4462 25.5943 13.4464 25.5943 13.4465 25.5944C13.4469 25.5944 13.4473 25.5945 13.4479 25.5947C13.4492 25.595 13.4509 25.5954 13.4531 25.5959C13.4577 25.597 13.4642 25.5985 13.4727 25.6005C13.4897 25.6045 13.5145 25.6103 13.5463 25.6178C13.6098 25.6326 13.7012 25.6538 13.8136 25.6796C14.0381 25.7313 14.3475 25.8015 14.687 25.8758C15.3453 26.0199 16.1829 26.1945 16.7109 26.266L17.0935 23.4427C16.6981 23.3892 15.9716 23.2405 15.2964 23.0926C14.9691 23.021 14.6696 22.953 14.4518 22.9029C14.343 22.8779 14.2549 22.8574 14.1942 22.8433C14.1638 22.8362 14.1404 22.8307 14.1246 22.827C14.1168 22.8251 14.1108 22.8237 14.1069 22.8228C14.105 22.8224 14.1036 22.822 14.1026 22.8218C14.1022 22.8217 14.1019 22.8216 14.1017 22.8216C14.1016 22.8216 14.1015 22.8215 14.1015 22.8215C14.1015 22.8215 14.1015 22.8215 14.1015 22.8215C14.1015 22.8215 14.1015 22.8215 13.7737 24.2079ZM25.4856 21.7455C25.208 21.9145 23.3623 22.9843 22.5283 23.4696L23.9612 25.9322C24.7619 25.4662 26.6573 24.3677 26.9672 24.179L25.4856 21.7455ZM22.5283 23.4696C22.3595 23.5678 22.2299 23.6434 22.1696 23.679L23.6197 26.1315C23.6694 26.1021 23.7891 26.0323 23.9612 25.9322L22.5283 23.4696ZM30.3321 19.6699C29.7756 19.5716 29.2365 19.7535 28.9595 19.8555C28.6053 19.986 28.2226 20.1703 27.8509 20.366C27.1051 20.7588 26.2459 21.2826 25.4856 21.7455L26.9672 24.179C27.7498 23.7026 28.5272 23.2299 29.1785 22.887C29.5053 22.7149 29.7612 22.5965 29.9442 22.5291C30.2043 22.4333 30.1008 22.5222 29.8366 22.4756L30.3321 19.6699ZM32.6481 24.2671C33.5013 23.1996 33.14 21.95 32.6696 21.2301C32.1817 20.4833 31.338 19.8475 30.3321 19.6699L29.8366 22.4756C29.9007 22.4869 29.9862 22.519 30.0778 22.5821C30.17 22.6458 30.2413 22.7225 30.2845 22.7885C30.3307 22.8592 30.3169 22.8731 30.313 22.8162C30.3107 22.7838 30.3124 22.7308 30.3313 22.6657C30.3508 22.5987 30.3833 22.5373 30.4225 22.4883L32.6481 24.2671ZM27.3219 28.3006C30.4519 26.3349 31.578 25.5812 32.6399 24.2773L30.4307 22.4781C29.7205 23.3501 29.0318 23.8624 25.8066 25.8878L27.3219 28.3006ZM20.9771 31.5609C22.6296 30.9762 24.0218 30.3798 27.3236 28.2995L25.8048 25.8889C22.6433 27.8809 21.4415 28.3744 20.0268 28.8749L20.9771 31.5609ZM11.9251 31.3587C14.2576 32.0407 16.0696 32.2626 17.5468 32.2194C19.0395 32.1756 20.1247 31.8624 20.9771 31.5609L20.0268 28.8749C19.3455 29.1159 18.5646 29.3392 17.4634 29.3715C16.3466 29.4042 14.8369 29.2416 12.7246 28.6241L11.9251 31.3587ZM11.0051 31.0862C11.2871 31.1701 11.5937 31.2613 11.9232 31.3581L12.7265 28.6246C12.4021 28.5293 12.0998 28.4394 11.8173 28.3554L11.0051 31.0862ZM8.11686 30.4072C8.2315 30.3929 8.45505 30.3972 8.95236 30.5107C9.44825 30.6239 10.0836 30.8121 11.0051 31.0862L11.8174 28.3554C10.9318 28.0919 10.1933 27.8716 9.5865 27.733C8.98113 27.5948 8.37311 27.5042 7.765 27.5799L8.11686 30.4072ZM5.6066 27.8672C5.14615 27.5261 4.71617 27.0883 4.36487 26.5198L1.94127 28.0177C2.50099 28.9234 3.18896 29.622 3.91068 30.1566L5.6066 27.8672ZM4.36338 26.5174C3.75433 25.5364 3.66217 24.838 3.69275 24.3707C3.72528 23.8735 3.90121 23.488 4.10523 23.0645L1.53853 21.8278C1.3273 22.2662 0.92145 23.088 0.8497 24.1847C0.775992 25.3114 1.05706 26.5934 1.94276 28.0201L4.36338 26.5174ZM4.10626 23.0624L4.15882 22.9528L1.59006 21.7204L1.5375 21.8299L4.10626 23.0624ZM7.765 27.5799C7.41224 27.6238 7.06922 27.6983 6.79762 27.7571C6.50299 27.8209 6.28613 27.8675 6.0849 27.8939C5.69324 27.9451 5.62503 27.8808 5.6066 27.8672L3.91068 30.1566C4.79748 30.8135 5.76109 30.8097 6.45459 30.7189C6.79595 30.6742 7.13502 30.5992 7.4005 30.5417C7.68901 30.4793 7.91029 30.4329 8.11686 30.4072L7.765 27.5799ZM22.1174 24.1452C22.1148 24.107 22.1151 24.039 22.1408 23.9478C22.1672 23.8541 22.2296 23.7066 22.3701 23.5666L24.3812 25.5847C24.9215 25.0464 24.9871 24.359 24.9602 23.9558L22.1174 24.1452Z" fill="#6A6A6A"/>
<path fill-rule="evenodd" clip-rule="evenodd" d="M18.4738 2.90384L16.5324 4.89567C16.144 5.29412 15.61 5.52442 15.0457 5.52442H12.2833V8.39302C12.2833 8.94057 12.0716 9.47233 11.6844 9.86963L9.69556 11.9101L11.6844 13.9506C12.1957 14.4752 12.1849 15.3149 11.6603 15.8262C11.1358 16.3374 10.2961 16.3267 9.7848 15.8021L7.43058 13.3867C6.63203 12.5674 6.63203 11.2528 7.43058 10.4335L9.63067 8.17627V4.97714C9.63067 3.84666 10.5326 2.87179 11.7163 2.87179L14.8008 2.87178L16.9871 0.628747C17.8042 -0.209581 19.1434 -0.209583 19.9605 0.628748L22.1467 2.87178H25.2312C26.4149 2.87178 27.3168 3.84667 27.3168 4.97714L27.3168 8.17622L29.517 10.4335C30.3155 11.2528 30.3155 12.5674 29.517 13.3867L27.3168 15.644V17.5368C27.3168 18.2693 26.723 18.8632 25.9905 18.8632C25.258 18.8632 24.6642 18.2693 24.6642 17.5368V15.4273C24.6642 14.8797 24.8759 14.348 25.2631 13.9507L27.252 11.9101L25.2631 9.86958C24.8759 9.47229 24.6642 8.94052 24.6642 8.39297L24.6642 5.52442H21.9019C21.3376 5.52442 20.8035 5.29412 20.4152 4.89567L18.4738 2.90384Z" fill="#FEBE4C"/>
<path fill-rule="evenodd" clip-rule="evenodd" d="M20.6458 13.1599L19.4177 13.8411C19.3749 13.8668 19.32 13.8475 19.2955 13.8026C19.2833 13.7833 19.2833 13.764 19.2833 13.7447L19.5155 12.3116C19.5216 12.2795 19.5094 12.2474 19.491 12.2281L18.5012 11.2127C18.4646 11.1742 18.4646 11.1163 18.5012 11.0778C18.5135 11.0649 18.5318 11.0521 18.5562 11.0521L19.9248 10.84C19.9554 10.8336 19.9798 10.8143 19.992 10.7886L20.603 9.48401C20.6274 9.43902 20.6824 9.41974 20.7252 9.43902C20.7435 9.44545 20.7557 9.46473 20.768 9.48401L21.3789 10.7886C21.3911 10.8143 21.4156 10.8336 21.4461 10.84L22.8147 11.0521C22.8636 11.0585 22.9003 11.1099 22.8941 11.1613C22.8941 11.1806 22.8819 11.1999 22.8697 11.2191L21.886 12.2152C21.8616 12.2345 21.8555 12.2666 21.8616 12.2988L22.0938 13.7319C22.0999 13.7833 22.0693 13.8347 22.0205 13.8411C22.0021 13.8475 21.9777 13.8411 21.9655 13.8283L20.7374 13.1471C20.7069 13.1471 20.6763 13.1471 20.6458 13.1599Z" fill="#44A846"/>
<path d="M19.9475 7.54242C18.3763 8.19827 17.268 9.78672 17.268 11.6421C17.268 13.4975 18.3763 15.0859 19.9475 15.7418C19.451 15.949 18.9083 16.0632 18.3398 16.0632C15.9721 16.0632 14.0527 14.0838 14.0527 11.6421C14.0527 9.20043 15.9721 7.22105 18.3398 7.22105C18.9083 7.22105 19.451 7.33518 19.9475 7.54242Z" fill="#44A846"/>
</svg>
