<svg width="32" height="32" viewBox="0 0 32 32" fill="none" xmlns="http://www.w3.org/2000/svg">
<path d="M6.62748 2.20825C6.38284 3.33837 6.9801 4.42882 7.77976 5.26402C7.95946 5.45171 8.16031 5.61436 8.37687 5.74965H11.9896C12.418 5.74965 13.5409 5.74965 13.5409 5.74965H15.0922H16.6435H18.1948C18.6232 5.74965 19.7461 5.74965 19.7461 5.74965H23.3588C23.5754 5.61436 23.7762 5.45171 23.9559 5.26402C24.7556 4.42882 25.3529 3.33837 25.1082 2.20825C24.9027 1.25871 24.35 0.281624 22.9456 0.281624H8.7901C7.38574 0.281624 6.83303 1.25871 6.62748 2.20825Z" fill="#FEBE4C"/>
<path fill-rule="evenodd" clip-rule="evenodd" d="M8.59477 8.40658C9.15148 8.95407 9.15771 9.84793 8.60869 10.4031C6.77654 12.2556 5.49006 15.4913 5.24645 18.2734L4.85508 22.7429C4.54934 26.2344 7.23884 29.1765 10.583 29.1765H21.417C24.7612 29.1765 27.4507 26.2344 27.1449 22.7429L26.7536 18.2734C26.5104 15.4962 25.2103 12.2591 23.3724 10.404C22.8228 9.84933 22.8283 8.95546 23.3845 8.40748C23.9407 7.85949 24.8371 7.8649 25.3866 8.41955C27.7836 10.8389 29.2867 14.7434 29.5743 18.0278L29.9657 22.4972C30.4097 27.5677 26.4929 32 21.417 32H10.583C5.50714 32 1.59034 27.5677 2.03434 22.4972L2.42571 18.0278C2.71288 14.7482 4.19755 10.8423 6.59267 8.42046C7.14169 7.86531 8.03806 7.8591 8.59477 8.40658Z" fill="#6A6A6A"/>
<path fill-rule="evenodd" clip-rule="evenodd" d="M15.6941 25.676C15.9173 25.8993 16.2793 25.8993 16.5026 25.676L18.2751 23.9035C18.3823 23.7963 18.5277 23.7361 18.6793 23.7361H21.1861C21.5018 23.7361 21.7578 23.4801 21.7578 23.1644L21.7578 20.6576C21.7578 20.506 21.818 20.3606 21.9252 20.2534L23.6978 18.4808C23.921 18.2576 23.921 17.8956 23.6978 17.6723L21.9252 15.8998C21.818 15.7926 21.7578 15.6471 21.7578 15.4955V12.9888C21.7578 12.6731 21.5018 12.4171 21.1861 12.4171H18.6794C18.5278 12.4171 18.3823 12.3569 18.2751 12.2497L16.5026 10.4771C16.2793 10.2539 15.9173 10.2539 15.6941 10.4771L13.9215 12.2497C13.8143 12.3569 13.6689 12.4171 13.5173 12.4171L11.0105 12.4171C10.6948 12.4171 10.4388 12.6731 10.4388 12.9888L10.4388 15.4956C10.4388 15.6472 10.3786 15.7926 10.2714 15.8998L8.49887 17.6723C8.27561 17.8956 8.27561 18.2576 8.49887 18.4808L10.2714 20.2533C10.3786 20.3606 10.4388 20.506 10.4388 20.6576V23.1644C10.4388 23.4801 10.6948 23.7361 11.0105 23.7361L13.5173 23.7361C13.6689 23.7361 13.8143 23.7963 13.9216 23.9035L15.6941 25.676ZM16.3625 20.1317V20.4977C16.3625 20.7914 16.4265 21.0625 16.5546 21.311C16.6851 21.5595 16.8761 21.7595 17.1277 21.9108C17.3792 22.0622 17.6879 22.1379 18.0536 22.1379C18.4193 22.1379 18.7291 22.0622 18.983 21.9108C19.2369 21.7595 19.4291 21.5595 19.5596 21.311C19.6923 21.0625 19.7587 20.7914 19.7587 20.4977V20.1317C19.7587 19.8335 19.6935 19.5601 19.5631 19.3116C19.4326 19.0631 19.2404 18.8643 18.9865 18.7152C18.735 18.566 18.424 18.4915 18.0536 18.4915C17.6925 18.4915 17.3862 18.5672 17.1347 18.7185C16.8831 18.8699 16.6909 19.0699 16.5581 19.3184C16.4277 19.5669 16.3625 19.838 16.3625 20.1317ZM17.5784 20.4977V20.1317C17.5784 19.9961 17.611 19.8651 17.6762 19.7386C17.7438 19.6121 17.8696 19.5488 18.0536 19.5488C18.2539 19.5488 18.3832 19.6121 18.4415 19.7386C18.4997 19.8651 18.5288 19.9961 18.5288 20.1317V20.4977C18.5288 20.6332 18.4974 20.762 18.4345 20.884C18.3739 21.006 18.2469 21.067 18.0536 21.067C17.8696 21.067 17.7438 21.0049 17.6762 20.8806C17.611 20.7541 17.5784 20.6265 17.5784 20.4977ZM12.6168 16.16V16.526C12.6168 16.8197 12.6808 17.0896 12.8089 17.3359C12.9394 17.5822 13.1304 17.7798 13.382 17.9289C13.6335 18.0781 13.9422 18.1526 14.3079 18.1526C14.6736 18.1526 14.9834 18.0792 15.2373 17.9323C15.4913 17.7855 15.6834 17.5889 15.8139 17.3427C15.9467 17.0964 16.013 16.8242 16.013 16.526V16.16C16.013 15.8618 15.9478 15.5884 15.8174 15.3399C15.6869 15.0914 15.4947 14.8925 15.2408 14.7434C14.9893 14.5943 14.6783 14.5198 14.3079 14.5198C13.9515 14.5198 13.6475 14.5943 13.3959 14.7434C13.1444 14.8925 12.951 15.0914 12.8159 15.3399C12.6831 15.5884 12.6168 15.8618 12.6168 16.16ZM13.8467 16.526V16.16C13.8467 16.0312 13.877 15.9024 13.9375 15.7736C14.0004 15.6426 14.1239 15.5771 14.3079 15.5771C14.5082 15.5771 14.6375 15.6403 14.6958 15.7669C14.754 15.8934 14.7831 16.0244 14.7831 16.16V16.526C14.7831 16.6615 14.7517 16.7903 14.6888 16.9123C14.6282 17.0343 14.5012 17.0953 14.3079 17.0953C14.1309 17.0953 14.0097 17.0343 13.9445 16.9123C13.8793 16.7903 13.8467 16.6615 13.8467 16.526ZM13.6636 21.1601C13.4736 21.4282 13.6653 21.799 13.9939 21.799C14.1251 21.799 14.2482 21.7354 14.3241 21.6283L18.6699 15.4975C18.86 15.2295 18.6683 14.8587 18.3397 14.8587C18.2085 14.8587 18.0854 14.9223 18.0095 15.0294L13.6636 21.1601Z" fill="#44A846"/>
</svg>
