<svg width="48" height="49" viewBox="0 0 48 49" fill="none" xmlns="http://www.w3.org/2000/svg">
<rect y="0.918945" width="48" height="48" rx="16" fill="#F0F9ED"/>
<path d="M16.0558 13.219C15.8484 14.1769 16.3547 15.1012 17.0325 15.8091C17.1848 15.9682 17.355 16.1061 17.5386 16.2207H20.6008C20.9639 16.2207 21.9157 16.2207 21.9157 16.2207H23.2307H24.5456H25.8605C26.2236 16.2207 27.1754 16.2207 27.1754 16.2207H30.2376C30.4211 16.1061 30.5914 15.9682 30.7437 15.8091C31.4215 15.1012 31.9278 14.1769 31.7204 13.219C31.5462 12.4141 31.0777 11.5859 29.8873 11.5859H17.8889C16.6985 11.5859 16.23 12.4141 16.0558 13.219Z" fill="#FEBE4C"/>
<path fill-rule="evenodd" clip-rule="evenodd" d="M17.7236 18.0643C18.1955 18.5297 18.2008 19.2895 17.7354 19.7614C16.1825 21.336 15.092 24.0864 14.8855 26.4511L14.5538 30.2502C14.2947 33.218 16.5743 35.7188 19.4088 35.7188H28.592C31.4265 35.7188 33.7062 33.218 33.447 30.2502L33.1153 26.4511C32.9092 24.0905 31.8072 21.339 30.2493 19.7621C29.7836 19.2907 29.7882 18.5309 30.2596 18.0651C30.7311 17.5993 31.4908 17.6039 31.9566 18.0754C33.9883 20.1318 35.2624 23.4506 35.5062 26.2424L35.8379 30.0414C36.2143 34.3513 32.8943 38.1187 28.592 38.1187H19.4088C15.1065 38.1187 11.7866 34.3513 12.1629 30.0414L12.4946 26.2424C12.738 23.4548 13.9965 20.1347 16.0266 18.0761C16.492 17.6043 17.2517 17.599 17.7236 18.0643Z" fill="#6A6A6A"/>
<path fill-rule="evenodd" clip-rule="evenodd" d="M23.7407 33.1107C23.93 33.3 24.2368 33.3 24.426 33.1107L25.9284 31.6083C26.0193 31.5174 26.1426 31.4664 26.2711 31.4664H28.3958C28.6635 31.4664 28.8804 31.2494 28.8804 30.9818V28.857C28.8804 28.7285 28.9315 28.6053 29.0223 28.5144L30.5248 27.0119C30.714 26.8227 30.714 26.5159 30.5248 26.3267L29.0223 24.8242C28.9315 24.7333 28.8804 24.6101 28.8804 24.4816V22.3568C28.8804 22.0892 28.6635 21.8723 28.3958 21.8723L26.2711 21.8723C26.1426 21.8723 26.0193 21.8212 25.9285 21.7303L24.426 20.2279C24.2368 20.0386 23.93 20.0386 23.7407 20.2279L22.2383 21.7303C22.1474 21.8212 22.0241 21.8723 21.8956 21.8723L19.7709 21.8723C19.5032 21.8723 19.2863 22.0892 19.2863 22.3568L19.2863 24.4816C19.2863 24.6101 19.2352 24.7334 19.1443 24.8242L17.6419 26.3267C17.4527 26.5159 17.4527 26.8227 17.6419 27.012L19.1443 28.5144C19.2352 28.6052 19.2863 28.7285 19.2863 28.857L19.2863 30.9818C19.2863 31.2494 19.5032 31.4664 19.7709 31.4664H21.8957C22.0242 31.4664 22.1474 31.5174 22.2383 31.6083L23.7407 33.1107ZM24.3072 28.4113V28.7215C24.3072 28.9704 24.3615 29.2002 24.4701 29.4109C24.5806 29.6215 24.7425 29.791 24.9558 29.9193C25.169 30.0476 25.4306 30.1117 25.7406 30.1117C26.0506 30.1117 26.3132 30.0476 26.5284 29.9193C26.7436 29.791 26.9065 29.6215 27.0171 29.4109C27.1296 29.2002 27.1859 28.9704 27.1859 28.7215V28.4113C27.1859 28.1585 27.1306 27.9268 27.0201 27.7161C26.9095 27.5055 26.7466 27.337 26.5314 27.2106C26.3181 27.0842 26.0546 27.021 25.7406 27.021C25.4346 27.021 25.1749 27.0851 24.9617 27.2134C24.7485 27.3417 24.5856 27.5112 24.473 27.7219C24.3624 27.9325 24.3072 28.1623 24.3072 28.4113ZM25.3378 28.7215V28.4113C25.3378 28.2964 25.3655 28.1853 25.4208 28.0781C25.478 27.9708 25.5846 27.9172 25.7406 27.9172C25.9104 27.9172 26.02 27.9708 26.0694 28.0781C26.1187 28.1853 26.1434 28.2964 26.1434 28.4113V28.7215C26.1434 28.8364 26.1168 28.9455 26.0634 29.0489C26.0121 29.1523 25.9045 29.2041 25.7406 29.2041C25.5846 29.2041 25.478 29.1514 25.4208 29.0461C25.3655 28.9388 25.3378 28.8306 25.3378 28.7215ZM21.1322 25.0448V25.355C21.1322 25.6039 21.1865 25.8328 21.2951 26.0415C21.4057 26.2502 21.5676 26.4178 21.7809 26.5442C21.9941 26.6706 22.2557 26.7337 22.5657 26.7337C22.8757 26.7337 23.1383 26.6715 23.3535 26.547C23.5687 26.4226 23.7316 26.256 23.8422 26.0472C23.9547 25.8385 24.011 25.6078 24.011 25.355V25.0448C24.011 24.792 23.9557 24.5603 23.8451 24.3496C23.7346 24.139 23.5717 23.9705 23.3565 23.8441C23.1432 23.7177 22.8796 23.6545 22.5657 23.6545C22.2636 23.6545 22.0059 23.7177 21.7927 23.8441C21.5795 23.9705 21.4156 24.139 21.3011 24.3496C21.1885 24.5603 21.1322 24.792 21.1322 25.0448ZM22.1748 25.355V25.0448C22.1748 24.9356 22.2004 24.8264 22.2518 24.7173C22.3051 24.6062 22.4097 24.5507 22.5657 24.5507C22.7355 24.5507 22.8451 24.6043 22.8944 24.7115C22.9438 24.8188 22.9685 24.9299 22.9685 25.0448V25.355C22.9685 25.4699 22.9418 25.579 22.8885 25.6824C22.8372 25.7858 22.7296 25.8375 22.5657 25.8375C22.4156 25.8375 22.313 25.7858 22.2577 25.6824C22.2024 25.579 22.1748 25.4699 22.1748 25.355ZM22.0196 29.283C21.8585 29.5102 22.021 29.8245 22.2995 29.8245C22.4107 29.8245 22.5151 29.7706 22.5794 29.6798L26.263 24.4833C26.4241 24.256 26.2616 23.9417 25.9831 23.9417C25.8719 23.9417 25.7675 23.9957 25.7032 24.0864L22.0196 29.283Z" fill="#44A846"/>
</svg>
