<svg width="164" height="30" viewBox="0 0 164 30" fill="none" xmlns="http://www.w3.org/2000/svg">
<g clip-path="url(#clip0_255_5891)">
<path fill-rule="evenodd" clip-rule="evenodd" d="M20.7451 17.5309C21.2489 18.8724 21.3339 20.2109 20.3384 21.3885C19.5219 22.29 18.3838 22.8363 17.1697 22.9061C16.6173 22.9638 16.6173 22.9516 16.6173 22.4083V15.3001C16.6173 14.9268 16.505 14.9025 16.1924 14.9693C15.5004 15.1119 14.7962 15.1908 14.0891 15.2121C13.7855 15.2121 13.7491 15.3213 13.7522 15.5793V22.5419C13.7522 22.8454 13.7066 22.9729 13.3485 22.9213C12.5442 22.8545 11.922 22.1838 11.9189 21.3764C11.8795 20.4962 11.8977 19.616 11.8977 18.7328C11.9007 17.1454 11.9038 15.5429 11.9038 13.9434V6.61052C11.9038 6.26755 12.007 6.20685 12.3196 6.21292C13.8371 6.23113 15.3274 6.21292 16.8298 6.2372C18.2259 6.27059 19.3368 7.01723 19.7374 8.12201C20.2018 9.42408 19.8406 10.8749 18.8208 11.8067C18.2593 12.2953 17.6037 12.6717 16.8965 12.9054C16.6598 12.9934 16.593 12.963 16.593 12.6868V7.28735C16.593 6.94439 16.4929 6.87761 16.1772 6.88672C15.47 6.911 14.7598 6.90796 14.0526 6.88672C13.7825 6.88672 13.7248 6.96867 13.7279 7.22058V12.9539C13.7279 13.5094 13.7855 13.4304 13.224 13.4578C13.0814 13.4578 12.8871 13.4001 12.8113 13.5397C12.6686 13.7977 12.5563 14.0739 12.4835 14.3622C12.4471 14.5049 12.6292 14.4503 12.7081 14.4503C13.6399 14.4472 14.5686 14.3744 15.4913 14.2408C15.9678 14.1741 16.4413 14.0769 16.9178 13.995C17.018 13.9646 17.1272 13.9737 17.2213 14.0193C18.7753 14.8114 20.1107 15.8403 20.7451 17.5309Z" fill="#054B92"/>
<path fill-rule="evenodd" clip-rule="evenodd" d="M14.8752 9.45144e-06H14.7052C6.58926 -0.00909593 0.00910958 6.56195 4.20233e-06 14.6748C-0.00606605 22.7877 6.56498 29.3709 14.6779 29.38C22.7908 29.3861 29.374 22.8151 29.38 14.7022C29.38 6.64086 22.8363 0.0516066 14.8752 9.45144e-06ZM18.3322 27.1826C17.2729 27.1674 16.2045 27.1735 15.1362 27.1735H11.9736C11.6883 27.1735 11.6701 27.046 11.6943 26.8396C11.7186 26.6332 11.576 26.3813 11.9614 26.4208C12.098 26.4329 12.2346 26.4329 12.3681 26.4208C13.1725 26.357 13.6216 25.9473 13.7036 25.146C13.737 24.8425 13.8462 24.7636 14.1376 24.7727C14.8569 24.7909 15.5763 24.7727 16.2986 24.7727C16.505 24.7727 16.6021 24.8091 16.6173 25.0459C16.7023 25.9352 17.112 26.3085 18.0104 26.3631H18.1592C18.6387 26.3995 18.6266 26.4026 18.6357 26.8973C18.6357 27.1371 18.5598 27.2008 18.3322 27.1826ZM21.4189 23.1216C20.2443 23.7559 18.9331 24.0898 17.5977 24.0898C14.0314 24.1111 10.4651 24.0898 6.89884 24.0898C6.78351 24.0898 6.59533 24.1809 6.56195 23.9745C6.51642 23.7317 6.52856 23.4828 6.59837 23.246C6.59837 23.2127 6.73495 23.2157 6.80476 23.2157C7.12951 23.2218 7.45124 23.1975 7.76993 23.1489C8.54692 23.0093 8.92327 22.6329 9.01736 21.8499C9.05985 21.4917 9.0811 21.1336 9.08414 20.7754V8.63494C9.08414 8.2768 9.05985 7.91562 9.01129 7.56051C8.87775 6.67729 8.47104 6.27969 7.59085 6.1431C7.37232 6.09758 7.15076 6.0824 6.92616 6.09151C6.62265 6.11579 6.53463 6.03687 6.52552 5.71515C6.52552 5.3388 6.61961 5.25078 6.99293 5.25381C9.11752 5.27506 11.2421 5.25381 13.3667 5.27202C13.6702 5.27202 13.7795 5.24167 13.7248 4.89567C13.5822 4.03976 13.1178 3.64823 12.0919 3.62699C11.8552 3.62699 11.6731 3.62699 11.6822 3.28705C11.6913 2.94712 11.7611 2.8591 12.1071 2.86213C14.171 2.88034 16.2319 2.87731 18.2957 2.86213C18.5993 2.86213 18.6721 2.94105 18.6357 3.21421C18.6023 3.4297 18.751 3.73928 18.3048 3.69072C18.0438 3.66644 17.7828 3.69072 17.5309 3.7666C16.9573 3.94871 16.5779 4.49503 16.6021 5.09599C16.6021 5.33576 16.7782 5.25988 16.9057 5.25988C17.7889 5.24471 18.6691 5.34487 19.525 5.5634C19.9074 5.66659 20.2807 5.80014 20.6419 5.96707C22.8636 6.9899 23.0396 9.06593 22.3173 10.711C21.7619 11.9675 20.6935 12.6747 19.4946 13.2271C19.358 13.2787 19.2124 13.2939 19.1243 13.4244C20.3596 13.8189 21.4978 14.4685 22.463 15.3304C25.0125 17.716 24.5086 21.4523 21.4189 23.1216Z" fill="#054B92"/>
<path fill-rule="evenodd" clip-rule="evenodd" d="M20.3384 21.3885C19.5219 22.29 18.3838 22.8363 17.1697 22.9061C16.6173 22.9638 16.6173 22.9516 16.6173 22.4083V15.3001C16.6173 14.9268 16.505 14.9025 16.1924 14.9693C15.5004 15.1119 14.7962 15.1908 14.0891 15.2121C13.7855 15.2121 13.7491 15.3213 13.7522 15.5793V22.5419C13.7522 22.8454 13.7066 22.9729 13.3485 22.9213C12.5442 22.8545 11.922 22.1838 11.9189 21.3764C11.8795 20.4962 11.8977 19.616 11.8977 18.7328C11.9007 17.1454 11.9038 15.5429 11.9038 13.9434V6.61052C11.9038 6.26755 12.007 6.20685 12.3196 6.21292C13.8371 6.23113 15.3274 6.21292 16.8298 6.2372C18.2259 6.27059 19.3368 7.01723 19.7374 8.12201C20.2018 9.42408 19.8406 10.8749 18.8208 11.8067C18.2593 12.2953 17.6037 12.6717 16.8965 12.9054C16.6598 12.9934 16.593 12.963 16.593 12.6868V7.28735C16.593 6.94439 16.4929 6.87761 16.1772 6.88672C15.47 6.911 14.7598 6.90796 14.0526 6.88672C13.7825 6.88672 13.7248 6.96867 13.7279 7.22058V12.9539C13.7279 13.5094 13.7855 13.4304 13.224 13.4578C13.0814 13.4578 12.8871 13.4001 12.8113 13.5397C12.6686 13.7977 12.5563 14.0739 12.4835 14.3622C12.4471 14.5049 12.6292 14.4503 12.7081 14.4503C13.6399 14.4472 14.5686 14.3744 15.4913 14.2408C15.9678 14.1741 16.4413 14.0769 16.9178 13.995C17.018 13.9646 17.1272 13.9737 17.2213 14.0193C18.7753 14.8114 20.1107 15.8403 20.7451 17.5309C21.2489 18.8724 21.3339 20.2109 20.3384 21.3885Z" fill="#054B92"/>
<path fill-rule="evenodd" clip-rule="evenodd" d="M87.8972 7.64243C87.8365 8.63795 87.8517 9.58188 87.8517 10.5228C87.8517 11.8006 87.8365 13.0783 87.9033 14.3561C87.9155 14.605 87.9428 14.8509 87.9883 15.0937C88.0854 15.6187 88.31 15.8069 88.8472 15.8433C88.9717 15.8433 89.1204 15.7948 89.1234 16.0254C89.1265 16.2561 88.9838 16.2045 88.8533 16.2045H85.6118C85.4965 16.2045 85.3599 16.2592 85.3599 16.0467C85.3599 15.8342 85.4631 15.8585 85.5966 15.8433C86.2947 15.7705 86.5072 15.5671 86.5618 14.8235C86.6104 14.256 86.6407 13.6854 86.6407 13.1148V4.91992C86.6407 4.80155 86.5527 4.61641 86.7257 4.56481C86.8987 4.51322 86.9897 4.64373 87.0869 4.7621C89.4087 7.56048 91.8247 10.28 94.1041 13.1117C94.1557 13.1755 94.183 13.2665 94.3287 13.2847V12.6625C94.3287 10.6988 94.3287 8.73811 94.3135 6.77742C94.3135 6.44356 94.2831 6.10969 94.2285 5.77886C94.1375 5.22647 93.925 5.04436 93.3665 4.97456C93.236 4.95938 93.0114 5.06257 93.0357 4.7712C93.06 4.47983 93.2482 4.62855 93.3726 4.63159C94.3772 4.66194 95.3849 4.66497 96.3895 4.63159C96.5109 4.63159 96.6718 4.54053 96.693 4.77424C96.7143 5.00794 96.5716 4.96849 96.4351 4.9867C95.9191 5.05347 95.7522 5.2204 95.6581 5.7303C95.5943 6.15825 95.564 6.59228 95.5761 7.0263V15.9253C95.5761 16.0528 95.6884 16.2288 95.4669 16.3016C95.2453 16.3745 95.1785 16.2106 95.0753 16.0892C92.7352 13.3029 90.292 10.6047 88.0217 7.76687C88.0004 7.73348 87.9701 7.71224 87.8972 7.64243Z" fill="#054B92"/>
<path fill-rule="evenodd" clip-rule="evenodd" d="M123.548 7.7001C123.53 7.93076 123.502 8.16143 123.502 8.3921C123.502 10.4772 123.448 12.5624 123.566 14.6445C123.578 14.781 123.596 14.9146 123.627 15.0481C123.742 15.6278 123.93 15.8069 124.537 15.8403C124.692 15.8403 124.792 15.8403 124.783 16.0558C124.774 16.2713 124.634 16.2045 124.522 16.2045H121.271C121.159 16.2045 121.017 16.2743 121.01 16.0558C121.004 15.8373 121.135 15.8555 121.275 15.8433C121.882 15.7948 122.055 15.6461 122.185 15.0512C122.288 14.3774 122.328 13.6945 122.303 13.0116V4.96848C122.303 4.83494 122.215 4.64372 122.385 4.57088C122.555 4.49804 122.668 4.66497 122.771 4.78941C125.093 7.5878 127.509 10.3073 129.788 13.1421C129.831 13.1967 129.882 13.2453 129.967 13.3424C129.967 13.1148 129.991 12.9478 129.991 12.7779C129.991 10.7292 129.991 8.68348 129.976 6.63173C129.973 6.35857 129.946 6.08844 129.9 5.81832C129.809 5.22647 129.597 5.03829 128.99 4.97455C128.862 4.97455 128.668 5.03222 128.686 4.77423C128.705 4.51625 128.893 4.62855 129.017 4.63158C130.025 4.66193 131.029 4.66497 132.037 4.63158C132.155 4.63158 132.316 4.53446 132.341 4.7712C132.365 5.00794 132.222 4.96848 132.086 4.98669C131.551 5.0565 131.397 5.21736 131.3 5.76065C131.205 6.53764 131.172 7.3207 131.205 8.10073C131.184 10.6927 131.205 13.2908 131.205 15.8828C131.205 16.0224 131.318 16.2288 131.096 16.3016C130.875 16.3745 130.793 16.1742 130.686 16.0467C128.368 13.2787 125.933 10.6047 123.684 7.77901C123.654 7.73955 123.66 7.67581 123.651 7.62118L123.548 7.7001Z" fill="#054B92"/>
<path fill-rule="evenodd" clip-rule="evenodd" d="M67.9899 10.6502C67.9686 11.0236 67.9383 11.3149 67.9383 11.6063C67.9383 12.6109 67.9079 13.6156 67.9959 14.6171C68.0081 14.7659 68.0293 14.9146 68.0597 15.0603C68.178 15.64 68.3632 15.8008 68.9702 15.8433C69.1129 15.8433 69.2737 15.7948 69.2737 16.0467C69.2737 16.2986 69.0946 16.2015 68.9702 16.2015H65.5011C65.3705 16.2015 65.2279 16.2531 65.234 16.0194C65.24 15.7857 65.3493 15.8464 65.4737 15.8373C66.1445 15.7917 66.3327 15.6036 66.445 14.948C66.53 14.2438 66.5603 13.5336 66.533 12.8234C66.533 10.6988 66.533 8.60456 66.5057 6.49515C66.4996 6.27055 66.4814 6.04899 66.445 5.82742C66.3539 5.2204 66.1657 5.03525 65.5618 4.97455C65.4282 4.97455 65.2886 4.99883 65.2977 4.77727C65.3068 4.5557 65.4555 4.61034 65.6012 4.61641C66.6939 4.6589 67.7865 4.6589 68.8791 4.61641C68.9975 4.61641 69.128 4.5557 69.1493 4.75906C69.1705 4.96241 69.0643 4.96545 68.9065 4.98062C68.3207 5.03829 68.1538 5.18398 68.0597 5.77583C67.9595 6.54978 67.9261 7.33284 67.9534 8.11287V9.7397C68.0445 9.78523 68.0839 9.7397 68.1204 9.68203C69.1432 8.46798 70.1691 7.28732 71.1858 6.08237C71.3376 5.89116 71.4772 5.68781 71.5986 5.47535C71.7534 5.21129 71.6745 5.05043 71.368 5.01401C71.3072 4.99883 71.2465 4.98973 71.1828 4.98669C71.0341 4.98669 70.9946 4.9351 70.9946 4.79244C70.9946 4.64979 71.0644 4.60427 71.201 4.61337C72.2542 4.67407 73.3104 4.67407 74.3636 4.61337C74.5002 4.61337 74.5397 4.66497 74.5427 4.78334C74.5457 4.90171 74.5427 4.97759 74.3909 4.98366C73.7991 5.0049 73.4227 5.38733 73.0646 5.791C71.8505 7.16591 70.6365 8.55296 69.4224 9.92788C69.2767 10.0918 69.2707 10.1859 69.4224 10.3528C70.7275 11.8157 72.0144 13.2969 73.3226 14.7568C73.7839 15.2727 74.2331 15.8191 75.0253 15.8464C75.1831 15.8464 75.1376 15.983 75.1406 16.074C75.1437 16.1651 75.0799 16.2106 74.9767 16.2076C74.567 16.2076 74.1572 16.1833 73.7475 16.1833C72.9887 16.1833 72.2299 16.1833 71.4742 16.2045C71.3588 16.2045 71.2283 16.2652 71.2192 16.0497C71.2101 15.8342 71.3194 15.8524 71.4711 15.8403C72.0509 15.7948 72.1298 15.6339 71.7747 15.1513C71.0007 14.1012 70.1144 13.1421 69.2798 12.1435C68.8579 11.6609 68.4482 11.1875 67.9899 10.6502Z" fill="#054B92"/>
<path fill-rule="evenodd" clip-rule="evenodd" d="M137.021 16.2045H133.816C133.697 16.2045 133.539 16.2774 133.536 16.0376C133.533 15.7978 133.67 15.8525 133.804 15.8403C134.21 15.8676 134.565 15.558 134.59 15.1513C134.59 15.1392 134.59 15.1271 134.59 15.1119C134.653 14.7204 134.687 14.3228 134.684 13.9252C134.705 11.4333 134.723 8.94147 134.669 6.4466C134.662 6.20075 134.638 5.95187 134.596 5.70906C134.52 5.2113 134.359 5.05044 133.852 4.9867C133.694 4.96849 133.594 4.95939 133.612 4.7621C133.631 4.56482 133.77 4.61035 133.885 4.61035C134.842 4.62552 135.795 4.65588 136.751 4.65588C137.858 4.65588 138.963 4.63159 140.068 4.60428C140.305 4.60428 140.387 4.64374 140.372 4.90779C140.314 5.58462 140.302 6.26753 140.271 6.9474C140.271 7.04755 140.314 7.1811 140.126 7.18717C139.938 7.19324 139.919 7.09005 139.91 6.9565C139.904 6.81992 139.889 6.68334 139.868 6.54979C139.834 6.11577 139.47 5.78494 139.036 5.78798C138.126 5.7121 137.215 5.75763 136.304 5.74852C136.141 5.74852 136.092 5.81529 136.092 5.97009V9.50904C136.092 9.67597 136.159 9.71847 136.314 9.71847C137.157 9.71847 138.004 9.71847 138.845 9.65776C139.17 9.67597 139.458 9.44834 139.522 9.12965C139.522 9.02342 139.61 8.93844 139.716 8.94147C139.728 8.94147 139.737 8.94147 139.749 8.94451C139.938 8.94451 139.886 9.0902 139.877 9.19035C139.822 9.9461 139.822 10.7018 139.877 11.4576C139.877 11.5547 139.938 11.6913 139.749 11.7065C139.561 11.7216 139.549 11.6397 139.531 11.5153C139.494 11.1116 139.136 10.8141 138.73 10.8536C138.727 10.8536 138.723 10.8536 138.72 10.8536C137.913 10.8324 137.106 10.8536 136.292 10.8324C136.125 10.8324 136.083 10.8991 136.083 11.057V14.6293C136.062 14.8205 136.198 14.9935 136.389 15.0148C136.42 15.0178 136.45 15.0148 136.481 15.0148H139.212C139.801 14.9935 140.047 14.7507 140.183 14.174C140.211 14.0739 140.232 13.9737 140.244 13.8705C140.244 13.737 140.329 13.7127 140.444 13.7188C140.56 13.7248 140.599 13.8129 140.596 13.9221C140.56 14.6263 140.52 15.3334 140.499 16.0467C140.499 16.2834 140.344 16.2136 140.22 16.2136L137.018 16.2045H137.021Z" fill="#054B92"/>
<path fill-rule="evenodd" clip-rule="evenodd" d="M142.22 15.2606V13.4395C142.22 13.3242 142.18 13.1876 142.384 13.1724C142.587 13.1573 142.578 13.3029 142.59 13.4365C142.672 14.2196 142.954 14.8812 143.804 15.0755C144.742 15.2909 145.65 15.2211 146.336 14.4381C146.885 13.8098 146.815 12.7323 146.196 12.0434C145.677 11.4637 145 11.0812 144.375 10.6502C143.901 10.3528 143.47 9.99466 143.097 9.57884C142.347 8.74418 142.129 7.56048 142.536 6.51337C142.936 5.39644 143.822 4.81673 144.964 4.60427C145.814 4.47073 146.682 4.53143 147.507 4.77424C147.638 4.80763 147.756 4.83191 147.747 5.03223C147.707 5.74852 147.683 6.46784 147.662 7.18717C147.662 7.32375 147.622 7.39052 147.474 7.39659C147.325 7.40266 147.307 7.31161 147.298 7.18717C147.194 6.02168 146.418 5.48446 145.216 5.74244C143.877 6.02775 143.358 7.39052 144.162 8.50441C144.545 8.96271 145 9.35424 145.51 9.66383C146.114 10.0402 146.682 10.4712 147.207 10.9538C148.117 11.8157 148.409 13.1482 147.941 14.3136C147.492 15.5611 146.493 16.1165 145.243 16.2895C144.387 16.3927 143.522 16.3138 142.699 16.0619C142.108 15.8889 142.111 15.8858 142.22 15.2606Z" fill="#054B92"/>
<path fill-rule="evenodd" clip-rule="evenodd" d="M82.2216 16.2045H80.5097C80.3823 16.2045 80.2335 16.2592 80.2366 16.0254C80.2396 15.7917 80.355 15.8524 80.4824 15.8433C81.1532 15.7887 81.3201 15.6187 81.4415 14.9328C81.5113 14.4654 81.5417 13.9949 81.5265 13.5245C81.5265 11.1935 81.5265 8.86255 81.5053 6.52854C81.4992 6.26752 81.4749 6.00953 81.4294 5.75458C81.3383 5.20826 81.1471 5.03829 80.6008 4.97455C80.4733 4.95938 80.2821 5.05043 80.2973 4.78638C80.3125 4.52232 80.5158 4.61944 80.6494 4.62248C81.7268 4.65283 82.8073 4.66194 83.8878 4.62248C84.0092 4.62248 84.1367 4.57088 84.1549 4.7712C84.1731 4.97152 84.0548 4.97152 83.9061 4.98366C83.299 5.0474 83.1685 5.17791 83.0501 5.76976C82.953 6.37071 82.9196 6.98077 82.9439 7.59083C82.9439 9.86111 82.8863 12.1435 82.9864 14.4017C82.9925 14.5747 83.0107 14.7477 83.038 14.9176C83.1685 15.6491 83.3172 15.7887 84.0548 15.8433C84.2096 15.8433 84.2733 15.8828 84.2672 16.0528C84.2612 16.2227 84.1731 16.2136 84.0548 16.2136C83.4386 16.2015 82.8316 16.2045 82.2216 16.2045Z" fill="#054B92"/>
<path fill-rule="evenodd" clip-rule="evenodd" d="M47.2994 23.4555V20.5933C47.2994 20.2898 47.3874 20.22 47.6727 20.2322C48.2069 20.2534 48.2069 20.2322 48.2069 20.7603V24.4813C48.2069 24.712 48.1614 24.803 47.9034 24.803C47.0536 24.803 47.0566 24.803 46.6681 24.0443C46.2432 23.2126 45.8152 22.381 45.3175 21.5646V24.3356C45.3175 24.4844 45.4146 24.7181 45.2386 24.7666C44.9957 24.8091 44.7438 24.8091 44.501 24.7666C44.3917 24.7666 44.4282 24.624 44.4282 24.5451V20.4507C44.4282 20.2686 44.4919 20.2018 44.6649 20.2261C44.6892 20.2291 44.7135 20.2291 44.7378 20.2261C45.3691 20.0925 45.7151 20.3536 45.967 20.9454C46.3342 21.8043 46.8047 22.6178 47.2296 23.4555H47.2994Z" fill="#054B92"/>
<path fill-rule="evenodd" clip-rule="evenodd" d="M128.817 21.5888C128.744 21.7011 128.72 21.8408 128.75 21.9713V24.4995C128.75 24.7211 128.701 24.803 128.462 24.803C128.057 24.803 127.855 24.6007 127.855 24.196V20.5873C127.855 20.2837 127.955 20.2534 128.228 20.217C128.817 20.1441 129.139 20.3535 129.369 20.909C129.767 21.7952 130.222 22.6511 130.738 23.4737V20.4932C130.738 20.3111 130.771 20.2352 130.978 20.2321C131.639 20.2321 131.636 20.2079 131.636 20.8392V24.451C131.636 24.6968 131.591 24.7545 131.333 24.797C130.726 24.8637 130.368 24.6998 130.119 24.0959C129.815 23.3371 129.393 22.6329 129.02 21.9045C128.944 21.8104 128.884 21.7102 128.817 21.5888Z" fill="#054B92"/>
<path fill-rule="evenodd" clip-rule="evenodd" d="M144.53 21.5706V24.4327C144.53 24.7362 144.457 24.8151 144.162 24.803C143.628 24.7787 143.625 24.803 143.625 24.2719V20.5508C143.625 20.3201 143.677 20.2473 143.929 20.226C144.56 20.1502 144.927 20.3414 145.185 20.9696C145.546 21.8468 146.032 22.6693 146.512 23.6041V20.5326C146.512 20.3232 146.539 20.2291 146.788 20.2291C147.205 20.2291 147.413 20.4314 147.413 20.8361V24.4449C147.413 24.6877 147.383 24.7909 147.11 24.7878C146.263 24.7878 146.266 24.7878 145.877 24.023C145.455 23.1883 145.024 22.3597 144.599 21.5251L144.53 21.5706Z" fill="#054B92"/>
<path fill-rule="evenodd" clip-rule="evenodd" d="M68.0748 23.507V20.5357C68.0748 20.2868 68.1477 20.1988 68.3784 20.2321H68.4148C68.783 20.2321 68.9672 20.4102 68.9672 20.7663V24.4874C68.9672 24.7363 68.8943 24.7909 68.6637 24.7909C67.8169 24.7909 67.8199 24.7909 67.4284 24.0321C67.0065 23.1975 66.5785 22.3658 66.0717 21.5494V24.281C66.0717 24.797 66.0717 24.7788 65.5709 24.8C65.2673 24.8 65.1642 24.7484 65.1702 24.4237C65.1884 23.1459 65.1702 21.8681 65.1702 20.5903C65.1702 20.3293 65.2218 20.2625 65.5041 20.223C66.1445 20.135 66.4784 20.3778 66.7181 20.9636C67.0945 21.8347 67.5649 22.6663 67.9959 23.5162C68.0232 23.5101 68.0475 23.507 68.0748 23.507Z" fill="#054B92"/>
<path fill-rule="evenodd" clip-rule="evenodd" d="M121.997 24.7939H120.922C120.749 24.7939 120.683 24.6877 120.601 24.5815C120.139 23.9745 119.69 23.3917 119.15 22.7088C119.15 23.3644 119.135 23.9229 119.15 24.4631C119.15 24.7211 119.086 24.8031 118.822 24.797C118.405 24.797 118.197 24.5876 118.197 24.1687V20.5569C118.197 20.2959 118.27 20.223 118.528 20.2291C118.943 20.2291 119.15 20.4385 119.15 20.8574V22.1504C119.514 21.7679 119.851 21.3612 120.164 20.9363C120.488 20.3353 121.205 20.0592 121.848 20.2898C121.702 20.5114 121.533 20.7147 121.341 20.8968C120.974 21.3339 120.598 21.7649 120.212 22.1837C120.103 22.2657 120.082 22.4235 120.164 22.5328C120.179 22.551 120.194 22.5692 120.212 22.5813C120.801 23.2916 121.36 24.0079 121.997 24.7939Z" fill="#054B92"/>
<path fill-rule="evenodd" clip-rule="evenodd" d="M50.7594 22.1443C51.236 21.5828 51.67 21.1093 52.0524 20.5994C52.2254 20.3232 52.5471 20.1805 52.8658 20.2352C53.0601 20.2564 53.2543 20.2352 53.5244 20.2352C52.9447 20.8999 52.4227 21.5221 51.8703 22.12C51.6761 22.3324 51.6943 22.4569 51.8703 22.6633C52.4379 23.3371 52.9842 24.026 53.5396 24.715C52.9963 24.9639 52.3529 24.797 52.0008 24.3144L50.8353 22.7968C50.7048 22.8788 50.7686 23.0002 50.7686 23.1003V24.1444C50.7686 24.7818 50.5713 24.9275 49.94 24.7848C49.7882 24.7514 49.8125 24.6604 49.8125 24.5663V20.4355C49.8125 20.2777 49.858 20.2321 50.0219 20.22C50.7716 20.1775 50.7716 20.1714 50.7716 20.9029L50.7594 22.1443Z" fill="#054B92"/>
<path fill-rule="evenodd" clip-rule="evenodd" d="M106.348 21.9712V23.0851C106.381 24.542 105.486 24.9062 104.393 24.888C104.22 24.888 104.047 24.8668 103.877 24.8334C103.137 24.7484 102.584 24.111 102.612 23.3644C102.59 22.3962 102.612 21.428 102.612 20.4628C102.612 20.2807 102.669 20.2412 102.842 20.2352C103.549 20.2078 103.543 20.2018 103.552 20.8877C103.552 21.6799 103.507 22.4751 103.583 23.2672C103.574 23.68 103.865 24.0382 104.269 24.1201C104.727 24.2567 105.21 23.9987 105.346 23.5404C105.367 23.4706 105.38 23.4008 105.383 23.331C105.443 22.639 105.462 21.9439 105.434 21.2519V20.8422C105.434 20.2352 105.595 20.1107 106.22 20.2352C106.399 20.2685 106.354 20.3839 106.354 20.484C106.348 20.9788 106.348 21.4735 106.348 21.9712Z" fill="#054B92"/>
<path fill-rule="evenodd" clip-rule="evenodd" d="M61.173 22.4812V20.5083C61.173 20.2989 61.2276 20.2291 61.4431 20.2352C62.1746 20.2352 62.9091 20.2564 63.6405 20.2352C63.9592 20.2352 63.9076 20.4112 63.8985 20.5872C63.8894 20.7633 64.0017 21.003 63.6466 20.9848C63.2126 20.9606 62.7755 20.9848 62.3415 20.9848C62.1654 20.9848 62.1139 21.0364 62.1078 21.2125C62.0653 22.0744 62.0592 22.0745 62.903 22.0745C63.0638 22.0836 63.2247 22.0836 63.3856 22.0745C63.6709 22.0411 63.7589 22.1352 63.765 22.4356C63.771 22.7361 63.6739 22.8848 63.3491 22.8332C63.249 22.8241 63.1458 22.8241 63.0456 22.8332C62.0562 22.8332 62.0623 22.8332 62.0987 23.8409C62.0987 24.0321 62.1503 24.1019 62.3476 24.0958H63.6527C64.0199 24.0958 63.8682 24.3447 63.8894 24.5056C63.9106 24.6664 63.9197 24.8364 63.6405 24.8303C62.906 24.8091 62.1746 24.8121 61.4401 24.8303C61.1881 24.8303 61.1608 24.7271 61.1639 24.5268C61.179 23.8227 61.173 23.1519 61.173 22.4812Z" fill="#054B92"/>
<path fill-rule="evenodd" clip-rule="evenodd" d="M149.028 22.5206V20.5114C149.028 20.311 149.07 20.2291 149.292 20.2321C150.023 20.2473 150.758 20.2564 151.489 20.2321C151.835 20.2321 151.747 20.4325 151.756 20.6146C151.765 20.7967 151.793 21.0031 151.453 20.9818C151.034 20.9515 150.612 20.9818 150.187 20.9818C150.023 20.9818 149.953 21.0122 149.944 21.2003C149.902 22.0714 149.893 22.0714 150.77 22.0714H151.104C151.629 22.0714 151.617 22.0714 151.598 22.6026C151.598 22.7938 151.517 22.8302 151.353 22.8272H150.196C150.002 22.8272 149.953 22.8879 149.947 23.0791C149.938 24.0625 149.917 24.0625 150.94 24.0625H151.31C151.75 24.0625 151.881 24.2506 151.765 24.6695C151.726 24.8182 151.623 24.7848 151.535 24.7848H149.261C149.052 24.7848 149.025 24.6877 149.025 24.5147C149.028 23.8591 149.028 23.1883 149.028 22.5206Z" fill="#054B92"/>
<path fill-rule="evenodd" clip-rule="evenodd" d="M94.5836 22.5085V20.5356C94.5836 20.3232 94.614 20.2321 94.8629 20.2321C95.5822 20.2503 96.3046 20.2564 97.0239 20.2321C97.3608 20.2321 97.294 20.4173 97.3031 20.6085C97.3122 20.7997 97.3304 21 96.9996 20.9788C96.5777 20.9514 96.1558 20.9788 95.7339 20.9788C95.5458 20.9788 95.4972 21.0486 95.5093 21.2185C95.5245 21.4219 95.5245 21.6222 95.5093 21.8256C95.4911 22.0502 95.5913 22.0957 95.7886 22.0896C96.1376 22.0896 96.4867 22.1078 96.8327 22.0896C97.1787 22.0714 97.1362 22.2596 97.1362 22.4781C97.1362 22.6966 97.1271 22.8484 96.8236 22.818C96.52 22.7877 96.1255 22.818 95.7795 22.818C95.5609 22.818 95.5154 22.8909 95.5124 23.0942C95.4942 24.0624 95.4881 24.0624 96.4836 24.0624C96.6202 24.0715 96.7568 24.0715 96.8934 24.0624C97.2363 24.0108 97.3426 24.1414 97.3213 24.4843C97.3061 24.718 97.2606 24.7878 97.0178 24.7878C96.3106 24.7696 95.6004 24.7696 94.8932 24.7878C94.6352 24.7878 94.5897 24.7029 94.5897 24.4692C94.5897 23.8257 94.5836 23.1671 94.5836 22.5085Z" fill="#054B92"/>
<path fill-rule="evenodd" clip-rule="evenodd" d="M57.0634 23.8864C57.3426 24.0169 57.6401 24.0989 57.9436 24.1353C58.1045 24.1414 58.2653 24.1292 58.4231 24.0958C58.6599 24.0534 58.842 23.8712 58.8845 23.6345C58.9118 23.3887 58.7631 23.158 58.5263 23.0851C58.2835 22.9637 58.0255 22.8727 57.7767 22.7634C57.0786 22.4599 56.7933 21.9682 56.9056 21.3035C56.9997 20.6479 57.5642 20.1654 58.2259 20.1684C58.5961 20.138 58.9725 20.1593 59.3367 20.2382C59.5279 20.2746 59.5977 20.3444 59.5765 20.5417C59.5279 21.0364 59.5401 21.0364 59.0393 20.9241C58.8329 20.8756 58.6204 20.8665 58.411 20.8938C58.1409 20.912 57.9193 21.1154 57.8768 21.3824C57.8161 21.6647 57.9922 21.8256 58.2168 21.9318C58.4413 22.038 58.7418 22.1473 59.0028 22.2626C59.6858 22.5661 59.9528 23.0427 59.8527 23.7407C59.7434 24.3508 59.2305 24.803 58.6113 24.8364C58.1803 24.885 57.7463 24.8698 57.3214 24.7879C57.0179 24.7363 56.9116 24.6209 56.9997 24.3235C57.0331 24.1808 57.0543 24.0321 57.0634 23.8864Z" fill="#054B92"/>
<path fill-rule="evenodd" clip-rule="evenodd" d="M153.25 23.8834C153.602 24.0655 153.996 24.1535 154.391 24.1353C154.694 24.0989 154.998 24.0018 155.055 23.6467C155.113 23.2915 154.855 23.1428 154.591 23.0184C154.376 22.9182 154.151 22.8484 153.936 22.7513C153.313 22.5479 152.952 21.9075 153.098 21.2702C153.201 20.6571 153.717 20.2018 154.336 20.1745C154.706 20.1411 155.08 20.1563 155.447 20.22C155.751 20.2655 155.823 20.39 155.751 20.6662C155.717 20.7936 155.705 20.9272 155.681 21.0729C155.362 20.9484 155.022 20.8908 154.682 20.8999C154.388 20.8938 154.133 21.0971 154.075 21.3855C154.014 21.7072 154.212 21.8681 154.47 21.9773C154.728 22.0866 154.952 22.1686 155.192 22.2808C155.854 22.5844 156.136 23.0487 156.051 23.6831C155.996 24.3235 155.477 24.8212 154.837 24.8516C154.406 24.9062 153.969 24.8941 153.541 24.8182C153.201 24.7666 153.11 24.6088 153.18 24.2992C153.21 24.1748 153.222 24.0625 153.25 23.8834Z" fill="#054B92"/>
<path fill-rule="evenodd" clip-rule="evenodd" d="M71.2678 22.894V21.2216C71.2678 21.0243 71.2041 20.9606 71.0098 20.9697H70.1934C69.8716 20.9909 69.9445 20.7694 69.9475 20.5994C69.9505 20.4294 69.8534 20.223 70.1843 20.2261C71.2132 20.2413 72.2451 20.2413 73.274 20.2261C73.5775 20.2261 73.5047 20.4173 73.4956 20.5721C73.4865 20.7269 73.6139 20.9818 73.277 20.9636C73.2285 20.9575 73.1769 20.9575 73.1283 20.9636C72.8248 20.9909 72.4333 20.827 72.236 21.0334C72.0387 21.2398 72.1874 21.601 72.1844 21.8924V24.457C72.1844 24.712 72.1298 24.8 71.8627 24.7939C71.458 24.7939 71.2557 24.5916 71.2557 24.1869L71.2678 22.894Z" fill="#054B92"/>
<path fill-rule="evenodd" clip-rule="evenodd" d="M84.1428 22.5054V20.5326C84.1428 20.3171 84.1822 20.2291 84.4281 20.2291C84.8672 20.2291 85.0867 20.4486 85.0867 20.8877V23.0123C85.0867 23.3583 84.935 23.8288 85.1535 24.0078C85.372 24.1869 85.8182 24.0625 86.1642 24.0716H86.6103C86.9624 24.0442 86.8471 24.3022 86.8623 24.4752C86.8774 24.6482 86.8865 24.8091 86.6103 24.803C85.8758 24.7848 85.1413 24.803 84.4099 24.803C84.1853 24.803 84.1428 24.718 84.1458 24.5208C84.1458 23.847 84.1428 23.1762 84.1428 22.5054Z" fill="#054B92"/>
<path fill-rule="evenodd" clip-rule="evenodd" d="M111.999 22.5115V20.5448C111.999 20.308 112.051 20.2412 112.303 20.2412C112.728 20.2412 112.94 20.4567 112.94 20.8877V23.7863C112.94 24.0048 112.995 24.0898 113.244 24.0898C113.65 24.0746 114.06 24.0898 114.458 24.0898C114.816 24.0898 114.688 24.3296 114.703 24.4995C114.719 24.6695 114.743 24.8334 114.455 24.8273C113.726 24.8061 112.995 24.8273 112.263 24.8273C112.036 24.8273 112.002 24.7393 112.005 24.5451C111.999 23.85 111.999 23.1792 111.999 22.5115Z" fill="#054B92"/>
<path fill-rule="evenodd" clip-rule="evenodd" d="M115.69 22.5176V20.5448C115.69 20.311 115.745 20.2412 115.993 20.2412C116.414 20.2412 116.625 20.4557 116.625 20.8847V24.457C116.625 24.7181 116.585 24.8212 116.288 24.8121C115.681 24.7909 115.681 24.8121 115.681 24.2051L115.69 22.5176Z" fill="#054B92"/>
<path fill-rule="evenodd" clip-rule="evenodd" d="M126.31 22.5085V24.4783C126.31 24.712 126.264 24.803 126.006 24.803C125.573 24.803 125.357 24.5886 125.357 24.1596V20.5873C125.357 20.3202 125.405 20.22 125.7 20.2291C126.307 20.2504 126.307 20.2291 126.307 20.8361V22.5085H126.31Z" fill="#054B92"/>
<path fill-rule="evenodd" clip-rule="evenodd" d="M158.327 22.5449V24.4783C158.327 24.7423 158.258 24.8121 157.997 24.8061C157.592 24.8061 157.389 24.6138 157.389 24.2294V20.5448C157.389 20.2959 157.459 20.2412 157.693 20.2412C158.098 20.2412 158.3 20.4436 158.3 20.8483L158.327 22.5449Z" fill="#054B92"/>
<path fill-rule="evenodd" clip-rule="evenodd" d="M64.0624 4.76513C64.0412 4.56177 63.9106 4.61944 63.7923 4.62551C62.7603 4.67407 61.7314 4.668 60.7025 4.62551C60.5811 4.62551 60.4506 4.57088 60.4263 4.7712C60.402 4.97152 60.5417 4.96848 60.6813 4.98366C61.3338 5.04436 61.5402 5.24164 61.6464 5.89419C61.6464 5.97918 61.6647 6.06416 61.6707 6.15218C61.7952 8.24642 61.7163 10.3437 61.7284 12.441V13.2817C61.5766 13.2817 61.5463 13.1815 61.4977 13.1178C59.2244 10.2951 56.8145 7.58476 54.5018 4.79548C54.4016 4.67407 54.3075 4.49197 54.1163 4.57998C53.9251 4.668 54.0465 4.82583 54.0435 4.95027C54.0435 7.89131 54.0252 10.8354 54.0101 13.7734C54.0222 14.2195 53.9888 14.6687 53.9129 15.1088C53.8462 15.4336 53.7612 15.7584 53.3788 15.8342C53.0024 15.9253 52.6109 15.7644 52.4106 15.4336C52.1981 15.1119 52.0221 14.7689 51.8824 14.4108C50.5743 11.2239 49.3876 7.9945 48.131 4.78941C48.0825 4.6589 48.1007 4.45554 47.8579 4.44947C47.6151 4.4434 47.6272 4.64676 47.5756 4.7803C46.4253 7.63939 45.275 10.5015 44.1277 13.3636C43.8788 14.0526 43.5662 14.7143 43.1929 15.3425C43.0502 15.6066 42.7922 15.7887 42.4948 15.8342C42.3613 15.8342 42.2216 15.8342 42.2307 16.0437C42.2398 16.2531 42.4129 16.2015 42.5343 16.2015H45.5148C45.6362 16.2015 45.8183 16.3077 45.8183 16.0345C45.8183 15.7614 45.6392 15.8524 45.5148 15.8433C44.9077 15.7978 44.7772 15.6036 44.929 15.0178C45.1323 14.3409 45.3691 13.6763 45.6453 13.0267C45.6817 12.9053 45.8031 12.8295 45.9275 12.8507H49.5059C49.6638 12.8507 49.7579 12.8841 49.8095 13.0449C50.0341 13.6884 50.3102 14.3136 50.4772 14.9753C50.6441 15.6369 50.547 15.7826 49.8398 15.8403C49.6941 15.8403 49.6122 15.8676 49.6122 16.0437C49.6122 16.2197 49.7457 16.2045 49.8671 16.2045C50.3497 16.2045 50.8353 16.1833 51.3179 16.1833C52.9569 16.1833 54.5958 16.1833 56.2348 16.2015C56.3471 16.2015 56.514 16.2956 56.5383 16.0467C56.5626 15.7978 56.3866 15.8494 56.2348 15.8433C55.7067 15.8099 55.5155 15.6521 55.388 15.127C55.3 14.7386 55.2605 14.344 55.2696 13.9464V7.58779C55.3971 7.73348 55.4487 7.78811 55.4942 7.84578C57.7372 10.6442 60.1471 13.309 62.4568 16.0406C62.5631 16.1681 62.6632 16.3654 62.8696 16.2804C63.076 16.1954 62.9576 15.9951 62.9576 15.8524V7.54834C62.9364 6.914 62.9758 6.28269 63.0821 5.65745C63.1822 5.17183 63.3279 5.05043 63.8257 4.97455C63.9531 4.96544 64.0837 4.97455 64.0624 4.76513ZM49.0962 11.752H49.1023L46.1127 11.749C46.6711 10.2799 47.2084 8.87469 47.7577 7.42693C48.1735 8.57421 48.5772 9.6881 48.9718 10.802C49.0628 11.0448 49.1478 11.2906 49.2419 11.5304C49.3026 11.6852 49.2844 11.752 49.0962 11.752Z" fill="#054B92"/>
<path fill-rule="evenodd" clip-rule="evenodd" d="M163.815 15.8373C163.502 15.8069 163.229 15.6187 163.086 15.3395C162.883 15.0117 162.713 14.6657 162.577 14.3076C161.332 11.1237 160.091 7.9429 158.855 4.75905C158.807 4.63461 158.822 4.45554 158.604 4.45554C158.385 4.45554 158.37 4.63764 158.315 4.77422C157.022 7.97628 155.729 11.1814 154.433 14.3834C154.285 14.7901 154.081 15.1726 153.826 15.5216C153.562 15.8312 153.134 15.9526 152.746 15.8251C152.418 15.7644 152.169 15.4913 152.139 15.1604C152.063 14.8205 152.023 14.4745 152.02 14.1254C152.02 12.0676 151.993 10.0068 151.996 7.94593C151.969 7.24785 151.993 6.54674 152.063 5.85169C152.154 5.24467 152.336 5.03828 152.931 4.98365C153.067 4.98365 153.201 5.00186 153.189 4.78029C153.177 4.55873 153.031 4.61943 152.904 4.6255C151.811 4.66496 150.718 4.66192 149.626 4.6255C149.507 4.6255 149.343 4.52838 149.322 4.76512C149.301 5.00186 149.456 4.97151 149.607 4.98365C150.214 5.04132 150.409 5.22646 150.497 5.83045C150.536 6.10057 150.56 6.3707 150.567 6.64386V13.7187C150.576 14.1649 150.539 14.6111 150.457 15.0512C150.336 15.6582 150.154 15.7978 149.547 15.8433C149.419 15.8433 149.274 15.8008 149.274 16.0315C149.274 16.2622 149.425 16.2045 149.55 16.2045C150.667 16.1863 151.784 16.162 152.973 16.2045C154.033 16.1499 155.162 16.162 156.291 16.2045C156.406 16.2045 156.537 16.2531 156.543 16.0467C156.549 15.8403 156.427 15.8494 156.285 15.8403C155.635 15.8008 155.49 15.6096 155.653 14.9874C155.857 14.3258 156.093 13.6732 156.364 13.0328C156.397 12.9114 156.515 12.8325 156.64 12.8507H160.258C160.355 12.8507 160.452 12.8507 160.497 12.966C160.813 13.6945 161.062 14.4472 161.244 15.2181C161.314 15.6369 161.183 15.7796 160.755 15.8251C160.68 15.8312 160.607 15.8312 160.531 15.8251C160.385 15.8251 160.34 15.8737 160.337 16.0194C160.334 16.1651 160.419 16.1924 160.549 16.1893C161.627 16.1681 162.707 16.1438 163.788 16.1893C163.909 16.1893 164.003 16.1893 164 16.0224C163.997 15.8555 163.964 15.8433 163.815 15.8373ZM156.843 11.7368L158.485 7.42085C159.016 8.88985 159.523 10.3042 160.042 11.7368H156.843Z" fill="#054B92"/>
<path fill-rule="evenodd" clip-rule="evenodd" d="M115.18 4.51016C111.644 4.51016 109.055 7.00504 109.052 10.4196C109.049 13.8341 111.574 16.3623 114.931 16.3654C118.47 16.3654 121.038 13.7976 121.038 10.2526C121.038 6.91702 118.585 4.51016 115.18 4.51016ZM116.646 14.8599C113.714 15.9829 110.7 13.8826 110.624 10.6715C110.585 8.89288 111.158 7.39657 112.7 6.39801C115.432 4.6255 119.171 6.46782 119.46 9.71237C119.478 9.93393 119.487 10.1585 119.502 10.3801C119.484 12.5047 118.409 14.1861 116.646 14.8599Z" fill="#054B92"/>
<path fill-rule="evenodd" clip-rule="evenodd" d="M108.108 9.52118C107.923 7.0263 106.433 5.3327 103.989 4.80459C102.803 4.59517 101.592 4.55268 100.393 4.67105H98.1226C98.0133 4.67105 97.8191 4.57089 97.8191 4.81673C97.8191 5.06258 97.9678 4.9958 98.0953 5.01098C98.7023 5.07775 98.8662 5.23558 98.9572 5.83046C98.9906 6.05203 99.0149 6.27359 99.024 6.49516C99.0878 8.64099 99.0635 10.7899 99.0513 12.9357C99.0786 13.6186 99.0453 14.2985 98.9542 14.9753C98.848 15.5823 98.6325 15.7917 98.0437 15.8403C97.9223 15.8403 97.7644 15.7826 97.7675 16.0194C97.7675 16.2561 97.9223 16.2015 98.0497 16.2015C98.7448 16.2015 99.4398 16.1681 100.135 16.1833C101.051 16.2349 101.974 16.2167 102.888 16.1378C105.012 15.8949 106.633 14.9055 107.568 12.9296C108.044 11.8613 108.23 10.6836 108.108 9.52118ZM106.066 12.6838C105.319 14.2013 104.011 14.8782 102.381 15.0178C101.923 15.0451 101.461 15.0451 101.003 15.0178C100.523 14.9935 100.457 14.9055 100.457 14.4259V6.19771C100.457 5.92152 100.536 5.8426 100.803 5.82439C101.743 5.73637 102.69 5.80011 103.61 6.01257C104.927 6.29484 105.987 7.27518 106.366 8.56815C106.827 9.92485 106.718 11.409 106.066 12.6838Z" fill="#054B92"/>
<path fill-rule="evenodd" clip-rule="evenodd" d="M42.3855 11.8552C42.2247 11.491 41.991 11.1632 41.6996 10.893H41.6935C41.2534 10.5319 40.7314 10.283 40.176 10.1585C41.4173 9.67596 42.1033 8.76845 42.1154 7.62724C42.1306 5.9215 41.1442 4.84403 39.4384 4.668C38.1242 4.52838 36.81 4.71959 35.4928 4.668C35.3714 4.668 35.2682 4.668 35.2712 4.83796C35.2742 5.00793 35.3987 4.97758 35.5079 4.99276C36.0482 5.0656 36.206 5.21432 36.291 5.76064C36.3274 5.96703 36.3487 6.17949 36.3547 6.38891C36.4245 8.65919 36.3881 10.9264 36.3851 13.1967C36.4094 13.8159 36.376 14.4381 36.2849 15.0512C36.1817 15.6096 35.9814 15.8008 35.429 15.8524C35.3107 15.8524 35.1437 15.7887 35.1498 16.0285C35.1559 16.2682 35.3349 16.2106 35.4533 16.2106C36.5702 16.2106 37.6872 16.2288 38.7919 16.2106C39.5143 16.2197 40.2276 16.0649 40.8831 15.7614C42.3764 15.0967 43.0502 13.3485 42.3855 11.8552ZM37.7661 6.0338C37.7661 5.82741 37.8419 5.75154 38.0241 5.73333C38.4672 5.68476 38.9164 5.71208 39.3504 5.82134C40.0758 5.98828 40.613 6.59834 40.6859 7.33891C40.8407 8.14322 40.4704 8.95663 39.7632 9.36637C39.2229 9.64864 38.6129 9.77611 38.0028 9.73059C37.7904 9.73059 37.763 9.62436 37.7661 9.45135V6.0338ZM39.8573 14.866L39.8451 14.8599C39.3261 15.036 38.7768 15.0997 38.2304 15.0421C37.8935 15.0178 37.7448 14.8782 37.757 14.5322C37.7752 13.9616 37.757 13.3909 37.757 12.8203V11.1085C37.757 10.9477 37.757 10.805 37.9816 10.805C38.5825 10.7777 39.1835 10.8475 39.7632 11.0114C40.613 11.2573 41.2049 12.0251 41.2261 12.9084C41.2686 13.7977 40.7071 14.602 39.8573 14.866Z" fill="#054B92"/>
<path fill-rule="evenodd" clip-rule="evenodd" d="M110.096 22.4417C110.737 22.0866 110.949 21.7345 110.861 21.2003C110.794 20.6722 110.345 20.2746 109.811 20.2686C109.204 20.2109 108.57 20.2473 107.95 20.2382C107.78 20.2382 107.783 20.3414 107.783 20.4598V24.5845C107.783 24.6847 107.783 24.8 107.926 24.7909C108.654 24.7605 109.392 24.8971 110.111 24.7029C110.67 24.5724 111.055 24.0625 111.022 23.4888C111.013 22.982 110.715 22.639 110.096 22.4417ZM108.721 21.3855C108.721 21.1042 108.859 20.9666 109.134 20.9727C109.395 20.9333 109.659 21.0243 109.841 21.2155C110.002 21.4401 109.954 21.7527 109.729 21.9136C109.702 21.9348 109.671 21.95 109.641 21.9652C109.516 22.0168 109.383 22.0471 109.246 22.0563C108.721 22.0987 108.721 22.0957 108.721 21.5706V21.3855ZM109.462 24.0412C108.727 24.1596 108.721 24.1535 108.721 23.4342V23.1762C108.721 22.7209 108.636 22.7786 109.137 22.7725C109.726 22.7725 110.023 22.9607 110.063 23.3523C110.102 23.7407 109.902 23.9562 109.462 24.0412Z" fill="#054B92"/>
<path fill-rule="evenodd" clip-rule="evenodd" d="M142.545 21.9956C142.384 21.1184 141.938 20.478 141.042 20.2412C139.352 19.792 138.086 20.7785 138.092 22.5237C138.092 24.4297 139.792 25.489 141.464 24.6331C142.305 24.2021 142.745 23.1125 142.545 21.9956ZM141.367 23.5404C141.173 23.9471 140.748 24.1899 140.299 24.1475C139.865 24.1535 139.47 23.9046 139.285 23.5131C139.133 23.2005 139.057 22.8545 139.066 22.5055C139.057 22.1837 139.124 21.862 139.267 21.5737C139.449 21.1639 139.853 20.8999 140.299 20.8999C140.76 20.8634 141.191 21.1214 141.382 21.5403C141.707 22.1686 141.701 22.9152 141.367 23.5404Z" fill="#054B92"/>
<path fill-rule="evenodd" clip-rule="evenodd" d="M135.169 20.2746C134.587 20.1957 134.004 20.2746 133.421 20.2382C133.221 20.2382 133.245 20.3566 133.245 20.481V24.5299C133.245 24.7059 133.263 24.8061 133.482 24.8C134.001 24.7818 134.523 24.8 135.042 24.7787C136.256 24.6998 136.984 24.0534 137.112 22.9364C137.267 21.5433 136.769 20.484 135.169 20.2746ZM135.212 23.9653C135.154 23.9866 135.096 24.0078 135.036 24.023C134.274 24.2112 134.165 24.1292 134.165 23.3644V21.2125C134.165 21.1032 134.14 20.9879 134.313 20.9727C135.166 20.8938 135.849 21.2398 136.089 22.035C136.353 22.8089 135.971 23.6557 135.212 23.9653Z" fill="#054B92"/>
<path fill-rule="evenodd" clip-rule="evenodd" d="M38.3913 23.4555C38.3731 22.9607 38.0939 22.639 37.4777 22.4448C38.1272 22.0836 38.3306 21.7376 38.2365 21.167C38.1637 20.6631 37.7357 20.2868 37.2258 20.2777C36.5975 20.2139 35.9632 20.2504 35.3289 20.2382C35.1468 20.2382 35.1771 20.3596 35.1771 20.4689V24.5633C35.1771 24.6543 35.1407 24.7939 35.2924 24.7879C36.0573 24.7545 36.8404 24.9214 37.587 24.6695C38.1121 24.5086 38.449 24.0018 38.3913 23.4555ZM36.4245 20.9636C37.0467 20.994 37.3078 21.1275 37.3078 21.513C37.3078 21.8984 37.0437 22.0593 36.461 22.0593C36.2182 22.0593 36.0967 21.8671 36.0967 21.4826C36.1575 21.3035 35.9116 20.9393 36.4245 20.9636ZM36.8009 24.0503L36.81 24.0443C36.3325 24.1131 36.0937 23.8955 36.0937 23.3917C36.0937 22.7149 36.1483 22.6694 36.8252 22.7847C37.2471 22.8575 37.4474 23.0882 37.4322 23.4433C37.417 23.7984 37.2258 23.9805 36.8009 24.0503Z" fill="#054B92"/>
<path fill-rule="evenodd" clip-rule="evenodd" d="M76.8919 22.5449V22.5388C77.5475 22.1837 77.7417 21.8195 77.6264 21.1669C77.5323 20.6419 77.2106 20.3475 76.5004 20.2746C75.9328 20.2169 75.3591 20.2746 74.7885 20.2321C74.5397 20.2321 74.485 20.3019 74.485 20.5356V24.111C74.485 24.8273 74.485 24.8212 75.1983 24.7939C75.3925 24.7939 75.4532 24.7241 75.4472 24.5329V23.3188C75.4472 22.9212 75.6141 22.815 75.9935 22.9607C76.1544 23.0305 76.2758 23.1701 76.3243 23.3401C76.4852 23.7559 76.646 24.1717 76.8039 24.5875C76.8494 24.7089 76.8919 24.8091 77.0558 24.803H77.9663C77.5505 24.0139 77.3987 23.2005 76.8919 22.5449ZM75.7689 22.1807C75.1619 22.208 75.5929 21.7466 75.4107 21.5736C75.5564 21.3581 75.2013 20.9363 75.7598 20.9666C76.3911 20.9879 76.6703 21.1457 76.6703 21.5403C76.6703 21.9348 76.3698 22.1442 75.7689 22.1807Z" fill="#054B92"/>
<path fill-rule="evenodd" clip-rule="evenodd" d="M92.6078 22.5449C93.2421 22.2141 93.4515 21.8377 93.3514 21.2034C93.2694 20.6874 92.9568 20.4082 92.28 20.2929C91.7003 20.2473 91.1145 20.2291 90.5317 20.2443C90.2646 20.2443 90.2039 20.3171 90.207 20.5751V24.1869C90.207 24.8243 90.207 24.8122 90.8656 24.8122C91.0932 24.8122 91.1691 24.7484 91.1691 24.5086C91.1509 24.1141 91.1539 23.7165 91.1691 23.3189C91.1691 23.1884 91.072 22.988 91.2662 22.9364C91.4605 22.8727 91.6729 22.9061 91.8368 23.0275C91.9461 23.1307 92.025 23.2612 92.0675 23.4039C92.2223 23.7954 92.3741 24.1869 92.5228 24.5785C92.5622 24.6847 92.5835 24.8 92.7352 24.797H93.6609C93.2755 24.0139 93.1055 23.2157 92.6078 22.5449ZM91.4726 22.1898L91.4878 22.1837C90.8808 22.2141 91.2875 21.7558 91.1205 21.5767C91.2602 21.3612 90.9111 20.9393 91.4726 20.9697C92.107 20.994 92.3832 21.1457 92.3832 21.5464C92.3832 21.947 92.0796 22.1534 91.4726 22.1898Z" fill="#054B92"/>
<path fill-rule="evenodd" clip-rule="evenodd" d="M163.873 24.4449H163.86C163.399 23.2733 162.938 22.1018 162.479 20.9272C162.209 20.2352 162.212 20.2503 161.475 20.2321C161.268 20.1987 161.071 20.3323 161.026 20.5356C160.54 21.8195 160.036 23.0943 159.535 24.372C159.374 24.7909 159.374 24.8061 159.839 24.7879C160.06 24.7879 160.321 24.9123 160.446 24.5572C160.749 23.7407 160.774 23.7498 161.66 23.7498C162.546 23.7498 162.534 23.7498 162.874 24.5602C162.919 24.6664 162.935 24.8 163.111 24.7939H163.985C163.945 24.6513 163.9 24.5481 163.873 24.4449ZM162.039 23.0305H161.299C161.098 23.0305 161.029 22.982 161.104 22.7756C161.287 22.2839 161.457 21.7861 161.672 21.1821C161.888 21.7891 162.058 22.2869 162.24 22.7786C162.319 22.9941 162.24 23.0366 162.039 23.0305Z" fill="#054B92"/>
<path fill-rule="evenodd" clip-rule="evenodd" d="M81.7026 20.9332C81.4233 20.22 81.4203 20.226 80.6251 20.2351C80.4642 20.2048 80.3094 20.308 80.273 20.4689C80.1334 20.8665 79.9695 21.2519 79.8147 21.6465C79.4141 22.6815 79.0104 23.7164 78.6007 24.7939H79.3412C79.5233 24.7939 79.5962 24.7302 79.6629 24.5663C79.7752 24.2961 79.7753 23.9077 80.0272 23.7862C80.2791 23.6648 80.6099 23.7498 80.9074 23.7498C81.4881 23.7498 81.8837 24.0139 82.0941 24.542C82.1396 24.6543 82.1457 24.7939 82.3187 24.7909H83.2292C82.695 23.4554 82.2003 22.1989 81.7026 20.9332ZM81.3262 23.0366H80.4339C80.2305 23.0366 80.2487 22.9577 80.2973 22.815C80.4855 22.293 80.6676 21.7679 80.877 21.176C81.0925 21.7831 81.2746 22.3142 81.4628 22.8332C81.5174 22.985 81.484 23.0396 81.3262 23.0366Z" fill="#054B92"/>
<path fill-rule="evenodd" clip-rule="evenodd" d="M41.8878 20.5569C41.8392 20.3383 41.6237 20.1957 41.4022 20.2321C40.6919 20.2473 40.6889 20.2321 40.44 20.8816L40.2943 21.2641C39.8421 22.4265 39.3868 23.592 38.9316 24.7575C39.5386 24.8465 39.9493 24.6229 40.1638 24.0867C40.1729 24.0624 40.182 24.0382 40.1881 24.0139C40.2276 23.7893 40.3732 23.7377 40.5887 23.7468C40.9985 23.762 41.4082 23.765 41.8028 23.7468C41.9879 23.7164 42.164 23.8348 42.2004 24.0199C42.5039 24.8364 42.5039 24.8303 43.4144 24.7909C43.4539 24.7848 43.4903 24.7757 43.5267 24.7636C42.9713 23.3431 42.4189 21.953 41.8908 20.5569H41.8878ZM41.6541 23.0305H41.648L40.7557 23.0335C40.5462 23.0335 40.5736 22.9455 40.6252 22.8089C40.8103 22.2899 40.9894 21.7679 41.1988 21.176C41.4143 21.7831 41.6055 22.3263 41.8058 22.8696C41.8605 23.0244 41.7603 23.0305 41.6541 23.0305Z" fill="#054B92"/>
<path fill-rule="evenodd" clip-rule="evenodd" d="M100.384 20.2807C99.8678 20.2352 99.3518 20.2169 98.8328 20.2352C98.6112 20.2352 98.5657 20.308 98.5687 20.5114V22.5176C98.5687 23.1246 98.593 23.7316 98.5687 24.3386C98.5475 24.712 98.6477 24.8121 99.027 24.8121C99.4064 24.8121 99.5582 24.7029 99.5005 24.3204C99.4884 24.1474 99.4884 23.9744 99.5005 23.8014C99.5005 23.3421 99.7322 23.0973 100.196 23.0669H100.268C101.109 22.9789 101.616 22.5054 101.649 21.78C101.68 20.8999 101.306 20.4507 100.384 20.2807ZM100.466 22.1594C100.217 22.3203 99.9133 22.384 99.6189 22.3324C99.4975 22.3324 99.4945 22.2383 99.4945 22.1473V21.6344C99.4914 21.5979 99.4914 21.5585 99.4945 21.5221C99.5491 21.343 99.3548 21.0789 99.631 20.9848C100.001 20.8786 100.393 21.0273 100.602 21.349C100.763 21.6161 100.705 21.9591 100.466 22.1594Z" fill="#054B92"/>
<path fill-rule="evenodd" clip-rule="evenodd" d="M20.3384 21.3885C19.5219 22.29 18.3838 22.8363 17.1697 22.9061C16.6173 22.9638 16.6173 22.9516 16.6173 22.4083V15.3001C16.6173 14.9268 16.505 14.9025 16.1924 14.9693C15.5004 15.1119 14.7962 15.1908 14.0891 15.2121C13.7855 15.2121 13.7491 15.3213 13.7522 15.5793V22.5419C13.7522 22.8454 13.7066 22.9729 13.3485 22.9213C12.5442 22.8545 11.922 22.1838 11.9189 21.3764C11.8795 20.4962 11.8977 19.616 11.8977 18.7328C11.9007 17.1454 11.9038 15.5429 11.9038 13.9434V6.61052C11.9038 6.26755 12.007 6.20685 12.3196 6.21292C13.8371 6.23113 15.3274 6.21292 16.8298 6.2372C18.2259 6.27059 19.3368 7.01723 19.7374 8.12201C20.2018 9.42408 19.8406 10.8749 18.8208 11.8067C18.2593 12.2953 17.6037 12.6717 16.8965 12.9054C16.6598 12.9934 16.593 12.963 16.593 12.6868V7.28735C16.593 6.94439 16.4929 6.87761 16.1772 6.88672C15.47 6.911 14.7598 6.90796 14.0526 6.88672C13.7825 6.88672 13.7248 6.96867 13.7279 7.22058V12.9539C13.7279 13.5094 13.7855 13.4304 13.224 13.4578C13.0814 13.4578 12.8871 13.4001 12.8113 13.5397C12.6686 13.7977 12.5563 14.0739 12.4835 14.3622C12.4471 14.5049 12.6292 14.4503 12.7081 14.4503C13.6399 14.4472 14.5686 14.3744 15.4913 14.2408C15.9678 14.1741 16.4413 14.0769 16.9178 13.995C17.018 13.9646 17.1272 13.9737 17.2213 14.0193C18.7753 14.8114 20.1107 15.8403 20.7451 17.5309C21.2489 18.8724 21.3339 20.2109 20.3384 21.3885Z" fill="#054B92"/>
</g>
<defs>
<clipPath id="clip0_255_5891">
<rect width="164" height="29.38" fill="white"/>
</clipPath>
</defs>
</svg>
