<svg width="180" height="180" viewBox="0 0 180 180" fill="none" xmlns="http://www.w3.org/2000/svg">
<g id="transactions 1">
<g id="Clip path group">
<mask id="mask0_1090_60837" style="mask-type:luminance" maskUnits="userSpaceOnUse" x="16" y="16" width="148" height="148">
<g id="clip0_7548_184924">
<path id="Vector" d="M163.125 16.875H16.875V163.125H163.125V16.875Z" fill="white"/>
</g>
</mask>
<g mask="url(#mask0_1090_60837)">
<g id="Group">
<path id="Vector_2" fill-rule="evenodd" clip-rule="evenodd" d="M117.948 20.9375C135.523 20.3338 163.077 31.3099 163.124 65.8465C163.172 100.383 157.427 100.433 158.344 115.667C159.605 136.64 155.068 159.226 126.773 159.08C113.216 159.009 93.0404 155.844 71.6628 151.467C43.2135 145.641 15.7043 135.417 16.9134 103.428C18.0213 74.12 40.3381 62.0496 58.8301 48.7934C78.7074 34.5443 93.5207 21.776 117.948 20.9375Z" fill="#E4E5E3"/>
<path id="Vector_3" fill-rule="evenodd" clip-rule="evenodd" d="M21.1827 84.7129C41.4748 107.226 125.477 115.29 162.227 86.4618C160.662 101.411 157.662 104.344 158.344 115.669C159.605 136.642 155.068 159.229 126.772 159.082C113.216 159.012 93.0397 155.847 71.6625 151.469C43.2135 145.644 15.7043 135.418 16.9134 103.429C17.185 96.2466 18.7307 90.0985 21.1827 84.7129Z" fill="#BEBFBE"/>
<path id="Vector_4" d="M114.831 49.1777H110.672V61.4414H114.831V49.1777Z" fill="#7B7B7B"/>
<path id="Vector_5" d="M114.831 49.1777H110.672V53.2817H114.831V49.1777Z" fill="#656565"/>
<path id="Vector_6" d="M151.479 80.2734H28.1802V94.2998H151.479V80.2734Z" fill="#D2D2D2"/>
<path id="Vector_7" d="M151.479 80.2734H108.562V94.2998H151.479V80.2734Z" fill="#ACACAC"/>
<path id="Vector_8" fill-rule="evenodd" clip-rule="evenodd" d="M151.478 80.273H76.6567V58.9199H145.914C148.987 58.9199 151.478 61.4122 151.478 64.4857V80.273Z" fill="#ACACAC"/>
<path id="Vector_9" fill-rule="evenodd" clip-rule="evenodd" d="M150.538 80.2741H76.6567V59.8555H145.043C148.078 59.8555 150.538 62.2383 150.538 65.1773V80.2741Z" fill="#9A9A9A"/>
<path id="Vector_10" fill-rule="evenodd" clip-rule="evenodd" d="M84.6689 58.9199C84.6689 58.9199 106.203 71.048 151.478 68.1822V80.273H76.6567V58.9199H84.6689Z" fill="#929292"/>
<path id="Vector_11" d="M151.478 93.6543H28.2041V96.7582H151.478V93.6543Z" fill="#9D9E9D"/>
<path id="Vector_12" d="M151.478 73.2031H76.6567V80.2706H151.478V73.2031Z" fill="#848484"/>
<path id="Vector_13" fill-rule="evenodd" clip-rule="evenodd" d="M28.1893 80.2718H81.9751V61.5391C81.9751 59.7738 81.2738 58.0807 80.0253 56.8319C78.7768 55.5838 77.0841 54.8828 75.3187 54.8828H34.8457C33.0804 54.8828 31.3872 55.5838 30.1387 56.8319C28.8903 58.0807 28.189 59.7735 28.189 61.5391L28.1893 80.2718Z" fill="#CFCFCF"/>
<path id="Vector_14" fill-rule="evenodd" clip-rule="evenodd" d="M29.1396 80.2729H81.1057V62.139C81.1057 60.4302 80.4282 58.7912 79.2222 57.5829C78.0155 56.3741 76.3804 55.6953 74.674 55.6953H35.571C33.8652 55.6953 32.2295 56.3743 31.0233 57.5829C29.817 58.7908 29.1396 60.4302 29.1396 62.139V80.2729Z" fill="#B9B9B9"/>
<path id="Vector_15" d="M70.9424 65.3867H39.5195V73.9883H70.9424V65.3867Z" fill="#9E9E9E"/>
<path id="Vector_16" d="M69.1306 67.5781H41.3301V73.9895H69.1306V67.5781Z" fill="#8E8E8E"/>
<path id="Vector_17" fill-rule="evenodd" clip-rule="evenodd" d="M69.1299 67.5778L70.9411 65.3867V73.9891H69.1299V67.5778Z" fill="#ACACAC"/>
<path id="Vector_18" fill-rule="evenodd" clip-rule="evenodd" d="M41.3307 67.5778L39.5195 65.3867V73.9891H41.3307V67.5778Z" fill="#ACACAC"/>
<path id="Vector_19" d="M64.6917 69.5977H45.771V70.7849H64.6917V69.5977Z" fill="#555655"/>
<path id="Vector_20" fill-rule="evenodd" clip-rule="evenodd" d="M151.478 108.711C151.478 110.267 150.861 111.759 149.76 112.86C148.66 113.96 147.168 114.577 145.612 114.577C124.827 114.577 54.8319 114.577 34.0472 114.577C32.4912 114.577 30.9988 113.96 29.8987 112.86C28.7984 111.759 28.1802 110.267 28.1802 108.711V94.3008H151.478V108.711Z" fill="#E4E5E3"/>
<path id="Vector_21" fill-rule="evenodd" clip-rule="evenodd" d="M28.1802 101.064C32.3514 104.543 42.9053 108.884 69.6065 109.048C108.406 109.286 141.471 110.068 151.478 107.686V108.709C151.478 110.265 150.861 111.757 149.76 112.857C148.66 113.957 147.168 114.576 145.612 114.576C124.827 114.576 54.8319 114.576 34.0472 114.576C32.4912 114.576 30.9988 113.957 29.8987 112.857C28.7984 111.757 28.1802 110.265 28.1802 108.709V101.064Z" fill="#D2D2D2"/>
<path id="Vector_22" fill-rule="evenodd" clip-rule="evenodd" d="M23.5171 127.746V114.576H156.144V139.512C154.826 143.577 152.892 147.261 150.151 150.308H66.3747C48.8276 146.302 32.3156 140.172 23.5171 127.746Z" fill="#9D9E9D"/>
<path id="Vector_23" fill-rule="evenodd" clip-rule="evenodd" d="M23.5171 127.746V114.576C23.5171 114.576 91.9755 137.55 156.144 137.366V139.512C154.826 143.577 152.892 147.261 150.151 150.308H66.3747C48.8276 146.302 32.3156 140.172 23.5171 127.746Z" fill="#9F9F9F"/>
<path id="Vector_24" fill-rule="evenodd" clip-rule="evenodd" d="M28.9209 133.818V118.809H150.737V146.076H51.2147C42.6285 143.119 34.8753 139.234 28.9209 133.818Z" fill="#E4E5E3"/>
<path id="Vector_25" fill-rule="evenodd" clip-rule="evenodd" d="M28.9209 133.818V118.809H39.6576C39.6576 118.809 90.6683 134.358 150.737 135.376V146.076H51.2147C42.6285 143.119 34.8753 139.234 28.9209 133.818Z" fill="#D2D2D2"/>
<path id="Vector_26" d="M89.8299 138.498C92.6797 138.498 94.9909 136.187 94.9909 133.337C94.9909 130.487 92.6797 128.176 89.8299 128.176C86.9794 128.176 84.6689 130.487 84.6689 133.337C84.6689 136.187 86.9794 138.498 89.8299 138.498Z" fill="#C3C3C3"/>
<path id="Vector_27" fill-rule="evenodd" clip-rule="evenodd" d="M89.8292 128.758C92.3564 128.758 94.4077 130.81 94.4077 133.337C94.4077 135.864 92.3564 137.915 89.8292 137.915C87.3013 137.915 85.25 135.864 85.25 133.337C85.25 130.81 87.302 128.758 89.8292 128.758Z" fill="#BEBFBE"/>
<path id="Vector_28" d="M92.7973 132.527H86.8638V134.144H92.7973V132.527Z" fill="#555655"/>
<path id="Vector_29" fill-rule="evenodd" clip-rule="evenodd" d="M135.852 34.937C135.852 33.9778 135.47 33.0577 134.792 32.3793C134.114 31.7009 133.195 31.3203 132.235 31.3203C123.607 31.3203 101.896 31.3203 93.2682 31.3203C92.3091 31.3203 91.389 31.7009 90.7107 32.3793C90.0318 33.0577 89.6509 33.9778 89.6509 34.937C89.6509 38.4603 89.6509 43.7865 89.6509 47.3104C89.6509 48.269 90.0318 49.1891 90.7107 49.8674C91.389 50.5458 92.3091 50.9271 93.2682 50.9271C101.896 50.9271 123.607 50.9271 132.235 50.9271C133.194 50.9271 134.114 50.5458 134.792 49.8674C135.47 49.1891 135.852 48.269 135.852 47.3104C135.852 43.7861 135.852 38.4603 135.852 34.937Z" fill="#D2D2D2"/>
<path id="Vector_30" fill-rule="evenodd" clip-rule="evenodd" d="M133.805 36.0415C133.805 35.2534 133.492 34.4979 132.934 33.9405C132.377 33.3831 131.621 33.0703 130.834 33.0703C123.745 33.0703 102.079 33.0703 94.9905 33.0703C94.2028 33.0703 93.4468 33.3831 92.8895 33.9405C92.3322 34.4979 92.019 35.2534 92.019 36.0415C92.019 38.9356 92.019 43.3111 92.019 46.2058C92.019 46.994 92.3322 47.7495 92.8895 48.3062C93.4468 48.8637 94.2028 49.1764 94.9905 49.1764C102.079 49.1764 123.745 49.1764 130.834 49.1764C131.621 49.1764 132.377 48.8637 132.934 48.3062C133.492 47.7495 133.805 46.994 133.805 46.2058C133.805 43.3114 133.805 38.9356 133.805 36.0415Z" fill="#656565"/>
<path id="Vector_31" fill-rule="evenodd" clip-rule="evenodd" d="M93.7182 33.3574C94.6406 35.9088 98.0483 40.5809 110.627 41.125C122.349 41.6319 130.034 41.4563 133.804 41.2872V46.2072C133.804 46.9952 133.492 47.7508 132.934 48.3075C132.377 48.8649 131.621 49.1777 130.834 49.1777C123.745 49.1777 102.078 49.1777 94.9905 49.1777C94.2021 49.1777 93.4468 48.8649 92.8895 48.3075C92.3322 47.7508 92.019 46.9952 92.019 46.2072C92.019 43.3124 92.019 38.9369 92.019 36.0428C92.019 35.2547 92.3322 34.4992 92.8895 33.9418C93.1322 33.6988 93.413 33.5024 93.7182 33.3574Z" fill="#555655"/>
<path id="Vector_32" d="M116.632 81.127H112.674V83.1934H116.632V81.127Z" fill="#BEBFBE"/>
<path id="Vector_33" fill-rule="evenodd" clip-rule="evenodd" d="M116.632 81.127L117.431 82.5151V84.5815L116.632 83.1934V81.127Z" fill="#D2D2D2"/>
<path id="Vector_34" fill-rule="evenodd" clip-rule="evenodd" d="M112.673 81.127L111.875 82.5151V84.5815L112.673 83.1934V81.127Z" fill="#E4E5E3"/>
<path id="Vector_35" fill-rule="evenodd" clip-rule="evenodd" d="M116.631 83.1934H112.673L111.875 84.5815H117.429L116.631 83.1934Z" fill="#9D9E9D"/>
<path id="Vector_36" d="M116.588 83.8867H112.63V85.9531H116.588V83.8867Z" fill="#BEBFBE"/>
<path id="Vector_37" fill-rule="evenodd" clip-rule="evenodd" d="M116.589 83.8867L117.387 85.2749V87.3413L116.589 85.9531V83.8867Z" fill="#D2D2D2"/>
<path id="Vector_38" fill-rule="evenodd" clip-rule="evenodd" d="M112.631 83.8867L111.833 85.2749V87.342L112.631 85.9531V83.8867Z" fill="#E4E5E3"/>
<path id="Vector_39" fill-rule="evenodd" clip-rule="evenodd" d="M116.59 85.9531H112.631L111.833 87.3413H117.388L116.59 85.9531Z" fill="#9D9E9D"/>
<path id="Vector_40" d="M116.588 86.8594H112.63V88.9258H116.588V86.8594Z" fill="#BEBFBE"/>
<path id="Vector_41" fill-rule="evenodd" clip-rule="evenodd" d="M116.589 86.8594L117.387 88.2483V90.3147L116.589 88.9258V86.8594Z" fill="#D2D2D2"/>
<path id="Vector_42" fill-rule="evenodd" clip-rule="evenodd" d="M112.631 86.8594L111.833 88.2483V90.3147L112.631 88.9265V86.8594Z" fill="#E4E5E3"/>
<path id="Vector_43" fill-rule="evenodd" clip-rule="evenodd" d="M116.59 88.9258H112.631L111.833 90.3147H117.388L116.59 88.9258Z" fill="#9D9E9D"/>
<path id="Vector_44" d="M122.7 81.1387H118.742V83.2058H122.7V81.1387Z" fill="#BEBFBE"/>
<path id="Vector_45" fill-rule="evenodd" clip-rule="evenodd" d="M122.7 81.1387L123.498 82.5276V84.594L122.7 83.2058V81.1387Z" fill="#D2D2D2"/>
<path id="Vector_46" fill-rule="evenodd" clip-rule="evenodd" d="M118.741 81.1387L117.943 82.5276V84.5947L118.741 83.2058V81.1387Z" fill="#E4E5E3"/>
<path id="Vector_47" fill-rule="evenodd" clip-rule="evenodd" d="M122.698 83.2031H118.741L117.943 84.592H123.497L122.698 83.2031Z" fill="#9D9E9D"/>
<path id="Vector_48" d="M122.656 83.8965H118.698V85.9636H122.656V83.8965Z" fill="#BEBFBE"/>
<path id="Vector_49" fill-rule="evenodd" clip-rule="evenodd" d="M122.656 83.8965L123.454 85.2854V87.3518L122.656 85.9636V83.8965Z" fill="#D2D2D2"/>
<path id="Vector_50" fill-rule="evenodd" clip-rule="evenodd" d="M118.698 83.8965L117.9 85.2854V87.3525L118.698 85.9636V83.8965Z" fill="#E4E5E3"/>
<path id="Vector_51" fill-rule="evenodd" clip-rule="evenodd" d="M122.657 85.9629H118.698L117.9 87.351H123.454L122.657 85.9629Z" fill="#9D9E9D"/>
<path id="Vector_52" d="M122.656 86.8691H118.698V88.9363H122.656V86.8691Z" fill="#BEBFBE"/>
<path id="Vector_53" fill-rule="evenodd" clip-rule="evenodd" d="M122.656 86.8691L123.454 88.258V90.3251L122.656 88.9363V86.8691Z" fill="#D2D2D2"/>
<path id="Vector_54" fill-rule="evenodd" clip-rule="evenodd" d="M118.698 86.8691L117.9 88.258V90.3244L118.698 88.9355V86.8691Z" fill="#E4E5E3"/>
<path id="Vector_55" fill-rule="evenodd" clip-rule="evenodd" d="M122.657 88.9355H118.698L117.9 90.3244H123.454L122.657 88.9355Z" fill="#9D9E9D"/>
<path id="Vector_56" d="M128.773 81.1484H124.815V83.2148H128.773V81.1484Z" fill="#BEBFBE"/>
<path id="Vector_57" fill-rule="evenodd" clip-rule="evenodd" d="M128.772 81.1484L129.571 82.5366V84.603L128.772 83.2148V81.1484Z" fill="#D2D2D2"/>
<path id="Vector_58" fill-rule="evenodd" clip-rule="evenodd" d="M124.815 81.1484L124.016 82.5366V84.6037L124.815 83.2148V81.1484Z" fill="#E4E5E3"/>
<path id="Vector_59" fill-rule="evenodd" clip-rule="evenodd" d="M128.772 83.2168H124.815L124.016 84.605H129.571L128.772 83.2168Z" fill="#9D9E9D"/>
<path id="Vector_60" d="M128.73 83.9082H124.771V85.9746H128.73V83.9082Z" fill="#BEBFBE"/>
<path id="Vector_61" fill-rule="evenodd" clip-rule="evenodd" d="M128.729 83.9082L129.527 85.2964V87.3642L128.729 85.9746V83.9082Z" fill="#D2D2D2"/>
<path id="Vector_62" fill-rule="evenodd" clip-rule="evenodd" d="M124.771 83.9082L123.974 85.2971V87.3642L124.771 85.9746V83.9082Z" fill="#E4E5E3"/>
<path id="Vector_63" fill-rule="evenodd" clip-rule="evenodd" d="M128.729 85.9766H124.771L123.974 87.3654H129.527L128.729 85.9766Z" fill="#9D9E9D"/>
<path id="Vector_64" d="M128.73 86.8828H124.771V88.9492H128.73V86.8828Z" fill="#BEBFBE"/>
<path id="Vector_65" fill-rule="evenodd" clip-rule="evenodd" d="M128.729 86.8789L129.527 88.2678V90.3342L128.729 88.946V86.8789Z" fill="#D2D2D2"/>
<path id="Vector_66" fill-rule="evenodd" clip-rule="evenodd" d="M124.771 86.8828L123.974 88.271V90.3374L124.771 88.9492V86.8828Z" fill="#E4E5E3"/>
<path id="Vector_67" fill-rule="evenodd" clip-rule="evenodd" d="M128.729 88.9492H124.771L123.974 90.3374H129.527L128.729 88.9492Z" fill="#9D9E9D"/>
<path id="Vector_68" d="M136.68 81.127H132.722V83.1934H136.68V81.127Z" fill="#BEBFBE"/>
<path id="Vector_69" fill-rule="evenodd" clip-rule="evenodd" d="M136.68 81.127L137.479 82.5151V84.5815L136.68 83.1934V81.127Z" fill="#D2D2D2"/>
<path id="Vector_70" fill-rule="evenodd" clip-rule="evenodd" d="M132.722 81.127L131.924 82.5151V84.5815L132.722 83.1934V81.127Z" fill="#E4E5E3"/>
<path id="Vector_71" fill-rule="evenodd" clip-rule="evenodd" d="M136.68 83.1934H132.722L131.924 84.5815H137.479L136.68 83.1934Z" fill="#9D9E9D"/>
<path id="Vector_72" d="M136.636 83.8867H132.678V85.9531H136.636V83.8867Z" fill="#BEBFBE"/>
<path id="Vector_73" fill-rule="evenodd" clip-rule="evenodd" d="M136.637 83.8867L137.435 85.2749V87.3413L136.637 85.9531V83.8867Z" fill="#D2D2D2"/>
<path id="Vector_74" fill-rule="evenodd" clip-rule="evenodd" d="M132.679 83.8867L131.881 85.2749V87.342L132.679 85.9531V83.8867Z" fill="#E4E5E3"/>
<path id="Vector_75" fill-rule="evenodd" clip-rule="evenodd" d="M136.638 85.9531H132.679L131.881 87.3413H137.435L136.638 85.9531Z" fill="#9D9E9D"/>
<path id="Vector_76" d="M136.636 86.8594H132.678V88.9258H136.636V86.8594Z" fill="#BEBFBE"/>
<path id="Vector_77" fill-rule="evenodd" clip-rule="evenodd" d="M136.637 86.8594L137.435 88.2483V90.3147L136.637 88.9258V86.8594Z" fill="#D2D2D2"/>
<path id="Vector_78" fill-rule="evenodd" clip-rule="evenodd" d="M132.679 86.8594L131.881 88.2483V90.3147L132.679 88.9265V86.8594Z" fill="#E4E5E3"/>
<path id="Vector_79" fill-rule="evenodd" clip-rule="evenodd" d="M136.638 88.9258H132.679L131.881 90.3147H137.435L136.638 88.9258Z" fill="#9D9E9D"/>
<path id="Vector_80" d="M142.748 81.1387H138.791V83.2058H142.748V81.1387Z" fill="#BEBFBE"/>
<path id="Vector_81" fill-rule="evenodd" clip-rule="evenodd" d="M138.791 81.1367L137.992 82.5256V84.5927L138.791 83.2038V81.1367Z" fill="#E4E5E3"/>
<path id="Vector_82" fill-rule="evenodd" clip-rule="evenodd" d="M142.748 83.2031H138.791L137.992 84.592H143.547L142.748 83.2031Z" fill="#9D9E9D"/>
<path id="Vector_83" d="M142.705 83.8965H138.747V85.9636H142.705V83.8965Z" fill="#BEBFBE"/>
<path id="Vector_84" fill-rule="evenodd" clip-rule="evenodd" d="M138.746 83.8965L137.948 85.2854V87.3525L138.746 85.9636V83.8965Z" fill="#E4E5E3"/>
<path id="Vector_85" fill-rule="evenodd" clip-rule="evenodd" d="M142.705 85.9648H138.746L137.948 87.353H143.502L142.705 85.9648Z" fill="#9D9E9D"/>
<path id="Vector_86" d="M142.705 86.8691H138.747V88.9363H142.705V86.8691Z" fill="#BEBFBE"/>
<path id="Vector_87" fill-rule="evenodd" clip-rule="evenodd" d="M138.746 86.8691L137.948 88.258V90.3244L138.746 88.9355V86.8691Z" fill="#E4E5E3"/>
<path id="Vector_88" fill-rule="evenodd" clip-rule="evenodd" d="M142.705 88.9355H138.746L137.948 90.3244H143.502L142.705 88.9355Z" fill="#9D9E9D"/>
<path id="Vector_89" d="M44.5298 83.3457H32.0776V92.0663H44.5298V83.3457Z" fill="#BDBDBD"/>
<path id="Vector_90" d="M42.5031 85.7324H34.103V92.067H42.5031V85.7324Z" fill="#848484"/>
<path id="Vector_91" fill-rule="evenodd" clip-rule="evenodd" d="M44.5302 83.3457L42.5039 85.7318V92.0663H44.5302V83.3457Z" fill="#9F9F9F"/>
<path id="Vector_92" fill-rule="evenodd" clip-rule="evenodd" d="M32.0776 83.3457L34.1035 85.7318V92.0663H32.0776V83.3457Z" fill="#949494"/>
<path id="Vector_93" d="M66.6241 36.6377C67.465 36.6377 68.1468 37.3195 68.1468 38.1601V38.272C68.1468 38.6756 67.9862 39.0628 67.7007 39.349C67.4152 39.6342 67.028 39.7944 66.6241 39.7944C63.9175 39.7944 58.2795 39.7944 55.3565 39.7944C54.8669 39.7944 54.3972 39.6003 54.0509 39.2536C53.7046 38.9076 53.5101 38.4379 53.5101 37.9483C53.5101 37.5195 53.66 37.103 53.9343 36.772C55.7394 34.5956 62.6943 26.2104 62.6943 26.2104H55.1754C54.3614 26.2104 53.7016 25.55 53.7016 24.7363C53.7016 24.6665 53.7016 24.5967 53.7016 24.5269C53.7016 23.7125 54.3614 23.0527 55.1754 23.0527C57.7806 23.0527 63.1892 23.0527 66.0019 23.0527C66.9884 23.0527 67.7884 23.8524 67.7884 24.8396C67.7884 24.8672 67.7884 24.8941 67.7884 24.9211C67.7884 25.3362 67.6435 25.7388 67.3782 26.0595C65.5983 28.2117 58.6282 36.6377 58.6282 36.6377H66.6241ZM48.7809 43.9764C49.4554 43.9764 50.0021 44.5236 50.0021 45.1976V45.2874C50.0021 45.6115 49.8735 45.9222 49.6445 46.1509C49.4155 46.3803 49.1046 46.5086 48.7809 46.5086C46.6101 46.5086 42.0877 46.5086 39.743 46.5086C39.3502 46.5086 38.9735 46.3524 38.6957 46.0748C38.4178 45.7972 38.2619 45.42 38.2619 45.0278C38.2619 44.6838 38.3822 44.3494 38.6019 44.0845C40.0501 42.3384 45.6283 35.613 45.6283 35.613H39.5974C38.9446 35.613 38.4151 35.0831 38.4151 34.4303C38.4151 34.3745 38.4151 34.3183 38.4151 34.2625C38.4151 33.6097 38.9443 33.0808 39.5974 33.0808C41.6871 33.0808 46.0251 33.0808 48.2813 33.0808C49.0727 33.0808 49.7143 33.7217 49.7143 34.5134C49.7143 34.5354 49.7143 34.5576 49.7143 34.5789C49.7143 34.9126 49.5979 35.2351 49.3855 35.492C47.9576 37.218 42.3672 43.9764 42.3672 43.9764H48.7809ZM34.4687 49.8634C35.0098 49.8634 35.4483 50.3021 35.4483 50.8429V50.9147C35.4483 51.1743 35.3449 51.4239 35.1614 51.6074C34.9776 51.7912 34.7286 51.8939 34.4687 51.8939C32.7273 51.8939 29.1 51.8939 27.2197 51.8939C26.9046 51.8939 26.6024 51.7689 26.3797 51.5459C26.157 51.3235 26.0317 51.0211 26.0317 50.706C26.0317 50.4297 26.1281 50.1625 26.3046 49.9498C27.466 48.5491 31.9406 43.1545 31.9406 43.1545H27.1027C26.5792 43.1545 26.1547 42.7297 26.1547 42.2062C26.1547 42.1613 26.1547 42.1165 26.1547 42.0715C26.1547 41.548 26.5792 41.1232 27.1027 41.1232C28.7789 41.1232 32.2583 41.1232 34.0682 41.1232C34.7031 41.1232 35.2176 41.6378 35.2176 42.2726C35.2176 42.2906 35.2176 42.3079 35.2176 42.3252C35.2176 42.5924 35.1242 42.8514 34.954 43.0581C33.8086 44.4421 29.3244 49.8637 29.3244 49.8637L34.4687 49.8634Z" fill="#B9B9B9"/>
</g>
</g>
</g>
</g>
</svg>
