<svg width="180" height="180" viewBox="0 0 180 180" fill="none" xmlns="http://www.w3.org/2000/svg">
<g id="search 1">
<g id="Clip path group">
<mask id="mask0_1090_60226" style="mask-type:luminance" maskUnits="userSpaceOnUse" x="12" y="13" width="156" height="154">
<g id="clip0_53_14124">
<path id="Vector" d="M167.06 13.5H12.9346V166.5H167.06V13.5Z" fill="white"/>
</g>
</mask>
<g mask="url(#mask0_1090_60226)">
<g id="Group">
<path id="Vector_2" fill-rule="evenodd" clip-rule="evenodd" d="M112.262 18.6679C76.3337 7.84425 54.9854 15.6286 45.9149 27.207C36.8444 38.7854 39.125 48.6477 32.8455 60.2365C26.566 71.8251 20.5363 70.1297 15.017 86.8977C9.49764 103.666 11.4554 141.575 70.981 159.769C130.506 177.964 153.25 154.993 163.206 125.096C173.162 95.199 166.674 35.0431 112.262 18.6679Z" fill="#E9E9E9"/>
<path id="Vector_3" fill-rule="evenodd" clip-rule="evenodd" d="M55.1924 58.055C55.1924 59.0165 58.0978 58.8511 62.6278 58.5099C67.1579 58.1688 82.1747 58.0447 86.8401 58.0861C91.5055 58.1274 94.7233 58.2722 94.6609 57.3211C94.5984 56.37 90.6203 56.6181 86.538 56.525C82.4559 56.432 81.0083 56.6801 79.8419 56.2666C78.6756 55.8531 76.7178 52.8965 72.469 55.1191C72.469 55.1191 74.4372 52.7413 71.9066 52.0177C71.1822 51.8159 70.4205 51.7837 69.6815 51.9236C68.9424 52.0635 68.2461 52.3718 67.6474 52.8241C67.6474 52.8241 68.9178 47.8826 63.336 49.0922C58.6497 50.1259 62.1593 54.0336 62.1593 54.0336C62.1593 54.0336 59.2226 51.9661 57.9937 54.1577C56.7649 56.3493 58.7747 56.7938 58.7747 56.7938C58.7747 56.7938 55.2028 56.5147 55.1924 58.055ZM148.376 53.5788C142.523 53.7752 126.402 54.3231 122.612 54.3954C117.977 54.4885 121.998 52.7413 128.349 52.4933C134.702 52.2452 135.119 52.6897 135.535 52.0177C135.952 51.3458 136.129 49.8778 137.763 50.5084C139.399 51.139 138.649 48.5856 140.305 48.8233C141.961 49.0611 143.95 49.8572 144.814 49.1025C146.042 50.5291 147.23 52.0212 148.376 53.5788Z" fill="white"/>
<path id="Vector_4" d="M55.9772 79.0928C54.6333 79.1669 53.2854 79.1324 51.947 78.9894C51.1428 78.9474 50.3576 78.7322 49.6456 78.3588C49.2165 78.0712 48.8601 77.6891 48.6042 77.2423C47.4224 77.8071 46.1624 78.1939 44.8656 78.3898C43.543 78.5758 42.2205 78.6999 40.8771 78.7619C39.4813 78.8138 38.0901 78.9519 36.7116 79.1755L36.6387 78.7619C38.0561 78.5413 39.4851 78.4033 40.9187 78.3485C42.2403 78.2967 43.5579 78.1724 44.8656 77.9763C46.1169 77.7798 47.3337 77.4073 48.4792 76.8701C48.198 76.2475 48.125 75.552 48.2709 74.8853C48.4271 74.2502 48.7716 73.6762 49.2598 73.2376C49.7481 72.799 50.3577 72.5159 51.0098 72.4249C51.3099 72.3732 51.6186 72.4359 51.8741 72.6006C52.3844 72.9935 52.2594 73.7585 51.8741 74.358C51.1441 75.515 50.1158 76.4572 48.8958 77.0872C49.1225 77.481 49.4493 77.8089 49.8435 78.0383C50.4873 78.3786 51.198 78.5762 51.9262 78.6172C53.8526 78.8199 55.7965 78.7921 57.7163 78.5346V78.948C57.2373 78.9997 56.6125 79.0617 55.9772 79.0928ZM51.1139 72.7867H51.0307C50.4415 72.8566 49.8886 73.1058 49.4477 73.5C49.0033 73.888 48.6935 74.4054 48.5625 74.9783C48.4377 75.5477 48.4998 76.1418 48.7396 76.6737C49.8891 76.0808 50.8568 75.1917 51.5409 74.0996C51.8012 73.686 51.9262 73.0658 51.6242 72.8901C51.4704 72.8002 51.2909 72.7639 51.1139 72.7867Z" fill="white"/>
<path id="Vector_5" d="M61.0814 78.7206C61.6958 79.2583 63.789 80.7262 67.1735 76.2292C67.4442 75.8881 67.4234 75.4642 67.111 75.3505C65.5802 74.8337 61.5292 74.048 60.9356 78.3485C60.9147 78.4159 60.9147 78.4879 60.9356 78.5553C60.9695 78.6216 61.0195 78.6786 61.0814 78.7206Z" fill="#008C7E"/>
<path id="Vector_6" d="M59.5672 78.7824H58.8486V78.3689C60.8195 78.3786 62.7634 77.9139 64.5138 77.0146L64.7325 77.3661C63.1489 78.2399 61.378 78.7254 59.5672 78.7824Z" fill="white"/>
<path id="Vector_7" d="M34.4582 153.731C33.5594 152.48 32.9394 151.052 32.6395 149.545C32.3397 148.036 32.3668 146.482 32.719 144.985C33.9375 139.909 35.9786 141.367 35.9786 141.367L34.4582 153.731Z" fill="#32477B"/>
<path id="Vector_8" fill-rule="evenodd" clip-rule="evenodd" d="M49.0607 116.103C49.0607 116.103 21.6306 131.609 17.8191 138.111C17.8191 138.111 7.70728 157.092 32.3985 147.416C57.0898 137.74 57.1731 138.277 57.3293 137.357C57.4855 136.437 61.651 114.407 49.0607 116.103Z" fill="#FFC0B1"/>
<path id="Vector_9" fill-rule="evenodd" clip-rule="evenodd" d="M121.322 69.147L113.105 85.8634L87.0709 81.8625C87.0709 81.8625 81.666 64.0195 84.2695 62.9443C86.873 61.8693 121.322 69.147 121.322 69.147Z" fill="#000D14"/>
<path id="Vector_10" fill-rule="evenodd" clip-rule="evenodd" d="M114.064 68.8682L87.3625 71.1528C87.3625 71.1528 90.2472 97.5867 84.4675 102.115C78.6878 106.643 90.4763 126.595 100.244 125.892C111.512 125.023 120.406 111.14 115.063 102.683C109.721 94.2269 114.064 68.8682 114.064 68.8682Z" fill="#FFC0B1"/>
<path id="Vector_11" opacity="0.3" fill-rule="evenodd" clip-rule="evenodd" d="M88.0582 86.7739C88.1122 81.5549 87.8793 76.3368 87.3604 71.143L114.062 68.8584C113.156 74.3695 112.603 79.9321 112.406 85.5127C110.594 88.6968 105.387 92.0669 100.18 92.0669C97.908 92.0425 95.6642 91.5651 93.5818 90.6628C91.4995 89.7607 89.621 88.4523 88.0582 86.8153V86.7739Z" fill="#7F6769"/>
<path id="Vector_12" fill-rule="evenodd" clip-rule="evenodd" d="M87.6872 63.1203C87.6872 63.1203 87.5519 59.5228 84.5005 58.8301C81.4493 58.1375 78.5855 62.1383 78.8979 65.0328C79.2103 67.9275 81.8971 74.3369 87.2914 70.3051L87.6872 63.1203Z" fill="#F6B6AB"/>
<path id="Vector_13" fill-rule="evenodd" clip-rule="evenodd" d="M85.4055 67.39C85.4055 67.39 84.2913 67.235 84.6662 65.8393C85.041 64.4438 85.6139 64.7436 85.0827 63.1825C84.9411 62.6802 84.6474 62.2333 84.2414 61.9022C83.8352 61.5712 83.3364 61.3722 82.8125 61.332C81.5003 61.4458 80.1361 63.2342 81.1046 67.0695C81.8336 70.0056 84.562 69.6747 85.4055 67.39Z" fill="#FFC4C0"/>
<path id="Vector_14" fill-rule="evenodd" clip-rule="evenodd" d="M118.032 73.0555C118.032 73.0555 119.072 73.3242 119.302 71.8873C119.531 70.4503 118.844 70.533 119.926 69.2821C120.248 68.8656 120.692 68.5586 121.197 68.4034C121.699 68.2484 122.236 68.2484 122.739 68.4034C123.904 69.003 124.498 71.1532 122.145 74.358C120.364 76.7977 117.885 75.5262 118.032 73.0555Z" fill="#C2C2C2"/>
<path id="Vector_15" fill-rule="evenodd" clip-rule="evenodd" d="M109.678 39.6534C101.846 37.6686 88.7249 40.9043 86.3089 63.9784C84.4552 81.9868 92.4739 88.0448 97.5558 89.1407C102.867 90.2778 113.655 84.1991 117.342 72.3727C121.029 60.5462 127.329 44.1091 109.678 39.6534Z" fill="#FFC0B1"/>
<path id="Vector_16" fill-rule="evenodd" clip-rule="evenodd" d="M101.744 60.3506C101.899 62.8679 101.581 65.3917 100.807 67.7938C99.5573 71.1122 98.5367 71.2363 100.953 73.5106C100.953 73.5106 97.8286 72.5388 97.7557 70.8745C97.6828 69.2101 99.3699 69.3238 100.182 66.822C100.994 64.3203 101.744 60.3506 101.744 60.3506Z" fill="#FFC4C0"/>
<path id="Vector_17" fill-rule="evenodd" clip-rule="evenodd" d="M109.785 61.8385C110.827 62.035 111.462 63.3273 111.191 64.7021C110.92 66.0771 109.848 67.0385 108.796 66.8317C108.245 66.6159 107.798 66.1992 107.546 65.6668C107.295 65.1345 107.257 64.5268 107.442 63.9682C107.702 62.5932 108.744 61.6318 109.785 61.8385Z" fill="#000D14"/>
<path id="Vector_18" fill-rule="evenodd" clip-rule="evenodd" d="M95.206 58.9847C95.7665 59.1824 96.2265 59.5908 96.4868 60.1218C96.7546 60.6547 96.8032 61.2701 96.6223 61.8379C96.3515 63.2232 95.2789 64.1846 94.2271 63.9779C93.6649 63.774 93.2043 63.3617 92.9422 62.8277C92.6799 62.2936 92.6366 61.6794 92.8212 61.1143C93.1232 59.76 94.1646 58.8193 95.206 58.9847Z" fill="#000D14"/>
<path id="Vector_19" fill-rule="evenodd" clip-rule="evenodd" d="M105.668 58.1377C107.235 57.7969 108.861 57.8359 110.409 58.2516C111.957 58.6673 113.381 59.4473 114.561 60.5258C114.561 60.5258 113.52 57.0936 110.917 56.6594C109.987 56.4761 109.028 56.5114 108.115 56.7628C107.201 57.0211 106.362 57.4924 105.668 58.1377Z" fill="#000D14"/>
<path id="Vector_20" fill-rule="evenodd" clip-rule="evenodd" d="M98.8504 56.825C97.5236 55.9326 95.9989 55.3725 94.4067 55.1925C92.8144 55.0124 91.2019 55.2178 89.707 55.7912C89.707 55.7912 91.9876 53 94.5495 53.5582C95.4718 53.7311 96.3414 54.1131 97.0904 54.6746C97.8409 55.2424 98.4442 55.9795 98.8504 56.825Z" fill="#000D14"/>
<path id="Vector_21" fill-rule="evenodd" clip-rule="evenodd" d="M115.468 48.7407C111.888 49.4875 108.218 49.707 104.574 49.3919L106.657 47.7689C106.657 47.7689 99.9299 48.3478 102.231 47.5208C102.231 47.5208 95.1186 49.0715 97.0243 48.0687C97.0243 48.0687 93.796 47.4898 92.4631 49.7021C92.4631 46.8901 90.8385 48.6062 90.8177 49.7021C90.8177 49.7021 88.735 58.6857 87.8394 60.133C86.7439 62.3555 86.1334 64.7828 86.0482 67.2557C86.1523 68.7754 86.0482 66.5217 86.0482 66.5217C86.0482 66.5217 85.465 59.1301 83.9655 58.9544C83.9655 58.9544 83.5384 58.6857 82.5908 59.0578L83.1323 51.0771C83.1323 51.0771 84.6735 36.1699 97.5346 34.1746C110.396 32.1794 119.404 39.4366 118.706 44.5125C118.706 44.5125 126.871 49.3506 126.735 58.5616L122.57 67.018C121.52 67.0733 120.502 67.3855 119.604 67.9266C118.707 68.4678 117.959 69.2211 117.425 70.1194C117.425 70.1194 118.862 57.5382 118.05 55.3982C117.237 53.2583 114.989 52.421 115.468 48.7407Z" fill="#001A29"/>
<path id="Vector_22" fill-rule="evenodd" clip-rule="evenodd" d="M87.819 39.8291C93.6403 42.7444 104.065 47.1793 112.907 46.5797C112.907 46.5797 116.239 46.7245 117.895 45.7423C117.895 45.7423 116.968 50.3737 118.935 52.4516C121.169 54.8841 123.807 56.9159 126.736 58.4579L122.632 66.8522C121.584 66.9075 120.566 67.2197 119.668 67.7608C118.77 68.3021 118.021 69.0554 117.489 69.9536C117.489 69.9536 118.925 57.3725 118.113 55.2325C117.301 53.0925 114.989 52.4 115.478 48.73L107.355 50.1463C107.355 50.1463 94.7234 52.2139 90.8912 49.65C90.8912 49.65 88.8083 58.6234 87.9127 60.0809C86.9395 62.0234 86.3291 64.1249 86.1112 66.2836V66.3664C86.1112 66.4284 86.1945 68.5889 86.1112 67.1003C86.0903 66.8561 86.0903 66.6105 86.1112 66.3664V66.2836C86.1736 65.4773 85.4342 58.9541 84.0283 58.8094C84.0283 58.8094 83.6014 58.52 82.6538 58.9025L83.1953 50.9216C83.7649 46.8949 85.3558 43.078 87.819 39.8291Z" fill="#000D14"/>
<path id="Vector_23" fill-rule="evenodd" clip-rule="evenodd" d="M118.114 55.2528C119.301 58.3542 122.592 62.4893 123.987 64.2054L122.633 66.9139C121.584 66.9651 120.564 67.2741 119.666 67.8133C118.769 68.3594 118.022 69.1155 117.489 70.0153C117.489 70.0153 118.915 57.5271 118.124 55.3148L118.114 55.2528ZM89.9963 53.5781C89.5075 55.8119 88.8102 57.9958 87.9135 60.1012C86.9358 62.061 86.322 64.1797 86.1015 66.3557V66.4383C86.1015 66.5004 86.1848 68.661 86.1015 67.1723C86.0806 66.9282 86.0806 66.6826 86.1015 66.4383V66.3557C86.1744 65.5493 85.435 59.0262 84.0812 58.8814C83.6267 58.7392 83.1344 58.7762 82.7065 58.9848L82.9252 55.6973C85.3354 55.2569 87.6918 54.5639 89.9546 53.6298L89.9963 53.5781Z" fill="#000D14"/>
<path id="Vector_24" fill-rule="evenodd" clip-rule="evenodd" d="M118.197 69.0545C118.197 69.0545 119.572 66.4286 122.019 66.8008C124.466 67.1729 125.882 70.1813 124.101 73.7581C122.853 76.2702 118.52 81.3358 115.969 75.8258L118.197 69.0545Z" fill="#FFC0B1"/>
<path id="Vector_25" opacity="0.3" fill-rule="evenodd" clip-rule="evenodd" d="M118.032 73.0555C118.032 73.0555 119.072 73.3242 119.302 71.8873C119.531 70.4503 118.844 70.533 119.926 69.2821C120.248 68.8656 120.692 68.5586 121.197 68.4034C121.699 68.2484 122.236 68.2484 122.739 68.4034C123.904 69.003 124.498 71.1532 122.145 74.358C120.364 76.7977 117.885 75.5262 118.032 73.0555Z" fill="#7F6769"/>
<path id="Vector_26" d="M104.744 77.9134C103.703 75.6184 96.3088 77.6447 95.861 77.9134C95.7569 77.9134 95.7673 78.2753 96.0901 78.3063C96.8503 78.3063 102.765 76.3835 104.494 78.1099C104.494 78.0788 104.807 78.1099 104.744 77.9134Z" fill="#E55A4D"/>
<path id="Vector_27" d="M130.934 102.88C121.072 99.1172 112.803 95.2715 112.803 95.2715C111.671 97.2878 110.028 98.9763 108.038 100.171C106.047 101.365 103.778 102.025 101.453 102.084C93.4446 102.281 87.1859 96.1295 87.1859 96.1295C81.8955 97.8456 74.8454 100.72 70.6174 101.619C66.3893 102.518 59.1621 105.888 59.1621 105.888C59.3184 107.284 62.1509 127.598 63.182 136.178C63.5881 139.465 62.4321 149.679 62.2967 156.855C74.5122 162.023 95.9335 166.644 109.409 166.519C126.072 165.693 133.361 162.126 140.338 157.764C140.432 154.859 137.661 140.686 137.911 138.122C138.717 128.532 140.725 119.078 143.889 109.982C143.889 109.982 140.797 106.633 130.934 102.88Z" fill="#44A846"/>
<path id="Vector_28" fill-rule="evenodd" clip-rule="evenodd" d="M38.502 120.196C40.933 130.244 46.4762 139.283 54.3517 146.041L65.3801 142.174L64.0679 103.655C60.6674 104.932 57.4744 106.698 54.5914 108.897C49.249 112.742 47.864 115.627 38.502 120.196Z" fill="#44A846"/>
<path id="Vector_29" d="M138.195 159.035C145.11 155.179 151.327 149.358 156.939 139.497C154.43 131.66 143.943 109.92 143.943 109.92C135.821 118.097 138.246 145.595 138.195 159.035Z" fill="#44A846"/>
<path id="Vector_30" fill-rule="evenodd" clip-rule="evenodd" d="M83.6558 97.3495C84.9678 96.8738 85.4157 96.7085 87.2173 96.1295C87.2173 96.1295 93.4655 102.332 101.484 102.084C103.804 102.02 106.067 101.358 108.051 100.163C110.036 98.969 111.674 97.2833 112.804 95.2715C112.804 95.2715 114.272 95.9125 115.647 96.5638C113.981 99.7375 110.294 104.565 102.109 105.485C92.7783 106.54 85.8322 99.7272 83.6558 97.3495Z" fill="white"/>
<g id="Group_2" opacity="0.66">
<path id="Vector_31" d="M38.502 120.197C39.9462 124.9 41.9604 129.413 44.5003 133.636C44.273 128.405 43.1239 123.254 41.1054 118.418C40.2619 119.007 39.3975 119.597 38.502 120.197Z" fill="#0792D7"/>
</g>
<path id="Vector_32" opacity="0.66" d="M141.149 129.996C141.149 129.996 139.388 134.783 138.629 132.952C137.993 131.422 140.107 123.079 141.825 116.887C141.87 116.655 141.834 116.414 141.721 116.206C141.604 115.994 141.411 115.836 141.179 115.76C140.954 115.681 140.708 115.681 140.482 115.76C140.262 115.854 140.085 116.022 139.982 116.236C135.285 127.608 135.452 149.669 135.41 160.596C138.27 159.163 140.977 157.448 143.491 155.478C141.647 151.395 140.589 147.006 140.367 142.535C140.139 138.333 140.887 134.134 142.554 130.265C142.589 130.075 142.548 129.878 142.439 129.717C142.389 129.637 142.321 129.568 142.242 129.516C142.164 129.462 142.075 129.426 141.981 129.406C141.888 129.384 141.79 129.382 141.694 129.4C141.599 129.418 141.509 129.455 141.43 129.51C141.352 129.568 141.288 129.642 141.24 129.725C141.192 129.808 141.16 129.9 141.149 129.996Z" fill="#39943A"/>
<path id="Vector_33" opacity="0.3" fill-rule="evenodd" clip-rule="evenodd" d="M49.0607 116.103C49.0607 116.103 21.6306 131.609 17.8191 138.111C17.8191 138.111 7.70728 157.092 32.3985 147.416C57.0898 137.74 57.1731 138.277 57.3293 137.357C57.4855 136.437 61.651 114.407 49.0607 116.103Z" fill="#7F6769"/>
<path id="Vector_34" fill-rule="evenodd" clip-rule="evenodd" d="M31.1074 124.951C31.1074 124.951 36.2311 140.457 34.4607 153.721L63.6195 142.712L62.3282 104.575C58.9452 105.837 55.7638 107.578 52.8828 109.744C47.6655 113.61 40.3758 120.444 31.1074 124.951Z" fill="#44A846"/>
<path id="Vector_35" opacity="0.66" fill-rule="evenodd" clip-rule="evenodd" d="M60.6101 130.906C57.1632 138.803 44.6457 146.567 42.1568 143.311C38.0537 137.853 42.438 122.284 41.1154 118.997C37.9815 121.28 34.6579 123.296 31.1807 125.023C31.1807 125.023 36.2417 140.53 34.4609 153.752L63.3802 142.877C63.4323 145.978 62.4013 153.07 62.3389 156.853C64.2237 157.66 66.1816 158.301 68.2018 159.066C68.9829 151.209 69.8368 145.234 69.8368 145.234C68.7955 138.917 67.3271 132.022 67.3271 132.022C66.6294 127.235 63.4427 111.822 62.6721 111.812C62.4847 111.812 62.266 111.812 62.2243 112.07C62.1826 112.328 62.0265 112.887 61.9015 113.311" fill="#39943A"/>
<path id="Vector_36" fill-rule="evenodd" clip-rule="evenodd" d="M34.2317 123.308C35.7729 128.042 39.6156 141.698 36.7518 152.862L34.4607 153.731C36.2311 140.509 31.1074 124.951 31.1074 124.951C32.1801 124.434 33.2111 123.886 34.2317 123.308Z" fill="white"/>
<path id="Vector_37" d="M77.2697 80.0331C73.0305 78.5493 69.4412 75.6516 67.1134 71.8343C64.7858 68.0169 63.8641 63.5162 64.5053 59.0997C65.1466 54.6832 67.3113 50.6242 70.6302 47.6148C73.9492 44.6054 78.2168 42.8321 82.7056 42.5971C87.1943 42.3621 91.6263 43.68 95.2456 46.326C98.865 48.9721 101.448 52.7825 102.554 57.1076C103.659 61.4327 103.22 66.0046 101.309 70.0438C99.399 74.083 96.1366 77.3394 92.0782 79.2578C87.439 81.4482 82.1152 81.7269 77.2697 80.0331ZM66.7309 55.8839C65.2639 59.9288 65.3021 64.3612 66.8386 68.3806C68.3751 72.4001 71.3087 75.7417 75.1096 77.8022C78.9105 79.8627 83.3283 80.5062 87.5653 79.6166C91.8022 78.7269 95.5792 76.3627 98.2142 72.9509C100.849 69.5391 102.168 65.3045 101.934 61.0118C101.699 56.719 99.9263 52.6509 96.935 49.542C93.9438 46.4331 89.9313 44.4884 85.6223 44.059C81.3133 43.6295 76.9915 44.7437 73.4374 47.2001C70.3374 49.3224 67.9907 52.3612 66.7309 55.8839Z" fill="#1A2E35"/>
<path id="Vector_38" d="M76.4611 79.2985C74.0607 78.4531 71.8497 77.1502 69.9525 75.4632C66.358 72.2603 64.0924 67.8446 63.5965 63.075C63.1006 58.3056 64.4099 53.5234 67.2695 49.6593C70.1291 45.7951 74.3346 43.1252 79.0677 42.1691C83.8009 41.213 88.723 42.039 92.8765 44.4865C97.0299 46.9341 100.118 50.8279 101.539 55.4105C102.96 59.9931 102.613 64.9367 100.565 69.2793C98.5174 73.6219 94.9155 77.053 90.4601 78.9049C86.0049 80.7569 81.0149 80.8972 76.4611 79.2985ZM65.8181 55.1803C64.3614 59.2223 64.408 63.6481 65.9494 67.6589C67.4909 71.6699 70.4258 75.0017 74.2245 77.0533C78.0232 79.1048 82.4353 79.741 86.665 78.847C90.8946 77.9528 94.663 75.5875 97.2901 72.1776C99.9173 68.7677 101.23 64.5381 100.992 60.2517C100.754 55.9654 98.98 51.9047 95.9908 48.8025C93.0016 45.7004 88.9939 43.7609 84.6909 43.3343C80.3878 42.9077 76.0729 44.0219 72.5247 46.476C69.4184 48.6005 67.0704 51.6479 65.8181 55.1803Z" fill="#375A64"/>
<path id="Vector_39" d="M56.8713 108.606L58.3293 109.423C59.6206 110.126 61.4535 109.216 62.0783 107.593L76.9389 79.7947L72.4609 77.5928L55.6842 104.471C54.497 106.146 55.1947 107.676 56.8713 108.606Z" fill="#375A64"/>
<path id="Vector_40" d="M71.6516 79.0386C69.9333 78.5321 62.831 83.1737 62.3832 83.5873C61.9354 84.0007 51.8757 97.0989 50.678 98.6805C45.7107 106 5.79435 141.386 15.5208 149.13C21.9463 154.298 32.0164 145.584 32.0164 145.584C36.2711 139.598 40.1925 133.386 43.7633 126.975L57.9052 108.45C60.2484 107.416 62.4249 102.154 63.6954 101.151C65.2948 100.027 67.0482 99.1355 68.9023 98.5048L70.5165 99.2905C69.4619 99.9426 68.6109 100.873 68.0588 101.978C67.9644 102.172 67.9113 102.383 67.9025 102.599C67.9013 102.813 67.9474 103.024 68.038 103.219C68.1254 103.418 68.2571 103.595 68.4233 103.736C68.5851 103.877 68.7774 103.98 68.9856 104.036C68.9856 104.036 72.1097 103.57 73.5261 102.309C74.426 101.316 74.9037 100.016 74.859 98.6805C77.7749 96.2718 75.2339 94.1009 75.2339 94.1009C75.976 93.8186 76.6073 93.3077 77.0355 92.6432C77.7645 91.5371 75.286 88.1462 74.078 87.4019C72.87 86.6576 67.8296 85.9132 67.8296 85.9132L71.3287 84.1352L75.4943 85.5307C79.5556 86.8644 80.0867 84.497 80.0867 84.497C80.0867 84.497 73.3595 79.5659 71.6516 79.0386Z" fill="#FFC0B1"/>
<path id="Vector_41" d="M67.4839 93.4827C67.6007 93.4407 67.7241 93.4196 67.8484 93.4207C68.1948 93.3897 68.5433 93.3897 68.8897 93.4207C70.0037 93.4914 71.0801 93.8476 72.0139 94.4545C72.9163 95.0643 73.6502 95.8888 74.1487 96.8529C74.301 97.1491 74.4299 97.4568 74.534 97.7729C74.5766 97.8897 74.6046 98.0112 74.6174 98.1347C74.3541 97.7937 74.1272 97.4265 73.9405 97.039C73.41 96.1007 72.66 95.3029 71.7538 94.7127C70.8476 94.1226 69.8117 93.7575 68.7335 93.6481C68.3124 93.6349 67.8937 93.5796 67.4839 93.4827Z" fill="#7F6769"/>
<path id="Vector_42" d="M66.2432 89.9986C66.3873 89.9383 66.5374 89.8931 66.691 89.8641C66.8471 89.8539 67.0036 89.8539 67.1596 89.8641C67.3609 89.8539 67.5625 89.8539 67.7636 89.8641C68.2976 89.8627 68.8308 89.9077 69.3569 89.9986C71.179 90.3691 72.8475 91.2729 74.1473 92.5934C74.3139 92.7484 74.4389 92.9035 74.5639 93.0379C74.6677 93.1495 74.7652 93.2668 74.8555 93.3894C74.9382 93.4908 75.0082 93.6019 75.0637 93.7202C74.6649 93.543 74.3096 93.282 74.0223 92.9552C73.6485 92.5748 73.2407 92.2288 72.8039 91.9214C72.2699 91.5986 71.709 91.3219 71.1272 91.0944C70.5322 90.8549 69.9194 90.6614 69.2944 90.5155C68.7806 90.4044 68.2579 90.3385 67.7323 90.3191C67.2181 90.3235 66.7094 90.214 66.2432 89.9986Z" fill="#7F6769"/>
<path id="Vector_43" d="M64.2744 85.4816C64.3879 85.343 64.5299 85.2303 64.691 85.1507C65.0741 84.9514 65.498 84.8418 65.9302 84.8302C66.3667 84.7908 66.8057 84.8694 67.2008 85.0577C67.3708 85.1181 67.5241 85.2172 67.6485 85.3471C67.0816 85.1947 66.4967 85.1183 65.9094 85.1197C65.3515 85.173 64.8024 85.2945 64.2744 85.4816Z" fill="#7F6769"/>
<path id="Vector_44" d="M146.564 119.534C147.345 120.216 150.011 122.067 154.322 116.36C154.667 115.905 154.635 115.327 154.239 115.244C152.303 114.582 147.137 113.59 146.377 119.048C146.356 119.136 146.356 119.228 146.377 119.317C146.418 119.405 146.483 119.479 146.564 119.534Z" fill="#008C7E"/>
<path id="Vector_45" d="M144.609 119.607H143.703V119.079C143.703 119.079 148.15 119.079 150.909 117.354L151.211 117.818C149.184 118.923 146.921 119.536 144.609 119.607Z" fill="white"/>
<path id="Vector_46" d="M65.4299 60.1016C65.2856 61.6992 65.3555 63.3087 65.6383 64.888C65.8671 65.207 66.0526 65.5547 66.1902 65.9218C66.4663 66.5159 66.5569 67.1783 66.4505 67.8239C66.7897 68.75 67.2005 69.6486 67.6793 70.5117C67.544 69.0335 66.8671 62.1381 65.4299 60.1016Z" fill="#FFC0B1"/>
<path id="Vector_47" d="M67.7344 70.6457C67.7344 70.4906 67.7344 70.3562 67.7344 70.2012C67.7553 70.3562 67.7448 70.5113 67.7344 70.6457Z" fill="#F9B9AE"/>
<path id="Vector_48" d="M66.1901 65.9733C66.0525 65.6061 65.867 65.2586 65.6382 64.9395C65.7559 65.6367 65.9123 66.327 66.1067 67.0071C66.2109 67.3378 66.3359 67.648 66.4504 67.9685C66.5765 67.2927 66.4854 66.5948 66.1901 65.9733Z" fill="#DCA29E"/>
<path id="Vector_49" d="M99.6001 70.3568C99.6939 70.181 99.7771 69.995 99.8708 69.8089C99.5349 68.9791 99.4517 68.0696 99.6313 67.1934C99.7237 66.5912 99.949 66.0166 100.291 65.5108C100.633 65.0051 101.083 64.5807 101.61 64.2678C101.799 62.8973 101.83 61.5101 101.704 60.1326C101.66 59.4633 101.576 58.797 101.454 58.1375C99.9861 58.0165 98.5083 58.1141 97.0696 58.4269C98.1602 57.3901 99.5193 56.6744 100.996 56.3593C100.307 54.1787 99.2082 52.1475 97.7569 50.3737C96.7629 49.1728 95.6186 48.1028 94.3515 47.1896C88.374 47.8203 78.939 48.3371 75.0547 45.8457L74.8984 45.9182C74.5652 47.4068 71.7743 59.3573 70.4726 61.4248C69.2854 63.1203 68.1294 67.4414 67.7754 70.2327C67.7754 70.3878 67.7754 70.5221 67.7754 70.6773C68.2639 71.5458 68.8247 72.3723 69.452 73.148C70.9615 74.9688 72.8153 76.4789 74.9089 77.5932C78.4072 79.4765 82.4343 80.1597 86.3641 79.5368C86.0289 79.2945 85.7483 78.9856 85.5403 78.6296C85.3323 78.2735 85.2014 77.8783 85.1561 77.4692C85.0832 74.9675 87.5825 75.1845 88.7073 71.4009C89.8319 67.6173 91.1232 61.7143 91.1232 61.7143C91.3612 65.4788 90.8916 69.2542 89.7382 72.8482C88.3636 76.5594 87.1868 77.5932 88.0616 79.2369C89.4572 78.885 90.8064 78.3715 92.0814 77.7069C95.2662 76.0512 97.8834 73.4927 99.6001 70.3568ZM80.3657 51.4902C81.7586 51.7499 83.069 52.3355 84.1882 53.1985C85.3075 54.0615 86.2033 55.1769 86.8015 56.4523C86.8015 56.4523 80.5531 51.8417 73.1177 54.8293C73.1177 54.85 76.5126 50.6425 80.3657 51.4902ZM79.8972 67.2554C78.3246 66.9557 77.3769 65.0328 77.8143 62.9755C78.2517 60.9183 79.8138 59.471 81.3967 59.7812C82.9796 60.0912 83.9169 62.0037 83.4795 64.0714C83.0421 66.1389 81.4592 67.5345 79.8972 67.2554Z" fill="#FFC0B1"/>
<path id="Vector_50" d="M89.738 72.8799C90.8913 69.2861 91.361 65.5106 91.123 61.7461C91.123 61.7461 89.8317 67.649 88.707 71.3913C87.5823 75.1336 85.083 74.9579 85.1559 77.4596C85.2012 77.8687 85.332 78.2639 85.54 78.62C85.7481 78.976 86.0286 79.285 86.3639 79.5272C86.9355 79.4444 87.5022 79.3304 88.0613 79.1861C87.1866 77.594 88.3633 76.5602 89.738 72.8799Z" fill="#CD8779"/>
<path id="Vector_51" d="M99.6316 67.1629C99.4519 68.0392 99.5351 68.9486 99.8711 69.7784C100.747 68.0363 101.335 66.1652 101.61 64.2373C101.084 64.5502 100.633 64.9746 100.291 65.4804C99.9491 65.9861 99.7239 66.5607 99.6316 67.1629Z" fill="#000D14"/>
<path id="Vector_52" d="M83.4694 64.0409C83.886 61.9734 82.9383 60.0505 81.3867 59.7507C79.835 59.4509 78.2624 60.8775 77.8042 62.9452C77.346 65.0127 78.3458 66.9252 79.8871 67.225C81.4283 67.5248 83.0633 66.0982 83.4694 64.0409Z" fill="#000D14"/>
<path id="Vector_53" d="M97.0151 58.4271C98.4707 58.1091 99.9665 58.0114 101.451 58.1376C101.331 57.5305 101.178 56.9299 100.993 56.3389C99.4961 56.6507 98.1175 57.3743 97.0151 58.4271Z" fill="#000D14"/>
<path id="Vector_54" d="M86.7992 56.4524C86.201 55.177 85.3052 54.0616 84.1859 53.1986C83.0667 52.3356 81.7563 51.7499 80.3635 51.4903C76.5104 50.6426 73.0737 54.8294 73.0737 54.8294C80.5613 51.8417 86.7992 56.4524 86.7992 56.4524Z" fill="#000D14"/>
<path id="Vector_55" d="M65.4316 60.0811C66.8687 62.1486 67.5144 69.013 67.681 70.543V70.605C67.7643 69.323 66.9416 62.0866 65.4316 60.0811Z" fill="#FFC0B1"/>
<path id="Vector_56" d="M94.2997 47.1686C92.0342 45.5239 89.4158 44.4226 86.6495 43.9508C83.8833 43.4791 81.0447 43.6499 78.3562 44.4498C77.1934 44.7914 76.0697 45.2522 75.0029 45.8246C78.8872 48.3161 88.3223 47.7992 94.2997 47.1686Z" fill="#000D14"/>
<path id="Vector_57" d="M70.4201 61.3738C71.7531 59.3063 74.5127 47.3868 74.8459 45.8672C71.5505 47.6408 68.8906 50.386 67.2334 53.7238C69.3718 53.1775 71.4615 52.4583 73.4818 51.5736C72.4404 55.4917 71.2115 60.1333 70.4304 61.3429C69.2329 63.1831 68.004 67.8351 67.7437 70.6469C67.7437 70.5126 67.7437 70.3781 67.7437 70.2335C68.129 67.4422 69.285 63.121 70.4201 61.3738Z" fill="#000D14"/>
<path id="Vector_58" d="M70.4199 61.3728C71.2009 60.1633 72.5026 55.5216 73.4711 51.6035C71.4508 52.4883 69.3612 53.2074 67.2228 53.7538C66.2623 55.7005 65.656 57.8004 65.4316 59.9565C65.4366 60.015 65.4366 60.0738 65.4316 60.1323C66.9416 62.1999 67.7643 69.3537 67.7226 70.6769C67.9934 67.8649 69.2222 63.213 70.4199 61.3728Z" fill="#000D14"/>
<path id="Vector_59" opacity="0.3" d="M83.4993 79.7333C93.5701 79.7333 101.734 71.6291 101.734 61.6319C101.734 51.6346 93.5701 43.5303 83.4993 43.5303C73.4287 43.5303 65.2646 51.6346 65.2646 61.6319C65.2646 71.6291 73.4287 79.7333 83.4993 79.7333Z" fill="white"/>
<g id="Group_3" opacity="0.3">
<path id="Vector_60" d="M97.901 51.1699L76.9483 78.2137C76.9483 78.2137 76.7506 78.3584 78.3959 78.6065L98.6925 52.3691C98.5266 51.9134 98.2556 51.5027 97.901 51.1699Z" fill="white"/>
</g>
<path id="Vector_61" d="M77.8539 46.2189C79.4159 45.6693 81.0512 45.3523 82.7067 45.2782C83.8215 45.2247 84.9387 45.2906 86.0392 45.4746C86.3421 45.5033 86.6418 45.5587 86.9348 45.64C87.0387 45.6504 87.1433 45.6504 87.2472 45.64C87.1467 45.5983 87.0419 45.567 86.9348 45.547C86.7369 45.547 86.4453 45.4126 86.0496 45.3402C84.9489 45.1276 83.8277 45.0375 82.7067 45.0714C81.0342 45.1293 79.3802 45.4394 77.8019 45.9916C76.8752 46.3231 75.9797 46.7347 75.1255 47.2218C74.2121 47.757 73.3541 48.3803 72.5636 49.0825C71.0533 50.4416 69.7826 52.0419 68.8042 53.8173C68.3795 54.5933 68.0106 55.3983 67.7004 56.226C67.4387 56.9546 67.2299 57.7008 67.0755 58.4589C66.8447 59.5494 66.7538 60.6644 66.8048 61.7775C66.817 62.0784 66.8449 62.3787 66.8881 62.6768C66.8881 62.7802 66.8881 62.8939 66.8881 62.9973C66.9089 62.8914 66.9089 62.7826 66.8881 62.6768V61.7775C66.8684 60.669 66.9803 59.5621 67.2213 58.4796C67.389 57.7361 67.6046 57.0041 67.867 56.288C68.1582 55.4791 68.5062 54.6915 68.9084 53.931C69.3758 53.085 69.9085 52.2763 70.5017 51.5119C71.1262 50.6872 71.8232 49.9193 72.5844 49.2169C73.3629 48.5275 74.2069 47.9146 75.1047 47.3871" fill="white"/>
<g id="Group_4" opacity="0.3">
<path id="Vector_62" d="M91.0378 45.5459L69.7207 73.2306C70.8957 74.5671 72.2603 75.7267 73.7716 76.6731L95.4846 48.3164C94.1968 47.1159 92.6867 46.1751 91.0378 45.5459Z" fill="white"/>
</g>
<path id="Vector_63" d="M71.3493 56.6494C71.3598 56.676 71.3598 56.7054 71.3493 56.7321V56.8044H71.2556C71.208 56.8188 71.1573 56.8188 71.1098 56.8044C71.0787 56.7651 71.0573 56.7191 71.0473 56.67L70.7453 53.3205V52.783L70.5266 50.3123L70.3705 49.8471L70.1309 46.8698V46.7561L70.4016 46.4355V46.4976V47.0041L70.7453 49.8471V50.333L70.9536 52.721V53.2586L71.3493 56.6494Z" fill="white"/>
<path id="Vector_64" d="M80.5552 53L80.4823 53.0725H80.2636L77.3685 51.3047L76.5355 50.7878L74.109 49.2888L73.4633 48.8132L70.4954 47.0352L70.1309 46.8077L70.4016 46.4873L71.0057 46.8595L74.0569 48.7306L74.4527 48.9786L77.3685 50.7154L77.7642 50.9636L80.4927 52.6693C80.513 52.6629 80.5349 52.6629 80.5552 52.6693C80.5657 52.6958 80.5657 52.7254 80.5552 52.752C80.5611 52.7792 80.5611 52.8074 80.5552 52.8347C80.5734 52.8883 80.5734 52.9465 80.5552 53Z" fill="white"/>
<path id="Vector_65" d="M84.8769 46.755H70.1309C70.2155 46.6436 70.3059 46.5366 70.4016 46.4346V46.3828H84.5541C84.6726 46.4971 84.7807 46.6216 84.8769 46.755Z" fill="white"/>
<path id="Vector_66" d="M80.6231 46.7561H80.5398C80.5157 46.7608 80.4909 46.7608 80.4669 46.7561C79.6802 47.1682 79.016 47.7776 78.5403 48.5238C78.072 49.2472 77.7927 50.0751 77.7281 50.9325V51.067C77.7385 51.0935 77.7385 51.123 77.7281 51.1497L77.6655 51.2117C77.6387 51.222 77.609 51.222 77.5823 51.2117H77.3739C76.2334 51.0173 75.0625 51.0952 73.9582 51.4391C72.8541 51.7883 71.8481 52.3903 71.0215 53.1965L70.9486 53.2689C70.9036 53.3025 70.8488 53.3206 70.7924 53.3206H70.6987L70.5945 53.2689C69.7861 52.8639 68.9382 52.5419 68.064 52.3075L68.2931 51.9456C69.0768 52.1682 69.8344 52.4732 70.5529 52.8554L70.7508 52.9484L70.9694 52.752C71.7227 52.078 72.6026 51.5584 73.5587 51.2231C74.5148 50.8878 75.5283 50.7434 76.5408 50.7981C76.7889 50.788 77.0374 50.8088 77.2802 50.8602V50.7154C77.3817 49.9503 77.6378 49.2134 78.0333 48.549C78.4288 47.8846 78.9554 47.3063 79.5817 46.8491C79.7384 46.7361 79.9019 46.6326 80.0711 46.539V46.4252C79.9455 46.1301 79.875 45.8149 79.8629 45.4949C79.8326 44.9535 79.9142 44.4117 80.1024 43.9028C80.1024 43.8201 80.1024 43.51 80.1545 43.4272L80.6543 43.3652V43.8822C80.4596 44.3898 80.371 44.9315 80.394 45.4742C80.4142 45.7977 80.4991 46.1139 80.6439 46.4045V46.5079C80.6544 46.5346 80.6544 46.5641 80.6439 46.5906C80.6528 46.6466 80.6456 46.704 80.6231 46.7561Z" fill="white"/>
<path id="Vector_67" d="M76.6796 42.9521C76.6557 43.108 76.6137 43.2605 76.5548 43.407C76.3985 43.5601 76.2556 43.726 76.1277 43.9032C75.7862 44.364 75.5871 44.9136 75.555 45.4849C75.5456 45.8046 75.5951 46.1234 75.7008 46.4256C75.6967 46.4669 75.6967 46.5084 75.7008 46.5497C75.7113 46.5904 75.7113 46.633 75.7008 46.6738C75.7053 46.6941 75.7053 46.7153 75.7008 46.7357C75.7008 46.7357 75.7008 46.7357 75.7008 46.7874C75.0782 47.3485 74.6576 48.0964 74.5032 48.917C74.4927 48.9508 74.4927 48.9868 74.5032 49.0204C74.5134 49.0505 74.5134 49.0833 74.5032 49.1134C74.492 49.1414 74.4741 49.1662 74.4511 49.1858H74.2741C73.0651 49.0998 71.868 49.4688 70.9208 50.2196L70.827 50.292C70.7832 50.3069 70.7356 50.3069 70.6917 50.292C70.6476 50.3055 70.6005 50.3055 70.5564 50.292H70.4938C70.032 49.9486 69.4669 49.7701 68.8901 49.7854L69.39 49.2479C69.9003 49.2479 70.0253 49.4443 70.4314 49.7441L70.6812 49.9095L70.8583 49.775C71.6541 49.1939 72.5931 48.8368 73.5763 48.7413C73.7636 48.7309 73.9514 48.7309 74.1387 48.7413V48.6483C74.3079 47.9421 74.668 47.2952 75.1801 46.7772L75.4404 46.5083C75.4614 46.4552 75.4614 46.3961 75.4404 46.3429C75.3549 46.0403 75.3164 45.7266 75.3259 45.4125C75.361 44.8497 75.5325 44.3035 75.8258 43.8204C75.9201 43.5987 76.0315 43.3844 76.159 43.1795C76.1694 43.2209 76.4609 42.9624 76.6796 42.9521Z" fill="white"/>
<path id="Vector_68" d="M88.593 76.7763C88.593 76.7246 87.7182 77.1381 86.2498 77.4792L85.6979 77.6033C85.4843 77.6198 85.272 77.6509 85.0627 77.6963C84.5976 77.7718 84.1279 77.8167 83.6568 77.8308C81.4958 77.9446 79.3356 77.5919 77.3252 76.7969C76.885 76.6303 76.4569 76.4333 76.0443 76.2077C75.8506 76.1237 75.6627 76.027 75.4819 75.9183L74.9717 75.6185C73.7011 74.8121 73.0347 74.1401 73.0034 74.1815C73.1492 74.3434 73.3057 74.4954 73.4721 74.6363C73.6603 74.8127 73.8585 74.9785 74.0656 75.1326C74.3364 75.3394 74.6072 75.546 74.8988 75.7322L75.3987 76.063L75.961 76.3628C76.3768 76.5952 76.8083 76.799 77.2523 76.9727C79.269 77.7843 81.4431 78.1376 83.6152 78.0065C84.0905 77.9905 84.564 77.9387 85.0315 77.8514L85.6771 77.7377L86.2498 77.593C86.6037 77.522 86.9517 77.4252 87.2913 77.3035C87.537 77.231 87.777 77.1412 88.0098 77.0347C88.2159 76.9523 88.4175 76.859 88.6138 76.7556L88.593 76.7763Z" fill="white"/>
<path id="Vector_69" d="M82.7615 54.8504C82.7066 54.8496 82.6542 54.8273 82.6157 54.7884C82.6104 54.7645 82.6104 54.7398 82.6157 54.7159C82.6099 54.6887 82.6099 54.6606 82.6157 54.6332V46.8386C82.6245 46.8073 82.6413 46.7788 82.6645 46.756C82.6877 46.7331 82.7165 46.7167 82.7481 46.7084C82.7796 46.7001 82.8129 46.7001 82.8445 46.7084C82.876 46.7166 82.905 46.733 82.9281 46.7559C82.9345 46.776 82.9345 46.7977 82.9281 46.8179C82.9339 46.8416 82.9339 46.8665 82.9281 46.8902V54.7263C82.9341 54.7536 82.9341 54.7817 82.9281 54.8091C82.933 54.8329 82.933 54.8574 82.9281 54.8814C82.8898 54.9203 82.8373 54.9426 82.7823 54.9434L82.7615 54.8504Z" fill="white"/>
<path id="Vector_70" d="M82.7094 56.2967C82.9351 56.2988 83.1563 56.2341 83.3447 56.1107C83.5306 55.9789 83.678 55.8005 83.7717 55.5938C83.8546 55.3871 83.8763 55.1611 83.8342 54.9425C83.7897 54.7232 83.681 54.5218 83.5218 54.3635C83.3666 54.2001 83.1618 54.0912 82.9386 54.0535C82.7171 54.0071 82.4866 54.0277 82.2769 54.1124C82.0672 54.1973 81.8879 54.3423 81.7619 54.529C81.6356 54.7157 81.5669 54.9348 81.564 55.1596C81.5672 55.4607 81.6864 55.7493 81.8972 55.966C82.0041 56.0714 82.1307 56.1549 82.2701 56.2117C82.4095 56.2685 82.5588 56.2974 82.7094 56.2967Z" fill="#32477B"/>
<path id="Vector_71" d="M82.7062 57.176C82.8772 57.1736 83.0409 57.1071 83.1644 56.9899C83.284 56.8683 83.3509 56.705 83.3509 56.5351C83.3509 56.3651 83.284 56.2018 83.1644 56.0802C83.0424 55.9592 82.8785 55.8889 82.7062 55.8838C82.535 55.8838 82.3707 55.9513 82.2497 56.0714C82.1286 56.1917 82.0605 56.3547 82.0605 56.5247C82.0605 56.6947 82.1286 56.8577 82.2497 56.9779C82.3707 57.0981 82.535 57.1656 82.7062 57.1656V57.176Z" fill="#32477B"/>
<path id="Vector_72" d="M85.2398 54.7167L84.2713 53.8173L83.3965 54.5203L84.3442 53.7656L85.3855 54.7167C85.391 54.7261 85.3939 54.7368 85.3939 54.7476C85.3939 54.7585 85.391 54.7692 85.3855 54.7787L85.2398 54.7167Z" fill="#32477B"/>
<path id="Vector_73" d="M84.2505 56.6182L84.1255 55.8842H83.4902V55.7705H84.2297L84.3755 56.6596C84.3809 56.6689 84.3838 56.6796 84.3838 56.6905C84.3838 56.7014 84.3809 56.7121 84.3755 56.7216L84.2505 56.6182Z" fill="#32477B"/>
<path id="Vector_74" d="M80.105 54.7162V54.6024L81.1464 53.6514L82.0941 54.406L81.2193 53.8167L80.2508 54.7058L80.105 54.7162Z" fill="#32477B"/>
<path id="Vector_75" d="M80.54 55.7185V55.6565L81.1857 54.7363L81.8937 55.0879C81.9005 55.0968 81.9042 55.1077 81.9042 55.1188C81.9042 55.1301 81.9005 55.141 81.8937 55.1499L81.2689 54.8397L80.6857 55.6772L80.54 55.7185Z" fill="#32477B"/>
<path id="Vector_76" d="M81.1143 56.6181V56.5663L81.2496 55.667H82.041C82.0465 55.6763 82.0495 55.6871 82.0495 55.6979C82.0495 55.7088 82.0465 55.7195 82.041 55.729C82.0351 55.7486 82.0244 55.7662 82.0099 55.7807C81.9953 55.7951 81.9774 55.8058 81.9578 55.8117H81.3225L81.208 56.5767L81.1143 56.6181Z" fill="#32477B"/>
</g>
</g>
</g>
</g>
</svg>
