<svg width="120" height="120" viewBox="0 0 120 120" fill="none" xmlns="http://www.w3.org/2000/svg">
<g clip-path="url(#clip0_1709_26675)">
<path d="M91.1979 45.9319H78.0752C77.6183 45.9266 77.182 45.7413 76.8608 45.4164C76.5395 45.0914 76.3594 44.6529 76.3594 44.196C76.3594 43.739 76.5395 43.3005 76.8608 42.9756C77.182 42.6506 77.6183 42.4654 78.0752 42.4601H91.1979C91.4276 42.4574 91.6555 42.5003 91.8684 42.5864C92.0814 42.6724 92.2751 42.7999 92.4385 42.9613C92.6018 43.1228 92.7315 43.315 92.82 43.527C92.9085 43.7389 92.9541 43.9663 92.9541 44.196C92.9541 44.4257 92.9085 44.653 92.82 44.865C92.7315 45.0769 92.6018 45.2692 92.4385 45.4306C92.2751 45.5921 92.0814 45.7195 91.8684 45.8056C91.6555 45.8916 91.4276 45.9345 91.1979 45.9319ZM42.1788 45.9319H29.0445C28.5876 45.9266 28.1512 45.7413 27.83 45.4164C27.5088 45.0914 27.3286 44.6529 27.3286 44.196C27.3286 43.739 27.5088 43.3005 27.83 42.9756C28.1512 42.6506 28.5876 42.4654 29.0445 42.4601H42.1788C42.6357 42.4654 43.0721 42.6506 43.3933 42.9756C43.7145 43.3005 43.8947 43.739 43.8947 44.196C43.8947 44.6529 43.7145 45.0914 43.3933 45.4164C43.0721 45.7413 42.6357 45.9266 42.1788 45.9319ZM47.4326 33.2487C47.2044 33.249 46.9784 33.2042 46.7677 33.1168C46.5569 33.0294 46.3655 32.9012 46.2045 32.7396L36.9232 23.4473C36.5979 23.1216 36.4152 22.68 36.4155 22.2196C36.4158 21.7593 36.5989 21.3178 36.9246 20.9925C37.2503 20.6672 37.692 20.4845 38.1523 20.4848C38.6127 20.4851 39.0541 20.6682 39.3795 20.9939L48.6607 30.2862C48.9033 30.529 49.0684 30.8383 49.1352 31.175C49.2021 31.5116 49.1676 31.8605 49.0361 32.1776C48.9047 32.4947 48.6822 32.7657 48.3968 32.9563C48.1113 33.1469 47.7758 33.2487 47.4326 33.2487ZM72.81 33.2487C72.4667 33.2487 72.1311 33.1469 71.8456 32.9562C71.5602 32.7654 71.3377 32.4943 71.2063 32.1772C71.0749 31.86 71.0405 31.511 71.1075 31.1742C71.1745 30.8375 71.3398 30.5282 71.5826 30.2855L80.8748 20.9932C81.2015 20.6733 81.6413 20.4952 82.0985 20.4976C82.5558 20.4999 82.9936 20.6826 83.317 21.0059C83.6403 21.3292 83.823 21.7671 83.8255 22.2243C83.8279 22.6816 83.6498 23.1213 83.3299 23.448L74.0388 32.7403C73.8776 32.9019 73.6861 33.03 73.4752 33.1172C73.2643 33.2044 73.0382 33.2491 72.81 33.2487ZM60.127 27.9844C59.8991 27.9844 59.6734 27.9395 59.4628 27.8522C59.2522 27.765 59.0608 27.6372 58.8997 27.476C58.7385 27.3148 58.6106 27.1234 58.5234 26.9129C58.4362 26.7023 58.3913 26.4765 58.3913 26.2486V13.125C58.3913 12.6646 58.5741 12.2231 58.8997 11.8976C59.2252 11.5721 59.6667 11.3892 60.127 11.3892C60.5874 11.3892 61.0289 11.5721 61.3544 11.8976C61.6799 12.2231 61.8628 12.6646 61.8628 13.125V26.2477C61.8629 26.4757 61.8181 26.7015 61.731 26.9122C61.6438 27.1229 61.5159 27.3144 61.3548 27.4756C61.1936 27.6369 61.0022 27.7649 60.7915 27.8522C60.5809 27.9394 60.3551 27.9844 60.127 27.9844Z" fill="#26A6FE"/>
<path d="M60.0411 88.8349H44.1709V72.4322C44.171 70.7299 44.4181 69.0366 44.9045 67.4053L51.7733 44.3684C52.0299 43.5079 52.5541 42.7517 53.2698 42.2095C53.9855 41.6673 54.8555 41.3674 55.7532 41.3534C56.3131 41.3446 56.8692 41.4474 57.389 41.6556C57.9088 41.8638 58.382 42.1733 58.781 42.5662C59.18 42.9591 59.4969 43.4274 59.7132 43.9439C59.9295 44.4604 60.0409 45.0147 60.0409 45.5747L60.0411 88.8349Z" fill="#FED1AD"/>
<path d="M19.9316 81.7678H60.0412V92.3686C60.0412 93.9643 59.7269 95.5443 59.1163 97.0185C58.5056 98.4927 57.6106 99.8321 56.4823 100.96C55.354 102.089 54.0145 102.984 52.5403 103.594C51.0662 104.205 49.4861 104.519 47.8905 104.519H19.9316V81.7678Z" fill="#FED1AD"/>
<path d="M59.2366 96.7097C58.3607 99.0077 56.8072 100.985 54.7819 102.38C52.7566 103.775 50.3551 104.522 47.8959 104.521H19.9263V96.7097H59.2366Z" fill="#FEC89D"/>
<path d="M39.067 78.6061H19.6015C18.4031 78.6061 17.4316 79.5776 17.4316 80.7759V104.705C17.4316 105.904 18.4031 106.875 19.6015 106.875H39.067C40.2654 106.875 41.2369 105.904 41.2369 104.705V80.7759C41.2369 79.5776 40.2654 78.6061 39.067 78.6061Z" fill="#42A147"/>
<path d="M60.0001 80.745H54.9962C53.4444 80.745 51.9561 80.1286 50.8588 79.0312C49.7615 77.9339 49.145 76.4457 49.145 74.8938C49.145 73.036 49.3676 71.1848 49.8081 69.3799L53.0392 56.1445C53.2249 55.3835 53.6585 54.7058 54.2716 54.2181C54.8847 53.7304 55.6425 53.4604 56.4259 53.4506C56.8932 53.445 57.357 53.5321 57.7904 53.707C58.2238 53.8819 58.6181 54.1411 58.9506 54.4696C59.2831 54.798 59.547 55.1892 59.7272 55.6204C59.9073 56.0517 60.0001 56.5144 60.0001 56.9817V80.745Z" fill="#FEC89D"/>
<path d="M60.0411 84.4237H50.3394V72.8269L54.9868 57.2409C55.1437 56.7149 55.4641 56.2526 55.9017 55.9212C56.3392 55.5897 56.871 55.4064 57.4198 55.3978C57.7621 55.3925 58.102 55.4553 58.4198 55.5826C58.7376 55.7098 59.0269 55.8991 59.2709 56.1393C59.5148 56.3794 59.7085 56.6657 59.8408 56.9815C59.973 57.2973 60.0411 57.6362 60.0411 57.9785V84.4237Z" fill="#FED1AD"/>
<path d="M34.7275 78.6061H39.1446C39.6995 78.6061 40.2316 78.8265 40.624 79.2189C41.0164 79.6113 41.2368 80.1434 41.2368 80.6983V104.783C41.2368 105.338 41.0164 105.87 40.624 106.262C40.2316 106.655 39.6995 106.875 39.1446 106.875H34.7275V78.6061Z" fill="#358437"/>
<path opacity="0.3" d="M41.2416 96.7097V104.706C41.2398 105.281 41.0096 105.833 40.6017 106.238C40.1938 106.644 39.6415 106.871 39.0661 106.87H19.602C19.0266 106.871 18.4742 106.644 18.0662 106.238C17.6582 105.833 17.4281 105.281 17.4263 104.706V96.7097H41.2416Z" fill="#006838"/>
<path d="M45.75 104.523H47.8908C49.4865 104.523 51.0665 104.209 52.5408 103.598C54.015 102.987 55.3546 102.093 56.4829 100.964C57.6112 99.8359 58.5062 98.4964 59.1167 97.0221C59.7273 95.5479 60.0414 93.9678 60.0412 92.3721V45.5747C60.0424 45.0148 59.932 44.4603 59.7165 43.9436C59.5011 43.4268 59.1848 42.9582 58.7862 42.565C58.3876 42.1718 57.9147 41.8619 57.3951 41.6535C56.8755 41.4451 56.3195 41.3422 55.7597 41.351C55.4202 41.3615 55.0827 41.408 54.753 41.4898C55.655 41.7277 56.4529 42.2574 57.0223 42.9963C57.5916 43.7353 57.9004 44.6418 57.9005 45.5747V92.3721C57.9007 93.9678 57.5865 95.5479 56.9759 97.0221C56.3654 98.4964 55.4704 99.8359 54.3421 100.964C53.2138 102.093 51.8742 102.987 50.4 103.598C48.9258 104.209 47.3457 104.523 45.75 104.523Z" fill="#FEC39D"/>
<path d="M59.959 88.8349H75.8292V72.4322C75.8291 70.7299 75.582 69.0366 75.0956 67.4053L68.2268 44.3684C67.9702 43.5079 67.446 42.7517 66.7303 42.2095C66.0146 41.6673 65.1446 41.3674 64.2469 41.3534C63.687 41.3446 63.1309 41.4474 62.6111 41.6556C62.0913 41.8638 61.6181 42.1733 61.2191 42.5662C60.8201 42.9591 60.5032 43.4274 60.2869 43.9439C60.0706 44.4604 59.9592 45.0147 59.9592 45.5747L59.959 88.8349Z" fill="#FED1AD"/>
<path d="M100.068 104.52H72.109C68.8865 104.52 65.7959 103.239 63.5172 100.961C61.2385 98.682 59.9583 95.5914 59.9583 92.3688V81.768H100.068V104.52Z" fill="#FED1AD"/>
<path d="M102.296 81.7704H100.155V104.521H102.296V81.7704Z" fill="#FEC89D"/>
<path d="M60.7637 96.7097C61.6395 99.0077 63.1931 100.985 65.2184 102.38C67.2437 103.775 69.6451 104.522 72.1044 104.521H100.074V96.7097H60.7637Z" fill="#FEC89D"/>
<path d="M80.933 106.875H100.399C101.597 106.875 102.568 105.904 102.568 104.705V80.7759C102.568 79.5776 101.597 78.6061 100.399 78.6061H80.933C79.7346 78.6061 78.7631 79.5776 78.7631 80.7759V104.705C78.7631 105.904 79.7346 106.875 80.933 106.875Z" fill="#42A147"/>
<path d="M60 80.745H65.0039C66.5557 80.745 68.044 80.1285 69.1413 79.0312C70.2386 77.9339 70.8551 76.4457 70.8551 74.8938C70.8551 73.036 70.6325 71.1848 70.192 69.3799L66.9621 56.1445C66.7763 55.3835 66.3428 54.7058 65.7297 54.2181C65.1166 53.7304 64.3587 53.4604 63.5754 53.4506C63.108 53.4448 62.6441 53.5318 62.2105 53.7067C61.777 53.8815 61.3825 54.1407 61.0499 54.4691C60.7173 54.7976 60.4533 55.1888 60.273 55.6202C60.0928 56.0515 60 56.5143 60 56.9817V80.745Z" fill="#FEC89D"/>
<path d="M59.959 84.4237H69.6607V72.8269L65.0133 57.2409C64.8564 56.7149 64.5359 56.2526 64.0984 55.9212C63.6609 55.5897 63.1291 55.4064 62.5802 55.3978C62.2379 55.3925 61.898 55.4553 61.5802 55.5826C61.2624 55.7098 60.9731 55.8991 60.7292 56.1393C60.4853 56.3794 60.2915 56.6657 60.1593 56.9815C60.0271 57.2973 59.959 57.6362 59.959 57.9785V84.4237Z" fill="#FED1AD"/>
<path d="M85.2725 106.875H80.8559C80.301 106.875 79.7688 106.655 79.3764 106.262C78.9841 105.87 78.7636 105.338 78.7636 104.783V80.6984C78.7636 80.1435 78.9841 79.6113 79.3764 79.2189C79.7688 78.8265 80.301 78.6061 80.8559 78.6061H85.2725V106.875Z" fill="#358437"/>
<path opacity="0.3" d="M78.7583 96.7097V104.706C78.7601 105.281 78.9902 105.833 79.3982 106.238C79.8061 106.644 80.3584 106.871 80.9338 106.87H100.398C100.973 106.871 101.526 106.644 101.934 106.238C102.342 105.833 102.572 105.281 102.574 104.706V96.7097H78.7583Z" fill="#006838"/>
<path d="M74.2329 104.517H72.0921C70.4965 104.517 68.9164 104.203 67.4422 103.593C65.968 102.982 64.6284 102.087 63.5001 100.959C62.3718 99.8307 61.4768 98.4912 60.8662 97.017C60.2556 95.5429 59.9413 93.9628 59.9414 92.3672V45.5691C59.9403 45.0092 60.0507 44.4547 60.2662 43.938C60.4817 43.4212 60.7979 42.9526 61.1965 42.5594C61.5951 42.1662 62.068 41.8564 62.5876 41.6479C63.1072 41.4395 63.6632 41.3366 64.223 41.3454C64.5629 41.3558 64.9007 41.4023 65.2308 41.4841C64.3288 41.722 63.5308 42.2517 62.9615 42.9907C62.3921 43.7296 62.0832 44.6362 62.0831 45.5691V92.3672C62.0831 93.9627 62.3973 95.5427 63.0079 97.0168C63.6184 98.4909 64.5134 99.8303 65.6416 100.959C66.7698 102.087 68.1092 102.982 69.5833 103.592C71.0574 104.203 72.6374 104.517 74.2329 104.517Z" fill="#FEC39D"/>
</g>
<defs>
<clipPath id="clip0_1709_26675">
<rect width="120" height="120" fill="white"/>
</clipPath>
</defs>
</svg>
