<svg width="120" height="120" viewBox="0 0 120 120" fill="none" xmlns="http://www.w3.org/2000/svg">
<g clip-path="url(#clip0_1709_25877)">
<mask id="mask0_1709_25877" style="mask-type:luminance" maskUnits="userSpaceOnUse" x="0" y="0" width="120" height="120">
<path d="M120 0H0V120H120V0Z" fill="white"/>
</mask>
<g mask="url(#mask0_1709_25877)">
<g opacity="0.631488">
<path d="M60.0002 7.00305C88.7586 7.00305 112.108 30.3527 112.108 59.1111C112.108 87.8696 88.7586 111.219 60.0002 111.219C31.2417 111.219 7.89209 87.8696 7.89209 59.1111C7.89209 30.3527 31.2417 7.00305 60.0002 7.00305Z" fill="#44A846" fill-opacity="0.4"/>
<path d="M60.0002 7.00305C88.7586 7.00305 112.108 30.3527 112.108 59.1111C112.108 87.8696 88.7586 111.219 60.0002 111.219C31.2417 111.219 7.89209 87.8696 7.89209 59.1111C7.89209 30.3527 31.2417 7.00305 60.0002 7.00305Z" stroke="white" stroke-width="0.883188"/>
</g>
<path d="M60 17.8969C82.8952 17.8969 101.484 36.486 101.484 59.3812C101.484 82.2765 82.8952 100.866 60 100.866C37.1048 100.866 18.5156 82.2765 18.5156 59.3812C18.5156 36.486 37.1048 17.8969 60 17.8969Z" fill="#25B628"/>
<path d="M40.6641 61.0547L52.7344 72.8906L77.1094 47.6953" stroke="white" stroke-width="7.03125" stroke-linecap="round" stroke-linejoin="round"/>
</g>
</g>
<defs>
<clipPath id="clip0_1709_25877">
<rect width="120" height="120" fill="white"/>
</clipPath>
</defs>
</svg>
