<svg width="60" height="60" viewBox="0 0 60 60" fill="none" xmlns="http://www.w3.org/2000/svg">
<g clip-path="url(#clip0_2478_33350)">
<path d="M26.7922 38.2012H10.2002V49.233H26.7922V38.2012Z" fill="#FED1AD"/>
<path d="M23.9028 39.764L26.7922 49.2338L36.6903 46.2137C37.7172 45.9005 38.6938 45.4414 39.5901 44.8506L52.2409 36.5104C52.7119 36.2026 53.0722 35.7523 53.2692 35.2252C53.4661 34.6982 53.4894 34.1219 53.3356 33.5807C53.2365 33.2437 53.0713 32.9297 52.8496 32.6572C52.628 32.3846 52.3543 32.1589 52.0446 31.9931C51.7349 31.8273 51.3953 31.7248 51.0455 31.6916C50.6958 31.6583 50.3429 31.695 50.0075 31.7994L23.9028 39.764Z" fill="#FED1AD"/>
<path d="M52.2406 36.509L39.59 44.8528C38.6944 45.4433 37.7188 45.9023 36.6929 46.2158L26.7918 49.2368H10.1997V47.7145H26.7918L36.6929 44.6994C37.7188 44.3859 38.6944 43.9269 39.59 43.3364L52.2406 34.9926C52.7622 34.6505 53.1449 34.1338 53.3203 33.5352C53.3261 33.5529 53.332 33.5647 53.338 33.582C53.4897 34.1232 53.4652 34.6987 53.2678 35.2249C53.0705 35.7512 52.7107 36.201 52.2406 36.509Z" fill="#FEC89D"/>
<path d="M37.3947 35.6465L30.9043 41.4231L24.2485 39.6589L37.3947 35.6465Z" fill="#FEC89D"/>
<path d="M19.8096 38.4869L33.3751 30.9601C33.7087 30.775 34.0905 30.6952 34.4704 30.731C34.8503 30.7669 35.2104 30.9168 35.5036 31.161C35.8573 31.4558 36.0913 31.8695 36.1617 32.3245C36.2322 32.7795 36.1343 33.2445 35.8863 33.6325L30.9046 41.4266L19.8096 38.4869Z" fill="#FED1AD"/>
<path d="M17.5967 36.0195H7.67131C7.06028 36.0195 6.56494 36.5149 6.56494 37.1259V49.3272C6.56494 49.9383 7.06028 50.4336 7.67131 50.4336H17.5967C18.2078 50.4336 18.7031 49.9383 18.7031 49.3272V37.1259C18.7031 36.5149 18.2078 36.0195 17.5967 36.0195Z" fill="#42A147"/>
<path d="M15.3843 36.02H17.6369C17.7769 36.02 17.9156 36.0476 18.045 36.1012C18.1743 36.1548 18.2919 36.2333 18.3909 36.3323C18.4899 36.4314 18.5685 36.5489 18.6221 36.6783C18.6757 36.8077 18.7033 36.9464 18.7033 37.0864V49.3672C18.7033 49.65 18.5909 49.9213 18.3909 50.1212C18.1909 50.3212 17.9197 50.4336 17.6369 50.4336H15.3843V36.0195V36.02Z" fill="#358437"/>
<path opacity="0.3" d="M18.7057 45.252V49.3291C18.7048 49.6225 18.5875 49.9036 18.3794 50.1105C18.1714 50.3174 17.8898 50.4332 17.5964 50.4326H7.67191C7.3785 50.4333 7.09683 50.3174 6.8888 50.1105C6.68076 49.9036 6.5634 49.6226 6.5625 49.3291V45.252H18.7057Z" fill="#006838"/>
<path d="M50.5483 23.1904C49.4075 23.9491 48.4292 24.9274 47.6705 26.0682C47.6313 26.1248 47.579 26.171 47.518 26.203C47.457 26.235 47.3892 26.2516 47.3203 26.2516C47.2515 26.2516 47.1837 26.235 47.1227 26.203C47.0617 26.171 47.0094 26.1248 46.9702 26.0682C46.2114 24.9274 45.2331 23.9492 44.0923 23.1904C44.0357 23.1512 43.9894 23.0989 43.9575 23.0379C43.9255 22.9769 43.9088 22.9091 43.9088 22.8402C43.9088 22.7714 43.9255 22.7036 43.9575 22.6426C43.9894 22.5816 44.0357 22.5293 44.0923 22.4901C45.233 21.7312 46.2113 20.7529 46.9702 19.6122C47.0094 19.5556 47.0617 19.5093 47.1227 19.4774C47.1837 19.4454 47.2515 19.4287 47.3203 19.4287C47.3892 19.4287 47.457 19.4454 47.518 19.4774C47.579 19.5093 47.6313 19.5556 47.6705 19.6122C48.4293 20.753 49.4075 21.7313 50.5483 22.4901C50.6049 22.5293 50.6511 22.5816 50.6831 22.6426C50.7151 22.7036 50.7318 22.7714 50.7318 22.8402C50.7318 22.9091 50.7151 22.9769 50.6831 23.0379C50.6511 23.0989 50.6049 23.1512 50.5483 23.1904ZM17.4673 15.0024C15.6829 16.2348 14.5409 17.3768 13.3085 19.1613C13.2519 19.2431 13.1763 19.3099 13.0882 19.3561C13 19.4022 12.902 19.4264 12.8025 19.4264C12.703 19.4264 12.605 19.4022 12.5169 19.3561C12.4288 19.3099 12.3531 19.2431 12.2965 19.1613C11.0641 17.3768 9.92218 16.2348 8.13776 15.0024C8.05594 14.9458 7.98907 14.8702 7.94288 14.7821C7.89669 14.6939 7.87256 14.5959 7.87256 14.4964C7.87256 14.3969 7.89669 14.2989 7.94288 14.2108C7.98907 14.1227 8.05594 14.0471 8.13776 13.9905C9.92218 12.758 11.0641 11.616 12.2965 9.83161C12.3531 9.74979 12.4287 9.68291 12.5169 9.63672C12.605 9.59053 12.703 9.56641 12.8025 9.56641C12.902 9.56641 13 9.59053 13.0882 9.63672C13.1763 9.68291 13.2519 9.74979 13.3085 9.83161C14.5409 11.616 15.6829 12.758 17.4673 13.9905C17.5491 14.0471 17.616 14.1227 17.6622 14.2108C17.7084 14.2989 17.7325 14.3969 17.7325 14.4964C17.7325 14.5959 17.7084 14.6939 17.6622 14.7821C17.616 14.8702 17.5491 14.9458 17.4673 15.0024Z" fill="#FEBE4C"/>
<path d="M41.2663 14.6102C41.4088 15.5056 41.3288 16.4223 41.0334 17.2794C40.7379 18.1366 40.2361 18.9079 39.5721 19.5253L39.5678 19.5317L33.0975 26.0005C32.9066 26.1914 32.68 26.3428 32.4306 26.4461C32.1812 26.5495 31.9139 26.6026 31.6439 26.6026C31.3739 26.6026 31.1066 26.5495 30.8572 26.4461C30.6077 26.3428 30.3811 26.1914 30.1902 26.0005L23.7215 19.5302L23.7173 19.5259C23.1734 19.0192 22.7371 18.4082 22.4345 17.7293C22.1319 17.0503 21.9691 16.3174 21.9559 15.5742C21.9428 14.831 22.0794 14.0928 22.3578 13.4035C22.6362 12.7143 23.0505 12.0882 23.5761 11.5626C24.1017 11.037 24.7278 10.6227 25.4171 10.3443C26.1063 10.0659 26.8446 9.92928 27.5878 9.94247C28.331 9.95565 29.0639 10.1184 29.7428 10.421C30.4218 10.7236 31.0328 11.1599 31.5394 11.7038C31.5776 11.742 31.6117 11.7804 31.6457 11.821C31.6776 11.7806 31.7116 11.7423 31.7478 11.7038C32.455 10.9447 33.3614 10.3995 34.3635 10.1306C35.3656 9.86167 36.4231 9.87976 37.4154 10.1828C38.4077 10.4859 39.2949 11.0617 39.9758 11.8446C40.6566 12.6275 41.1038 13.586 41.2662 14.6108L41.2663 14.6102Z" fill="#EF4136"/>
</g>
<defs>
<clipPath id="clip0_2478_33350">
<rect width="60" height="60" fill="white"/>
</clipPath>
</defs>
</svg>
