<svg width="120" height="120" viewBox="0 0 120 120" fill="none" xmlns="http://www.w3.org/2000/svg">
<path d="M65.7029 67.0028V71.6435C63.3451 73.0099 60.9967 73.7997 58.9928 73.7997C57.2232 73.7997 55.0787 73.087 52.8662 71.8474V67.0028C52.8662 65.3006 53.5424 63.668 54.7461 62.4644C55.9498 61.2607 57.5823 60.5845 59.2846 60.5845C60.9868 60.5845 62.6194 61.2607 63.823 62.4644C65.0267 63.668 65.7029 65.3006 65.7029 67.0028Z" fill="#FED1AD"/>
<path d="M99.9143 106.875H19.8654C19.8436 95.7131 21.9612 87.9543 27.6466 85.8686L52.8659 73.8096H65.7031L92.4452 85.8686C97.0716 88.9579 101.138 96.0089 99.9143 106.875Z" fill="#42A147"/>
<path d="M69.3928 75.0404C69.3992 76.3636 69.1441 77.675 68.6421 78.8994C68.1402 80.1237 67.4013 81.2368 66.4679 82.1747C65.5345 83.1126 64.425 83.8569 63.2031 84.3647C61.9812 84.8726 60.671 85.134 59.3478 85.134C58.0246 85.134 56.7144 84.8726 55.4925 84.3647C54.2706 83.8569 53.1611 83.1126 52.2277 82.1747C51.2943 81.2368 50.5554 80.1237 50.0535 78.8994C49.5516 77.675 49.2965 76.3636 49.3029 75.0404C49.3029 75.0252 49.3029 75.0097 49.3029 74.9935C49.312 74.3242 49.5187 73.6724 49.8969 73.12C50.2752 72.5677 50.8081 72.1394 51.4289 71.8888L52.4493 71.4692H66.1978L67.271 71.912C67.891 72.1626 68.4232 72.5908 68.8006 73.1428C69.1781 73.6949 69.384 74.3462 69.3925 75.0149L69.3928 75.0404Z" fill="#358437"/>
<path d="M65.7031 73.8095V67.0021C65.7031 63.4572 62.8294 60.5835 59.2845 60.5835C55.7396 60.5835 52.8659 63.4572 52.8659 67.0021V73.8095C52.8659 77.3544 55.7396 80.2281 59.2845 80.2281C62.8294 80.2281 65.7031 77.3544 65.7031 73.8095Z" fill="#FED1AD"/>
<path d="M65.7029 67.0028V71.6435C63.3451 73.0099 60.9967 73.7997 58.9928 73.7997C57.2232 73.7997 55.0787 73.087 52.8662 71.8474V67.0028C52.8662 65.3006 53.5424 63.668 54.7461 62.4644C55.9498 61.2607 57.5823 60.5845 59.2846 60.5845C60.9868 60.5845 62.6194 61.2607 63.823 62.4644C65.0267 63.668 65.7029 65.3006 65.7029 67.0028Z" fill="#FEC39D"/>
<path d="M59.2842 80.228V106.486" stroke="#358437" stroke-width="1.79461" stroke-miterlimit="10"/>
<path d="M99.9152 106.87H89.2772L92.4481 85.8721C97.0713 88.9581 101.138 96.0139 99.9152 106.87ZM30.1695 106.87H19.8703C19.8469 96.1227 21.8189 88.5226 27.0349 86.1142L30.1695 106.87Z" fill="#358437"/>
<path d="M64.7795 93.3572C66.0686 93.3572 67.1136 92.3122 67.1136 91.0231C67.1136 89.734 66.0686 88.689 64.7795 88.689C63.4903 88.689 62.4453 89.734 62.4453 91.0231C62.4453 92.3122 63.4903 93.3572 64.7795 93.3572Z" fill="#FEBE4C"/>
<path opacity="0.3" d="M99.9141 106.87H19.8657C19.8355 104.017 20.0086 101.165 20.3836 98.3364H99.75C100.203 101.159 100.258 104.032 99.9141 106.87Z" fill="#006838"/>
<path d="M64.7795 102.693C66.0686 102.693 67.1136 101.648 67.1136 100.359C67.1136 99.0699 66.0686 98.0249 64.7795 98.0249C63.4903 98.0249 62.4453 99.0699 62.4453 100.359C62.4453 101.648 63.4903 102.693 64.7795 102.693Z" fill="#FEBE4C"/>
<path d="M43.0432 48.0867C43.0432 52.3568 40.9315 55.8183 38.3266 55.8183C35.7218 55.8183 33.6094 52.3568 33.6094 48.0867C33.6094 43.8166 34.5056 39.9663 37.1105 39.9663C39.7153 39.9663 43.0432 43.8169 43.0432 48.0867ZM75.4922 48.0867C75.4922 52.3568 77.6039 55.8183 80.209 55.8183C82.8141 55.8183 84.9255 52.3568 84.9255 48.0867C84.9255 43.8166 84.0295 39.9663 81.4245 39.9663C78.8194 39.9663 75.4922 43.8169 75.4922 48.0867Z" fill="#FED1AD"/>
<path d="M43.0289 48.6677C42.8484 52.6661 40.8117 55.8185 38.3273 55.8185C35.7211 55.8185 33.6094 52.3567 33.6094 48.0864C33.6094 47.6317 33.6187 47.1794 33.6422 46.7388C33.9117 50.5989 35.9789 53.5989 38.4844 53.5989C40.5539 53.5989 42.3234 51.5528 43.0289 48.6677ZM84.9258 48.0864C84.9258 52.3567 82.8141 55.8185 80.2102 55.8185C77.8734 55.8185 75.9352 53.0364 75.5602 49.3849C76.3641 51.8856 78.007 53.5989 79.9008 53.5989C82.5938 53.5989 84.7758 50.1396 84.7758 45.8692C84.7758 45.6419 84.7734 45.4146 84.7664 45.1919C84.8769 46.1527 84.9302 47.1193 84.9258 48.0864Z" fill="#FEC39D"/>
<path d="M58.9922 71.0859C52.0854 71.0859 39.4453 60.2381 39.4453 49.4963V32.5744C39.4453 21.8332 48.1966 13.125 58.9922 13.125C69.788 13.125 78.5391 21.8332 78.5391 32.5753V49.4972C78.5391 60.2388 66.4205 71.0859 58.9922 71.0859Z" fill="#FED1AD"/>
<path d="M78.533 33.5354V45.2617H77.4315C77.1502 45.2618 76.8716 45.2064 76.6117 45.0988C76.3518 44.9912 76.1156 44.8334 75.9167 44.6345C75.7178 44.4356 75.56 44.1994 75.4524 43.9395C75.3448 43.6796 75.2894 43.401 75.2895 43.1197V31.8135C76.413 32.304 77.4973 32.8797 78.533 33.5354ZM42.6849 31.7373V43.0438C42.6845 43.6115 42.4586 44.1557 42.0569 44.5568C41.6552 44.9579 41.1106 45.1831 40.543 45.1827H39.4414V33.4199C40.4793 32.7793 41.5635 32.2169 42.6849 31.7373Z" fill="#355E68"/>
<path d="M62.5233 56.9531C62.6068 58.3495 61.2856 59.9913 60.0085 61.2384C59.3975 61.8355 58.577 62.1696 57.7227 62.1691C56.8685 62.1685 56.0484 61.8335 55.4382 61.2356C54.165 59.989 52.8493 58.3484 52.9325 56.9531C52.936 56.9506 55.9301 57.4676 57.7212 57.4676C59.5259 57.4688 62.5198 56.9508 62.5233 56.9531Z" fill="#F1F2F2"/>
<path d="M57.7285 52.1554C59.3757 52.1554 60.7109 51.5603 60.7109 50.8262C60.7109 50.0921 59.3757 49.4971 57.7285 49.4971C56.0814 49.4971 54.7461 50.0921 54.7461 50.8262C54.7461 51.5603 56.0814 52.1554 57.7285 52.1554Z" fill="#FEBE4C"/>
<path d="M50.5266 46.5794C51.6006 46.5794 52.4713 44.8704 52.4713 42.7623C52.4713 40.6543 51.6006 38.9453 50.5266 38.9453C49.4527 38.9453 48.582 40.6543 48.582 42.7623C48.582 44.8704 49.4527 46.5794 50.5266 46.5794Z" fill="#355E68"/>
<path d="M47.8345 37.1181C47.7322 37.1179 47.6317 37.0919 47.5422 37.0423C47.4528 36.9928 47.3774 36.9213 47.323 36.8347C47.2687 36.7481 47.2371 36.6491 47.2314 36.547C47.2257 36.4449 47.2459 36.343 47.2903 36.2509C47.5718 35.6243 48.0255 35.0904 48.5985 34.7115C49.1715 34.3325 49.8404 34.1241 50.5272 34.1104C51.0225 34.1133 51.5114 34.2218 51.9613 34.4288C52.4113 34.6358 52.8118 34.9364 53.1363 35.3106C53.1893 35.3697 53.2301 35.4388 53.2564 35.5137C53.2827 35.5886 53.294 35.668 53.2897 35.7473C53.2853 35.8266 53.2654 35.9042 53.231 35.9758C53.1966 36.0474 53.1485 36.1115 53.0893 36.1645C53.0301 36.2175 52.9611 36.2583 52.8862 36.2846C52.8113 36.311 52.7319 36.3223 52.6526 36.3179C52.5733 36.3135 52.4956 36.2936 52.424 36.2592C52.3525 36.2248 52.2883 36.1767 52.2354 36.1175C52.0237 35.8709 51.7618 35.6723 51.4673 35.5348C51.1727 35.3974 50.8522 35.3244 50.5272 35.3207C50.0681 35.3357 49.6226 35.4805 49.2425 35.7384C48.8623 35.9963 48.5631 36.3567 48.3794 36.7778C48.3297 36.88 48.2523 36.9661 48.1559 37.0263C48.0595 37.0865 47.9481 37.1183 47.8345 37.1181Z" fill="#355E68"/>
<path d="M65.8997 46.5794C66.9737 46.5794 67.8443 44.8704 67.8443 42.7623C67.8443 40.6543 66.9737 38.9453 65.8997 38.9453C64.8257 38.9453 63.9551 40.6543 63.9551 42.7623C63.9551 44.8704 64.8257 46.5794 65.8997 46.5794Z" fill="#355E68"/>
<path d="M68.5928 37.118C68.479 37.1181 68.3675 37.0861 68.2711 37.0256C68.1747 36.9652 68.0974 36.8788 68.0479 36.7763C67.8642 36.3552 67.565 35.9949 67.1848 35.737C66.8047 35.4791 66.3592 35.3342 65.9001 35.3192C65.575 35.3229 65.2546 35.3959 64.96 35.5333C64.6655 35.6708 64.4036 35.8694 64.1919 36.1161C64.1389 36.1752 64.0748 36.2234 64.0032 36.2577C63.9316 36.2921 63.854 36.3121 63.7747 36.3164C63.6954 36.3208 63.616 36.3095 63.5411 36.2832C63.4662 36.2569 63.3971 36.2161 63.338 36.1631C63.2788 36.1101 63.2307 36.046 63.1963 35.9744C63.1619 35.9028 63.142 35.8251 63.1376 35.7458C63.1333 35.6665 63.1446 35.5872 63.1709 35.5122C63.1972 35.4373 63.238 35.3683 63.291 35.3091C63.6154 34.935 64.016 34.6343 64.466 34.4274C64.9159 34.2204 65.4048 34.1118 65.9001 34.1089C66.5869 34.1226 67.2557 34.3311 67.8287 34.71C68.4017 35.0889 68.8553 35.6228 69.1368 36.2494C69.1812 36.3416 69.2015 36.4434 69.1958 36.5455C69.1901 36.6476 69.1586 36.7466 69.1043 36.8333C69.0499 36.9199 68.9745 36.9913 68.8851 37.0409C68.7956 37.0904 68.695 37.1165 68.5928 37.1166V37.118Z" fill="#355E68"/>
<path d="M78.5423 32.5735V33.5417C73.9069 30.5766 66.8273 28.6887 58.9001 28.6887C51.082 28.6887 44.0876 30.5283 39.4395 33.4207V32.5735C39.4395 21.8391 48.2016 13.125 58.9969 13.125C64.1673 13.1138 69.1306 15.1562 72.7957 18.8031C76.4608 22.45 78.5278 27.4031 78.5423 32.5735Z" fill="#F1F2F2"/>
<path d="M78.5412 32.573V33.541C78.5271 33.5316 78.5107 33.5222 78.4967 33.5128C78.1472 28.5831 75.9397 23.9697 72.3202 20.6046C68.7006 17.2396 63.9388 15.3737 58.9967 15.3839C48.6889 15.3839 40.2373 23.3269 39.4943 33.3886C39.4756 33.4003 39.4592 33.4097 39.4404 33.4212V32.573C39.4404 21.8386 48.2014 13.1246 58.9967 13.1246C64.1671 13.113 69.1304 15.1553 72.7955 18.8023C76.4605 22.4494 78.5272 27.4026 78.5412 32.573Z" fill="#E6E7E8"/>
</svg>
