<svg width="24" height="24" viewBox="0 0 24 24" fill="none" xmlns="http://www.w3.org/2000/svg">
<path fill-rule="evenodd" clip-rule="evenodd" d="M2.25 12C2.25 6.62247 6.62098 2.25 11.9978 2.25H12.0022C17.3791 2.25 21.75 6.62366 21.75 12C21.75 17.3763 17.3791 21.75 12.0022 21.75C10.1508 21.75 8.42218 21.2349 6.94517 20.334L4.38426 21.1527C3.56489 21.4146 2.79547 20.6341 3.06906 19.8186L3.88228 17.3944C2.85009 15.8494 2.25 13.9918 2.25 12ZM11.9978 3.75C7.44977 3.75 3.75 7.45053 3.75 12C3.75 13.8052 4.33127 15.4763 5.31967 16.8336L5.54756 17.1466L4.77372 19.4534L7.16542 18.6888L7.46532 18.8875C8.76917 19.7512 10.3234 20.25 12.0022 20.25C16.5502 20.25 20.25 16.5484 20.25 12C20.25 7.45159 16.5502 3.75 12.0022 3.75H11.9978Z" fill="white"/>
<path d="M17.8217 16.1217C17.5804 16.803 16.6229 17.368 15.8592 17.533C15.3367 17.6442 14.6542 17.733 12.3567 16.7805C9.41793 15.563 7.52543 12.5767 7.37793 12.383C7.23668 12.1892 6.19043 10.8017 6.19043 9.36672C6.19043 7.93172 6.91918 7.23297 7.21293 6.93297C7.45418 6.68672 7.85293 6.57422 8.23543 6.57422C8.35918 6.57422 8.47043 6.58047 8.57043 6.58547C8.86418 6.59797 9.01168 6.61547 9.20543 7.07922C9.44668 7.66047 10.0342 9.09547 10.1042 9.24297C10.1754 9.39047 10.2467 9.59047 10.1467 9.78422C10.0529 9.98422 9.97043 10.073 9.82293 10.243C9.67543 10.413 9.53543 10.543 9.38793 10.7255C9.25293 10.8842 9.10043 11.0542 9.27043 11.348C9.44043 11.6355 10.0279 12.5942 10.8929 13.3642C12.0092 14.358 12.9142 14.6755 13.2379 14.8105C13.4792 14.9105 13.7667 14.8867 13.9429 14.6992C14.1667 14.458 14.4429 14.058 14.7242 13.6642C14.9242 13.3817 15.1767 13.3467 15.4417 13.4467C15.7117 13.5405 17.1404 14.2467 17.4342 14.393C17.7279 14.5405 17.9217 14.6105 17.9929 14.7342C18.0629 14.858 18.0629 15.4392 17.8217 16.1217Z" fill="white"/>
</svg>
