<svg xmlns="http://www.w3.org/2000/svg" viewBox="0 0 192.36 29.01"><defs><style>.cls-1{fill:#231916;fill-rule:evenodd;}</style></defs><title>bismillah</title><g id="Layer_2" data-name="Layer 2"><g id="Layer_1-2" data-name="Layer 1"><path class="cls-1" d="M184.34,7.11q-.21,2.86-5,4.12l-.2-.07a9.59,9.59,0,0,0,3.41-2.44q0-.63-1.32-.63a4.52,4.52,0,0,0-2.16.56,5.78,5.78,0,0,1,1.18-2,2.74,2.74,0,0,1,1.67-.38,3.69,3.69,0,0,1,2.45.83Zm8,11.79L191,20.23l-1.39-1.4L191,17.51l1.4,1.39ZM188.52,20a2.1,2.1,0,0,1-1.32,1.6q-1.89,1-5.37,3.21a4.22,4.22,0,0,1,1.11-1.53A44.22,44.22,0,0,1,188.52,20Zm-7.88.07c-.28,1.44-.72,2.16-1.33,2.16a2.1,2.1,0,0,1-.9-.28,2.84,2.84,0,0,1-1.26.77,1.13,1.13,0,0,1-.49-.25,1.07,1.07,0,0,0-.55-.24,10.14,10.14,0,0,0-3.42,1.53,18.48,18.48,0,0,1-4.81,2.1l-.07-.21a19,19,0,0,0,4.95-2.58c1.77-1.21,3-1.82,3.83-1.82a1,1,0,0,1,.53.21,1,1,0,0,0,.52.21,8.09,8.09,0,0,0,1.12-.77,1.07,1.07,0,0,1,.31.14.84.84,0,0,0,.45.14q.28,0,.39-.45a1,1,0,0,1,.73-.66Zm11.3-6.28a9.2,9.2,0,0,0-1.68-5c-1.11-1.72-2.13-2.7-3.06-2.93V8.72a6.24,6.24,0,0,1,2.86,2.51,8.76,8.76,0,0,1,1.25,2.93,1.33,1.33,0,0,1-1,.42c-.14,0-.34-.13-.62-.39s-.42-.45-.42-.59l-.35-.14c-.47,1.68-1.21,2.51-2.23,2.51a1.11,1.11,0,0,1-.84-.35,5.75,5.75,0,0,0,.35-.76l-.14-.49c-1.4,1.39-2.49,2.09-3.28,2.09a2,2,0,0,1-1.46-.56c.32-.37.53-.63.62-.76v-.42q-19.87,5.85-46.45,5.85-25.66,0-38.29-3a4.71,4.71,0,0,1-1.5-1c-.58-.53-1-.8-1.29-.8q-1.53,0-1.53,3.42-.84,2-5,3.77v.28a6.88,6.88,0,0,0,3.42-1.05,4.73,4.73,0,0,0,2.16-2.37,4.13,4.13,0,0,1,1.15.49,3.84,3.84,0,0,0,1.22.48c.14,0,.31-.17.52-.52s.36-.52.46-.52q13.74,3.35,37.1,3.35a195.12,195.12,0,0,0,26.64-1.82,115.74,115.74,0,0,0,18.76-3.9,5,5,0,0,0,2.86,1.18,3.31,3.31,0,0,0,2.51-1.11,2.57,2.57,0,0,0,1.47.48,2,2,0,0,0,1.6-.9c.19-.37.4-.75.63-1.12a2.19,2.19,0,0,0,1.61.56,1.58,1.58,0,0,0,1.32-.84,3.2,3.2,0,0,0,.56-1.81ZM96.39,7.53a2.6,2.6,0,0,1-.49,1.26h-.14c.09-.47,0-.7-.35-.7s-.56.63-.56,1.88c0,.84-.07,1.65-.07,2.44h-.14A3.14,3.14,0,0,0,94.12,11c-.35-.6-.75-.91-1.22-.91,0,.47-.3.7-.91.7s-.83-.35-.83-1.05.37-1,1.11-1a2.28,2.28,0,0,1,2.23,1.81V8.16q.15-1.53,1-1.53t.84.9ZM83.69,3.91a7.08,7.08,0,0,1-.34,2.44h-.07c0-2.14-.47-3.65-1.4-4.54L82,0a5.57,5.57,0,0,1,1.74,3.91Zm7.12,11.85a11.25,11.25,0,0,1-.42,2.79l-3-13.32A3,3,0,0,1,88,3.07q.21.35,1.5,6.28t1.29,6.41ZM85.3,7.46a3.29,3.29,0,0,0-.21-1.18l-.28.35c-.09.83-.3,1.25-.63,1.25s-.63-.32-.63-1l-.34.42c0,.79-.21,1.19-.63,1.19s-.7-.26-.7-.77l-.28.14a2.3,2.3,0,0,0-.14.84c0,.74.33,1.11,1,1.11.18,0,.49-.27.91-.83a1.14,1.14,0,0,0,.83.35c.75,0,1.12-.63,1.12-1.89ZM75.6,3.7A1.92,1.92,0,0,1,76,4.88c0,1-.37,1.54-1.11,1.54S73.72,6,73.72,5.09a3.8,3.8,0,0,1,.52-1.85c.35-.62.71-1.22,1.08-1.77l.07.06c-.46,1.77-.69,2.68-.69,2.72,0,.47.14.7.42.7.46,0,.62-.35.48-1V3.7ZM97.08,21.9a2.08,2.08,0,0,1-1.32,1.6c-1.26.66-3.05,1.72-5.37,3.21a5.68,5.68,0,0,1,1.12-1.53,46,46,0,0,1,5.57-3.28ZM80.35,8.65a1.2,1.2,0,0,1-1.68,1,4.34,4.34,0,0,1-2.26,2,7.85,7.85,0,0,1-3.39.8l-.14-.14a8,8,0,0,0,2.51-1,7.83,7.83,0,0,0,2.79-1.81c-.55-.24-.83-.54-.83-.91a2.4,2.4,0,0,1,.17-.8,1,1,0,0,0,.11-.6c-.1,0-.14-.14-.14-.28s.3-.41.9-.41a2.1,2.1,0,0,1,1.33.73,1.52,1.52,0,0,1,.63,1.36Zm7.39,8a19.12,19.12,0,0,0-2-7.53,3.3,3.3,0,0,1-.28,1,3.17,3.17,0,0,0-.28,1.12A18.56,18.56,0,0,0,86,13.67,10.22,10.22,0,0,1,86.83,17c0,.42-.28.63-.83.63-.89,0-1.56-.91-2-2.72-.32-1.35-.65-2.7-1-4a4.85,4.85,0,0,0-.63,1.95,9.89,9.89,0,0,0,.31,2,10.09,10.09,0,0,1,.32,2c0,1.25-.65,1.88-2,1.88a1.79,1.79,0,0,1-2-2,10.33,10.33,0,0,1,.11-1.22,10,10,0,0,0,.1-1.22A3.83,3.83,0,0,0,79,12.83l-.63.91a4.82,4.82,0,0,1-.14,1.12A7.89,7.89,0,0,1,76.48,16c-1.19.67-1.78,1.43-1.78,2.26,0,1.17.46,1.75,1.39,1.75s1.58-.68,2.37-2a3.49,3.49,0,0,0,.63,2,2,2,0,0,0,1.74.9,2.49,2.49,0,0,0,2.59-2.3A2.24,2.24,0,0,0,85.65,20c1.39,0,2.09-1.12,2.09-3.35Zm-14.86-.91q0-.48-1.29-6.41t-1.5-6.28a3,3,0,0,0-.62,2.16l3,13.32a11.67,11.67,0,0,0,.41-2.79Zm-7.6-7.88c0,1.26-.35,1.88-1,1.88a1,1,0,0,1-.84-.34c-.42.55-.75.83-1,.83q-.9,0-.9-1.11a2.32,2.32,0,0,1,.13-.84l.21-.14c0,.51.24.77.7.77s.7-.4.7-1.19l.35-.42c0,.65.18,1,.56,1s.6-.42.69-1.26l.28-.27a4.1,4.1,0,0,1,.14,1.11Zm16,13.74a2.3,2.3,0,0,1-1.32,1.68,49.47,49.47,0,0,0-5.37,3.2A3.65,3.65,0,0,1,75.67,25a52,52,0,0,1,5.58-3.35Zm-12.13-7a29.46,29.46,0,0,0-.77-4.4c-.51-2.32-.77-3.46-.77-3.41a2.34,2.34,0,0,1,.18-.7,2.67,2.67,0,0,0,.17-.7,23.83,23.83,0,0,0-1.74-2.3,4.31,4.31,0,0,0-.56,1.67A8.47,8.47,0,0,0,66.47,7c.09.19.37,1.35.83,3.49q.84,3.7,1,5.44a1.25,1.25,0,0,1-1.32.77,2.13,2.13,0,0,1-1.33-.42,6.86,6.86,0,0,0-.49,1.67l.63.63a1.82,1.82,0,0,1,.63,1.26,4.39,4.39,0,0,1-1.64,2.72A6.68,6.68,0,0,1,62,24.41a10.08,10.08,0,0,1-2.93.42L59,25a13.29,13.29,0,0,0,3.7.84A3.72,3.72,0,0,0,66,23.57a8.3,8.3,0,0,0,1.11-4.18,9.7,9.7,0,0,1,1-1.6,5.58,5.58,0,0,0,1-3.21Zm-6.35-12A37.06,37.06,0,0,0,47.29,8.23a3.36,3.36,0,0,0-.7,1.6A49.5,49.5,0,0,1,61.24,4.05a5.68,5.68,0,0,1-1.19,2.51,5.86,5.86,0,0,0,1.88-1.92,4.21,4.21,0,0,0,.84-2.06Zm9.49,20.58a2,2,0,0,1,.41,1.18c0,1-.37,1.54-1.11,1.54s-1.26-.45-1.26-1.33a3.45,3.45,0,0,1,.56-1.81c.37-.61.72-1.21,1-1.82l.14.07c-.51,1.77-.77,2.68-.77,2.72,0,.47.16.7.49.7s.56-.35.42-1.05l.07-.2ZM48.33,4.39a2.17,2.17,0,0,1,.35,1.19c0,1-.37,1.46-1.11,1.46s-1.19-.41-1.19-1.25a3.77,3.77,0,0,1,.52-1.85c.35-.63.71-1.22,1.08-1.78h.14c-.51,1.77-.76,2.68-.76,2.72,0,.47.16.7.49.7s.55-.33.41-1l.07-.21ZM63.33,20a2.26,2.26,0,0,1-.94.83,3,3,0,0,1-1.57.49c-.61,0-.91-.23-.91-.7a1.88,1.88,0,0,1,.77-1.25l.63-.56a1,1,0,0,0-.63-.21,4.89,4.89,0,0,0-.84.07,1.31,1.31,0,0,1,1.33-.9,1.56,1.56,0,0,1,.9.34,3,3,0,0,1-.55.77,4.23,4.23,0,0,0-.84,1.26c0,.32.18.48.56.48A5.24,5.24,0,0,0,63.33,20ZM52,13.18a8.85,8.85,0,0,1-.28,2.44h-.14q0-3.21-1.32-4.53V9.28A5.56,5.56,0,0,1,52,13.18ZM46,15.76a9.65,9.65,0,0,1-.49,2.79L42.61,5.23a3.28,3.28,0,0,1,.56-2.16q.21.35,1.54,6.28T46,15.76Zm12.35,5.16a2.28,2.28,0,0,1-1.33,1.68q-1.87,1-5.37,3.21a3.64,3.64,0,0,1,1.12-1.54,52,52,0,0,1,5.58-3.35ZM37.73,8.58c0,1.21-.35,1.81-1,1.81a1.38,1.38,0,0,1-.91-.28c-.37.56-.67.84-.91.84-.65,0-1-.39-1-1.19A2.45,2.45,0,0,1,34,8.93l.27-.14c0,.56.24.84.7.84s.63-.42.63-1.26L36,8c0,.61.21.91.63.91s.53-.42.62-1.26l.35-.28a4.57,4.57,0,0,1,.14,1.19Zm7.19,11.65-1.33,1.32-1.32-1.39,1.25-1.33,1.4,1.4Zm-2.65-5.65a27.69,27.69,0,0,0-.81-4.4c-.53-2.32-.8-3.46-.8-3.41a2.08,2.08,0,0,1,.21-.7c.14-.33.23-.56.28-.7-.79-1.07-1.4-1.84-1.81-2.3a4.14,4.14,0,0,0-.56,1.67A8.69,8.69,0,0,0,39.55,7c.09.19.39,1.35.9,3.49q.84,3.7,1,5.44a1.33,1.33,0,0,1-1.33.77,2.45,2.45,0,0,1-1.39-.42,8,8,0,0,0-.42,1.67l.63.63a1.82,1.82,0,0,1,.63,1.26A4.39,4.39,0,0,1,38,22.53a7.15,7.15,0,0,1-3,1.95,11,11,0,0,1-2.79.35l-.14.21a11.25,11.25,0,0,0,3.56.56,3.93,3.93,0,0,0,3.42-2.17,7.8,7.8,0,0,0,1.11-4,9.65,9.65,0,0,1,1-1.6,5.41,5.41,0,0,0,1.05-3.21ZM65,13a43,43,0,0,1-6-2.58,6.24,6.24,0,0,0-2.86-1c-1.67,0-2.51.69-2.51,2.09v.35h2.24c0-.19.14-.28.27-.28a10.26,10.26,0,0,1,3,.9,9.78,9.78,0,0,0-5,1.89l-1,1.88a2.21,2.21,0,0,1-2,1.33,3.74,3.74,0,0,1-1.46-.91A5.23,5.23,0,0,0,49,18.2a2.36,2.36,0,0,0,.45.88,2.24,2.24,0,0,1,.46,1.29q0,2.29-5.93,4.32a41.18,41.18,0,0,1-13.74,2.16q-11.92,0-19.25-5.58l-.07.28Q16.45,29,29.85,29a42.44,42.44,0,0,0,8.79-1,28.43,28.43,0,0,0,8.16-2.79q4-2.23,4-5.79a2.49,2.49,0,0,0,1.57-.52,2.83,2.83,0,0,0,.95-1.43,4.3,4.3,0,0,0,2.3.9c.83,0,1.25-1.25,1.25-3.76a8.69,8.69,0,0,1,4-.84,12.71,12.71,0,0,1,2.37.35c.7-.42,1.28-.79,1.74-1.12ZM34.45,3.35A73.71,73.71,0,0,0,22,6.56a51,51,0,0,0-11.23,5.09c-.23.14-.46.67-.7,1.6A73.33,73.33,0,0,1,32.92,4.81a5.1,5.1,0,0,1-1.26,2.44,5,5,0,0,0,2-1.84,4.17,4.17,0,0,0,.83-2.06Zm.91,17.16a2.26,2.26,0,0,1-.94.83,3,3,0,0,1-1.57.49c-.56,0-.84-.23-.84-.7a1.94,1.94,0,0,1,.7-1.25l.63-.56a1,1,0,0,0-.63-.21,4.76,4.76,0,0,0-.84.07,1.33,1.33,0,0,1,1.33-.91,2,2,0,0,1,1,.35,4.65,4.65,0,0,1-.56.77,4.29,4.29,0,0,0-.91,1.25c0,.33.21.49.63.49a5.4,5.4,0,0,0,2-.62ZM17.65,3.07q-.21,2.87-5,4.11l-.28-.07a9.41,9.41,0,0,0,3.42-2.44c0-.42-.42-.62-1.25-.62a4.28,4.28,0,0,0-2.24.62,5.85,5.85,0,0,1,1.19-2,2.73,2.73,0,0,1,1.67-.39,3.47,3.47,0,0,1,2.45.84Zm.69,10.11a1.84,1.84,0,0,1,.35,1.12q0,1.53-1.11,1.53c-.79,0-1.19-.42-1.19-1.25a4.23,4.23,0,0,1,.56-2c.32-.55.67-1.11,1-1.67h.14c-.51,1.77-.76,2.67-.76,2.72,0,.47.16.7.48.7s.56-.33.42-1l.07-.21Zm8.86,8.37a3.87,3.87,0,0,1-.49,1.68,3.47,3.47,0,0,1-1.53-.42,3.11,3.11,0,0,0-.63,1c-1.16-.32-1.74-.72-1.74-1.18a4.4,4.4,0,0,1,.49-1.19,3.57,3.57,0,0,1,1.6.42,12.48,12.48,0,0,1,.84-1.12l1.46.77Zm11.23-7.74a3.24,3.24,0,0,1-.91,1.6h-.28a1.73,1.73,0,0,0-.48-.07,10.72,10.72,0,0,0-5,1.47,9.87,9.87,0,0,1-3.9,1.46,2.9,2.9,0,0,1-2.23-1.11,17.15,17.15,0,0,1-10.74,3.21,15.47,15.47,0,0,1-5.93-.84c-.1,0-.25.21-.46.63s-.38.62-.52.62a3.09,3.09,0,0,1-1.12-.48,5,5,0,0,0-1.25-.49,4.78,4.78,0,0,1-2.09,2.37A7.26,7.26,0,0,1,0,23.23V23q4.11-1.82,5-3.77c0-2.28.54-3.42,1.61-3.42a6.85,6.85,0,0,0,1.11.73,12.91,12.91,0,0,0,2.65,1.23,15.51,15.51,0,0,0,4.74.69,25.29,25.29,0,0,0,6-.76,11.45,11.45,0,0,0,5.37-2.58c.05,0,.12.07.21.2s-.09.33-.14.56a2.09,2.09,0,0,0,1.54.63q1.18,0,4.39-1.81a11.19,11.19,0,0,0-2.93-.77.33.33,0,0,0-.35.21L27.2,14v-.14c0-1.3.77-2,2.3-2a6.37,6.37,0,0,1,2.16.62,18,18,0,0,0,2.17.84,18.17,18.17,0,0,0,4.6.42ZM7.88,9.14c0-.61-.28-.91-.84-.91s-1,.51-1,1.53v2.45a2.35,2.35,0,0,0-2.3-1.89c-.75,0-1.12.33-1.12,1s.3,1.11.91,1.11.9-.25.9-.76c.42,0,.82.3,1.19.9a3.16,3.16,0,0,1,.56,1.54h.14V11.65c0-1.3.25-2,.62-2s.45.26.35.77h.14a2.54,2.54,0,0,0,.49-1.32ZM9.62,22.39a51.09,51.09,0,0,0-5.57,3.35,3.53,3.53,0,0,0-1.12,1.53A44.41,44.41,0,0,1,8.3,24.06a2.49,2.49,0,0,0,1.32-1.67ZM95.2,18.13a4.82,4.82,0,0,1-.63-.21,5.27,5.27,0,0,0-.62-.2c0-.42.11-.63.35-.63a3,3,0,0,0,.45.56l.45.48ZM79.93,8.79A1.27,1.27,0,0,0,79,7.88c-.14.37-.16.63-.07.77a2.17,2.17,0,0,0,1,.14Zm-1.54-.21a3,3,0,0,0,0-1,2,2,0,0,0-.62.7l.62.28Zm-.14,7.6v.35c0,.6-.46.91-1.25.91a2.5,2.5,0,0,1-.49-.07l-.21-.07c0-.14.23-.36.7-.67a2.25,2.25,0,0,1,1-.45Zm-22.52.28a1.51,1.51,0,0,1-.77-.35c-.33-.23-.49-.44-.49-.63s.14-.21.42-.21c.56,0,.84.33.84,1v.21ZM7.53,18.34l-.59-.62-.59-.63c-.24,0-.35.21-.35.63a2.84,2.84,0,0,1,.77.31A2.71,2.71,0,0,0,7.53,18.34Z"/></g></g></svg>