<svg width="200" height="200" viewBox="0 0 200 200" fill="none" xmlns="http://www.w3.org/2000/svg">
<g id="Layer_5" clip-path="url(#clip0_436_5966)">
<path id="Vector" d="M75.183 12.5507C76.2134 11.6856 77.3928 11.0142 78.4729 10.2265C79.4413 9.52925 80.3848 8.74159 81.4028 8.14762C82.5201 7.48909 82.6939 5.8363 81.8 4.91952C80.9807 4.06731 79.2054 4.09313 78.6964 5.33272C78.1998 6.5594 77.5046 7.73443 76.8962 8.90945C76.2879 10.0845 75.7913 11.3628 75.1085 12.4991C75.0713 12.5507 75.1458 12.5895 75.183 12.5637V12.5507Z" fill="#01342A"/>
<path id="Vector_2" d="M73.5568 11.9567C73.5568 11.9567 73.6437 12.0083 73.6437 11.9567C74.1899 9.41293 74.91 6.72715 75.7418 4.26088C76.797 1.11026 70.9745 0.787452 71.9305 4.26088C72.6133 6.72715 73.1595 9.42584 73.5568 11.9567Z" fill="#01342A"/>
<path id="Vector_3" d="M66.1576 7.86374C67.1881 8.56101 68.1192 9.43906 69.0875 10.2267C70.0558 11.0273 71.1111 11.7245 72.0298 12.5768C72.067 12.6155 72.1291 12.5768 72.1043 12.5122C71.5208 11.3888 71.1111 10.1621 70.5897 9.00003C70.0807 7.85083 69.4724 6.71454 69.0627 5.5266C68.6033 4.18371 67.1136 3.53809 65.959 4.45487C64.8293 5.35874 65.0031 7.06317 66.1576 7.85083V7.86374Z" fill="#01342A"/>
<path id="Vector_4" d="M63.5009 14.423C66.0211 14.1518 68.7275 14.0485 71.26 14.0872C71.3221 14.0872 71.3221 14.0098 71.2725 13.9839C69.013 13.0155 66.6418 11.8276 64.5065 10.588C61.4028 8.78024 60.4345 14.7458 63.5133 14.423H63.5009Z" fill="#01342A"/>
<path id="Vector_5" d="M67.7965 16.6443C66.555 16.9929 65.3136 17.4061 64.0597 17.6385C60.9312 18.2196 63.6003 23.6944 65.9839 21.0732C66.853 20.1177 67.8461 19.2913 68.7897 18.4133C69.7332 17.5352 70.6022 16.5668 71.583 15.7404C71.6202 15.7146 71.5829 15.6371 71.5333 15.6629C70.3167 16.0761 69.0255 16.2956 67.7841 16.6443H67.7965Z" fill="#01342A"/>
<path id="Vector_6" d="M71.8808 24.4431C72.0422 21.951 72.4146 19.2523 72.874 16.799C72.874 16.7473 72.8119 16.7086 72.7871 16.7602C71.5208 18.852 70.0186 21.073 68.504 22.984C66.1328 25.9668 71.6449 28.1619 71.8808 24.4431Z" fill="#01342A"/>
<path id="Vector_7" d="M78.6593 23.5524C77.182 21.4476 75.717 19.033 74.5004 16.7475C74.4756 16.6959 74.4011 16.7346 74.4135 16.7863C74.7487 19.3042 74.9473 22.0545 74.9722 24.5854C74.997 28.2654 80.4967 26.1736 78.6593 23.5524Z" fill="#01342A"/>
<path id="Vector_8" d="M82.967 18.0126C81.738 17.7027 80.5462 17.2249 79.342 16.8117C78.1377 16.3985 76.8839 16.1015 75.7169 15.6238C75.6672 15.6108 75.63 15.6754 75.6672 15.7012C76.6232 16.5922 77.4425 17.6381 78.3488 18.5807C79.2551 19.5233 80.211 20.4272 81.0428 21.4472C83.116 24.0039 86.3066 18.8389 82.967 18.0126Z" fill="#01342A"/>
<path id="Vector_9" d="M82.8181 11.0143C80.6579 12.0989 78.2371 13.1061 75.9652 13.9325C75.9155 13.9454 75.928 14.0228 75.9776 14.0358C78.3612 14.152 80.9311 14.3844 83.2898 14.7718C86.9646 15.3916 86.0583 9.37439 82.8181 11.0143Z" fill="#01342A"/>
<path id="Vector_10" d="M137.952 2.00141C136.822 3.07314 137.12 4.72593 137.952 5.83639C139.019 7.25676 139.901 6.10755 141.105 6.2625C142.309 5.01 143.327 5.83639 144.159 8.7675C143.811 9.96836 143.166 10.898 142.222 11.5566C140.199 13.3385 137.765 13.4676 135.295 12.6541C131.024 11.2467 127.784 7.96694 124.159 5.30698C122.694 3.40886 120.509 2.04015 117.753 1.74317C112.775 1.21376 107.71 3.09897 103.489 5.72018C98.0633 9.09031 93.4327 16.4116 86.7784 16.8119C86.7287 16.8119 86.7163 16.8894 86.766 16.9152C93.085 18.8521 98.2992 11.5308 103.24 8.58673C107.176 6.24959 114.699 2.81489 119.143 5.79765C124.209 9.20653 119.739 12.6541 118.547 16.3729C118.225 17.3801 118.932 18.5938 119.901 18.8392C120.199 18.9166 120.497 18.9941 120.795 19.0716C121.763 19.3298 122.831 19.0716 123.526 18.3227C126.182 15.4432 126.766 11.6728 125.785 8.45761C131.719 14.5523 138.175 21.4733 145.698 14.7072C148.889 11.8407 150.391 6.55949 147.784 2.75033C145.363 -0.787663 140.894 -0.774751 137.939 2.00141H137.952Z" fill="#01342A"/>
<path id="Vector_11" d="M53.7803 15.6887C53.681 17.9355 57.3061 17.8838 57.1075 15.6887C56.884 13.287 57.4799 10.8982 59.2924 9.2971C59.4042 9.20672 59.2924 9.03886 59.1559 9.06468C56.0522 9.78777 53.9169 12.409 53.7803 15.6887Z" fill="#01342A"/>
<path id="Vector_12" d="M54.0161 9.60701C54.0161 9.60701 54.0161 9.50371 53.954 9.52954C51.7566 10.6917 50.1551 12.0733 49.1744 14.475C48.3798 16.4248 47.5729 19.9369 49.4971 21.3831C49.9689 21.7447 50.7386 21.693 51.2228 21.3831C51.2724 21.3444 51.3345 21.3185 51.3842 21.2798C52.5015 20.5696 52.3649 19.2655 51.6201 18.5553C50.2917 15.7662 51.8683 11.3889 54.0037 9.60701H54.0161Z" fill="#01342A"/>
<path id="Vector_13" d="M54.7114 4.70028C54.9721 4.63572 54.9597 4.23543 54.7114 4.15796C53.8548 3.91263 53.0975 3.49943 52.4271 2.89255C51.794 2.31149 51.4463 1.52383 50.838 0.955688C49.6959 -0.11604 47.8089 1.25267 48.653 2.71177C49.7952 4.70028 52.7251 5.15221 54.7238 4.70028H54.7114Z" fill="#01342A"/>
<path id="Vector_14" d="M39.7144 5.66848C42.3712 7.6699 45.3755 8.07019 48.4295 6.85642C48.4792 6.8306 48.4668 6.76604 48.4295 6.76604C45.9094 6.4174 43.414 4.93248 41.738 2.95688C40.2359 1.17497 37.666 4.119 39.7269 5.66848H39.7144Z" fill="#01342A"/>
<path id="Vector_15" d="M39.9379 12.1895C41.4401 11.828 43.5754 11.3115 44.6927 10.1365C44.7548 10.0719 44.73 9.91694 44.6307 9.90403C43.923 9.76199 43.1782 9.86529 42.4581 9.80073C41.5891 9.72326 40.7573 9.50374 39.9255 9.20676C37.7157 8.43202 37.3557 12.7964 39.9255 12.1766L39.9379 12.1895Z" fill="#01342A"/>
<path id="Vector_16" d="M87.5233 15.4947C89.3606 13.9969 90.8007 11.763 91.3097 9.38714C91.856 6.81757 87.7964 6.81757 88.3675 9.38714C88.8516 11.5693 88.5289 13.4674 87.3867 15.3785C87.3246 15.4818 87.4488 15.5593 87.5233 15.4947Z" fill="#01342A"/>
<path id="Vector_17" d="M92.7001 12.6671C94.6492 10.8593 96.0148 8.63842 96.859 6.06885C97.0079 5.60401 96.8341 5.10042 96.5238 4.75179C96.4617 4.67431 96.3996 4.60975 96.3251 4.53228C96.052 4.22238 95.5182 4.14491 95.183 4.37733C93.9664 5.20372 94.376 6.58535 94.1898 7.91532C93.9539 9.58102 93.4077 11.1434 92.6256 12.6025C92.6007 12.6542 92.6628 12.6929 92.7001 12.6542V12.6671Z" fill="#01342A"/>
<path id="Vector_18" d="M98.6717 7.08886C99.2552 6.46907 99.9504 6.03005 100.584 5.47482C101.217 4.9325 101.9 4.44183 102.657 4.1061C104.159 3.44757 103.067 1.17499 101.825 2.05303C100.968 2.65992 100.186 3.3701 99.5408 4.22231C98.9449 5.00997 98.6841 6.03005 98.5103 6.99848C98.4979 7.08887 98.5972 7.16634 98.6593 7.08886H98.6717Z" fill="#01342A"/>
<path id="Vector_19" d="M87.5356 18.4646C87.3122 18.4129 87.1632 18.6841 87.3122 18.8519C88.3922 20.0141 89.4599 20.8663 90.8628 21.5894C92.1911 22.2608 93.5071 22.9968 94.9968 22.7644C96.1514 22.5965 96.1886 20.8275 95.3072 20.2852C94.165 19.588 92.7498 19.6913 91.4711 19.3943C90.1551 19.0973 88.8392 18.7745 87.5232 18.4517L87.5356 18.4646Z" fill="#01342A"/>
<path id="Vector_20" d="M94.1774 16.8507C94.0533 16.8507 93.9788 17.0573 94.1153 17.1089C95.5927 17.7804 97.1073 18.2711 98.7088 18.5293C100.223 18.7617 101.614 19.0587 102.595 17.6513C102.942 17.1477 102.657 16.4117 102.21 16.1147C101.018 15.3399 99.9627 16.0372 98.7088 16.3729C97.219 16.7603 95.7168 16.8894 94.1898 16.8507H94.1774Z" fill="#01342A"/>
<path id="Vector_21" d="M103.476 11.7244C102.011 12.4217 100.472 12.9253 98.982 13.5451C98.9447 13.558 98.9323 13.6225 98.982 13.6354C100.559 13.9583 102.123 13.9583 103.712 13.7775C105.227 13.6096 106.828 13.5451 108.007 12.4604C108.814 11.7115 108.181 10.162 107.114 10.2137C105.736 10.2782 104.705 11.1304 103.476 11.7244Z" fill="#01342A"/>
<path id="Vector_22" d="M115.307 7.34738C112.886 5.87536 110.304 6.45642 108.082 7.95426C108.032 7.993 108.082 8.07047 108.132 8.04465C110.13 7.14078 112.216 8.16086 113.606 9.64578C115.009 11.1565 117.107 8.44493 115.307 7.34738Z" fill="#01342A"/>
<path id="Vector_23" d="M72.9733 13.0545C72.8988 13.0674 72.8243 13.0803 72.7498 13.0932C71.4587 13.3515 71.4587 15.5466 72.7498 15.7919C72.8243 15.8048 72.8988 15.8177 72.9733 15.8306C73.8547 15.9985 74.7362 15.4304 74.7362 14.4361C74.7362 13.4419 73.8547 12.8608 72.9733 13.0416V13.0545Z" fill="#01342A"/>
<path id="Vector_24" d="M126.567 20.6339C125.835 24.3526 131.359 25.1015 131.471 21.3182C131.521 19.6009 131.446 17.9222 130.652 16.3857C129.957 15.0557 129.05 13.8548 128.007 12.796C127.772 12.5507 127.287 12.7186 127.312 13.093C127.399 14.3713 127.374 15.6238 127.101 16.8763C126.828 18.1288 126.816 19.3813 126.567 20.6339Z" fill="#01342A"/>
<path id="Vector_25" d="M44.3328 15.8695C43.5755 18.1292 42.992 20.802 42.9423 23.4233C40.956 31.6743 38.5103 41.3715 46.8157 46.3815C48.4793 47.3887 50.2049 47.8664 51.9057 47.931C51.496 48.7961 50.7511 49.6871 50.1552 50.436C49.9069 50.7588 49.6214 51.0429 49.3483 51.3398C49.0752 51.6368 48.7896 51.9209 48.4793 52.1792C47.7716 52.7989 46.915 53.5737 46.0832 53.9998C46.0212 52.2308 45.5618 50.436 44.5935 48.7057C39.7766 40.0673 30.4532 42.6111 22.5202 44.6771C20 44.7287 17.4302 45.3227 15.2577 46.1232C9.24896 48.3183 4.94108 53.2509 5.53698 60.0944C5.53698 60.159 5.6363 60.159 5.6363 60.0944C5.41284 53.0572 11.136 48.6412 17.244 47.3628C19.6773 46.8592 22.9796 46.459 25.4128 47.337C28.3054 48.37 29.8325 50.4231 30.0063 53.4704C30.1428 56.8663 28.5537 58.1705 25.239 57.3958C26.0708 56.5823 25.2142 54.8133 24.0596 55.291C20.1614 56.9051 21.7753 62.0959 25.748 62.1604C31.3843 62.2637 34.3266 54.555 32.1292 49.8678C30.5153 46.4331 27.4861 45.0257 24.1714 44.7416C30.0435 43.7344 36.7102 43.1921 40.4966 47.6082C45.4625 53.38 42.1974 61.7989 35.2825 63.4388C33.1968 63.9294 34.0783 67.2737 36.1639 66.7702C37.0702 66.5506 37.9516 66.2278 38.771 65.8146C43.0665 68.5908 48.0696 69.3785 53.172 67.6869C55.4935 66.9251 58.4234 65.3498 60.807 63.2709C62.7933 60.7917 64.3079 57.7444 65.0528 55.3298C66.6791 50.0099 65.9218 44.8191 63.2527 40.3514C63.6375 39.4992 63.9479 38.5824 64.1714 37.6398C64.6555 35.4705 61.4401 34.5537 60.9684 36.723C59.3917 43.9152 51.3098 47.3112 45.748 42.1462C41.5146 38.2079 42.0361 31.274 42.992 25.1664C43.2651 28.614 44.6183 31.7647 47.9206 33.4433C52.4147 35.7288 59.8262 32.6685 59.7393 26.8063C59.6773 22.6743 54.6866 20.9957 53.1347 25.0502C52.6754 26.2511 54.3762 27.142 55.1583 26.2769C55.9032 29.7245 54.6493 31.3773 51.3843 31.2353C48.4544 31.0545 46.4929 29.4663 45.4873 26.4577C44.6555 23.9268 45.028 20.5051 45.5122 17.9613C46.7412 11.6084 50.987 5.6429 57.753 5.88824C57.8151 5.88824 57.8151 5.79785 57.753 5.78494C51.1732 5.16514 46.4308 9.63283 44.3203 15.8953L44.3328 15.8695ZM62.6195 41.5781C64.2086 46.3557 64.1465 51.6497 61.825 56.2595C60.9684 57.951 59.8883 59.565 58.6593 61.0112C57.2812 62.2896 55.7294 63.4129 54.0907 64.3039C49.6586 66.7185 44.5686 66.796 39.9752 65.1303C40.658 64.7042 41.2788 64.2135 41.8747 63.6841C44.7673 64.4459 47.3744 64.872 50.4408 63.7357C52.9237 62.819 55.1707 61.2436 57.2192 59.5134C58.8951 57.3699 60.3973 55.0328 61.2788 52.4632C62.3712 49.2739 61.9616 46.5623 61.2291 43.5537C61.7381 42.9468 62.2099 42.2883 62.6195 41.5781ZM60.8939 43.941C61.0677 46.4977 61.0056 49.1706 60.2111 51.5335C59.3545 54.116 57.7406 56.2595 56.1018 58.3384C54.0907 60.0428 52.0298 61.7214 49.5593 62.6124C47.2874 63.4258 44.7176 63.5033 42.2595 63.3225C42.992 62.5995 43.6375 61.786 44.1838 60.9208C47.6226 61.5277 51.7691 59.2422 54.7611 56.9438C56.9833 53.8319 59.1807 49.5192 58.5848 45.9425C59.4166 45.3743 60.1987 44.7029 60.8939 43.941ZM58.1999 46.1878C58.0013 48.3183 56.6853 50.875 55.9156 52.347C55.2701 53.5866 54.5128 54.7229 53.6562 55.8075C52.6257 56.6985 51.5208 57.4861 50.329 58.1576C48.9138 58.9452 46.4557 60.314 44.4072 60.5335C44.9535 59.6038 45.3756 58.6095 45.6611 57.5636C47.9827 56.9567 50.5153 56.1174 52.3775 54.4905C53.9417 52.5407 54.7611 49.9195 55.3321 47.5049C56.3253 47.2079 57.2812 46.7689 58.1875 46.2007L58.1999 46.1878ZM55.1956 47.5436C54.7735 48.9898 54.0038 50.3585 53.1347 51.5464C52.6009 52.2695 51.9926 52.8506 51.3719 53.4317C50.8132 54.0773 50.2421 54.7229 49.5593 55.2652C48.4172 56.1691 47.1012 56.9696 45.7108 57.4087C45.9963 56.3369 46.1205 55.2265 46.0956 54.1031C47.1136 53.7932 48.0447 53.6383 49.0007 53.1088C49.4476 52.8635 49.8697 52.5794 50.2794 52.2825C50.5649 51.8563 50.838 51.4173 51.0739 50.9525C51.5829 49.9582 51.7319 48.9898 52.0298 47.931C53.1099 47.9568 54.1776 47.8277 55.208 47.5307L55.1956 47.5436Z" fill="#01342A"/>
<path id="Vector_26" d="M65.1769 40.5322C68.144 39.3443 71.2104 38.35 74.0533 36.878C76.288 35.7159 74.1527 31.9326 72.1042 33.4046C69.4972 35.2898 67.1756 37.614 64.7423 39.7445C64.4072 40.0415 64.7672 40.6872 65.1769 40.5322Z" fill="#01342A"/>
<path id="Vector_27" d="M66.7287 43.1275C68.0819 42.8434 69.4351 42.7014 70.8131 42.611C72.0794 42.5206 73.3705 42.7143 74.612 42.5464C76.6356 42.2753 76.7473 39.3183 74.612 39.1763C71.7566 38.9826 68.6778 40.6225 66.3438 42.1849C65.8597 42.5077 66.17 43.2437 66.7287 43.1275Z" fill="#01342A"/>
<path id="Vector_28" d="M75.6424 45.8519C73.0602 44.9997 69.5717 44.8318 67.1136 46.0972C66.8653 46.2263 66.9397 46.6137 67.188 46.6912C68.4419 47.0915 69.733 47.2335 70.9993 47.5951C72.3153 47.9695 73.5195 48.5764 74.7858 49.0929C76.6853 49.8806 77.6536 46.5104 75.6424 45.8519Z" fill="#01342A"/>
<path id="Vector_29" d="M75.3073 52.2822C72.9485 51.1459 70.0063 50.3195 67.4489 51.1071C66.8902 51.275 66.9771 51.9852 67.4489 52.1918C69.609 53.1344 71.6947 53.8187 73.6934 55.1745C75.4563 56.3625 77.1819 53.186 75.3197 52.2822H75.3073Z" fill="#01342A"/>
<path id="Vector_30" d="M65.7604 57.2534C67.5977 58.9836 69.8944 60.1845 71.7815 61.8889C73.6188 63.5546 75.8659 60.5848 73.8299 59.1257C71.5953 57.5245 68.6778 56.1042 65.8969 56.7111C65.6735 56.7627 65.5866 57.0984 65.7604 57.2534Z" fill="#01342A"/>
<path id="Vector_31" d="M63.4513 63.8129C65.4129 65.0913 67.0888 66.7311 68.38 68.7326C70.0435 71.328 73.4824 67.9966 71.4091 66.2921C69.1993 64.4715 66.7661 63.1286 64.01 62.4055C63.1906 62.186 62.7313 63.3352 63.4389 63.8L63.4513 63.8129Z" fill="#01342A"/>
<path id="Vector_32" d="M56.1513 35.9612C54.2271 36.426 53.0353 38.0917 50.9124 38.2079C48.1191 38.35 45.4996 36.5293 43.9229 34.2567C43.8857 34.2051 43.8112 34.2567 43.836 34.3084C45.3382 37.2395 47.3369 39.822 50.602 40.6096C53.1346 41.2165 57.07 40.7775 57.8646 37.7431C58.1501 36.6455 57.1693 35.7158 56.1513 35.9612Z" fill="#01342A"/>
<path id="Vector_33" d="M42.992 13.5449C42.1478 14.2035 41.403 14.72 40.8195 15.6755C40.1863 16.7085 39.8263 17.8577 39.7146 19.0585C39.5408 21.202 43.1658 21.0341 42.6817 18.6453C42.3589 17.0313 42.2596 15.1202 43.0541 13.6224C43.0789 13.5837 43.0293 13.5191 42.992 13.5578V13.5449Z" fill="#01342A"/>
<path id="Vector_34" d="M30.7635 18.6194C32.005 22.2995 33.0602 26.7672 31.9181 30.5634C31.8933 30.628 31.9926 30.6409 32.005 30.5892C34.2396 25.0369 33.8424 16.3339 29.9814 11.5822C29.6462 11.169 29.0131 11.0528 28.5413 11.1819C28.3675 11.2336 28.1813 11.2852 28.0075 11.3239C27.6971 11.4143 27.4985 11.7242 27.4736 12.047C27.4364 12.8089 27.5481 13.1188 27.8833 13.7644C28.8268 15.5334 30.0559 16.5405 30.7511 18.6194H30.7635Z" fill="#01342A"/>
<path id="Vector_35" d="M12.0049 78.1199C10.9124 78.8301 9.69575 79.3466 8.5536 79.9793C7.42387 80.612 6.29413 81.3351 5.11474 81.8516C3.92293 82.381 3.89811 84.2275 4.71747 85.0797C5.59891 85.9965 7.2004 85.8157 7.82114 84.6665C8.40462 83.5948 9.1495 82.6134 9.81989 81.6192C10.5772 80.4958 11.2352 79.2562 12.0545 78.1974C12.0918 78.1587 12.0545 78.0812 11.9925 78.1199H12.0049Z" fill="#01342A"/>
<path id="Vector_36" d="M4.09672 78.7783C6.46791 77.9131 9.05016 77.1642 11.4958 76.5961C11.5455 76.5961 11.5455 76.5057 11.4958 76.5057C9.06258 76.0925 6.46791 75.5114 4.09672 74.8142C0.757175 73.8199 1.06754 79.8887 4.09672 78.7783Z" fill="#01342A"/>
<path id="Vector_37" d="M4.29543 68.6036C3.40158 69.8045 4.03472 71.354 5.32585 71.8317C6.46799 72.2578 7.56048 72.8905 8.66539 73.4199C9.7827 73.9623 10.9621 74.3884 12.0422 74.9952C12.0918 75.0211 12.1415 74.9565 12.1042 74.9178C11.2849 73.9623 10.6021 72.8518 9.84478 71.8575C9.08748 70.8633 8.24329 69.8819 7.5729 68.8102C6.8156 67.6094 5.18928 67.4286 4.30784 68.6036H4.29543Z" fill="#01342A"/>
<path id="Vector_38" d="M10.18 67.0927C11.3718 69.3137 12.514 71.7799 13.4451 74.13C13.4699 74.1816 13.5444 74.1816 13.5444 74.1171C13.5071 71.4829 13.6189 68.668 13.8672 66.0468C14.1775 62.8445 8.44197 63.8646 10.18 67.0798V67.0927Z" fill="#01342A"/>
<path id="Vector_39" d="M16.9584 66.6277C16.735 67.9448 16.3377 69.236 16.0025 70.5143C15.6673 71.8056 15.4563 73.1355 15.059 74.4139C15.0466 74.4655 15.1087 74.5043 15.1335 74.4655C15.9156 73.4325 16.8591 72.5416 17.7033 71.5602C18.5351 70.5789 19.342 69.5459 20.2607 68.642C22.7809 66.1629 17.5171 63.3867 16.9584 66.6406V66.6277Z" fill="#01342A"/>
<path id="Vector_40" d="M16.164 75.7958C18.5227 75.318 21.1174 74.9306 23.5134 74.7628C27.0889 74.5174 24.9908 68.7843 22.1106 71.2506C20.2732 72.8259 18.1379 74.3883 16.1267 75.7054C16.0771 75.7312 16.1143 75.8087 16.164 75.7958Z" fill="#01342A"/>
<path id="Vector_41" d="M23.65 77.978C21.2167 77.9651 18.56 77.7456 16.1515 77.397C16.1019 77.397 16.0646 77.4615 16.1143 77.4874C18.3117 78.7528 20.6332 80.2635 22.6568 81.813C25.177 83.724 27.1881 78.0039 23.65 77.978Z" fill="#01342A"/>
<path id="Vector_42" d="M17.3186 86.2933C18.1131 89.7667 23.079 86.4482 20.6208 84.2919C19.6401 83.4396 18.7711 82.4325 17.8648 81.4899C16.9585 80.5473 15.9529 79.695 15.0963 78.7008C15.0715 78.6621 14.997 78.7008 15.0218 78.7524C15.4812 79.9791 15.7667 81.2704 16.164 82.5229C16.5613 83.7754 17.0206 85.015 17.3186 86.2933Z" fill="#01342A"/>
<path id="Vector_43" d="M14.2023 86.6292C13.8175 84.1759 13.594 81.503 13.4947 79.0238C13.4947 78.9722 13.4202 78.9593 13.3954 79.0109C12.6008 81.3739 11.6325 83.8918 10.5897 86.1385C9.02543 89.5087 14.7982 90.4513 14.2023 86.6292Z" fill="#01342A"/>
<path id="Vector_44" d="M2.64431 153.722C6.30663 156.433 11.3718 154.871 14.1403 151.553C20.6456 143.728 13.9913 137.013 8.13159 130.841C11.2353 131.861 14.8479 131.254 17.6164 128.491C18.3488 127.768 18.5847 126.658 18.3364 125.65C18.2619 125.34 18.1875 125.031 18.113 124.721C17.8647 123.713 16.7101 122.977 15.7418 123.313C12.1663 124.566 8.85164 129.214 5.57417 123.933C2.70639 119.31 6.00868 111.485 8.25573 107.392C11.0739 102.253 18.1254 96.8299 16.2632 90.2575C16.2508 90.2058 16.1763 90.2188 16.1639 90.2704C15.779 97.1914 8.73991 102.008 5.49968 107.65C2.97951 112.041 1.16697 117.309 1.67597 122.487C1.94909 125.34 3.27746 127.613 5.10241 129.15C7.65983 132.92 10.8132 136.29 12.1663 140.732C12.9485 143.302 12.8243 145.832 11.1111 147.937C10.478 148.918 9.5841 149.59 8.42954 149.951C5.62383 149.086 4.81688 148.028 6.0211 146.775C5.88454 145.523 6.97703 144.593 5.61141 143.495C4.54375 142.63 2.95468 142.32 1.92426 143.495C-0.744886 146.568 -0.757301 151.204 2.64431 153.735V153.722Z" fill="#01342A"/>
<path id="Vector_45" d="M7.08877 19.872C2.06083 23.9653 1.018 31.1962 6.0956 35.9092C13.3706 42.6624 25.748 39.6409 34.9348 36.3482C38.1006 26.7931 41.0056 13.9194 34.5127 6.35277C29.9814 1.0716 23.0416 2.14333 19.0937 7.38576C18.3613 6.83052 17.604 6.31403 16.8219 5.84918C12.7623 3.46039 6.21974 0.283944 1.40286 1.45897C0.273125 6.45607 3.31471 13.2738 5.61142 17.4962C6.05835 18.3096 6.55494 19.0973 7.08877 19.872ZM23.6996 10.7301C26.0335 7.23081 29.9938 8.25089 32.1539 11.3111C36.7101 17.7673 35.8287 27.4903 34.2769 35.6381C26.4432 37.265 17.095 38.1689 10.8877 33.43C7.94538 31.1833 6.95221 27.0642 10.329 24.6367C10.5276 24.4947 10.7014 24.3397 10.8504 24.1719C12.0546 25.2694 13.3458 26.2508 14.7238 27.0771C18.9944 29.6596 24.221 30.9638 29.1744 30.3182C29.7952 25.1661 28.5413 19.7171 26.0584 15.2881C25.2638 13.8549 24.3203 12.512 23.2651 11.2595C23.4264 11.1045 23.5754 10.9238 23.712 10.7172L23.6996 10.7301ZM7.36189 6.93382C9.90689 7.51488 12.4147 8.31545 14.761 9.50339C18.262 11.2724 21.4525 13.6095 23.8485 16.8247C26.5177 20.4144 28.2309 25.0241 28.504 29.6338C24.0596 29.3497 19.64 27.5807 16.1887 24.7917C13.0975 22.2996 10.8504 18.9811 9.1496 15.3398C8.00745 12.8993 7.23774 10.291 6.67908 7.64401C6.61701 7.34702 6.56735 7.05004 6.51769 6.75305C6.80323 6.8047 7.08877 6.85635 7.3743 6.92091L7.36189 6.93382Z" fill="#01342A"/>
<path id="Vector_46" d="M8.93843 61.6566C10.4778 59.7714 12.7746 59.1516 15.0837 59.384C17.1942 59.5906 17.2438 55.8202 15.0837 55.9235C11.9304 56.0655 9.41019 58.2993 8.71497 61.5145C8.69014 61.6437 8.85153 61.7599 8.93843 61.6566Z" fill="#01342A"/>
<path id="Vector_47" d="M13.9168 51.1588C11.6076 52.1789 10.2793 53.8446 9.16195 56.1301C9.13712 56.1817 9.1992 56.2334 9.23644 56.1947C10.9497 53.9737 15.1582 52.3338 17.8398 53.7155C18.5226 54.4902 19.7765 54.6323 20.4593 53.4701C20.4965 53.4185 20.5214 53.3539 20.5586 53.3023C20.8566 52.7987 20.9062 51.9981 20.5586 51.5075C19.1682 49.506 15.7914 50.3453 13.9168 51.1717V51.1588Z" fill="#01342A"/>
<path id="Vector_48" d="M2.78091 54.5292C3.3644 55.2265 3.76166 56.0142 3.99754 56.9051C4.07203 57.1634 4.45689 57.1763 4.51896 56.9051C4.95347 54.8262 4.51896 51.7789 2.6071 50.5909C1.20425 49.7129 -0.111706 51.6756 0.91871 52.8635C1.46495 53.4962 2.22225 53.8578 2.78091 54.5163V54.5292Z" fill="#01342A"/>
<path id="Vector_49" d="M6.57973 50.3713C7.75912 47.1949 7.37427 44.0572 5.43758 41.3068C3.94782 39.1763 1.11728 41.8362 2.83051 43.3986C4.72995 45.1418 6.15763 47.7372 6.49283 50.3584C6.49283 50.4101 6.56732 50.423 6.57973 50.3584V50.3713Z" fill="#01342A"/>
<path id="Vector_50" d="M9.52196 46.4201C9.54679 46.5234 9.68335 46.5492 9.74542 46.4847C10.8752 45.3226 11.3717 43.0887 11.7194 41.5392C12.3153 38.8664 8.10669 39.2408 8.86398 41.5392C9.14952 42.4044 9.36057 43.2566 9.43506 44.1734C9.49713 44.9223 9.39781 45.697 9.53438 46.433L9.52196 46.4201Z" fill="#01342A"/>
<path id="Vector_51" d="M14.8976 91.0326C14.9597 90.9551 14.8852 90.826 14.7859 90.8906C12.9485 92.0785 11.1236 92.4013 9.02549 91.9106C6.55498 91.3296 6.55498 95.539 9.02549 94.9709C11.3098 94.4415 13.4575 92.9436 14.8976 91.0326Z" fill="#01342A"/>
<path id="Vector_52" d="M12.1788 96.4166C12.1788 96.4166 12.1788 96.3133 12.1291 96.3391C10.7139 97.1397 9.21168 97.7207 7.62261 97.9661C6.3439 98.1598 5.01553 97.7336 4.221 98.9991C3.99753 99.3477 4.07202 99.9029 4.36997 100.187C4.44446 100.252 4.50653 100.316 4.58102 100.394C4.9038 100.703 5.40039 100.897 5.84732 100.742C8.31783 99.8642 10.4531 98.4438 12.1912 96.4166H12.1788Z" fill="#01342A"/>
<path id="Vector_53" d="M3.94776 106.773C4.27054 105.985 4.72988 105.275 5.26371 104.616C5.79754 103.958 6.21964 103.235 6.81554 102.628C6.87761 102.563 6.81554 102.46 6.72864 102.473C5.79754 102.654 4.81678 102.925 4.05949 103.545C3.24012 104.216 2.56973 105.017 1.97383 105.92C1.12963 107.212 3.31461 108.348 3.94776 106.786V106.773Z" fill="#01342A"/>
<path id="Vector_54" d="M19.5159 99.1414C20.0373 100.058 21.7257 100.019 21.8995 98.8186C22.1106 97.2691 21.4154 95.8875 20.7698 94.5188C20.0746 93.0597 19.2676 91.9492 18.1379 90.8258C17.9765 90.6579 17.7158 90.8258 17.7655 91.0582C18.0758 92.4269 18.3738 93.7957 18.6717 95.1644C18.9573 96.4944 18.858 97.9664 19.5283 99.1543L19.5159 99.1414Z" fill="#01342A"/>
<path id="Vector_55" d="M16.201 97.9535C16.2383 99.5417 16.1141 101.104 15.7417 102.654C15.4313 103.958 14.7485 105.055 15.4934 106.295C15.7789 106.773 16.4866 107.057 16.9708 106.695C18.3115 105.688 18.0384 104.229 17.815 102.654C17.5791 100.988 17.0949 99.4126 16.4493 97.876C16.3997 97.7469 16.201 97.8115 16.201 97.9406V97.9535Z" fill="#01342A"/>
<path id="Vector_56" d="M13.023 102.951C12.4271 104.5 11.943 106.101 11.2726 107.625C10.7139 108.903 9.89455 109.975 9.82006 111.408C9.7704 112.519 11.2602 113.19 11.9802 112.338C13.023 111.111 13.0851 109.445 13.2465 107.87C13.4079 106.204 13.4203 104.59 13.1099 102.951C13.1099 102.899 13.0355 102.912 13.023 102.951Z" fill="#01342A"/>
<path id="Vector_57" d="M7.64747 112.415C6.20737 114.727 5.64871 117.413 7.06398 119.93C8.11922 121.79 10.7263 119.621 9.27379 118.161C7.83369 116.715 6.86535 114.546 7.73437 112.467C7.7592 112.415 7.68471 112.364 7.64747 112.415Z" fill="#01342A"/>
<path id="Vector_58" d="M15.2327 75.8993C15.2202 75.8218 15.2078 75.7443 15.1954 75.6668C14.9471 74.3239 12.8366 74.3239 12.6008 75.6668C12.5883 75.7443 12.5759 75.8218 12.5635 75.8993C12.4021 76.816 12.9608 77.7328 13.9043 77.7328C14.8478 77.7328 15.4189 76.816 15.2451 75.8993H15.2327Z" fill="#01342A"/>
<path id="Vector_59" d="M12.5884 132.417C12.2283 132.391 12.0669 132.894 12.3028 133.14C13.3208 134.211 14.4754 135.167 15.7541 135.89C17.2314 136.716 18.8329 136.794 20.4965 136.742C24.134 136.626 23.4015 130.88 19.8385 131.642C18.6343 131.9 17.4301 131.913 16.2258 132.197C15.0216 132.481 13.8174 132.52 12.6008 132.417H12.5884Z" fill="#01342A"/>
<path id="Vector_60" d="M35.4685 77.0093C36.8838 74.0524 37.8397 70.863 38.9819 67.777C39.1433 67.3509 38.5101 66.9764 38.2246 67.325C36.1762 69.8559 33.9415 72.2576 32.129 74.9821C30.7013 77.1126 34.3512 79.3336 35.4685 77.0093Z" fill="#01342A"/>
<path id="Vector_61" d="M40.5588 69.0039C39.0566 71.4314 37.4799 74.6337 37.6662 77.6035C37.8027 79.8245 40.6333 79.7083 40.9064 77.6035C41.0678 76.3123 40.8816 74.9565 40.9685 73.6524C41.0554 72.2191 41.1919 70.8116 41.465 69.4042C41.5768 68.836 40.8691 68.5132 40.5588 69.0039Z" fill="#01342A"/>
<path id="Vector_62" d="M47.2004 77.7842C46.6914 76.4671 46.1079 75.2146 45.7603 73.8459C45.4127 72.5288 45.2761 71.186 44.8912 69.8818C44.8168 69.6236 44.4443 69.5332 44.3202 69.8043C43.1035 72.3739 43.2649 75.9894 44.0843 78.6881C44.7299 80.7799 47.9701 79.7727 47.2004 77.7971V77.7842Z" fill="#01342A"/>
<path id="Vector_63" d="M53.0478 76.6348C51.7442 74.556 51.0987 72.3996 50.18 70.1399C49.9813 69.6492 49.2985 69.5589 49.1372 70.1399C48.3799 72.8128 49.1744 75.873 50.2669 78.3135C51.1235 80.2503 54.1899 78.4555 53.0478 76.6219V76.6348Z" fill="#01342A"/>
<path id="Vector_64" d="M59.5034 74.6596C57.8647 72.6969 56.7101 70.3211 55.0465 68.3971C54.8976 68.2163 54.5748 68.3067 54.5251 68.5392C53.9416 71.4315 55.3072 74.4659 56.8467 76.7902C58.2495 78.9078 61.1049 76.5577 59.5034 74.6596Z" fill="#01342A"/>
<path id="Vector_65" d="M60.0124 66.5894C60.7076 69.443 61.9987 71.9739 63.7492 74.2852C65.3879 76.4286 68.5785 72.8519 66.0956 71.1346C64.1713 69.7917 62.5946 68.0485 61.3656 66.0083C60.9187 65.2723 59.8138 65.7501 60.0248 66.6023L60.0124 66.5894Z" fill="#01342A"/>
<path id="Vector_66" d="M36.2881 60.1845C39.1931 59.3581 39.6276 55.252 39.0441 52.6308C38.2868 49.2348 35.8039 47.1559 32.9858 45.5935C32.9361 45.5677 32.8864 45.6452 32.9361 45.6839C35.1211 47.3238 36.8715 50.0612 36.735 52.9536C36.6357 55.1616 35.0218 56.4141 34.5748 58.4026C34.339 59.4614 35.2328 60.4815 36.2881 60.1845Z" fill="#01342A"/>
<path id="Vector_67" d="M17.9268 44.4058C20.2235 44.9093 20.3849 41.126 18.3241 41.3197C17.1571 41.423 16.0522 41.8104 15.0715 42.4689C14.1528 43.0758 13.6562 43.8505 13.023 44.7286C12.9982 44.7673 13.0479 44.819 13.0851 44.7931C14.5252 43.9667 16.375 44.07 17.9144 44.4058H17.9268Z" fill="#01342A"/>
<path id="Vector_68" d="M17.9019 31.997C15.9031 31.274 14.9348 29.9827 13.2339 29.0143C12.6256 28.6656 12.3153 28.5494 11.5828 28.5882C11.2724 28.6011 10.9745 28.8077 10.8876 29.1434C10.8379 29.3242 10.7883 29.5179 10.751 29.6986C10.6269 30.2022 10.7386 30.8478 11.1359 31.1965C15.692 35.1993 24.0595 35.6125 29.4102 33.3012C29.4599 33.2754 29.4475 33.185 29.3854 33.2108C25.7355 34.3987 21.4524 33.3012 17.9019 32.01V31.997Z" fill="#01342A"/>
<path id="Vector_69" d="M10.2918 200V160.591C10.2918 159.881 9.7456 159.313 9.06279 159.313C8.37999 159.313 7.83374 159.881 7.83374 160.591V200H10.3043H10.2918Z" fill="#01342A"/>
<path id="Vector_70" d="M200 6.77903H154.873C154.19 6.77903 153.644 7.34717 153.644 8.05735C153.644 8.76753 154.19 9.33568 154.873 9.33568H200V6.76611V6.77903Z" fill="#01342A"/>
</g>
<defs>
<clipPath id="clip0_436_5966">
<rect width="200" height="200" fill="white"/>
</clipPath>
</defs>
</svg>
