<svg width="200" height="200" viewBox="0 0 200 200" fill="none" xmlns="http://www.w3.org/2000/svg">
<g id="Layer_5" clip-path="url(#clip0_436_6684)">
<path id="Vector" d="M124.817 187.449C123.786 188.314 122.607 188.986 121.527 189.773C120.559 190.471 119.615 191.258 118.597 191.852C117.48 192.511 117.306 194.164 118.2 195.08C119.019 195.933 120.795 195.907 121.304 194.667C121.8 193.441 122.495 192.266 123.104 191.091C123.712 189.916 124.209 188.637 124.891 187.501C124.929 187.449 124.854 187.411 124.817 187.436L124.817 187.449Z" fill="#01342A"/>
<path id="Vector_2" d="M126.443 188.043C126.443 188.043 126.356 187.992 126.356 188.043C125.81 190.587 125.09 193.273 124.258 195.739C123.203 198.89 129.025 199.213 128.07 195.739C127.387 193.273 126.84 190.574 126.443 188.043Z" fill="#01342A"/>
<path id="Vector_3" d="M133.842 192.136C132.812 191.439 131.881 190.561 130.912 189.773C129.944 188.973 128.889 188.275 127.97 187.423C127.933 187.384 127.871 187.423 127.896 187.488C128.479 188.611 128.889 189.838 129.41 191C129.919 192.149 130.528 193.285 130.937 194.473C131.397 195.816 132.886 196.462 134.041 195.545C135.171 194.641 134.997 192.937 133.842 192.149L133.842 192.136Z" fill="#01342A"/>
<path id="Vector_4" d="M136.499 185.577C133.979 185.848 131.273 185.952 128.74 185.913C128.678 185.913 128.678 185.99 128.728 186.016C130.987 186.984 133.358 188.172 135.494 189.412C138.597 191.22 139.566 185.254 136.487 185.577L136.499 185.577Z" fill="#01342A"/>
<path id="Vector_5" d="M132.204 183.356C133.445 183.008 134.687 182.594 135.94 182.362C139.069 181.781 136.4 176.306 134.016 178.927C133.147 179.883 132.154 180.709 131.21 181.587C130.267 182.465 129.398 183.434 128.417 184.26C128.38 184.286 128.417 184.363 128.467 184.338C129.683 183.924 130.975 183.705 132.216 183.356L132.204 183.356Z" fill="#01342A"/>
<path id="Vector_6" d="M128.119 175.556C127.958 178.049 127.585 180.747 127.126 183.201C127.126 183.252 127.188 183.291 127.213 183.239C128.479 181.147 129.981 178.927 131.496 177.016C133.867 174.033 128.355 171.838 128.119 175.556Z" fill="#01342A"/>
<path id="Vector_7" d="M121.341 176.448C122.818 178.553 124.283 180.967 125.5 183.253C125.525 183.305 125.599 183.266 125.587 183.214C125.251 180.696 125.053 177.946 125.028 175.415C125.003 171.735 119.503 173.827 121.341 176.448Z" fill="#01342A"/>
<path id="Vector_8" d="M117.033 181.987C118.262 182.297 119.454 182.775 120.658 183.188C121.862 183.601 123.116 183.898 124.283 184.376C124.333 184.389 124.37 184.325 124.333 184.299C123.377 183.408 122.557 182.362 121.651 181.419C120.745 180.477 119.789 179.573 118.957 178.553C116.884 175.996 113.693 181.161 117.033 181.987Z" fill="#01342A"/>
<path id="Vector_9" d="M117.182 188.985C119.342 187.901 121.763 186.893 124.035 186.067C124.084 186.054 124.072 185.977 124.022 185.964C121.639 185.848 119.069 185.615 116.71 185.228C113.035 184.608 113.942 190.625 117.182 188.985Z" fill="#01342A"/>
<path id="Vector_10" d="M62.0484 197.999C63.1781 196.927 62.8802 195.274 62.0484 194.164C60.9808 192.743 60.0993 193.892 58.8951 193.737C57.6909 194.99 56.6729 194.164 55.8411 191.232C56.1887 190.032 56.8343 189.102 57.7778 188.443C59.8014 186.662 62.2346 186.532 64.7051 187.346C68.9758 188.753 72.216 192.033 75.8411 194.693C77.306 196.591 79.491 197.96 82.2471 198.257C87.2253 198.786 92.2905 196.901 96.5115 194.28C101.937 190.91 106.567 183.588 113.222 183.188C113.271 183.188 113.284 183.111 113.234 183.085C106.915 181.148 101.701 188.469 96.7598 191.413C92.8243 193.75 85.3011 197.185 80.8566 194.202C75.7914 190.793 80.2607 187.346 81.4525 183.627C81.7753 182.62 81.0677 181.406 80.0993 181.161C79.8014 181.083 79.5034 181.006 79.2055 180.928C78.2371 180.67 77.1695 180.928 76.4742 181.677C73.8175 184.557 73.234 188.327 74.2148 191.542C68.2806 185.448 61.825 178.527 54.3017 185.293C51.1111 188.159 49.6089 193.441 52.216 197.25C54.6369 200.788 59.1061 200.775 62.0608 197.999L62.0484 197.999Z" fill="#01342A"/>
<path id="Vector_11" d="M146.22 184.312C146.319 182.065 142.694 182.117 142.893 184.312C143.116 186.713 142.52 189.102 140.708 190.703C140.596 190.794 140.708 190.962 140.844 190.936C143.948 190.213 146.083 187.591 146.22 184.312Z" fill="#01342A"/>
<path id="Vector_12" d="M145.984 190.393C145.984 190.393 145.984 190.496 146.046 190.47C148.243 189.308 149.845 187.927 150.826 185.525C151.62 183.575 152.427 180.063 150.503 178.617C150.031 178.255 149.261 178.307 148.777 178.617C148.728 178.656 148.665 178.681 148.616 178.72C147.499 179.43 147.635 180.735 148.38 181.445C149.708 184.234 148.132 188.611 145.996 190.393L145.984 190.393Z" fill="#01342A"/>
<path id="Vector_13" d="M145.289 195.3C145.028 195.365 145.04 195.765 145.289 195.843C146.145 196.088 146.903 196.501 147.573 197.108C148.206 197.689 148.554 198.477 149.162 199.045C150.304 200.117 152.191 198.748 151.347 197.289C150.205 195.3 147.275 194.848 145.276 195.3L145.289 195.3Z" fill="#01342A"/>
<path id="Vector_14" d="M160.286 194.331C157.629 192.33 154.624 191.929 151.57 193.143C151.521 193.169 151.533 193.233 151.57 193.233C154.091 193.582 156.586 195.067 158.262 197.043C159.764 198.825 162.334 195.881 160.273 194.331L160.286 194.331Z" fill="#01342A"/>
<path id="Vector_15" d="M160.062 187.81C158.56 188.172 156.425 188.689 155.307 189.864C155.245 189.928 155.27 190.083 155.369 190.096C156.077 190.238 156.822 190.135 157.542 190.199C158.411 190.277 159.243 190.496 160.074 190.793C162.284 191.568 162.644 187.204 160.074 187.823L160.062 187.81Z" fill="#01342A"/>
<path id="Vector_16" d="M112.477 184.505C110.639 186.003 109.199 188.237 108.69 190.613C108.144 193.182 112.204 193.182 111.633 190.613C111.148 188.431 111.471 186.533 112.613 184.622C112.675 184.518 112.551 184.441 112.477 184.505Z" fill="#01342A"/>
<path id="Vector_17" d="M107.3 187.333C105.351 189.141 103.985 191.362 103.141 193.931C102.992 194.396 103.166 194.9 103.476 195.248C103.538 195.326 103.6 195.39 103.675 195.468C103.948 195.778 104.482 195.855 104.817 195.623C106.034 194.796 105.624 193.415 105.81 192.085C106.046 190.419 106.592 188.857 107.374 187.397C107.399 187.346 107.337 187.307 107.3 187.346L107.3 187.333Z" fill="#01342A"/>
<path id="Vector_18" d="M101.328 192.911C100.745 193.53 100.05 193.969 99.4164 194.525C98.7833 195.067 98.1005 195.558 97.3432 195.893C95.841 196.552 96.9335 198.825 98.175 197.946C99.0316 197.34 99.8137 196.629 100.459 195.777C101.055 194.99 101.316 193.969 101.49 193.001C101.502 192.911 101.403 192.833 101.341 192.911L101.328 192.911Z" fill="#01342A"/>
<path id="Vector_19" d="M112.464 181.535C112.688 181.587 112.837 181.315 112.688 181.148C111.608 179.985 110.54 179.133 109.137 178.41C107.809 177.739 106.493 177.003 105.003 177.235C103.849 177.403 103.811 179.172 104.693 179.714C105.835 180.412 107.25 180.308 108.529 180.605C109.845 180.902 111.161 181.225 112.477 181.548L112.464 181.535Z" fill="#01342A"/>
<path id="Vector_20" d="M105.823 183.149C105.947 183.149 106.021 182.943 105.885 182.891C104.407 182.22 102.893 181.729 101.291 181.471C99.7766 181.238 98.3862 180.941 97.4054 182.349C97.0578 182.852 97.3434 183.588 97.7903 183.885C98.9821 184.66 100.037 183.963 101.291 183.627C102.781 183.24 104.283 183.111 105.81 183.149L105.823 183.149Z" fill="#01342A"/>
<path id="Vector_21" d="M96.5239 188.275C97.9889 187.578 99.5283 187.074 101.018 186.454C101.055 186.442 101.068 186.377 101.018 186.364C99.4414 186.041 97.8771 186.041 96.2881 186.222C94.7735 186.39 93.172 186.454 91.9926 187.539C91.1856 188.288 91.8188 189.837 92.8864 189.786C94.2645 189.721 95.2949 188.869 96.5239 188.275Z" fill="#01342A"/>
<path id="Vector_22" d="M84.6928 192.653C87.1137 194.125 89.6959 193.544 91.9182 192.046C91.9678 192.007 91.9182 191.93 91.8685 191.956C89.8697 192.86 87.7841 191.84 86.3936 190.355C84.9908 188.844 82.8927 191.556 84.6928 192.653Z" fill="#01342A"/>
<path id="Vector_23" d="M127.027 186.946C127.101 186.933 127.176 186.92 127.25 186.907C128.541 186.649 128.541 184.453 127.25 184.208C127.176 184.195 127.101 184.182 127.027 184.169C126.145 184.001 125.264 184.57 125.264 185.564C125.264 186.558 126.145 187.139 127.027 186.958L127.027 186.946Z" fill="#01342A"/>
<path id="Vector_24" d="M73.4326 179.366C74.1651 175.647 68.6406 174.898 68.5289 178.682C68.4792 180.399 68.5537 182.078 69.3482 183.614C70.0434 184.944 70.9497 186.145 71.9925 187.204C72.2284 187.449 72.7126 187.281 72.6878 186.907C72.6009 185.629 72.6257 184.376 72.8988 183.124C73.1719 181.871 73.1844 180.619 73.4326 179.366Z" fill="#01342A"/>
<path id="Vector_25" d="M155.667 184.13C156.425 181.871 157.008 179.198 157.058 176.577C159.044 168.326 161.49 158.629 153.184 153.619C151.521 152.611 149.795 152.134 148.094 152.069C148.504 151.204 149.249 150.313 149.845 149.564C150.093 149.241 150.379 148.957 150.652 148.66C150.925 148.363 151.21 148.079 151.521 147.821C152.228 147.201 153.085 146.426 153.917 146C153.979 147.769 154.438 149.564 155.407 151.294C160.223 159.933 169.547 157.389 177.48 155.323C180 155.271 182.57 154.677 184.742 153.877C190.751 151.682 195.059 146.749 194.463 139.906C194.463 139.841 194.364 139.841 194.364 139.906C194.587 146.943 188.864 151.359 182.756 152.637C180.323 153.141 177.02 153.541 174.587 152.663C171.695 151.63 170.168 149.577 169.994 146.53C169.857 143.134 171.446 141.829 174.761 142.604C173.929 143.418 174.786 145.187 175.94 144.709C179.839 143.095 178.225 137.904 174.252 137.84C168.616 137.736 165.673 145.445 167.871 150.132C169.485 153.567 172.514 154.974 175.829 155.258C169.957 156.266 163.29 156.808 159.503 152.392C154.538 146.62 157.803 138.201 164.718 136.561C166.803 136.071 165.922 132.726 163.836 133.23C162.93 133.449 162.048 133.772 161.229 134.185C156.934 131.409 151.93 130.622 146.828 132.313C144.506 133.075 141.577 134.65 139.193 136.729C137.207 139.208 135.692 142.256 134.947 144.67C133.321 149.99 134.078 155.181 136.747 159.649C136.362 160.501 136.052 161.418 135.829 162.36C135.344 164.529 138.56 165.446 139.032 163.277C140.608 156.085 148.69 152.689 154.252 157.854C158.485 161.792 157.964 168.726 157.008 174.834C156.735 171.386 155.382 168.235 152.079 166.557C147.585 164.271 140.174 167.331 140.261 173.194C140.323 177.326 145.313 179.004 146.865 174.95C147.325 173.749 145.624 172.858 144.842 173.723C144.097 170.275 145.351 168.623 148.616 168.765C151.546 168.946 153.507 170.534 154.513 173.542C155.344 176.073 154.972 179.495 154.488 182.039C153.259 188.392 149.013 194.357 142.247 194.112C142.185 194.112 142.185 194.202 142.247 194.215C148.827 194.835 153.569 190.367 155.68 184.105L155.667 184.13ZM137.38 158.422C135.791 153.644 135.853 148.35 138.175 143.741C139.032 142.049 140.112 140.435 141.341 138.989C142.719 137.71 144.271 136.587 145.909 135.696C150.341 133.281 155.431 133.204 160.025 134.87C159.342 135.296 158.721 135.786 158.125 136.316C155.233 135.554 152.626 135.128 149.559 136.264C147.076 137.181 144.829 138.756 142.781 140.487C141.105 142.63 139.603 144.967 138.721 147.537C137.629 150.726 138.038 153.438 138.771 156.446C138.262 157.053 137.79 157.712 137.38 158.422ZM139.106 156.059C138.932 153.502 138.994 150.829 139.789 148.466C140.646 145.884 142.259 143.741 143.898 141.662C145.909 139.957 147.97 138.279 150.441 137.388C152.713 136.574 155.282 136.497 157.74 136.677C157.008 137.401 156.362 138.214 155.816 139.079C152.377 138.472 148.231 140.758 145.239 143.056C143.017 146.168 140.819 150.481 141.415 154.058C140.583 154.626 139.801 155.297 139.106 156.059ZM141.8 153.812C141.999 151.682 143.315 149.125 144.084 147.653C144.73 146.413 145.487 145.277 146.344 144.192C147.374 143.302 148.479 142.514 149.671 141.842C151.086 141.055 153.544 139.686 155.593 139.467C155.047 140.396 154.624 141.39 154.339 142.436C152.017 143.043 149.485 143.883 147.623 145.51C146.058 147.459 145.239 150.081 144.668 152.495C143.675 152.792 142.719 153.231 141.812 153.799L141.8 153.812ZM144.804 152.456C145.227 151.01 145.996 149.641 146.865 148.454C147.399 147.73 148.007 147.149 148.628 146.568C149.187 145.923 149.758 145.277 150.441 144.735C151.583 143.831 152.899 143.03 154.289 142.591C154.004 143.663 153.88 144.774 153.904 145.897C152.886 146.207 151.955 146.362 150.999 146.891C150.552 147.136 150.13 147.421 149.721 147.718C149.435 148.144 149.162 148.583 148.926 149.048C148.417 150.042 148.268 151.01 147.97 152.069C146.89 152.043 145.822 152.172 144.792 152.469L144.804 152.456Z" fill="#01342A"/>
<path id="Vector_26" d="M134.823 159.468C131.856 160.656 128.79 161.65 125.947 163.122C123.712 164.284 125.847 168.067 127.896 166.595C130.503 164.71 132.824 162.386 135.258 160.255C135.593 159.958 135.233 159.313 134.823 159.468Z" fill="#01342A"/>
<path id="Vector_27" d="M133.271 156.873C131.918 157.157 130.565 157.299 129.187 157.39C127.921 157.48 126.629 157.286 125.388 157.454C123.364 157.725 123.253 160.682 125.388 160.824C128.243 161.018 131.322 159.378 133.656 157.816C134.14 157.493 133.83 156.757 133.271 156.873Z" fill="#01342A"/>
<path id="Vector_28" d="M124.358 154.148C126.94 155 130.428 155.168 132.886 153.902C133.135 153.773 133.06 153.386 132.812 153.308C131.558 152.908 130.267 152.766 129.001 152.404C127.685 152.03 126.48 151.423 125.214 150.907C123.315 150.119 122.346 153.489 124.358 154.148Z" fill="#01342A"/>
<path id="Vector_29" d="M124.693 147.717C127.052 148.854 129.994 149.68 132.551 148.892C133.11 148.725 133.023 148.014 132.551 147.808C130.391 146.865 128.305 146.181 126.307 144.825C124.544 143.637 122.818 146.813 124.68 147.717L124.693 147.717Z" fill="#01342A"/>
<path id="Vector_30" d="M134.24 142.746C132.402 141.016 130.106 139.815 128.219 138.111C126.381 136.445 124.134 139.415 126.17 140.874C128.405 142.475 131.322 143.895 134.103 143.288C134.327 143.237 134.413 142.901 134.24 142.746Z" fill="#01342A"/>
<path id="Vector_31" d="M136.549 136.187C134.587 134.909 132.911 133.269 131.62 131.267C129.957 128.672 126.518 132.003 128.591 133.708C130.801 135.529 133.234 136.871 135.99 137.594C136.809 137.814 137.269 136.665 136.561 136.2L136.549 136.187Z" fill="#01342A"/>
<path id="Vector_32" d="M143.849 164.039C145.773 163.574 146.965 161.908 149.088 161.792C151.881 161.65 154.5 163.471 156.077 165.743C156.114 165.795 156.189 165.743 156.164 165.692C154.662 162.76 152.663 160.178 149.398 159.39C146.865 158.783 142.93 159.222 142.135 162.257C141.85 163.354 142.831 164.284 143.849 164.039Z" fill="#01342A"/>
<path id="Vector_33" d="M157.008 186.455C157.852 185.797 158.597 185.28 159.181 184.325C159.814 183.292 160.174 182.142 160.286 180.941C160.459 178.798 156.834 178.966 157.318 181.355C157.641 182.969 157.741 184.88 156.946 186.378C156.921 186.416 156.971 186.481 157.008 186.442L157.008 186.455Z" fill="#01342A"/>
<path id="Vector_34" d="M169.236 181.381C167.995 177.701 166.94 173.233 168.082 169.437C168.107 169.372 168.007 169.359 167.995 169.411C165.76 174.963 166.158 183.666 170.019 188.418C170.354 188.831 170.987 188.947 171.459 188.818C171.633 188.766 171.819 188.715 171.993 188.676C172.303 188.586 172.502 188.276 172.526 187.953C172.564 187.191 172.452 186.881 172.117 186.236C171.173 184.467 169.944 183.459 169.249 181.381L169.236 181.381Z" fill="#01342A"/>
<path id="Vector_35" d="M187.995 121.88C189.087 121.17 190.304 120.653 191.446 120.021C192.576 119.388 193.706 118.665 194.885 118.148C196.077 117.619 196.102 115.773 195.282 114.92C194.401 114.004 192.799 114.184 192.179 115.333C191.595 116.405 190.85 117.387 190.18 118.381C189.423 119.504 188.765 120.744 187.945 121.803C187.908 121.841 187.945 121.919 188.007 121.88L187.995 121.88Z" fill="#01342A"/>
<path id="Vector_36" d="M195.903 121.221C193.532 122.086 190.95 122.835 188.504 123.403C188.454 123.403 188.454 123.494 188.504 123.494C190.937 123.907 193.532 124.488 195.903 125.185C199.243 126.18 198.932 120.111 195.903 121.221Z" fill="#01342A"/>
<path id="Vector_37" d="M195.705 131.397C196.598 130.196 195.965 128.647 194.674 128.169C193.532 127.743 192.44 127.11 191.335 126.581C190.217 126.038 189.038 125.612 187.958 125.005C187.908 124.979 187.859 125.044 187.896 125.083C188.715 126.038 189.398 127.149 190.155 128.143C190.913 129.137 191.757 130.119 192.427 131.19C193.184 132.391 194.811 132.572 195.692 131.397L195.705 131.397Z" fill="#01342A"/>
<path id="Vector_38" d="M189.82 132.907C188.628 130.686 187.486 128.22 186.555 125.87C186.53 125.818 186.456 125.818 186.456 125.882C186.493 128.517 186.381 131.331 186.133 133.953C185.822 137.155 191.558 136.135 189.82 132.92L189.82 132.907Z" fill="#01342A"/>
<path id="Vector_39" d="M183.042 133.372C183.265 132.055 183.662 130.764 183.997 129.485C184.333 128.194 184.544 126.864 184.941 125.586C184.953 125.534 184.891 125.495 184.867 125.534C184.084 126.567 183.141 127.458 182.297 128.439C181.465 129.421 180.658 130.454 179.739 131.357C177.219 133.837 182.483 136.613 183.042 133.359L183.042 133.372Z" fill="#01342A"/>
<path id="Vector_40" d="M183.836 124.204C181.477 124.682 178.883 125.069 176.487 125.237C172.911 125.483 175.009 131.216 177.89 128.749C179.727 127.174 181.862 125.612 183.873 124.295C183.923 124.269 183.886 124.191 183.836 124.204Z" fill="#01342A"/>
<path id="Vector_41" d="M176.35 122.022C178.783 122.035 181.44 122.255 183.849 122.604C183.898 122.604 183.936 122.539 183.886 122.513C181.688 121.248 179.367 119.737 177.343 118.187C174.823 116.276 172.812 121.997 176.35 122.022Z" fill="#01342A"/>
<path id="Vector_42" d="M182.682 113.706C181.887 110.233 176.921 113.551 179.379 115.708C180.36 116.56 181.229 117.567 182.135 118.51C183.042 119.452 184.047 120.304 184.904 121.299C184.929 121.337 185.003 121.299 184.978 121.247C184.519 120.02 184.233 118.729 183.836 117.477C183.439 116.224 182.98 114.985 182.682 113.706Z" fill="#01342A"/>
<path id="Vector_43" d="M185.798 113.37C186.183 115.824 186.406 118.497 186.505 120.976C186.505 121.027 186.58 121.04 186.605 120.989C187.399 118.626 188.367 116.108 189.41 113.861C190.975 110.491 185.202 109.548 185.798 113.37Z" fill="#01342A"/>
<path id="Vector_44" d="M197.356 46.2781C193.693 43.5665 188.628 45.1289 185.86 48.4474C179.354 56.2723 186.009 62.9867 191.868 69.1589C188.765 68.1388 185.152 68.7457 182.384 71.5089C181.651 72.232 181.415 73.3425 181.664 74.3497C181.738 74.6596 181.813 74.9695 181.887 75.2793C182.135 76.2865 183.29 77.0225 184.258 76.6868C187.834 75.4343 191.148 70.7858 194.426 76.067C197.294 80.6896 193.991 88.5145 191.744 92.6078C188.926 97.7469 181.875 103.17 183.737 109.743C183.749 109.794 183.824 109.781 183.836 109.73C184.221 102.809 191.26 97.9922 194.5 92.3495C197.02 87.9593 198.833 82.6911 198.324 77.5132C198.051 74.6595 196.723 72.387 194.898 70.8504C192.34 67.08 189.187 63.7098 187.834 59.268C187.052 56.6984 187.176 54.1676 188.889 52.0629C189.522 51.0815 190.416 50.4101 191.57 50.0485C194.376 50.9137 195.183 51.9725 193.979 53.225C194.115 54.4775 193.023 55.4072 194.389 56.5047C195.456 57.3699 197.045 57.6798 198.076 56.5047C200.745 53.4316 200.757 48.796 197.356 46.2652L197.356 46.2781Z" fill="#01342A"/>
<path id="Vector_45" d="M192.911 180.127C197.939 176.034 198.982 168.803 193.904 164.09C186.629 157.337 174.252 160.359 165.065 163.651C161.899 173.206 158.994 186.08 165.487 193.647C170.019 198.928 176.958 197.856 180.906 192.614C181.639 193.169 182.396 193.685 183.178 194.15C187.238 196.539 193.78 199.716 198.597 198.541C199.727 193.543 196.685 186.726 194.389 182.503C193.942 181.69 193.445 180.902 192.911 180.127ZM176.3 189.269C173.966 192.769 170.006 191.749 167.846 188.688C163.29 182.232 164.171 172.509 165.723 164.361C173.557 162.734 182.905 161.831 189.112 166.569C192.055 168.816 193.048 172.935 189.671 175.363C189.472 175.505 189.299 175.66 189.15 175.828C187.945 174.73 186.654 173.749 185.276 172.922C181.006 170.34 175.779 169.036 170.826 169.681C170.205 174.833 171.459 180.282 173.942 184.711C174.736 186.145 175.68 187.488 176.735 188.74C176.574 188.895 176.425 189.076 176.288 189.282L176.3 189.269ZM192.638 193.066C190.093 192.485 187.585 191.684 185.239 190.496C181.738 188.727 178.547 186.39 176.151 183.175C173.482 179.585 171.769 174.975 171.496 170.366C175.94 170.65 180.36 172.419 183.811 175.208C186.903 177.7 189.15 181.018 190.85 184.66C191.993 187.1 192.762 189.708 193.321 192.356C193.383 192.652 193.433 192.949 193.482 193.246C193.197 193.195 192.911 193.143 192.626 193.079L192.638 193.066Z" fill="#01342A"/>
<path id="Vector_46" d="M191.061 138.343C189.522 140.228 187.225 140.848 184.916 140.616C182.806 140.409 182.756 144.179 184.916 144.076C188.07 143.934 190.59 141.7 191.285 138.485C191.31 138.356 191.148 138.24 191.061 138.343Z" fill="#01342A"/>
<path id="Vector_47" d="M186.083 148.841C188.392 147.821 189.721 146.155 190.838 143.869C190.863 143.818 190.801 143.766 190.764 143.805C189.05 146.026 184.842 147.666 182.16 146.284C181.477 145.509 180.224 145.367 179.541 146.529C179.503 146.581 179.479 146.646 179.441 146.697C179.143 147.201 179.094 148.001 179.441 148.492C180.832 150.493 184.209 149.654 186.083 148.828L186.083 148.841Z" fill="#01342A"/>
<path id="Vector_48" d="M197.219 145.471C196.636 144.774 196.238 143.986 196.002 143.095C195.928 142.837 195.543 142.824 195.481 143.095C195.047 145.174 195.481 148.222 197.393 149.41C198.796 150.288 200.112 148.325 199.081 147.137C198.535 146.504 197.778 146.143 197.219 145.484L197.219 145.471Z" fill="#01342A"/>
<path id="Vector_49" d="M193.42 149.629C192.241 152.805 192.626 155.943 194.562 158.693C196.052 160.824 198.883 158.164 197.169 156.601C195.27 154.858 193.842 152.263 193.507 149.642C193.507 149.59 193.433 149.577 193.42 149.642L193.42 149.629Z" fill="#01342A"/>
<path id="Vector_50" d="M190.478 153.58C190.453 153.477 190.317 153.451 190.254 153.516C189.125 154.678 188.628 156.912 188.281 158.461C187.685 161.134 191.893 160.76 191.136 158.461C190.85 157.596 190.639 156.744 190.565 155.827C190.503 155.078 190.602 154.303 190.466 153.567L190.478 153.58Z" fill="#01342A"/>
<path id="Vector_51" d="M185.102 108.967C185.04 109.045 185.115 109.174 185.214 109.109C187.051 107.922 188.876 107.599 190.975 108.089C193.445 108.67 193.445 104.461 190.975 105.029C188.69 105.559 186.542 107.056 185.102 108.967Z" fill="#01342A"/>
<path id="Vector_52" d="M187.821 103.583C187.821 103.583 187.821 103.687 187.871 103.661C189.286 102.86 190.788 102.279 192.377 102.034C193.656 101.84 194.984 102.266 195.779 101.001C196.002 100.652 195.928 100.097 195.63 99.813C195.556 99.7484 195.493 99.6839 195.419 99.6064C195.096 99.2965 194.6 99.1028 194.153 99.2578C191.682 100.136 189.547 101.556 187.809 103.583L187.821 103.583Z" fill="#01342A"/>
<path id="Vector_53" d="M196.052 93.2274C195.729 94.015 195.27 94.7252 194.736 95.3838C194.202 96.0423 193.78 96.7654 193.184 97.3723C193.122 97.4368 193.184 97.5401 193.271 97.5272C194.202 97.3464 195.183 97.0753 195.94 96.4555C196.76 95.784 197.43 94.9835 198.026 94.0796C198.87 92.7884 196.685 91.6521 196.052 93.2145L196.052 93.2274Z" fill="#01342A"/>
<path id="Vector_54" d="M180.484 100.859C179.963 99.9418 178.274 99.9806 178.101 101.181C177.89 102.731 178.585 104.113 179.23 105.481C179.926 106.94 180.732 108.051 181.862 109.174C182.024 109.342 182.284 109.174 182.235 108.942C181.924 107.573 181.626 106.204 181.328 104.836C181.043 103.506 181.142 102.034 180.472 100.846L180.484 100.859Z" fill="#01342A"/>
<path id="Vector_55" d="M183.799 102.046C183.762 100.458 183.886 98.8959 184.258 97.3464C184.569 96.0422 185.251 94.9447 184.507 93.7051C184.221 93.2273 183.513 92.9432 183.029 93.3048C181.688 94.312 181.962 95.7711 182.185 97.3464C182.421 99.0121 182.905 100.587 183.551 102.124C183.6 102.253 183.799 102.189 183.799 102.059L183.799 102.046Z" fill="#01342A"/>
<path id="Vector_56" d="M186.977 97.0499C187.573 95.5004 188.057 93.8993 188.728 92.3756C189.286 91.0973 190.106 90.0256 190.18 88.5923C190.23 87.4818 188.74 86.8104 188.02 87.6626C186.977 88.8893 186.915 90.555 186.754 92.1303C186.592 93.796 186.58 95.41 186.89 97.0499C186.89 97.1016 186.965 97.0887 186.977 97.0499Z" fill="#01342A"/>
<path id="Vector_57" d="M192.353 87.5851C193.793 85.2737 194.351 82.588 192.936 80.07C191.881 78.2107 189.274 80.3799 190.726 81.839C192.166 83.2852 193.135 85.4545 192.266 87.5334C192.241 87.5851 192.315 87.6367 192.353 87.5851Z" fill="#01342A"/>
<path id="Vector_58" d="M184.767 124.101C184.78 124.179 184.792 124.256 184.804 124.334C185.053 125.677 187.163 125.677 187.399 124.334C187.412 124.256 187.424 124.179 187.436 124.101C187.598 123.184 187.039 122.268 186.096 122.268C185.152 122.268 184.581 123.184 184.755 124.101L184.767 124.101Z" fill="#01342A"/>
<path id="Vector_59" d="M187.412 67.5834C187.772 67.6093 187.933 67.1057 187.697 66.8603C186.679 65.7886 185.525 64.8331 184.246 64.11C182.768 63.2836 181.167 63.2061 179.503 63.2578C175.866 63.374 176.598 69.12 180.161 68.3582C181.366 68.0999 182.57 68.087 183.774 67.803C184.978 67.5189 186.182 67.4801 187.399 67.5834L187.412 67.5834Z" fill="#01342A"/>
<path id="Vector_60" d="M164.531 122.991C163.116 125.948 162.16 129.137 161.018 132.223C160.857 132.649 161.49 133.024 161.775 132.675C163.824 130.144 166.058 127.742 167.871 125.018C169.299 122.887 165.649 120.666 164.531 122.991Z" fill="#01342A"/>
<path id="Vector_61" d="M159.441 130.997C160.944 128.569 162.52 125.367 162.334 122.397C162.197 120.176 159.367 120.292 159.094 122.397C158.932 123.688 159.119 125.044 159.032 126.348C158.945 127.781 158.808 129.189 158.535 130.596C158.423 131.164 159.131 131.487 159.441 130.997Z" fill="#01342A"/>
<path id="Vector_62" d="M152.8 122.216C153.309 123.533 153.892 124.785 154.24 126.154C154.587 127.471 154.724 128.814 155.109 130.118C155.183 130.376 155.556 130.467 155.68 130.196C156.896 127.626 156.735 124.011 155.916 121.312C155.27 119.22 152.03 120.227 152.8 122.203L152.8 122.216Z" fill="#01342A"/>
<path id="Vector_63" d="M146.952 123.365C148.256 125.444 148.901 127.6 149.82 129.86C150.019 130.351 150.701 130.441 150.863 129.86C151.62 127.187 150.826 124.127 149.733 121.687C148.877 119.75 145.81 121.545 146.952 123.378L146.952 123.365Z" fill="#01342A"/>
<path id="Vector_64" d="M140.497 125.341C142.135 127.304 143.29 129.679 144.953 131.603C145.102 131.784 145.425 131.694 145.475 131.461C146.058 128.569 144.693 125.535 143.153 123.21C141.75 121.093 138.895 123.443 140.497 125.341Z" fill="#01342A"/>
<path id="Vector_65" d="M139.988 133.411C139.292 130.557 138.001 128.026 136.251 125.715C134.612 123.571 131.422 127.148 133.904 128.865C135.829 130.208 137.405 131.952 138.634 133.992C139.081 134.728 140.186 134.25 139.975 133.398L139.988 133.411Z" fill="#01342A"/>
<path id="Vector_66" d="M163.712 139.815C160.807 140.641 160.372 144.748 160.956 147.369C161.713 150.765 164.196 152.844 167.014 154.406C167.064 154.432 167.114 154.354 167.064 154.316C164.879 152.676 163.128 149.938 163.265 147.046C163.364 144.838 164.978 143.585 165.425 141.597C165.661 140.538 164.767 139.518 163.712 139.815Z" fill="#01342A"/>
<path id="Vector_67" d="M182.073 155.594C179.777 155.091 179.615 158.874 181.676 158.68C182.843 158.577 183.948 158.19 184.929 157.531C185.847 156.924 186.344 156.149 186.977 155.271C187.002 155.233 186.952 155.181 186.915 155.207C185.475 156.033 183.625 155.93 182.086 155.594L182.073 155.594Z" fill="#01342A"/>
<path id="Vector_68" d="M182.098 168.003C184.097 168.726 185.065 170.017 186.766 170.986C187.374 171.334 187.685 171.451 188.417 171.412C188.727 171.399 189.025 171.192 189.112 170.857C189.162 170.676 189.212 170.482 189.249 170.301C189.373 169.798 189.261 169.152 188.864 168.804C184.308 164.801 175.94 164.387 170.59 166.699C170.54 166.725 170.552 166.815 170.614 166.789C174.264 165.601 178.547 166.699 182.098 167.99L182.098 168.003Z" fill="#01342A"/>
<path id="Vector_69" d="M189.708 -0.000419832L189.708 39.4082C189.708 40.1184 190.255 40.6865 190.937 40.6865C191.62 40.6865 192.166 40.1184 192.166 39.4082L192.166 -0.000419617L189.696 -0.000419833L189.708 -0.000419832Z" fill="#01342A"/>
<path id="Vector_70" d="M-0.000102996 193.221L45.1272 193.221C45.81 193.221 46.3562 192.653 46.3562 191.943C46.3562 191.233 45.81 190.665 45.1272 190.665L-0.000102772 190.665L-0.000102997 193.234L-0.000102996 193.221Z" fill="#01342A"/>
</g>
<defs>
<clipPath id="clip0_436_6684">
<rect width="200" height="200" fill="white" transform="translate(200 200) rotate(-180)"/>
</clipPath>
</defs>
</svg>
