<svg width="200" height="200" viewBox="0 0 200 200" fill="none" xmlns="http://www.w3.org/2000/svg">
<g id="Layer_5" clip-path="url(#clip0_436_6755)">
<path id="Vector" d="M12.5507 124.817C11.6856 123.786 11.0142 122.607 10.2265 121.527C9.52925 120.559 8.74159 119.615 8.14762 118.597C7.48909 117.48 5.8363 117.306 4.91953 118.2C4.06731 119.019 4.09313 120.794 5.33272 121.303C6.5594 121.8 7.73443 122.495 8.90945 123.104C10.0845 123.712 11.3628 124.208 12.4991 124.891C12.5507 124.928 12.5895 124.854 12.5637 124.817L12.5507 124.817Z" fill="#01342A"/>
<path id="Vector_2" d="M11.9569 126.443C11.9569 126.443 12.0086 126.356 11.9569 126.356C9.41317 125.81 6.7274 125.09 4.26113 124.258C1.11051 123.203 0.787696 129.025 4.26113 128.069C6.7274 127.386 9.42609 126.84 11.9569 126.443Z" fill="#01342A"/>
<path id="Vector_3" d="M7.86374 133.842C8.56101 132.812 9.43906 131.881 10.2267 130.912C11.0273 129.944 11.7245 128.889 12.5768 127.97C12.6155 127.933 12.5768 127.871 12.5122 127.895C11.3888 128.479 10.1621 128.889 9.00003 129.41C7.85083 129.919 6.71454 130.527 5.5266 130.937C4.18371 131.396 3.53809 132.886 4.45487 134.041C5.35874 135.17 7.06317 134.997 7.85083 133.842L7.86374 133.842Z" fill="#01342A"/>
<path id="Vector_4" d="M14.4232 136.499C14.152 133.979 14.0487 131.273 14.0875 128.74C14.0875 128.678 14.01 128.678 13.9842 128.728C13.0157 130.987 11.8278 133.358 10.5882 135.494C8.78048 138.597 14.746 139.566 14.4232 136.487L14.4232 136.499Z" fill="#01342A"/>
<path id="Vector_5" d="M16.644 132.204C16.9926 133.445 17.4058 134.686 17.6383 135.94C18.2193 139.069 23.6942 136.4 21.073 134.016C20.1174 133.147 19.2911 132.154 18.413 131.21C17.535 130.267 16.5665 129.398 15.7401 128.417C15.7143 128.38 15.6368 128.417 15.6627 128.467C16.0759 129.683 16.2954 130.974 16.644 132.216L16.644 132.204Z" fill="#01342A"/>
<path id="Vector_6" d="M24.4431 128.119C21.951 127.958 19.2523 127.585 16.799 127.126C16.7473 127.126 16.7086 127.188 16.7602 127.213C18.852 128.479 21.073 129.981 22.984 131.496C25.9668 133.867 28.1619 128.355 24.4431 128.119Z" fill="#01342A"/>
<path id="Vector_7" d="M23.5521 121.341C21.4474 122.818 19.0328 124.283 16.7473 125.5C16.6956 125.524 16.7344 125.599 16.786 125.587C19.3039 125.251 22.0543 125.053 24.5851 125.028C28.2651 125.003 26.1733 119.503 23.5521 121.341Z" fill="#01342A"/>
<path id="Vector_8" d="M18.0128 117.033C17.7029 118.262 17.2251 119.454 16.8119 120.658C16.3987 121.862 16.1018 123.116 15.624 124.283C15.6111 124.333 15.6757 124.37 15.7015 124.333C16.5924 123.377 17.6383 122.557 18.5809 121.651C19.5235 120.745 20.4274 119.789 21.4475 118.957C24.0041 116.884 18.8392 113.693 18.0128 117.033Z" fill="#01342A"/>
<path id="Vector_9" d="M11.0143 117.182C12.0989 119.342 13.1061 121.763 13.9325 124.035C13.9454 124.084 14.0228 124.072 14.0358 124.022C14.152 121.639 14.3844 119.069 14.7718 116.71C15.3916 113.035 9.37439 113.942 11.0143 117.182Z" fill="#01342A"/>
<path id="Vector_10" d="M2.00142 62.0484C3.07315 63.1781 4.72593 62.8802 5.8364 62.0484C7.25676 60.9808 6.10756 60.0993 6.26251 58.8951C5.01001 57.6909 5.8364 56.6729 8.76751 55.8411C9.96836 56.1887 10.8981 56.8343 11.5566 57.7778C13.3385 59.8014 13.4676 62.2346 12.6541 64.7051C11.2467 68.9758 7.96694 72.216 5.30699 75.8411C3.40887 77.306 2.04015 79.491 1.74317 82.2471C1.21376 87.2253 3.09897 92.2905 5.72018 96.5115C9.09032 101.937 16.4116 106.567 16.8119 113.222C16.8119 113.271 16.8894 113.284 16.9152 113.234C18.8521 106.915 11.5308 101.701 8.58673 96.7598C6.24959 92.8243 2.8149 85.3011 5.79766 80.8566C9.20653 75.7914 12.6541 80.2607 16.3729 81.4525C17.3801 81.7753 18.5938 81.0677 18.8392 80.0993C18.9166 79.8014 18.9941 79.5034 19.0716 79.2055C19.3298 78.2371 19.0716 77.1695 18.3227 76.4742C15.4432 73.8175 11.6728 73.234 8.45761 74.2148C14.5523 68.2806 21.4733 61.825 14.7072 54.3017C11.8407 51.1111 6.55949 49.6089 2.75034 52.216C-0.787656 54.6369 -0.774744 59.1061 2.00142 62.0608L2.00142 62.0484Z" fill="#01342A"/>
<path id="Vector_11" d="M15.6885 146.22C17.9352 146.319 17.8836 142.694 15.6885 142.893C13.2868 143.116 10.898 142.52 9.29686 140.708C9.20647 140.596 9.03861 140.708 9.06444 140.844C9.78753 143.948 12.4087 146.083 15.6885 146.22Z" fill="#01342A"/>
<path id="Vector_12" d="M9.60677 145.984C9.60677 145.984 9.50347 145.984 9.52929 146.046C10.6914 148.243 12.073 149.845 14.4747 150.825C16.4245 151.62 19.9367 152.427 21.3829 150.503C21.7444 150.031 21.6928 149.261 21.3829 148.777C21.3441 148.727 21.3183 148.665 21.2796 148.616C20.5694 147.498 19.2652 147.635 18.5551 148.38C15.766 149.708 11.3887 148.131 9.60677 145.996L9.60677 145.984Z" fill="#01342A"/>
<path id="Vector_13" d="M4.70004 145.288C4.63548 145.028 4.23519 145.04 4.15772 145.288C3.91238 146.145 3.49918 146.902 2.8923 147.573C2.31125 148.206 1.52359 148.553 0.955444 149.162C-0.116284 150.304 1.25243 152.191 2.71153 151.347C4.70004 150.205 5.15197 147.275 4.70004 145.276L4.70004 145.288Z" fill="#01342A"/>
<path id="Vector_14" d="M5.66848 160.286C7.6699 157.629 8.07019 154.624 6.85642 151.57C6.8306 151.521 6.76604 151.533 6.76604 151.57C6.4174 154.091 4.93248 156.586 2.95688 158.262C1.17497 159.764 4.119 162.334 5.66848 160.273L5.66848 160.286Z" fill="#01342A"/>
<path id="Vector_15" d="M12.1893 160.062C11.8277 158.56 11.3112 156.424 10.1362 155.307C10.0716 155.245 9.9167 155.27 9.90379 155.369C9.76175 156.077 9.86505 156.822 9.80049 157.542C9.72301 158.411 9.5035 159.242 9.20652 160.074C8.43177 162.284 12.7962 162.644 12.1764 160.074L12.1893 160.062Z" fill="#01342A"/>
<path id="Vector_16" d="M15.4949 112.476C13.9971 110.639 11.7633 109.199 9.38738 108.69C6.81781 108.144 6.81781 112.203 9.38738 111.632C11.5696 111.148 13.4677 111.471 15.3787 112.613C15.482 112.675 15.5595 112.551 15.4949 112.476Z" fill="#01342A"/>
<path id="Vector_17" d="M12.6671 107.3C10.8593 105.351 8.63842 103.985 6.06885 103.141C5.60401 102.992 5.10042 103.166 4.75179 103.476C4.67431 103.538 4.60975 103.6 4.53228 103.675C4.22238 103.948 4.14491 104.482 4.37733 104.817C5.20372 106.033 6.58535 105.624 7.91532 105.81C9.58102 106.046 11.1434 106.592 12.6025 107.374C12.6542 107.399 12.6929 107.337 12.6542 107.3L12.6671 107.3Z" fill="#01342A"/>
<path id="Vector_18" d="M7.08886 101.329C6.46907 100.745 6.03005 100.05 5.47482 99.4169C4.9325 98.7838 4.44183 98.1009 4.1061 97.3437C3.44757 95.8415 1.17499 96.934 2.05303 98.1754C2.65992 99.0321 3.3701 99.8142 4.22231 100.46C5.00997 101.056 6.03005 101.316 6.99848 101.49C7.08887 101.503 7.16634 101.403 7.08886 101.341L7.08886 101.329Z" fill="#01342A"/>
<path id="Vector_19" d="M18.4648 112.465C18.4132 112.688 18.6843 112.837 18.8522 112.688C20.0143 111.608 20.8665 110.54 21.5896 109.137C22.2611 107.809 22.9971 106.493 22.7646 105.003C22.5968 103.849 20.8278 103.812 20.2855 104.693C19.5882 105.835 19.6915 107.25 19.3945 108.529C19.0975 109.845 18.7747 111.161 18.4519 112.477L18.4648 112.465Z" fill="#01342A"/>
<path id="Vector_20" d="M16.8507 105.823C16.8507 105.947 17.0573 106.021 17.1089 105.885C17.7804 104.408 18.2711 102.893 18.5293 101.291C18.7617 99.7769 19.0587 98.3864 17.6513 97.4057C17.1477 97.0581 16.4117 97.3436 16.1147 97.7905C15.3399 98.9823 16.0372 100.038 16.3729 101.291C16.7603 102.781 16.8894 104.283 16.8507 105.81L16.8507 105.823Z" fill="#01342A"/>
<path id="Vector_21" d="M11.7244 96.5239C12.4217 97.9889 12.9253 99.5283 13.5451 101.018C13.558 101.055 13.6225 101.068 13.6354 101.018C13.9583 99.4414 13.9583 97.8771 13.7775 96.2881C13.6096 94.7735 13.5451 93.172 12.4604 91.9926C11.7115 91.1856 10.162 91.8188 10.2137 92.8864C10.2782 94.2645 11.1304 95.2949 11.7244 96.5239Z" fill="#01342A"/>
<path id="Vector_22" d="M7.34713 84.6926C5.87512 87.1134 6.45618 89.6957 7.95401 91.9179C7.99275 91.9676 8.07023 91.9179 8.0444 91.8682C7.14053 89.8695 8.16061 87.7838 9.64554 86.3934C11.1563 84.9905 8.44469 82.8925 7.34713 84.6926Z" fill="#01342A"/>
<path id="Vector_23" d="M13.0545 127.027C13.0674 127.101 13.0803 127.176 13.0932 127.25C13.3515 128.542 15.5466 128.542 15.7919 127.25C15.8048 127.176 15.8177 127.101 15.8306 127.027C15.9985 126.146 15.4304 125.264 14.4361 125.264C13.4419 125.264 12.8608 126.146 13.0416 127.027L13.0545 127.027Z" fill="#01342A"/>
<path id="Vector_24" d="M20.6341 73.4331C24.3529 74.1656 25.1018 68.6411 21.3185 68.5293C19.6011 68.4797 17.9225 68.5542 16.3859 69.3487C15.0559 70.0439 13.8551 70.9502 12.7963 71.993C12.5509 72.2289 12.7188 72.7131 13.0933 72.6882C14.3716 72.6013 15.6241 72.6262 16.8766 72.8993C18.1291 73.1724 19.3816 73.1848 20.6341 73.4331Z" fill="#01342A"/>
<path id="Vector_25" d="M15.8693 155.668C18.1289 156.425 20.8018 157.009 23.423 157.058C31.674 159.045 41.3712 161.49 46.3812 153.185C47.3884 151.521 47.8662 149.796 47.9307 148.095C48.7959 148.504 49.6868 149.249 50.4357 149.845C50.7586 150.094 51.0426 150.379 51.3396 150.652C51.6366 150.925 51.9207 151.211 52.1789 151.521C52.7987 152.229 53.5734 153.085 53.9996 153.917C52.2306 153.979 50.4357 154.439 48.7055 155.407C40.0671 160.224 42.6108 169.547 44.6768 177.48C44.7285 180 45.3224 182.57 46.123 184.743C48.3181 190.752 53.2506 195.059 60.0942 194.464C60.1588 194.464 60.1588 194.364 60.0942 194.364C53.057 194.588 48.6409 188.865 47.3626 182.756C46.859 180.323 46.4587 177.021 47.3368 174.588C48.3698 171.695 50.4228 170.168 53.4701 169.994C56.8661 169.858 58.1703 171.447 57.3955 174.761C56.582 173.93 54.813 174.786 55.2908 175.941C56.9048 179.839 62.0956 178.225 62.1602 174.252C62.2635 168.616 54.5548 165.674 49.8676 167.871C46.4329 169.485 45.0254 172.514 44.7414 175.829C43.7342 169.957 43.1919 163.29 47.6079 159.504C53.3798 154.538 61.7986 157.803 63.4385 164.718C63.9292 166.804 67.2735 165.922 66.7699 163.837C66.5504 162.93 66.2276 162.049 65.8144 161.23C68.5906 156.934 69.3782 151.931 67.6867 146.829C66.9249 144.507 65.3496 141.577 63.2707 139.193C60.7915 137.207 57.7442 135.693 55.3295 134.948C50.0096 133.321 44.8189 134.079 40.3512 136.748C39.4989 136.363 38.5822 136.053 37.6396 135.829C35.4703 135.345 34.5535 138.56 36.7228 139.032C43.915 140.609 47.3109 148.691 42.146 154.252C38.2077 158.486 31.2738 157.964 25.1662 157.009C28.6138 156.735 31.7644 155.382 33.443 152.08C35.7285 147.586 32.6683 140.174 26.8061 140.261C22.6741 140.323 20.9955 145.314 25.05 146.866C26.2508 147.325 27.1418 145.624 26.2767 144.842C29.7243 144.097 31.3771 145.351 31.235 148.616C31.0542 151.546 29.466 153.508 26.4574 154.513C23.9266 155.345 20.5048 154.973 17.9611 154.488C11.6082 153.259 5.64266 149.013 5.888 142.247C5.888 142.185 5.79761 142.185 5.7847 142.247C5.1649 148.827 9.63259 153.57 15.8951 155.68L15.8693 155.668ZM41.5778 137.381C46.3554 135.792 51.6495 135.854 56.2592 138.175C57.9508 139.032 59.5648 140.112 61.011 141.341C62.2893 142.719 63.4127 144.271 64.3036 145.91C66.7183 150.342 66.7957 155.432 65.13 160.025C64.7039 159.342 64.2133 158.722 63.6839 158.126C64.4457 155.233 64.8718 152.626 63.7355 149.56C62.8187 147.077 61.2434 144.83 59.5132 142.781C57.3697 141.105 55.0326 139.603 52.463 138.722C49.2736 137.629 46.562 138.039 43.5534 138.771C42.9466 138.262 42.288 137.791 41.5778 137.381ZM43.9408 139.107C46.4975 138.933 49.1703 138.995 51.5333 139.789C54.1158 140.646 56.2592 142.26 58.3381 143.899C60.0426 145.91 61.7212 147.971 62.6121 150.441C63.4256 152.713 63.5031 155.283 63.3223 157.741C62.5992 157.009 61.7857 156.363 60.9206 155.817C61.5275 152.378 59.242 148.231 56.9436 145.239C53.8317 143.017 49.519 140.82 45.9422 141.416C45.3741 140.584 44.7026 139.802 43.9408 139.107ZM46.1876 141.801C48.3181 141.999 50.8748 143.315 52.3468 144.085C53.5864 144.73 54.7227 145.488 55.8073 146.344C56.6983 147.375 57.4859 148.48 58.1574 149.671C58.945 151.087 60.3137 153.545 60.5332 155.593C59.6035 155.047 58.6093 154.625 57.5634 154.339C56.9565 152.018 56.1172 149.485 54.4902 147.623C52.5405 146.059 49.9192 145.239 47.5046 144.668C47.2076 143.675 46.7686 142.719 46.2005 141.813L46.1876 141.801ZM47.5434 144.805C48.9896 145.227 50.3583 145.997 51.5462 146.866C52.2693 147.4 52.8504 148.008 53.4314 148.629C54.077 149.187 54.7227 149.758 55.265 150.441C56.1688 151.583 56.9694 152.899 57.4084 154.29C56.3367 154.004 55.2262 153.88 54.1029 153.905C53.793 152.887 53.638 151.956 53.1086 151C52.8633 150.553 52.5792 150.131 52.2822 149.721C51.8561 149.436 51.4171 149.162 50.9522 148.927C49.958 148.418 48.9896 148.269 47.9307 147.971C47.9566 146.891 47.8274 145.823 47.5305 144.793L47.5434 144.805Z" fill="#01342A"/>
<path id="Vector_26" d="M40.532 134.823C39.344 131.856 38.3498 128.789 36.8778 125.946C35.7156 123.712 31.9323 125.847 33.4043 127.896C35.2895 130.503 37.6138 132.824 39.7443 135.257C40.0413 135.593 40.6869 135.233 40.532 134.823Z" fill="#01342A"/>
<path id="Vector_27" d="M43.1275 133.271C42.8434 131.918 42.7014 130.564 42.611 129.186C42.5206 127.92 42.7143 126.629 42.5464 125.388C42.2753 123.364 39.3183 123.252 39.1763 125.388C38.9826 128.243 40.6225 131.322 42.1849 133.656C42.5077 134.14 43.2437 133.829 43.1275 133.271Z" fill="#01342A"/>
<path id="Vector_28" d="M45.8519 124.357C44.9997 126.939 44.8318 130.428 46.0972 132.886C46.2263 133.134 46.6137 133.06 46.6912 132.811C47.0915 131.558 47.2335 130.266 47.5951 129C47.9695 127.684 48.5764 126.48 49.0929 125.214C49.8806 123.314 46.5104 122.346 45.8519 124.357Z" fill="#01342A"/>
<path id="Vector_29" d="M52.2822 124.693C51.1459 127.052 50.3195 129.994 51.1071 132.551C51.275 133.11 51.9852 133.023 52.1918 132.551C53.1344 130.391 53.8187 128.306 55.1745 126.307C56.3625 124.544 53.186 122.818 52.2822 124.681L52.2822 124.693Z" fill="#01342A"/>
<path id="Vector_30" d="M57.2536 134.24C58.9839 132.403 60.1847 130.106 61.8892 128.219C63.5549 126.381 60.585 124.134 59.1259 126.17C57.5248 128.405 56.1044 131.322 56.7113 134.103C56.763 134.327 57.0987 134.414 57.2536 134.24Z" fill="#01342A"/>
<path id="Vector_31" d="M63.8129 136.549C65.0913 134.587 66.7311 132.911 68.7326 131.62C71.328 129.957 67.9966 126.518 66.2921 128.591C64.4715 130.801 63.1286 133.234 62.4055 135.99C62.186 136.81 63.3352 137.269 63.8 136.561L63.8129 136.549Z" fill="#01342A"/>
<path id="Vector_32" d="M35.9609 143.849C36.4258 145.773 38.0915 146.965 38.2077 149.088C38.3497 151.881 36.5291 154.5 34.2565 156.077C34.2049 156.114 34.2565 156.189 34.3081 156.164C37.2393 154.662 39.8217 152.663 40.6094 149.398C41.2163 146.865 40.7773 142.93 37.7428 142.135C36.6453 141.85 35.7156 142.831 35.9609 143.849Z" fill="#01342A"/>
<path id="Vector_33" d="M13.5452 157.008C14.2037 157.853 14.7202 158.598 15.6757 159.181C16.7087 159.814 17.8579 160.174 19.0588 160.286C21.2022 160.46 21.0344 156.835 18.6456 157.319C17.0315 157.642 15.1205 157.741 13.6226 156.946C13.5839 156.922 13.5193 156.971 13.5581 157.008L13.5452 157.008Z" fill="#01342A"/>
<path id="Vector_34" d="M18.6197 169.236C22.2997 167.995 26.7674 166.94 30.5636 168.082C30.6282 168.107 30.6411 168.007 30.5895 167.995C25.0371 165.76 16.3342 166.158 11.5824 170.019C11.1692 170.354 11.053 170.987 11.1821 171.459C11.2338 171.633 11.2854 171.819 11.3242 171.993C11.4146 172.303 11.7245 172.502 12.0473 172.526C12.8091 172.564 13.119 172.452 13.7646 172.117C15.5336 171.173 16.5408 169.944 18.6197 169.249L18.6197 169.236Z" fill="#01342A"/>
<path id="Vector_35" d="M78.1199 187.995C78.8301 189.088 79.3466 190.304 79.9793 191.447C80.612 192.576 81.3351 193.706 81.8516 194.886C82.381 196.077 84.2275 196.102 85.0797 195.283C85.9965 194.401 85.8157 192.8 84.6665 192.179C83.5948 191.596 82.6134 190.851 81.6192 190.18C80.4958 189.423 79.2562 188.765 78.1974 187.946C78.1587 187.908 78.0812 187.946 78.1199 188.008L78.1199 187.995Z" fill="#01342A"/>
<path id="Vector_36" d="M78.7785 195.903C77.9134 193.532 77.1645 190.95 76.5963 188.504C76.5963 188.454 76.5059 188.454 76.5059 188.504C76.0927 190.937 75.5117 193.532 74.8144 195.903C73.8202 199.243 79.889 198.932 78.7785 195.903Z" fill="#01342A"/>
<path id="Vector_37" d="M68.6036 195.705C69.8045 196.598 71.354 195.965 71.8317 194.674C72.2578 193.532 72.8905 192.44 73.4199 191.335C73.9623 190.217 74.3884 189.038 74.9952 187.958C75.0211 187.908 74.9565 187.859 74.9178 187.896C73.9623 188.715 72.8518 189.398 71.8575 190.155C70.8633 190.913 69.8819 191.757 68.8102 192.427C67.6094 193.184 67.4286 194.811 68.6036 195.692L68.6036 195.705Z" fill="#01342A"/>
<path id="Vector_38" d="M67.0927 189.82C69.3137 188.628 71.7799 187.486 74.13 186.555C74.1816 186.53 74.1816 186.455 74.1171 186.455C71.4829 186.493 68.668 186.381 66.0468 186.133C62.8445 185.822 63.8646 191.558 67.0798 189.82L67.0927 189.82Z" fill="#01342A"/>
<path id="Vector_39" d="M66.6279 183.041C67.945 183.265 69.2362 183.662 70.5146 183.997C71.8058 184.332 73.1358 184.543 74.4141 184.941C74.4658 184.953 74.5045 184.891 74.4658 184.866C73.4328 184.084 72.5418 183.141 71.5605 182.296C70.5791 181.465 69.5461 180.658 68.6423 179.739C66.1631 177.219 63.3869 182.483 66.6409 183.041L66.6279 183.041Z" fill="#01342A"/>
<path id="Vector_40" d="M75.7958 183.836C75.318 181.477 74.9306 178.882 74.7628 176.486C74.5174 172.911 68.7843 175.009 71.2506 177.889C72.8259 179.727 74.3883 181.862 75.7054 183.873C75.7312 183.923 75.8087 183.885 75.7958 183.836Z" fill="#01342A"/>
<path id="Vector_41" d="M77.978 176.35C77.9651 178.783 77.7456 181.44 77.397 183.848C77.397 183.898 77.4615 183.935 77.4874 183.886C78.7528 181.688 80.2635 179.367 81.813 177.343C83.724 174.823 78.0039 172.812 77.978 176.35Z" fill="#01342A"/>
<path id="Vector_42" d="M86.2935 182.682C89.767 181.887 86.4485 176.921 84.2921 179.379C83.4399 180.36 82.4327 181.229 81.4901 182.135C80.5475 183.042 79.6953 184.047 78.701 184.904C78.6623 184.929 78.701 185.003 78.7527 184.978C79.9794 184.519 81.2706 184.234 82.5231 183.836C83.7756 183.439 85.0152 182.98 86.2935 182.682Z" fill="#01342A"/>
<path id="Vector_43" d="M86.6292 185.797C84.1759 186.182 81.503 186.405 79.0238 186.505C78.9722 186.505 78.9593 186.579 79.0109 186.604C81.3739 187.399 83.8918 188.367 86.1385 189.41C89.5087 190.974 90.4513 185.201 86.6292 185.797Z" fill="#01342A"/>
<path id="Vector_44" d="M153.722 197.356C156.433 193.693 154.871 188.628 151.553 185.86C143.728 179.354 137.013 186.009 130.841 191.868C131.861 188.765 131.254 185.152 128.491 182.384C127.768 181.651 126.658 181.415 125.65 181.664C125.34 181.738 125.031 181.813 124.721 181.887C123.713 182.135 122.977 183.29 123.313 184.258C124.566 187.834 129.214 191.148 123.933 194.426C119.31 197.294 111.485 193.991 107.392 191.744C102.253 188.926 96.8299 181.875 90.2575 183.737C90.2058 183.749 90.2188 183.824 90.2704 183.836C97.1914 184.221 102.008 191.26 107.65 194.5C112.041 197.02 117.309 198.833 122.487 198.324C125.34 198.051 127.613 196.723 129.15 194.898C132.92 192.34 136.29 189.187 140.732 187.834C143.302 187.052 145.832 187.176 147.937 188.889C148.918 189.522 149.59 190.416 149.951 191.57C149.086 194.376 148.028 195.183 146.775 193.979C145.523 194.115 144.593 193.023 143.495 194.389C142.63 195.456 142.32 197.045 143.495 198.076C146.568 200.745 151.204 200.757 153.735 197.356L153.722 197.356Z" fill="#01342A"/>
<path id="Vector_45" d="M19.8723 192.911C23.9655 197.939 31.1964 198.982 35.9095 193.905C42.6626 186.63 39.6412 174.252 36.3485 165.065C26.7933 161.9 13.9197 158.995 6.35302 165.488C1.07185 170.019 2.14357 176.959 7.386 180.907C6.83077 181.639 6.31428 182.396 5.84943 183.178C3.46064 187.238 0.284188 193.781 1.45922 198.597C6.45631 199.727 13.2741 196.686 17.4964 194.389C18.3099 193.942 19.0975 193.445 19.8723 192.911ZM10.7303 176.301C7.23106 173.967 8.25114 170.006 11.3114 167.846C17.7676 163.29 27.4906 164.172 35.6383 165.723C37.2653 173.557 38.1691 182.905 33.4303 189.113C31.1835 192.055 27.0645 193.048 24.637 189.671C24.4949 189.473 24.34 189.299 24.1721 189.15C25.2697 187.946 26.251 186.654 27.0774 185.276C29.6599 181.006 30.964 175.779 30.3184 170.826C25.1664 170.205 19.7173 171.459 15.2884 173.942C13.8551 174.736 12.5122 175.68 11.2597 176.735C11.1048 176.574 10.924 176.425 10.7174 176.288L10.7303 176.301ZM6.93407 192.638C7.51513 190.093 8.3157 187.586 9.50364 185.239C11.2726 181.738 13.6098 178.548 16.825 176.152C20.4146 173.483 25.0243 171.769 29.6341 171.496C29.35 175.941 27.581 180.36 24.7919 183.812C22.2998 186.903 18.9813 189.15 15.34 190.851C12.8996 191.993 10.2913 192.763 7.64425 193.321C7.34727 193.383 7.05028 193.433 6.7533 193.483C6.80495 193.197 6.85659 192.911 6.92116 192.626L6.93407 192.638Z" fill="#01342A"/>
<path id="Vector_46" d="M61.6566 191.061C59.7714 189.522 59.1516 187.225 59.384 184.916C59.5906 182.805 55.8202 182.756 55.9235 184.916C56.0655 188.069 58.2993 190.589 61.5145 191.285C61.6437 191.309 61.7599 191.148 61.6566 191.061Z" fill="#01342A"/>
<path id="Vector_47" d="M51.1588 186.083C52.1789 188.392 53.8446 189.721 56.1301 190.838C56.1817 190.863 56.2334 190.801 56.1947 190.764C53.9737 189.05 52.3338 184.842 53.7155 182.16C54.4902 181.477 54.6323 180.224 53.4701 179.541C53.4185 179.503 53.3539 179.479 53.3023 179.441C52.7987 179.143 51.9981 179.094 51.5075 179.441C49.506 180.832 50.3453 184.209 51.1717 186.083L51.1588 186.083Z" fill="#01342A"/>
<path id="Vector_48" d="M54.529 197.219C55.2263 196.635 56.0139 196.238 56.9049 196.002C57.1631 195.928 57.176 195.543 56.9049 195.481C54.826 195.046 51.7786 195.481 50.5907 197.393C49.7127 198.796 51.6753 200.111 52.8633 199.081C53.496 198.535 53.8575 197.778 54.5161 197.219L54.529 197.219Z" fill="#01342A"/>
<path id="Vector_49" d="M50.3713 193.42C47.1949 192.241 44.0572 192.626 41.3068 194.562C39.1763 196.052 41.8362 198.883 43.3986 197.169C45.1418 195.27 47.7372 193.842 50.3584 193.507C50.4101 193.507 50.423 193.433 50.3584 193.42L50.3713 193.42Z" fill="#01342A"/>
<path id="Vector_50" d="M46.4201 190.478C46.5234 190.453 46.5492 190.317 46.4847 190.255C45.3226 189.125 43.0887 188.628 41.5392 188.281C38.8664 187.685 39.2408 191.893 41.5392 191.136C42.4044 190.85 43.2566 190.639 44.1734 190.565C44.9223 190.503 45.697 190.602 46.433 190.466L46.4201 190.478Z" fill="#01342A"/>
<path id="Vector_51" d="M91.0323 185.102C90.9549 185.04 90.8257 185.115 90.8903 185.214C92.0783 187.051 92.4011 188.876 91.9104 190.974C91.3293 193.445 95.5388 193.445 94.9706 190.974C94.4412 188.69 92.9434 186.542 91.0323 185.102Z" fill="#01342A"/>
<path id="Vector_52" d="M96.4168 187.821C96.4168 187.821 96.3135 187.821 96.3394 187.871C97.1399 189.286 97.721 190.789 97.9663 192.378C98.16 193.656 97.7339 194.985 98.9993 195.779C99.3479 196.003 99.9032 195.928 100.187 195.63C100.252 195.556 100.316 195.494 100.394 195.419C100.704 195.096 100.897 194.6 100.742 194.153C99.8644 191.682 98.4441 189.547 96.4168 187.809L96.4168 187.821Z" fill="#01342A"/>
<path id="Vector_53" d="M106.773 196.052C105.985 195.73 105.275 195.27 104.616 194.737C103.958 194.203 103.235 193.781 102.628 193.185C102.563 193.123 102.46 193.185 102.473 193.272C102.654 194.203 102.925 195.183 103.545 195.941C104.216 196.76 105.017 197.431 105.92 198.026C107.212 198.871 108.348 196.686 106.786 196.052L106.773 196.052Z" fill="#01342A"/>
<path id="Vector_54" d="M99.1414 180.485C100.058 179.963 100.019 178.275 98.8186 178.101C97.2691 177.89 95.8875 178.585 94.5188 179.231C93.0597 179.926 91.9492 180.733 90.8258 181.863C90.6579 182.024 90.8258 182.285 91.0582 182.235C92.4269 181.925 93.7957 181.627 95.1644 181.329C96.4944 181.043 97.9664 181.143 99.1543 180.472L99.1414 180.485Z" fill="#01342A"/>
<path id="Vector_55" d="M97.9533 183.798C99.5415 183.761 101.104 183.885 102.653 184.258C103.958 184.568 105.055 185.251 106.295 184.506C106.772 184.221 107.057 183.513 106.695 183.029C105.688 181.688 104.229 181.961 102.653 182.185C100.988 182.42 99.4124 182.905 97.8758 183.55C97.7467 183.6 97.8112 183.798 97.9404 183.798L97.9533 183.798Z" fill="#01342A"/>
<path id="Vector_56" d="M102.951 186.977C104.5 187.573 106.101 188.058 107.625 188.728C108.903 189.287 109.975 190.106 111.408 190.18C112.519 190.23 113.19 188.74 112.338 188.02C111.111 186.977 109.445 186.915 107.87 186.754C106.204 186.593 104.59 186.58 102.951 186.891C102.899 186.891 102.912 186.965 102.951 186.977Z" fill="#01342A"/>
<path id="Vector_57" d="M112.415 192.353C114.727 193.793 117.412 194.351 119.93 192.936C121.79 191.881 119.62 189.274 118.161 190.726C116.715 192.166 114.546 193.135 112.467 192.266C112.415 192.241 112.364 192.315 112.415 192.353Z" fill="#01342A"/>
<path id="Vector_58" d="M75.899 184.767C75.8215 184.78 75.7441 184.792 75.6666 184.804C74.3237 185.053 74.3237 187.163 75.6666 187.399C75.7441 187.411 75.8215 187.424 75.899 187.436C76.8158 187.598 77.7326 187.039 77.7326 186.095C77.7326 185.152 76.8158 184.581 75.899 184.755L75.899 184.767Z" fill="#01342A"/>
<path id="Vector_59" d="M132.417 187.411C132.391 187.771 132.894 187.933 133.14 187.697C134.211 186.679 135.167 185.524 135.89 184.245C136.716 182.768 136.794 181.167 136.742 179.503C136.626 175.866 130.88 176.598 131.642 180.161C131.9 181.365 131.913 182.569 132.197 183.774C132.481 184.978 132.52 186.182 132.417 187.399L132.417 187.411Z" fill="#01342A"/>
<path id="Vector_60" d="M77.0096 164.531C74.0526 163.116 70.8633 162.16 67.7772 161.018C67.3511 160.856 66.9766 161.49 67.3253 161.775C69.8561 163.824 72.2578 166.058 74.9823 167.871C77.1129 169.298 79.3338 165.649 77.0096 164.531Z" fill="#01342A"/>
<path id="Vector_61" d="M69.0039 159.441C71.4314 160.943 74.6337 162.52 77.6035 162.334C79.8245 162.197 79.7083 159.366 77.6035 159.093C76.3123 158.932 74.9565 159.118 73.6524 159.031C72.2191 158.944 70.8116 158.808 69.4042 158.535C68.836 158.423 68.5132 159.131 69.0039 159.441Z" fill="#01342A"/>
<path id="Vector_62" d="M77.7842 152.8C76.4671 153.309 75.2146 153.892 73.8459 154.24C72.5288 154.587 71.186 154.724 69.8818 155.109C69.6236 155.183 69.5332 155.556 69.8043 155.68C72.3739 156.896 75.9894 156.735 78.6881 155.916C80.7799 155.27 79.7727 152.03 77.7971 152.8L77.7842 152.8Z" fill="#01342A"/>
<path id="Vector_63" d="M76.6351 146.952C74.5562 148.255 72.3998 148.901 70.1402 149.82C69.6495 150.018 69.5591 150.701 70.1402 150.862C72.813 151.62 75.8733 150.825 78.3137 149.733C80.2506 148.876 78.4557 145.81 76.6222 146.952L76.6351 146.952Z" fill="#01342A"/>
<path id="Vector_64" d="M74.6594 140.496C72.6967 142.135 70.3208 143.29 68.3969 144.953C68.2161 145.102 68.3065 145.425 68.5389 145.475C71.4313 146.058 74.4657 144.693 76.7899 143.153C78.9076 141.75 76.5575 138.895 74.6594 140.496Z" fill="#01342A"/>
<path id="Vector_65" d="M66.5891 139.988C69.4428 139.293 71.9736 138.002 74.2849 136.251C76.4284 134.612 72.8517 131.422 71.1343 133.905C69.7914 135.829 68.0482 137.406 66.0081 138.635C65.2721 139.082 65.7498 140.186 66.6021 139.975L66.5891 139.988Z" fill="#01342A"/>
<path id="Vector_66" d="M60.1845 163.712C59.3581 160.807 55.252 160.373 52.6308 160.956C49.2348 161.714 47.1559 164.197 45.5935 167.015C45.5677 167.064 45.6452 167.114 45.6839 167.064C47.3238 164.879 50.0612 163.129 52.9536 163.266C55.1616 163.365 56.4141 164.979 58.4026 165.426C59.4614 165.662 60.4815 164.768 60.1845 163.712Z" fill="#01342A"/>
<path id="Vector_67" d="M44.4058 182.073C44.9093 179.776 41.126 179.615 41.3197 181.676C41.423 182.843 41.8104 183.948 42.4689 184.928C43.0758 185.847 43.8505 186.344 44.7286 186.977C44.7673 187.002 44.819 186.952 44.7931 186.915C43.9667 185.475 44.07 183.625 44.4058 182.085L44.4058 182.073Z" fill="#01342A"/>
<path id="Vector_68" d="M31.9968 182.098C31.2737 184.097 29.9825 185.065 29.014 186.766C28.6654 187.374 28.5492 187.684 28.5879 188.417C28.6008 188.727 28.8074 189.025 29.1432 189.112C29.3239 189.162 29.5176 189.211 29.6984 189.249C30.202 189.373 30.8476 189.261 31.1962 188.864C35.1991 184.308 35.6123 175.94 33.301 170.59C33.2751 170.54 33.1847 170.552 33.2106 170.614C34.3985 174.264 33.301 178.547 32.0097 182.098L31.9968 182.098Z" fill="#01342A"/>
<path id="Vector_69" d="M200 189.708L160.591 189.708C159.881 189.708 159.313 190.254 159.313 190.937C159.313 191.62 159.881 192.166 160.591 192.166L200 192.166L200 189.696L200 189.708Z" fill="#01342A"/>
<path id="Vector_70" d="M6.77903 0.000141145L6.77903 45.1274C6.77903 45.8102 7.34717 46.3564 8.05735 46.3564C8.76753 46.3564 9.33568 45.8102 9.33568 45.1274L9.33569 0.000141481L6.76612 0.000141144L6.77903 0.000141145Z" fill="#01342A"/>
</g>
<defs>
<clipPath id="clip0_436_6755">
<rect width="200" height="200" fill="white" transform="translate(0 200) rotate(-90)"/>
</clipPath>
</defs>
</svg>
