<svg width="200" height="200" viewBox="0 0 200 200" fill="none" xmlns="http://www.w3.org/2000/svg">
<g id="Layer_5" clip-path="url(#clip0_436_6408)">
<path id="Vector" d="M187.449 75.1833C188.314 76.2137 188.986 77.3931 189.773 78.4732C190.471 79.4415 191.258 80.385 191.852 81.403C192.511 82.5203 194.164 82.6941 195.08 81.8003C195.933 80.9809 195.907 79.2056 194.667 78.6966C193.44 78.2 192.265 77.5048 191.09 76.8965C189.915 76.2882 188.637 75.7916 187.501 75.1088C187.449 75.0715 187.41 75.146 187.436 75.1833L187.449 75.1833Z" fill="#01342A"/>
<path id="Vector_2" d="M188.043 73.557C188.043 73.557 187.991 73.6439 188.043 73.6439C190.587 74.1902 193.273 74.9102 195.739 75.742C198.889 76.7973 199.212 70.9748 195.739 71.9307C193.273 72.6135 190.574 73.1598 188.043 73.557Z" fill="#01342A"/>
<path id="Vector_3" d="M192.136 66.1579C191.439 67.1883 190.561 68.1194 189.773 69.0877C188.973 70.0561 188.276 71.1113 187.423 72.03C187.385 72.0673 187.423 72.1293 187.488 72.1045C188.611 71.521 189.838 71.1113 191 70.5899C192.149 70.0809 193.286 69.4726 194.474 69.0629C195.816 68.6036 196.462 67.1138 195.545 65.9593C194.641 64.8295 192.937 65.0033 192.149 66.1579L192.136 66.1579Z" fill="#01342A"/>
<path id="Vector_4" d="M185.577 63.5011C185.848 66.0213 185.951 68.7277 185.913 71.2603C185.913 71.3224 185.99 71.3224 186.016 71.2727C186.984 69.0132 188.172 66.642 189.412 64.5067C191.22 61.4031 185.254 60.4347 185.577 63.5135L185.577 63.5011Z" fill="#01342A"/>
<path id="Vector_5" d="M183.356 67.7965C183.007 66.555 182.594 65.3136 182.362 64.0597C181.781 60.9312 176.306 63.6003 178.927 65.9839C179.882 66.853 180.709 67.8461 181.587 68.7897C182.465 69.7332 183.433 70.6022 184.26 71.583C184.286 71.6202 184.363 71.5829 184.337 71.5333C183.924 70.3167 183.705 69.0255 183.356 67.7841L183.356 67.7965Z" fill="#01342A"/>
<path id="Vector_6" d="M175.557 71.881C178.049 72.0424 180.748 72.4149 183.201 72.8742C183.253 72.8742 183.291 72.8121 183.24 72.7873C181.148 71.521 178.927 70.0188 177.016 68.5042C174.033 66.133 171.838 71.6452 175.557 71.881Z" fill="#01342A"/>
<path id="Vector_7" d="M176.448 78.6593C178.552 77.182 180.967 75.717 183.253 74.5004C183.304 74.4756 183.266 74.4011 183.214 74.4135C180.696 74.7487 177.946 74.9473 175.415 74.9722C171.735 74.997 173.827 80.4967 176.448 78.6593Z" fill="#01342A"/>
<path id="Vector_8" d="M181.987 82.9673C182.297 81.7382 182.775 80.5464 183.188 79.3422C183.601 78.138 183.898 76.8841 184.376 75.7171C184.389 75.6675 184.324 75.6302 184.299 75.6675C183.408 76.6234 182.362 77.4428 181.419 78.349C180.476 79.2553 179.573 80.2112 178.553 81.043C175.996 83.1163 181.161 86.3068 181.987 82.9673Z" fill="#01342A"/>
<path id="Vector_9" d="M188.986 82.8181C187.901 80.6579 186.894 78.2371 186.068 75.9652C186.055 75.9155 185.977 75.928 185.964 75.9776C185.848 78.3612 185.616 80.9311 185.228 83.2898C184.608 86.9646 190.626 86.0583 188.986 82.8181Z" fill="#01342A"/>
<path id="Vector_10" d="M197.999 137.952C196.927 136.822 195.274 137.12 194.164 137.952C192.743 139.019 193.892 139.901 193.737 141.105C194.99 142.309 194.164 143.327 191.232 144.159C190.032 143.811 189.102 143.166 188.443 142.222C186.662 140.199 186.532 137.765 187.346 135.295C188.753 131.024 192.033 127.784 194.693 124.159C196.591 122.694 197.96 120.509 198.257 117.753C198.786 112.775 196.901 107.709 194.28 103.489C190.91 98.0633 183.588 93.4327 183.188 86.7784C183.188 86.7287 183.111 86.7163 183.085 86.766C181.148 93.085 188.469 98.2992 191.413 103.24C193.75 107.176 197.185 114.699 194.202 119.143C190.793 124.209 187.346 119.739 183.627 118.547C182.62 118.225 181.406 118.932 181.161 119.901C181.083 120.199 181.006 120.497 180.928 120.795C180.67 121.763 180.928 122.831 181.677 123.526C184.557 126.182 188.327 126.766 191.542 125.785C185.448 131.719 178.527 138.175 185.293 145.698C188.159 148.889 193.441 150.391 197.25 147.784C200.788 145.363 200.775 140.894 197.999 137.939L197.999 137.952Z" fill="#01342A"/>
<path id="Vector_11" d="M184.311 53.7803C182.065 53.681 182.116 57.3061 184.311 57.1075C186.713 56.884 189.102 57.4799 190.703 59.2924C190.793 59.4042 190.961 59.2924 190.935 59.1559C190.212 56.0522 187.591 53.9169 184.311 53.7803Z" fill="#01342A"/>
<path id="Vector_12" d="M190.393 54.0163C190.393 54.0163 190.497 54.0163 190.471 53.9543C189.309 51.7569 187.927 50.1554 185.525 49.1746C183.575 48.3801 180.063 47.5731 178.617 49.4974C178.256 49.9691 178.307 50.7389 178.617 51.223C178.656 51.2727 178.682 51.3348 178.72 51.3844C179.431 52.5017 180.735 52.3652 181.445 51.6203C184.234 50.2919 188.611 51.8686 190.393 54.0039L190.393 54.0163Z" fill="#01342A"/>
<path id="Vector_13" d="M195.3 54.7112C195.364 54.9719 195.765 54.9594 195.842 54.7112C196.087 53.8545 196.501 53.0973 197.108 52.4269C197.689 51.7937 198.476 51.4461 199.044 50.8378C200.116 49.6956 198.747 47.8086 197.288 48.6528C195.3 49.795 194.848 52.7248 195.3 54.7236L195.3 54.7112Z" fill="#01342A"/>
<path id="Vector_14" d="M194.332 39.7144C192.33 42.3712 191.93 45.3755 193.144 48.4295C193.169 48.4792 193.234 48.4668 193.234 48.4295C193.583 45.9094 195.068 43.414 197.043 41.738C198.825 40.2359 195.881 37.666 194.332 39.7269L194.332 39.7144Z" fill="#01342A"/>
<path id="Vector_15" d="M187.811 39.9377C188.172 41.4399 188.689 43.5752 189.864 44.6925C189.928 44.7546 190.083 44.7297 190.096 44.6304C190.238 43.9228 190.135 43.1779 190.2 42.4579C190.277 41.5888 190.496 40.7571 190.793 39.9253C191.568 37.7155 187.204 37.3554 187.824 39.9253L187.811 39.9377Z" fill="#01342A"/>
<path id="Vector_16" d="M184.505 87.5235C186.003 89.3609 188.237 90.801 190.613 91.31C193.182 91.8562 193.182 87.7966 190.613 88.3677C188.431 88.8519 186.532 88.5291 184.621 87.3869C184.518 87.3249 184.441 87.449 184.505 87.5235Z" fill="#01342A"/>
<path id="Vector_17" d="M187.333 92.7003C189.141 94.6494 191.362 96.015 193.931 96.8592C194.396 97.0082 194.9 96.8344 195.248 96.524C195.326 96.4619 195.39 96.3999 195.468 96.3254C195.778 96.0523 195.855 95.5184 195.623 95.1832C194.796 93.9666 193.415 94.3763 192.085 94.1901C190.419 93.9542 188.857 93.4079 187.397 92.6258C187.346 92.601 187.307 92.6631 187.346 92.7003L187.333 92.7003Z" fill="#01342A"/>
<path id="Vector_18" d="M192.911 98.6717C193.531 99.2552 193.97 99.9504 194.525 100.584C195.068 101.217 195.558 101.9 195.894 102.657C196.552 104.159 198.825 103.067 197.947 101.825C197.34 100.968 196.63 100.186 195.778 99.5408C194.99 98.9449 193.97 98.6841 193.002 98.5103C192.911 98.4979 192.834 98.5972 192.911 98.6593L192.911 98.6717Z" fill="#01342A"/>
<path id="Vector_19" d="M181.535 87.5359C181.587 87.3124 181.316 87.1634 181.148 87.3124C179.986 88.3925 179.134 89.4601 178.411 90.863C177.739 92.1914 177.003 93.5073 177.235 94.9971C177.403 96.1516 179.172 96.1889 179.715 95.3074C180.412 94.1653 180.309 92.75 180.606 91.4713C180.903 90.1554 181.225 88.8394 181.548 87.5235L181.535 87.5359Z" fill="#01342A"/>
<path id="Vector_20" d="M183.149 94.1777C183.149 94.0535 182.943 93.979 182.891 94.1156C182.22 95.5929 181.729 97.1075 181.471 98.709C181.238 100.224 180.941 101.614 182.349 102.595C182.852 102.942 183.588 102.657 183.885 102.21C184.66 101.018 183.963 99.9629 183.627 98.709C183.24 97.2193 183.111 95.7171 183.149 94.1901L183.149 94.1777Z" fill="#01342A"/>
<path id="Vector_21" d="M188.276 103.476C187.578 102.011 187.075 100.472 186.455 98.982C186.442 98.9447 186.377 98.9323 186.365 98.982C186.042 100.559 186.042 102.123 186.223 103.712C186.39 105.227 186.455 106.828 187.54 108.007C188.289 108.814 189.838 108.181 189.786 107.114C189.722 105.736 188.87 104.705 188.276 103.476Z" fill="#01342A"/>
<path id="Vector_22" d="M192.653 115.307C194.125 112.887 193.544 110.304 192.046 108.082C192.007 108.032 191.93 108.082 191.956 108.132C192.859 110.131 191.839 112.216 190.354 113.607C188.844 115.009 191.555 117.108 192.653 115.307Z" fill="#01342A"/>
<path id="Vector_23" d="M186.946 72.9731C186.933 72.8986 186.92 72.8241 186.907 72.7496C186.649 71.4585 184.453 71.4585 184.208 72.7496C184.195 72.8241 184.182 72.8986 184.169 72.9731C184.001 73.8545 184.57 74.7359 185.564 74.7359C186.558 74.7359 187.139 73.8545 186.958 72.9731L186.946 72.9731Z" fill="#01342A"/>
<path id="Vector_24" d="M179.366 126.567C175.647 125.835 174.898 131.359 178.682 131.471C180.399 131.521 182.078 131.446 183.614 130.652C184.944 129.957 186.145 129.05 187.204 128.007C187.449 127.772 187.281 127.287 186.907 127.312C185.629 127.399 184.376 127.374 183.124 127.101C181.871 126.828 180.619 126.816 179.366 126.567Z" fill="#01342A"/>
<path id="Vector_25" d="M184.131 44.3328C181.871 43.5755 179.198 42.992 176.577 42.9423C168.326 40.956 158.629 38.5103 153.619 46.8157C152.612 48.4793 152.134 50.2049 152.069 51.9057C151.204 51.496 150.313 50.7511 149.564 50.1552C149.241 49.9069 148.957 49.6214 148.66 49.3483C148.363 49.0752 148.079 48.7896 147.821 48.4792C147.201 47.7716 146.427 46.915 146 46.0832C147.769 46.0212 149.564 45.5618 151.295 44.5935C159.933 39.7766 157.389 30.4532 155.323 22.5202C155.272 20 154.678 17.4302 153.877 15.2577C151.682 9.24896 146.749 4.94108 139.906 5.53698C139.841 5.53698 139.841 5.6363 139.906 5.6363C146.943 5.41284 151.359 11.136 152.637 17.244C153.141 19.6773 153.541 22.9796 152.663 25.4128C151.63 28.3054 149.577 29.8324 146.53 30.0063C143.134 30.1428 141.83 28.5537 142.604 25.239C143.418 26.0708 145.187 25.2142 144.709 24.0596C143.095 20.1614 137.904 21.7753 137.84 25.748C137.737 31.3843 145.445 34.3266 150.132 32.1292C153.567 30.5153 154.975 27.4861 155.259 24.1714C156.266 30.0435 156.808 36.7102 152.392 40.4966C146.62 45.4625 138.201 42.1974 136.561 35.2825C136.071 33.1968 132.727 34.0783 133.23 36.1639C133.45 37.0702 133.772 37.9516 134.186 38.771C131.409 43.0665 130.622 48.0696 132.313 53.172C133.075 55.4935 134.65 58.4234 136.729 60.807C139.209 62.7933 142.256 64.3079 144.67 65.0528C149.99 66.6791 155.181 65.9218 159.649 63.2527C160.501 63.6375 161.418 63.9479 162.36 64.1714C164.53 64.6555 165.447 61.4401 163.277 60.9684C156.085 59.3917 152.689 51.3098 157.854 45.748C161.792 41.5146 168.726 42.0361 174.834 42.992C171.386 43.2651 168.236 44.6183 166.557 47.9206C164.271 52.4147 167.332 59.8262 173.194 59.7393C177.326 59.6773 179.005 54.6866 174.95 53.1347C173.749 52.6754 172.858 54.3762 173.723 55.1583C170.276 55.9032 168.623 54.6493 168.765 51.3843C168.946 48.4544 170.534 46.4929 173.543 45.4873C176.073 44.6555 179.495 45.028 182.039 45.5122C188.392 46.7412 194.357 50.987 194.112 57.753C194.112 57.8151 194.202 57.8151 194.215 57.753C194.835 51.1732 190.367 46.4308 184.105 44.3203L184.131 44.3328ZM158.422 62.6195C153.645 64.2086 148.35 64.1465 143.741 61.825C142.049 60.9684 140.435 59.8883 138.989 58.6593C137.711 57.2812 136.587 55.7294 135.696 54.0907C133.282 49.6586 133.204 44.5686 134.87 39.9752C135.296 40.658 135.787 41.2788 136.316 41.8747C135.554 44.7673 135.128 47.3743 136.265 50.4408C137.181 52.9237 138.757 55.1707 140.487 57.2192C142.63 58.8951 144.967 60.3973 147.537 61.2788C150.726 62.3712 153.438 61.9616 156.447 61.2291C157.053 61.7381 157.712 62.2099 158.422 62.6195ZM156.059 60.8939C153.503 61.0677 150.83 61.0056 148.467 60.2111C145.884 59.3545 143.741 57.7406 141.662 56.1018C139.957 54.0907 138.279 52.0298 137.388 49.5593C136.574 47.2874 136.497 44.7176 136.678 42.2595C137.401 42.992 138.214 43.6375 139.079 44.1838C138.473 47.6226 140.758 51.7691 143.056 54.7611C146.168 56.9833 150.481 59.1807 154.058 58.5848C154.626 59.4166 155.297 60.1987 156.059 60.8939ZM153.812 58.1999C151.682 58.0013 149.125 56.6853 147.653 55.9156C146.414 55.2701 145.277 54.5128 144.193 53.6562C143.302 52.6257 142.514 51.5208 141.843 50.329C141.055 48.9138 139.686 46.4557 139.467 44.4072C140.396 44.9535 141.391 45.3756 142.437 45.6611C143.044 47.9827 143.883 50.5153 145.51 52.3775C147.46 53.9417 150.081 54.7611 152.495 55.3321C152.792 56.3253 153.231 57.2812 153.8 58.1875L153.812 58.1999ZM152.457 55.1956C151.01 54.7735 149.642 54.0038 148.454 53.1347C147.731 52.6009 147.15 51.9926 146.569 51.3719C145.923 50.8132 145.277 50.2421 144.735 49.5593C143.831 48.4172 143.031 47.1012 142.592 45.7108C143.663 45.9963 144.774 46.1205 145.897 46.0956C146.207 47.1136 146.362 48.0447 146.891 49.0007C147.137 49.4476 147.421 49.8697 147.718 50.2794C148.144 50.5649 148.583 50.838 149.048 51.0739C150.042 51.5829 151.01 51.7319 152.069 52.0298C152.043 53.1099 152.173 54.1776 152.47 55.208L152.457 55.1956Z" fill="#01342A"/>
<path id="Vector_26" d="M159.468 65.1771C160.656 68.1442 161.65 71.2106 163.122 74.0536C164.284 76.2882 168.068 74.1529 166.596 72.1045C164.71 69.4974 162.386 67.1759 160.256 64.7426C159.959 64.4074 159.313 64.7674 159.468 65.1771Z" fill="#01342A"/>
<path id="Vector_27" d="M156.873 66.7287C157.157 68.0819 157.299 69.4351 157.389 70.8131C157.48 72.0794 157.286 73.3705 157.454 74.612C157.725 76.6356 160.682 76.7473 160.824 74.612C161.018 71.7566 159.378 68.6778 157.815 66.3438C157.492 65.8597 156.756 66.17 156.873 66.7287Z" fill="#01342A"/>
<path id="Vector_28" d="M154.148 75.6424C155 73.0602 155.168 69.5717 153.903 67.1136C153.774 66.8653 153.386 66.9397 153.309 67.188C152.909 68.4419 152.766 69.733 152.405 70.9993C152.03 72.3153 151.424 73.5195 150.907 74.7858C150.119 76.6853 153.49 77.6536 154.148 75.6424Z" fill="#01342A"/>
<path id="Vector_29" d="M147.718 75.3071C148.854 72.9483 149.68 70.006 148.893 67.4486C148.725 66.89 148.015 66.9769 147.808 67.4486C146.865 69.6088 146.181 71.6944 144.825 73.6932C143.637 75.4561 146.814 77.1817 147.718 75.3195L147.718 75.3071Z" fill="#01342A"/>
<path id="Vector_30" d="M142.746 65.7606C141.016 67.598 139.815 69.8947 138.111 71.7817C136.445 73.6191 139.415 75.8661 140.874 73.8301C142.475 71.5955 143.896 68.6781 143.289 65.8972C143.237 65.6737 142.901 65.5868 142.746 65.7606Z" fill="#01342A"/>
<path id="Vector_31" d="M136.187 63.4511C134.909 65.4126 133.269 67.0886 131.267 68.3797C128.672 70.0433 132.003 73.4821 133.708 71.4089C135.528 69.1991 136.871 66.7658 137.594 64.0098C137.814 63.1904 136.665 62.7311 136.2 63.4387L136.187 63.4511Z" fill="#01342A"/>
<path id="Vector_32" d="M164.039 56.1513C163.574 54.2271 161.908 53.0353 161.792 50.9124C161.65 48.1191 163.471 45.4996 165.743 43.9229C165.795 43.8857 165.743 43.8112 165.692 43.836C162.761 45.3382 160.178 47.3369 159.39 50.602C158.784 53.1346 159.223 57.07 162.257 57.8646C163.355 58.1501 164.284 57.1693 164.039 56.1513Z" fill="#01342A"/>
<path id="Vector_33" d="M186.455 42.992C185.796 42.1478 185.28 41.403 184.324 40.8195C183.291 40.1863 182.142 39.8263 180.941 39.7146C178.798 39.5408 178.966 43.1658 181.355 42.6817C182.969 42.3589 184.88 42.2596 186.377 43.0541C186.416 43.0789 186.481 43.0293 186.442 42.992L186.455 42.992Z" fill="#01342A"/>
<path id="Vector_34" d="M181.38 30.7635C177.7 32.005 173.233 33.0602 169.436 31.9181C169.372 31.8933 169.359 31.9926 169.411 32.005C174.963 34.2396 183.666 33.8424 188.418 29.9814C188.831 29.6462 188.947 29.0131 188.818 28.5413C188.766 28.3675 188.715 28.1813 188.676 28.0075C188.585 27.6971 188.276 27.4985 187.953 27.4736C187.191 27.4364 186.881 27.5481 186.235 27.8833C184.466 28.8268 183.459 30.0559 181.38 30.7511L181.38 30.7635Z" fill="#01342A"/>
<path id="Vector_35" d="M121.88 12.0051C121.17 10.9126 120.653 9.69599 120.021 8.55384C119.388 7.42411 118.665 6.29438 118.148 5.11499C117.619 3.92318 115.773 3.89835 114.92 4.71772C114.004 5.59916 114.184 7.20065 115.333 7.82138C116.405 8.40487 117.387 9.14975 118.381 9.82014C119.504 10.5774 120.744 11.2354 121.803 12.0548C121.841 12.092 121.919 12.0548 121.88 11.9927L121.88 12.0051Z" fill="#01342A"/>
<path id="Vector_36" d="M121.221 4.09672C122.087 6.46791 122.836 9.05016 123.404 11.4958C123.404 11.5455 123.494 11.5455 123.494 11.4958C123.907 9.06258 124.488 6.46791 125.186 4.09672C126.18 0.757175 120.111 1.06754 121.221 4.09672Z" fill="#01342A"/>
<path id="Vector_37" d="M131.397 4.29543C130.196 3.40158 128.646 4.03472 128.168 5.32585C127.742 6.46799 127.11 7.56048 126.58 8.66539C126.038 9.7827 125.612 10.9621 125.005 12.0422C124.979 12.0918 125.044 12.1415 125.082 12.1042C126.038 11.2849 127.148 10.6021 128.143 9.84478C129.137 9.08748 130.118 8.24329 131.19 7.5729C132.391 6.8156 132.572 5.18928 131.397 4.30784L131.397 4.29543Z" fill="#01342A"/>
<path id="Vector_38" d="M132.907 10.1798C130.686 11.3716 128.22 12.5137 125.87 13.4448C125.818 13.4697 125.818 13.5441 125.883 13.5441C128.517 13.5069 131.332 13.6186 133.953 13.8669C137.155 14.1773 136.135 8.44173 132.92 10.1798L132.907 10.1798Z" fill="#01342A"/>
<path id="Vector_39" d="M133.372 16.9582C132.055 16.7347 130.764 16.3375 129.485 16.0023C128.194 15.6671 126.864 15.456 125.586 15.0588C125.534 15.0463 125.496 15.1084 125.534 15.1332C126.567 15.9154 127.458 16.8589 128.44 17.7031C129.421 18.5349 130.454 19.3418 131.358 20.2605C133.837 22.7807 136.613 17.5169 133.359 16.9582L133.372 16.9582Z" fill="#01342A"/>
<path id="Vector_40" d="M124.204 16.1637C124.682 18.5225 125.069 21.1172 125.237 23.5132C125.483 27.0886 131.216 24.9905 128.749 22.1103C127.174 20.273 125.612 18.1376 124.295 16.1265C124.269 16.0768 124.191 16.1141 124.204 16.1637Z" fill="#01342A"/>
<path id="Vector_41" d="M122.022 23.65C122.035 21.2167 122.255 18.56 122.603 16.1515C122.603 16.1019 122.539 16.0646 122.513 16.1143C121.247 18.3117 119.737 20.6332 118.187 22.6568C116.276 25.177 121.996 27.1881 122.022 23.65Z" fill="#01342A"/>
<path id="Vector_42" d="M113.706 17.3183C110.233 18.1128 113.552 23.0787 115.708 20.6206C116.56 19.6398 117.567 18.7708 118.51 17.8646C119.452 16.9583 120.305 15.9527 121.299 15.0961C121.338 15.0713 121.299 14.9968 121.247 15.0216C120.021 15.4809 118.729 15.7665 117.477 16.1637C116.224 16.561 114.985 17.0204 113.706 17.3183Z" fill="#01342A"/>
<path id="Vector_43" d="M113.371 14.2023C115.824 13.8175 118.497 13.594 120.976 13.4947C121.028 13.4947 121.041 13.4202 120.989 13.3954C118.626 12.6008 116.108 11.6325 113.861 10.5897C110.491 9.02543 109.549 14.7982 113.371 14.2023Z" fill="#01342A"/>
<path id="Vector_44" d="M46.2781 2.64431C43.5665 6.30663 45.1289 11.3718 48.4474 14.1403C56.2723 20.6456 62.9867 13.9913 69.1589 8.13159C68.1388 11.2352 68.7457 14.8479 71.5089 17.6164C72.232 18.3488 73.3425 18.5847 74.3497 18.3364C74.6596 18.2619 74.9695 18.1875 75.2793 18.113C76.2865 17.8647 77.0225 16.7101 76.6868 15.7418C75.4343 12.1663 70.7858 8.85164 76.067 5.57417C80.6896 2.70638 88.5145 6.00868 92.6078 8.25573C97.7469 11.0739 103.17 18.1254 109.743 16.2632C109.794 16.2508 109.781 16.1763 109.73 16.1639C102.809 15.779 97.9922 8.7399 92.3495 5.49968C87.9593 2.97951 82.6911 1.16697 77.5132 1.67597C74.6595 1.94909 72.387 3.27746 70.8504 5.10241C67.08 7.65983 63.7098 10.8132 59.268 12.1663C56.6984 12.9485 54.1676 12.8243 52.0629 11.1111C51.0815 10.478 50.4101 9.5841 50.0485 8.42954C50.9137 5.62383 51.9725 4.81687 53.225 6.02109C54.4775 5.88453 55.4072 6.97702 56.5047 5.61141C57.3699 4.54375 57.6798 2.95468 56.5047 1.92426C53.4316 -0.744889 48.796 -0.757304 46.2652 2.64431L46.2781 2.64431Z" fill="#01342A"/>
<path id="Vector_45" d="M180.128 7.08852C176.035 2.06059 168.804 1.01776 164.091 6.09535C157.337 13.3703 160.359 25.7477 163.652 34.9346C173.207 38.1003 186.08 41.0053 193.647 34.5125C198.928 29.9811 197.857 23.0413 192.614 19.0935C193.169 18.361 193.686 17.6037 194.151 16.8216C196.539 12.762 199.716 6.2195 198.541 1.40261C193.544 0.272881 186.726 3.31447 182.504 5.61118C181.69 6.05811 180.903 6.55469 180.128 7.08852ZM189.27 23.6993C192.769 26.0333 191.749 29.9936 188.689 32.1537C182.233 36.7099 172.51 35.8284 164.362 34.2766C162.735 26.443 161.831 17.0947 166.57 10.8874C168.817 7.94513 172.936 6.95196 175.363 10.3287C175.505 10.5274 175.66 10.7012 175.828 10.8502C174.73 12.0544 173.749 13.3455 172.923 14.7235C170.34 18.9942 169.036 24.2207 169.682 29.1742C174.834 29.7949 180.283 28.541 184.712 26.0581C186.145 25.2636 187.488 24.3201 188.74 23.2648C188.895 23.4262 189.076 23.5752 189.283 23.7117L189.27 23.6993ZM193.066 7.36165C192.485 9.90665 191.684 12.4144 190.496 14.7608C188.727 18.2617 186.39 21.4523 183.175 23.8483C179.586 26.5174 174.976 28.2307 170.366 28.5038C170.65 24.0593 172.419 19.6397 175.208 16.1885C177.7 13.0972 181.019 10.8502 184.66 9.14935C187.101 8.00721 189.709 7.2375 192.356 6.67884C192.653 6.61677 192.95 6.56711 193.247 6.51745C193.195 6.80299 193.144 7.08852 193.079 7.37406L193.066 7.36165Z" fill="#01342A"/>
<path id="Vector_46" d="M138.343 8.93843C140.229 10.4778 140.848 12.7746 140.616 15.0837C140.409 17.1942 144.18 17.2438 144.076 15.0837C143.934 11.9304 141.701 9.41019 138.485 8.71497C138.356 8.69014 138.24 8.85153 138.343 8.93843Z" fill="#01342A"/>
<path id="Vector_47" d="M148.841 13.9168C147.821 11.6076 146.155 10.2793 143.87 9.16195C143.818 9.13712 143.766 9.1992 143.805 9.23644C146.026 10.9497 147.666 15.1582 146.284 17.8398C145.51 18.5226 145.368 19.7765 146.53 20.4593C146.581 20.4965 146.646 20.5214 146.698 20.5586C147.201 20.8566 148.002 20.9062 148.492 20.5586C150.494 19.1682 149.655 15.7914 148.828 13.9168L148.841 13.9168Z" fill="#01342A"/>
<path id="Vector_48" d="M145.471 2.78066C144.774 3.36415 143.986 3.76142 143.095 3.9973C142.837 4.07179 142.824 4.45664 143.095 4.51871C145.174 4.95323 148.221 4.51871 149.409 2.60686C150.287 1.204 148.325 -0.11195 147.137 0.918466C146.504 1.46471 146.142 2.222 145.484 2.78066L145.471 2.78066Z" fill="#01342A"/>
<path id="Vector_49" d="M149.629 6.57973C152.805 7.75912 155.943 7.37427 158.693 5.43758C160.824 3.94782 158.164 1.11728 156.601 2.83051C154.858 4.72995 152.263 6.15763 149.642 6.49283C149.59 6.49283 149.577 6.56732 149.642 6.57973L149.629 6.57973Z" fill="#01342A"/>
<path id="Vector_50" d="M153.58 9.52196C153.477 9.54679 153.451 9.68335 153.515 9.74542C154.678 10.8752 156.911 11.3717 158.461 11.7194C161.134 12.3153 160.759 8.10669 158.461 8.86398C157.596 9.14952 156.744 9.36057 155.827 9.43506C155.078 9.49713 154.303 9.39781 153.567 9.53437L153.58 9.52196Z" fill="#01342A"/>
<path id="Vector_51" d="M108.968 14.8974C109.045 14.9595 109.174 14.885 109.11 14.7856C107.922 12.9483 107.599 11.1233 108.09 9.02525C108.671 6.55473 104.461 6.55473 105.029 9.02525C105.559 11.3095 107.057 13.4573 108.968 14.8974Z" fill="#01342A"/>
<path id="Vector_52" d="M103.583 12.1785C103.583 12.1785 103.686 12.1785 103.661 12.1289C102.86 10.7136 102.279 9.21144 102.034 7.62237C101.84 6.34366 102.266 5.01529 101.001 4.22075C100.652 3.99729 100.097 4.07178 99.8128 4.36973C99.7482 4.44422 99.6836 4.50629 99.6062 4.58078C99.2963 4.90356 99.1026 5.40014 99.2575 5.84707C100.136 8.31759 101.556 10.4529 103.583 12.191L103.583 12.1785Z" fill="#01342A"/>
<path id="Vector_53" d="M93.2274 3.948C94.015 4.27078 94.7252 4.73012 95.3838 5.26395C96.0423 5.79778 96.7654 6.21988 97.3723 6.81578C97.4368 6.87786 97.5401 6.81579 97.5272 6.72888C97.3464 5.79778 97.0753 4.81703 96.4555 4.05973C95.784 3.24037 94.9835 2.56998 94.0796 1.97407C92.7884 1.12988 91.6521 3.31485 93.2145 3.948L93.2274 3.948Z" fill="#01342A"/>
<path id="Vector_54" d="M100.859 19.5159C99.9418 20.0373 99.9806 21.7257 101.181 21.8995C102.731 22.1106 104.113 21.4154 105.481 20.7698C106.94 20.0746 108.051 19.2676 109.174 18.1379C109.342 17.9765 109.174 17.7158 108.942 17.7655C107.573 18.0758 106.204 18.3738 104.836 18.6717C103.506 18.9573 102.034 18.858 100.846 19.5283L100.859 19.5159Z" fill="#01342A"/>
<path id="Vector_55" d="M102.047 16.201C100.458 16.2383 98.8961 16.1141 97.3466 15.7417C96.0425 15.4313 94.9449 14.7485 93.7053 15.4934C93.2276 15.7789 92.9435 16.4866 93.305 16.9708C94.3122 18.3115 95.7713 18.0384 97.3466 17.815C99.0123 17.5791 100.588 17.0949 102.124 16.4493C102.253 16.3997 102.189 16.201 102.06 16.201L102.047 16.201Z" fill="#01342A"/>
<path id="Vector_56" d="M97.0494 13.023C95.4999 12.4271 93.8988 11.943 92.3752 11.2726C91.0968 10.7139 90.0251 9.89455 88.5918 9.82006C87.4814 9.7704 86.8099 11.2602 87.6621 11.9802C88.8888 13.023 90.5545 13.0851 92.1298 13.2465C93.7955 13.4079 95.4096 13.4203 97.0494 13.1099C97.1011 13.1099 97.0882 13.0355 97.0494 13.023Z" fill="#01342A"/>
<path id="Vector_57" d="M87.5848 7.64747C85.2735 6.20737 82.5877 5.64871 80.0698 7.06398C78.2104 8.11922 80.3797 10.7263 81.8388 9.27379C83.285 7.83369 85.4543 6.86535 87.5332 7.73437C87.5848 7.7592 87.6365 7.68471 87.5848 7.64747Z" fill="#01342A"/>
<path id="Vector_58" d="M124.101 15.2329C124.178 15.2205 124.256 15.2081 124.333 15.1957C125.676 14.9474 125.676 12.8369 124.333 12.601C124.256 12.5886 124.178 12.5762 124.101 12.5638C123.184 12.4024 122.267 12.961 122.267 13.9045C122.267 14.848 123.184 15.4191 124.101 15.2453L124.101 15.2329Z" fill="#01342A"/>
<path id="Vector_59" d="M67.5834 12.5884C67.6093 12.2283 67.1057 12.0669 66.8603 12.3028C65.7886 13.3208 64.8331 14.4754 64.11 15.7541C63.2836 17.2314 63.2061 18.8329 63.2578 20.4965C63.374 24.134 69.12 23.4015 68.3582 19.8385C68.0999 18.6343 68.087 17.4301 67.803 16.2258C67.5189 15.0216 67.4801 13.8174 67.5834 12.6008L67.5834 12.5884Z" fill="#01342A"/>
<path id="Vector_60" d="M122.991 35.4688C125.947 36.884 129.137 37.84 132.223 38.9821C132.649 39.1435 133.023 38.5104 132.675 38.2248C130.144 36.1764 127.742 33.9418 125.018 32.1292C122.887 30.7016 120.666 34.3515 122.991 35.4688Z" fill="#01342A"/>
<path id="Vector_61" d="M130.996 40.5585C128.569 39.0564 125.366 37.4797 122.397 37.6659C120.176 37.8025 120.292 40.633 122.397 40.9061C123.688 41.0675 125.044 40.8813 126.348 40.9682C127.781 41.0551 129.188 41.1917 130.596 41.4648C131.164 41.5765 131.487 40.8689 130.996 40.5585Z" fill="#01342A"/>
<path id="Vector_62" d="M122.216 47.2004C123.533 46.6914 124.785 46.1079 126.154 45.7603C127.471 45.4127 128.814 45.2761 130.118 44.8912C130.376 44.8168 130.467 44.4443 130.196 44.3202C127.626 43.1035 124.011 43.2649 121.312 44.0843C119.22 44.7299 120.227 47.9701 122.203 47.2004L122.216 47.2004Z" fill="#01342A"/>
<path id="Vector_63" d="M123.365 53.0478C125.444 51.7442 127.6 51.0987 129.86 50.18C130.351 49.9813 130.441 49.2985 129.86 49.1372C127.187 48.3799 124.127 49.1744 121.686 50.2669C119.749 51.1235 121.544 54.1899 123.378 53.0478L123.365 53.0478Z" fill="#01342A"/>
<path id="Vector_64" d="M125.341 59.5036C127.303 57.8649 129.679 56.7103 131.603 55.0468C131.784 54.8978 131.694 54.575 131.461 54.5254C128.569 53.9419 125.534 55.3075 123.21 56.8469C121.092 58.2498 123.442 61.1051 125.341 59.5036Z" fill="#01342A"/>
<path id="Vector_65" d="M133.411 60.0126C130.557 60.7079 128.026 61.999 125.715 63.7494C123.572 65.3882 127.148 68.5787 128.866 66.0958C130.209 64.1715 131.952 62.5949 133.992 61.3658C134.728 60.9189 134.25 59.814 133.398 60.025L133.411 60.0126Z" fill="#01342A"/>
<path id="Vector_66" d="M139.815 36.288C140.642 39.1931 144.748 39.6276 147.369 39.0441C150.765 38.2868 152.844 35.8039 154.406 32.9858C154.432 32.9361 154.355 32.8864 154.316 32.9361C152.676 35.1211 149.939 36.8715 147.046 36.735C144.838 36.6357 143.586 35.0218 141.597 34.5748C140.538 34.339 139.518 35.2328 139.815 36.288Z" fill="#01342A"/>
<path id="Vector_67" d="M155.594 17.9266C155.091 20.2233 158.874 20.3847 158.68 18.3239C158.577 17.1569 158.19 16.052 157.531 15.0712C156.924 14.1525 156.149 13.6559 155.271 13.0228C155.233 12.998 155.181 13.0476 155.207 13.0849C156.033 14.525 155.93 16.3748 155.594 17.9142L155.594 17.9266Z" fill="#01342A"/>
<path id="Vector_68" d="M168.003 17.9021C168.726 15.9033 170.017 14.935 170.986 13.2342C171.334 12.6259 171.451 12.3155 171.412 11.583C171.399 11.2727 171.192 10.9747 170.857 10.8878C170.676 10.8382 170.482 10.7885 170.301 10.7513C169.798 10.6271 169.152 10.7388 168.804 11.1361C164.801 15.6923 164.388 24.0598 166.699 29.4105C166.725 29.4601 166.815 29.4477 166.789 29.3856C165.601 25.7357 166.699 21.4527 167.99 17.9021L168.003 17.9021Z" fill="#01342A"/>
<path id="Vector_69" d="M6.85571e-05 10.2916L39.4087 10.2916C40.1189 10.2916 40.687 9.74535 40.687 9.06255C40.687 8.37974 40.1189 7.8335 39.4087 7.8335L6.86646e-05 7.83349L6.85566e-05 10.304L6.85571e-05 10.2916Z" fill="#01342A"/>
<path id="Vector_70" d="M193.221 200L193.221 154.873C193.221 154.19 192.653 153.644 191.943 153.644C191.232 153.644 190.664 154.19 190.664 154.873L190.664 200L193.234 200L193.221 200Z" fill="#01342A"/>
</g>
<defs>
<clipPath id="clip0_436_6408">
<rect width="200" height="200" fill="white" transform="translate(200) rotate(90)"/>
</clipPath>
</defs>
</svg>
