<svg width="683" height="684" viewBox="0 0 683 684" fill="none" xmlns="http://www.w3.org/2000/svg">
<path d="M112.068 683.331L103.062 674.325C108.849 668.537 111.797 663.804 111.906 660.126C111.96 656.394 109.309 651.85 103.954 646.495L38.8004 581.341C33.6076 576.148 29.1721 573.498 25.4938 573.39C21.8156 573.281 16.9744 576.229 10.9702 582.234L2.04502 573.308L14.7836 559.596C27.5493 545.749 37.7186 535.039 45.2914 527.466C57.9489 514.808 68.9566 505.261 78.3145 498.824C87.7265 492.333 98.4367 488.06 110.445 486.004C122.453 483.841 134.3 484.814 145.983 488.925C157.667 492.928 168.242 499.662 177.708 509.129C187.391 518.811 194.017 529.494 197.587 541.178C201.211 552.808 201.887 564.302 199.615 575.661C197.344 587.021 193.097 596.893 186.877 605.277C180.656 613.661 168.918 626.481 151.663 643.736L112.068 683.331ZM53.8109 538.744L129.594 614.526C134.462 619.395 137.951 622.451 140.06 623.695C142.224 624.885 144.874 625.101 148.012 624.344C151.203 623.533 154.854 621.072 158.965 616.961C169.135 606.791 173.002 595.459 170.568 582.964C168.188 570.415 159.56 556.702 144.685 541.827C132.677 529.819 121.263 522.138 110.445 518.784C99.5726 515.376 89.8901 515.376 81.3977 518.784C72.9053 522.192 63.7097 528.845 53.8109 538.744ZM239.454 458.904L265.499 484.949C270.53 489.98 274.911 492.631 278.644 492.901C282.322 493.117 286.838 490.548 292.194 485.193L294.141 483.246L303.147 492.252L243.835 551.564L234.829 542.557L237.02 540.367C242.537 534.849 245.107 530.278 244.728 526.654C244.349 522.922 241.699 518.595 236.776 513.672L171.704 448.6C166.673 443.569 162.319 440.946 158.641 440.729C154.909 440.459 150.365 443.001 145.01 448.356L142.819 450.547L133.813 441.541L177.87 397.321L187.688 387.341C197.479 377.55 204.943 370.735 210.082 366.894C215.275 362.999 221.306 360.106 228.176 358.212C234.991 356.265 241.78 356.184 248.541 357.969C255.357 359.7 261.226 363.027 266.148 367.949C279.239 381.039 280.78 397.402 270.773 417.037C277.21 415.577 291.139 417.227 312.559 421.987C329.165 425.611 339.903 427.098 344.771 426.449C349.585 425.746 353.642 423.745 356.941 420.445L365.948 429.451L331.545 463.854C324.676 463.259 309.395 459.607 285.703 452.9C273.748 449.492 265.797 447.545 261.848 447.058C257.899 446.571 254.708 446.95 252.274 448.194C249.84 449.33 245.566 452.9 239.454 458.904ZM229.555 449.005C238.805 439.972 244.43 433.265 246.432 428.883C248.379 424.448 248.704 419.742 247.406 414.765C246.053 409.735 242.673 404.515 237.263 399.106C229.528 391.371 222.334 387.855 215.681 388.558C209.081 389.207 201.319 393.994 192.394 402.919C191.258 404.055 189.798 405.57 188.013 407.463L229.555 449.005ZM361.404 374.602L364.731 382.148C367.057 387.503 369.004 390.965 370.573 392.534C373.223 395.184 375.982 396.158 378.849 395.455C381.661 394.697 385.096 392.29 389.153 388.233L398.159 397.24L361.81 433.589L352.803 424.583C359.727 417.659 359.646 405.948 352.56 389.45L301.119 270.34L310.612 260.847L430.29 311.558C442.136 316.589 450.304 318.59 454.794 317.562C459.229 316.48 462.718 314.668 465.26 312.126L474.267 321.132L419.661 375.738L410.655 366.732C415.577 361.809 418.173 358.293 418.444 356.184C418.66 354.02 418.038 352.208 416.578 350.748C415.28 349.449 413.089 348.232 410.006 347.096L406.436 345.636L395.239 340.768L361.404 374.602ZM355.562 361.782L382.256 335.088L335.683 315.94L355.562 361.782ZM466.072 224.335L496.093 254.356C501.123 259.387 505.505 262.037 509.237 262.308C512.915 262.524 517.486 259.9 522.949 254.437L525.221 252.165L534.227 261.172L474.997 320.402L465.991 311.396L467.613 309.773C473.077 304.31 475.619 299.766 475.24 296.142C474.862 292.41 472.211 288.082 467.289 283.16L402.054 217.925C397.024 212.895 392.669 210.271 388.991 210.055C385.313 209.73 380.796 212.246 375.441 217.601L373.494 219.548L364.65 210.704L456.903 118.45L486.762 146.849L477.593 156.017C471.265 152.393 465.504 150.094 460.311 149.12C455.118 148.147 450.926 148.336 447.735 149.688C444.543 151.041 440.622 154.043 435.97 158.695L418.2 176.464L456.173 214.436L464.855 205.755C468.966 201.644 470.94 197.938 470.778 194.639C470.615 191.231 467.992 186.606 462.907 180.764L471.995 171.677L509.805 209.487L500.718 218.574C494.551 212.949 489.737 210.028 486.275 209.811C482.759 209.541 478.864 211.542 474.591 215.816L466.072 224.335ZM512.483 82.5063L503.233 91.756C497.715 97.2734 494.254 101.925 492.847 105.712C491.441 109.498 491.63 114.069 493.415 119.424C495.2 124.671 498.338 129.918 502.827 135.165L493.659 144.333L462.339 113.014L572.443 2.91018L603.762 34.2293L594.594 43.3979C584.425 36.6905 576.311 33.445 570.253 33.6614C564.14 33.8237 557.649 37.3396 550.78 44.2093L541.286 53.7024L619.016 131.432C624.047 136.463 628.401 139.14 632.08 139.465C635.758 139.681 640.329 137.058 645.792 131.595L648.632 128.755L657.638 137.761L596.866 198.533L587.859 189.527L590.456 186.931C595.973 181.413 598.543 176.842 598.164 173.218C597.785 169.486 595.135 165.159 590.212 160.236L512.483 82.5063Z" fill="black" fill-opacity="0.05"/>
</svg>
